<?xml version="1.0" encoding="utf-8"?>
<!-- Generator: Adobe Illustrator 19.0.0, SVG Export Plug-In . SVG Version: 6.00 Build 0)  -->
<svg version="1.1" id="レイヤー_1" xmlns="http://www.w3.org/2000/svg" xmlns:xlink="http://www.w3.org/1999/xlink" x="0px"
	 y="0px" viewBox="0 0 30.5 30.5" style="enable-background:new 0 0 30.5 30.5;" xml:space="preserve" width="100px" height="100px">
<style type="text/css">
	.st0{fill:#E5E5E4;}
</style>
<g id="XMLID_6304_">
	<path id="XMLID_6306_" class="st0" d="M10.6,16c-0.1-0.4-0.2-0.8-0.4-1.1l-0.7,0.5c0.2,0.3,0.3,0.7,0.3,1L10.6,16z M0.5,2.1l1,0
		c-0.3-0.2-0.6-0.6-0.7-1c-0.2-0.6,0.8-0.5,1-0.3C2,1.1,2.2,2,2.3,2.4c0.2,0.5,0.9,0.7,1.6,1c0.1,0,0.1,0.1,0.2,0.1
		c-0.8,0.2-1.5,0.5-2,1C2.1,4.4,1.9,4.2,1.9,4l-1,0C1,4.3,1.3,4.6,1.5,4.9L2,4.8C1.9,4.9,1.8,5.1,1.7,5.2l-0.1,0c0,0-1,1.3-1.4,2
		C-0.1,8,0.5,8.7,0.8,9.9c0.3,1.1-0.2,2.5-0.2,2.6c-0.1,0-0.2,0.1-0.2,0.1c0,0,0,0.1-0.1,0.1c0,0.2,0.1,0.4,0.2,0.6
		c0.1,0.3,0.2,0.6,0.3,0.8c0,0.5-0.4,2.5-0.5,3c-0.1,0.5,0.1,1.8,0.1,1.8c0,0.1,0.1,0.1,0.1,0.1c0,0,0,0,0,0c0,0,0,0,0,0
		c0,0,0,0,0,0s0,0,0,0c0,0,0,0,0,0c0.1,0,0.2-0.2,0.3-0.4c0.1-0.3,0.4-0.4,0.3-0.1c0,0.3,0.1,0.9,0.1,1c0,0.1,0,0.3,0.2,0.2
		c0,0,1-0.6,1.5-0.6c0.5,0,0.7,0.1,1.4,0.5c0.7,0.3,0.7,0.2,1.1-0.4c0.4-0.6,0.8-0.6,1.2-0.6c0.3,0,1.3,0.8,2.4,1
		c1.1,0.1,2.4-0.9,2.8-1.8c0.4-0.9,0.4-1.6,0-2.3c-0.4-0.7-1-0.8-1.1-1c-0.1-0.1,0.8-1.2,1.6-0.7c0.8,0.4,0.7,1.8,0.7,1.8
		s0.7-0.5,1.2-0.6c0.5-0.1,0.9-0.1,1-0.1c0,0,0.1,0.5-0.1,1c-0.2,0.5-0.6,1.2-0.6,1.2s1.3-0.2,1.8,0.7c0.4,0.8-0.6,1.7-0.7,1.6
		c-0.1-0.1-0.2-0.7-1-1.1c-0.7-0.4-1.5-0.4-2.3,0c-0.9,0.4-1.9,1.7-1.8,2.8c0.1,1.1,0.9,2.1,1,2.4c0,0.3,0,0.8-0.6,1.2
		c-0.6,0.4-0.7,0.4-0.4,1.1c0.3,0.7,0.5,1,0.5,1.4c0,0.5-0.6,1.5-0.6,1.5c0,0.2,0.1,0.2,0.2,0.2c0.1,0,0.7,0.1,1,0.1
		c0.3,0,0.2,0.3-0.1,0.3c-0.3,0.1-0.5,0.1-0.4,0.3c0,0,0,0,0,0c0,0,0,0,0,0s0,0,0,0c0,0,0,0,0,0c0,0,0,0,0,0c0,0.1,0.1,0.1,0.1,0.1
		c0,0,1.3,0.1,1.8,0.1c0.5-0.1,2.4-0.5,3-0.5c0.3,0,0.6,0.1,0.8,0.3c0.3,0.1,0.4,0.2,0.7,0.2c0,0,0.1,0,0.1-0.1c0,0,0.1-0.1,0.1-0.2
		c0.2-0.1,1.6-0.5,2.6-0.2c1.2,0.3,1.9,0.9,2.7,0.6c0.7-0.3,2-1.4,2-1.4l0-0.1c0.1-0.1,0.3-0.2,0.4-0.3L25.6,29
		c0.2,0.2,0.5,0.4,0.9,0.6l0-1c-0.2-0.1-0.4-0.2-0.6-0.4c0.5-0.5,0.8-1.1,1-2c0,0.1,0.1,0.2,0.1,0.2c0.4,0.7,0.6,1.4,1,1.6
		c0.5,0.2,1.3,0.4,1.5,0.6c0.2,0.2,0.3,1.2-0.3,1c-0.4-0.1-0.7-0.5-1-0.7l0,1c2.7,0.1,2.1-0.1,2.1-0.1s-0.1-1.6,0-2
		c0-0.4-0.4,0.1-0.9,0c-0.5,0-1.7-0.3-2.2-1.3c-0.2-0.4-0.3-0.7-0.4-1c0-0.4-0.1-0.9-0.2-1.2c0,0,0,0,0.1,0c0.3-0.3,0.3-0.7,0-1
		c-0.2-0.2-0.5-0.3-0.8-0.1c0,0,0,0,0-0.1l0,0c-0.9-0.9-2.3-1.3-3.8-0.9l0.1,0.2c0,0-0.1-0.1-0.1-0.1c-1.2-0.6-2.5-0.3-3.7,0.5
		c-0.1-0.2-0.2-0.3-0.3-0.5L17.2,23c0.1,0.2,0.2,0.4,0.2,0.6c0,0,0,0,0,0c-0.8,0.8-1.2,1.9-1.7,2.9c0-0.6-0.1-1.8-0.4-2.7
		c-0.4-1.1-1.3-1.5-1.7-1.4c-0.4,0.1-0.6,0.1-0.9,0.7c-0.4,0.5,0.4-0.1,1.1-0.1c0.7,0,1.2,0.5,1.5,1.5c0.2,0.9,0,2.5-0.1,2.9
		c-0.2,0.3-0.3,0.5-0.5,0.8c-0.3,0.3-0.6,0.6-1,0.8c-0.2,0.1-0.5,0.1-0.6,0.1c-0.3-0.1-0.3-0.1-0.1-0.3c0.1,0,0.1-0.1,0.2-0.1
		c1-0.5,2.4-1.8,1.6-3c-0.8-1.2-1.9-0.7-2.2-0.3c-0.3,0.4,0.6-0.1,0.9,0.5c0.3,0.6,0.5,1.4,0.3,1.9c-0.2,0.3-0.7,0.9-1.2,1.1
		c-0.4,0.1-1.1,0.1-1.2,0c0,0,0.6-0.8,0.6-1.7c0-0.9-0.5-2.1-0.5-2.1s0.8-1.1,1-1.6c0.2-0.5-0.6-0.3-0.8-1.6
		c-0.1-0.4-0.1-0.9,0.1-1.5c0.2,0,0.5-0.1,0.9-0.1l0.3-0.8c-0.4,0-0.7,0-0.8,0c0.4-0.6,0.9-1.1,1.7-1.2c1.7-0.3,2,1.5,2,1.5
		s0.9,0.2,1.5-0.7c1.2-1.7-1.4-2.4-1.4-2.4s0.3-0.7,0.6-1.3c0.3-0.6,0.4-1.8,0.4-1.8l0,0c0,0-1.2,0.1-1.8,0.4
		c-0.6,0.3-1.3,0.6-1.3,0.6s-0.7-2.6-2.4-1.4c-0.9,0.6-0.7,1.5-0.7,1.5s1.7,0.3,1.5,2c-0.1,0.8-0.6,1.4-1.2,1.7c0-0.1,0-0.4,0-0.8
		L10.1,18c0,0.4,0,0.7-0.1,0.9C9.5,19,9,19,8.6,18.9c-1.3-0.3-1.1-1.1-1.6-0.8c-0.5,0.2-1.6,1-1.6,1s-1.2-0.5-2.1-0.5
		c-0.9,0-1.7,0.6-1.7,0.6c-0.2-0.1-0.1-0.8,0-1.2c0.2-0.5,0.8-1,1.1-1.2c0.4-0.3,1.2-0.1,1.9,0.3c0.6,0.3,0.2,1.2,0.5,0.9
		c0.4-0.3,0.9-1.5-0.3-2.2c-1.2-0.8-2.5,0.6-3,1.6c0,0-0.1,0.1-0.1,0.2c-0.2,0.2-0.2,0.2-0.3-0.1c0-0.1,0-0.4,0.1-0.7
		c0.2-0.4,0.5-0.7,0.8-1c0.2-0.2,0.5-0.4,0.8-0.5c0.4-0.1,2.1-0.3,2.9-0.1c1,0.3,1.5,0.8,1.5,1.5c0,0.7-0.7,1.4-0.1,1.1
		C8,17.4,8,17.3,8.1,16.8c0.1-0.4-0.3-1.3-1.4-1.7c-0.9-0.3-2.2-0.4-2.7-0.4c1-0.5,2-0.9,2.9-1.7c0,0,0,0,0,0
		c0.2,0.1,0.4,0.2,0.6,0.2l0.7-0.9c-0.2-0.1-0.3-0.2-0.5-0.3C8.5,11,8.8,9.6,8.2,8.4c0,0-0.1-0.1-0.1-0.1l0.2,0.1
		c0.4-1.5,0-2.9-0.9-3.8l0,0c0,0,0,0-0.1,0c0.1-0.3,0.1-0.6-0.1-0.8c-0.3-0.3-0.7-0.3-1,0c0,0,0,0,0,0.1C5.8,3.6,5.3,3.5,4.9,3.5
		c-0.3-0.1-0.7-0.2-1-0.4C2.9,2.7,2.6,1.4,2.6,1c0-0.5,0.4-0.9,0-0.9c-0.4,0-2,0-2,0S0.4-0.5,0.5,2.1z M14.7,28.9l2.9,0
		c0.1,0.1,0.1,0.2,0.2,0.3h-3.3C14.6,29.1,14.6,29,14.7,28.9z M15,28.6c0.5-0.3,1.1-0.5,1.8-0.3c0.2,0.1,0.4,0.2,0.5,0.2L15,28.6z
		 M14.5,29.6c-0.1,0-0.3-0.1-0.2-0.2c0,0,0,0,0,0h1.9C15.8,29.4,15.1,29.5,14.5,29.6z M17.2,29.7c-0.3-0.1-0.6-0.3-0.9-0.3h1.4
		l0-0.2c0,0.1,0,0.2,0,0.2c0,0.2-0.1,0.4-0.1,0.4C17.6,29.9,17.4,29.8,17.2,29.7z M18.3,29.5C18.3,29.5,18.3,29.5,18.3,29.5
		C18.3,29.5,18.3,29.5,18.3,29.5C18.3,29.5,18.3,29.5,18.3,29.5z M20.2,29.3c-0.3,0-0.5,0-0.8,0c-0.1,0-0.2,0-0.1-0.2l0,0.1
		c0,0,0.7-0.2,1-0.2c0.3,0,1-0.2,1.4-0.2c0.1,0,0.2,0.1,0.3,0.1c-0.3,0-0.8,0.1-1,0.2C20.7,29.2,20.2,29.3,20.2,29.3L20.2,29.3z
		 M19.5,28.9c0.2-0.2,0.6-0.4,1-0.4c0.3,0,0.5,0,0.8,0.1c-0.3,0.1-0.7,0.1-0.9,0.1C20.1,28.8,19.7,28.9,19.5,28.9z M20.8,29.4
		c0.1,0,0.2-0.1,0.4-0.1c0.4-0.1,1.4-0.2,1.4-0.2v0c0.2,0.1,0.3,0.1,0.3,0.1s-0.7,0.3-0.8,0.4c-0.1,0-0.3,0-0.5,0.1
		C21.3,29.6,21.1,29.5,20.8,29.4z M23.2,30c-0.4,0.2-0.8,0-1.4-0.2c0.2,0,0.5,0,0.8-0.2c0.6-0.2,1.2-0.2,1.4-0.1
		C23.7,29.7,23.4,29.9,23.2,30z M16.5,25.5c0.3-0.7,0.6-1.2,1-1.6c0,0.1,0,0.1,0.1,0.2l1-0.9c0,0,0-0.1-0.1-0.1
		c0.2-0.1,0.4-0.2,0.4-0.2c1.3-0.6,1.9-0.3,2.4,0c0.3,0.2,0.6,0.7,0.5,1c-0.1,0.3-0.1,0.5-0.1,0.5c0.6,0.2,1.9-1,0.6-1.9
		c1.5-0.4,2.7,0.1,3.6,0.9c0,0,0,0,0,0c-0.3,0.3-0.3,0.7,0,1c0.2,0.2,0.5,0.2,0.7,0.2c0.1,0.3,0.2,0.6,0.2,0.9c0,0,0,0.1,0,0.1
		c0,0.3,0,0.5-0.1,0.8c-0.2,0.8-0.5,1.5-1,1.9c-0.1,0.1-0.2,0.2-0.3,0.3l0.1-0.6c0,0,0-0.1-0.1-0.1c-0.3-0.4-0.5-0.9-0.7-1.4
		l-0.2,0.9c0,0.1,0.1,0.1,0.1,0.2c0.1,0.2,0.3,0.7,0.6,1.1c-0.1,0.1-0.2,0.2-0.4,0.2c-0.3,0-0.6,0-0.9-0.3c-0.5-0.5-0.5-0.7-0.9-0.9
		c-0.4-0.2-1.3-0.2-1.4-0.1c-0.1,0.1,0.7,1.1,1.5,1.4c0.4,0.2,0.9,0.2,1.3,0.2c-0.5,0.2-1,0.2-1.3,0c-0.9-0.5-2-0.8-3.2-0.7
		c-0.7,0.1-1.3,0.6-1.8,1c-0.1,0.1-0.2,0.2-0.2,0.2c0-0.3-0.1-0.6-0.4-0.9c-0.2-0.2-0.4-0.3-0.8-0.4c-0.9-0.3-1.6,0.1-2.2,0.5
		c0.4-0.3,0.6-0.6,0.7-0.8C15.6,27.4,15.7,27.5,16.5,25.5z M23.1,28.3c0.2,0,0.3,0,0.4,0c0.1,0.1,0.1,0.2,0,0.2c-0.1,0-0.4,0-0.4,0
		c-0.2-0.1-0.5-0.3-0.5-0.3S23,28.3,23.1,28.3z M22.7,28.2c-0.2,0-0.4-0.2-0.5-0.3c0,0,0.2,0.1,0.4,0.1c0.2,0,0.3-0.1,0.5,0
		c0.2,0,0.3,0.2,0,0.3C22.9,28.2,22.9,28.2,22.7,28.2z M0.5,7.3C0.6,7.1,0.8,6.8,1,6.5c0,0.2,0.1,0.8-0.1,1.4
		C0.7,8.2,0.7,8.5,0.7,8.7C0.5,8.1,0.3,7.7,0.5,7.3z M0.8,8.9c0-0.2,0-0.4,0.1-0.5c0.1-0.2,0.4-0.8,0.4-0.8s0,0.1,0.1,0.3l0,0
		c0,0,0,1-0.2,1.4c0,0.1-0.1,0.2-0.1,0.4C0.9,9.4,0.9,9.2,0.8,8.9z M1.2,11c0-0.3,0-0.5,0-0.8l0,0c0,0,0-0.4,0.2-0.9
		c0.1-0.3,0.1-0.7,0.2-1c0,0.1,0.1,0.2,0.1,0.3c-0.1,0.4-0.2,1.1-0.2,1.4C1.4,10.5,1.2,11.1,1.2,11l0.2,0.1
		C1.2,11.3,1.2,11.1,1.2,11z M1.7,10.1c0-0.2,0.1-0.6,0.1-0.9C1.9,9.5,1.9,9.8,1.9,10c0,0.4-0.2,0.8-0.4,1
		C1.6,10.8,1.7,10.4,1.7,10.1z M1,12.2C1,12.2,1,12.2,1,12.2C1,12.2,1,12.1,1,12.2C1,12.2,1,12.2,1,12.2z M0.8,13.3
		c-0.1-0.2-0.2-0.4-0.2-0.5c0,0,0.2-0.1,0.4-0.1c0.1,0,0.2,0,0.2,0l-0.2,0v1.4C1.1,13.8,0.9,13.5,0.8,13.3z M1.1,16.2
		c-0.1,0.1-0.2-0.1-0.2-0.2c0.1-0.6,0.2-1.3,0.2-1.7L1.1,16.2C1.1,16.2,1.1,16.2,1.1,16.2z M1.3,16v-3.3c0.1,0,0.2,0.1,0.3,0.2
		l0,2.9C1.5,15.8,1.4,15.9,1.3,16z M1.9,13.1c0.1,0.1,0.2,0.3,0.2,0.5c0.2,0.7,0,1.3-0.3,1.8L1.9,13.1z M5.1,3.8c0,0,0.1,0,0.1,0
		C5.5,3.8,5.7,3.9,6,4C5.9,4.2,6,4.5,6.2,4.7c0.3,0.3,0.7,0.3,1,0c0,0,0,0,0,0C8,5.5,8.4,6.8,8.1,8.3C7.2,7,5.9,8.2,6.1,8.9
		c0,0,0.2,0,0.5-0.1C7,8.7,7.5,9,7.7,9.3c0.3,0.4,0.6,1,0,2.4c0,0-0.1,0.1-0.2,0.4c0,0-0.1,0-0.1-0.1l-0.9,1c0.1,0,0.1,0,0.2,0.1
		c-0.4,0.4-0.9,0.7-1.6,1c-2.1,0.8-2,0.9-2.3,1.1c-0.2,0.1-0.5,0.3-0.8,0.7c0.4-0.6,0.7-1.3,0.5-2.2c-0.1-0.3-0.3-0.6-0.4-0.8
		c-0.3-0.3-0.6-0.4-0.9-0.4c0.1-0.1,0.2-0.1,0.2-0.2c0.4-0.4,0.9-1.1,1-1.8c0.1-1.1-0.2-2.3-0.7-3.2C1.4,7,1.4,6.5,1.6,6
		c0,0.3,0,0.8,0.2,1.3C2,8.1,3,8.8,3.1,8.8c0.1-0.1,0.1-1-0.1-1.4C2.7,7,2.5,7.1,2,6.5C1.7,6.2,1.7,5.9,1.7,5.6
		C1.8,5.5,1.9,5.4,2,5.3c0.4,0.3,0.9,0.5,1.1,0.6C3.1,5.9,3.2,6,3.3,6l0.9-0.2c-0.5-0.2-1-0.4-1.4-0.7c0,0-0.1,0-0.1-0.1L2.1,5.1
		C2.1,5,2.2,4.9,2.3,4.8c0.5-0.5,1.1-0.8,1.9-1C4.5,3.8,4.8,3.7,5.1,3.8z M2.2,7.8c0,0-0.2-0.3-0.3-0.5c0,0,0-0.3,0-0.4
		c0-0.1,0.2-0.1,0.2,0c0.1,0.1,0,0.3,0,0.4C2.1,7.5,2.2,7.8,2.2,7.8z M2.6,7.3c0,0.2,0,0.3,0,0.5c0,0.2,0.1,0.4,0.1,0.4
		C2.5,8.2,2.3,7.9,2.3,7.8c0-0.2-0.1-0.2,0-0.5C2.4,7,2.6,7.1,2.6,7.3z M4.3,6.6c0,0.1,0,0.3-0.1,0.4L5.5,7c0.3-0.5,0.7-0.8,0.7-0.8
		S5.6,6.1,4.8,5.9l-1,0.3C4.1,6.3,4.3,6.4,4.3,6.6z M4,8l1,0c0-0.2,0.1-0.4,0.2-0.6l-1.1,0C4.1,7.5,4.1,7.7,4,8z M3.9,23
		c0,0-0.1,0.1-0.2,0.3c-0.2,0.2-0.2,0.4-0.2,0.4L4.1,24l0.4-0.5L3.9,23z M2.8,25.5c0,0-0.1,0.2-0.1,0.4c0,0.2,0,0.5,0,0.5l0.7,0
		l0.1-0.9L2.8,25.5z M8.5,14l0.7-0.7C9,13,8.7,12.8,8.5,12.7l-0.7,0.8C8.1,13.6,8.3,13.8,8.5,14z M9.3,15l0.7-0.5
		c-0.2-0.3-0.3-0.6-0.6-0.9l-0.7,0.6c0.1,0.1,0.1,0.1,0.2,0.2C9.1,14.6,9.2,14.8,9.3,15z M2.8,26.8L2.8,26.8L2.8,26.8
		c-0.1,0.4-0.1,0.7-0.1,0.9l0,0l0,0c0.2,0,0.5,0,0.8,0l0.1,0l0-0.1l-0.1-0.8l0,0L2.8,26.8z M3.3,24.1L3.3,24.1
		c-0.1,0.2-0.2,0.4-0.3,0.6c0,0.1-0.1,0.2-0.1,0.3l0.8,0.1l0.2-0.8L3.3,24.1z M4.1,12.5c0,0,0.3,0,0.9,0.1c0,0,0.5-0.5,0.6-0.8
		c0.2-0.2,0.2-0.4,0.2-0.5H4.9C4.6,11.9,4.1,12.5,4.1,12.5z M1.7,2.5l-1.2,0c0,0.3,0.1,0.6,0.2,0.9l1.1,0C1.6,3,1.7,2.7,1.7,2.5z
		 M5,10.8c0,0.1,0,0.2,0,0.3l0.7,0c0-0.2,0-0.4-0.1-0.6l-0.8-0.1C4.9,10.6,4.9,10.7,5,10.8z M6.1,12.8l0.9-1
		c-0.4-0.1-0.7-0.2-0.9-0.3l-0.9,1.1C5.5,12.7,5.8,12.7,6.1,12.8z M4.2,9.1L5.2,9c0,0,0-0.1,0-0.1C5.1,8.7,5,8.5,5,8.3L4,8.4
		C4.1,8.6,4.1,8.9,4.2,9.1z M5.8,11.5l0.1-0.1H5.7C5.7,11.4,5.7,11.5,5.8,11.5C5.7,11.5,5.7,11.5,5.8,11.5z M9.6,20.9
		c-0.3,0.2-0.8,0.5-1.3,0.5c-0.6,0-1.4-0.3-1.5-0.5c-0.1-0.1-0.3-0.2-0.4-0.1c-0.1,0.1-0.4,0.5-0.8,0.8c-0.4,0.3-0.4-0.1-0.9-0.4
		C4.3,21,3.6,20.9,3.2,21c-0.4,0.1-0.6,0.3-0.8,0.1c-0.3-0.2-0.5-0.6-0.5-0.7c0-0.1-0.2-0.1-0.1,0C1.8,20.6,2.4,21.8,4,22
		c1.6,0.3,3.7-0.2,3.7-0.2s-0.9,0.6-3,0.7c-0.2,0-0.6,0-0.6,0c-0.1,0-0.1,0.1,0,0.1l0.6,0.5c0,0,0.4-0.4,0.5-0.5
		c0.1-0.1,0.6-0.1,0.8-0.1c0.2,0,0.2,0.1,0.1,0.2c-0.1,0.1-0.5,0.7-0.6,1.2c-0.1,0.4-0.2,0.4-0.2,0.2c0-0.2-0.1-0.4,0-0.7
		c0.1-0.3,0-0.4-0.1-0.3c-0.1,0.1-0.7,0.7-1.1,1.4c-0.3,0.6-0.3,1.8-0.3,2l0,0c0,0,0,0,0,0c0,0,0,0,0,0l0,0c0.2,0,1.4,0,2-0.3
		c0.7-0.4,1.3-1,1.4-1.1c0.1-0.1,0-0.2-0.3-0.1c-0.3,0.1-0.6,0.1-0.7,0c-0.2,0-0.2-0.2,0.2-0.2c0.4-0.1,1-0.5,1.2-0.6
		c0.1-0.1,0.3,0,0.2,0.1c0,0.2-0.1,0.7-0.1,0.8c-0.1,0.1-0.5,0.5-0.5,0.5l0.5,0.6c0,0.1,0.1,0.1,0.1,0c0,0,0-0.3,0-0.6
		c0-2,0.7-3,0.7-3s-0.5,2.1-0.2,3.7c0.3,1.6,1.4,2.2,1.5,2.3c0.2,0.1,0.1-0.1,0-0.1c-0.1,0-0.5-0.3-0.7-0.5c-0.2-0.3,0-0.4,0.1-0.8
		c0.1-0.4,0-1.1-0.2-1.5c-0.2-0.5-0.6-0.5-0.4-0.9c0.3-0.4,0.6-0.6,0.8-0.8c0.1-0.1,0-0.3-0.1-0.4c-0.1-0.1-0.5-1-0.5-1.5
		C9.1,21.7,9.4,21.2,9.6,20.9L9.6,20.9z M7.9,23.6c0,0.4-0.5,0.7-0.5,0.7s0.2-0.4,0.1-0.8c0-0.1,0.1-0.2,0.2-0.3
		C7.7,23.2,7.9,23.2,7.9,23.6z M8.5,22.7c-0.1,0.3-0.4,0.8-0.4,1c0,0,0-0.8,0.1-1.1C8.3,22.4,8.6,22.5,8.5,22.7z M7.2,22.7
		c0,0.1-0.1,0.2-0.3,0.2c-0.4,0-0.8,0.1-0.8,0.1s0.3-0.5,0.7-0.5C7.2,22.5,7.2,22.7,7.2,22.7z M7.7,22c0.3-0.1,0.3,0.2,0.1,0.3
		c-0.3,0.1-1.1,0.1-1.1,0.1C6.9,22.4,7.5,22.1,7.7,22z M10.8,17.4c0-0.3-0.1-0.6-0.1-0.9L10,16.7c0.1,0.3,0.1,0.6,0.1,0.9L10.8,17.4
		z M4.7,10.1l0.9,0C5.5,9.9,5.4,9.6,5.3,9.4L4.4,9.5C4.5,9.7,4.6,9.9,4.7,10.1z M4,27l0,0.7c0,0,0.3,0,0.5,0c0.2,0,0.4-0.1,0.4-0.1
		l-0.1-0.7L4,27z M1.2,29.2c0,0,1.1-0.5,1.7-0.5c0.6,0,2.3,0.5,2.8,0.4c0.5-0.1,1.2-0.5,1.6-1c0,0,0.3,0.3,0.6,0.3
		c0.3,0,0.4-0.1,0.6,0c0.2,0.1,0.8,0.6,1,0.7c0.1,0.1,0.1,0,0-0.1C9.5,29,8.6,28.1,8.2,27c0-0.1-0.1-0.4-0.2-0.2
		c-0.4,0.3-1.1,0.8-2,1.1c-1.3,0.4-3.7,0.4-3.7,0.4l-0.1,0l0,0l0,0v0l0,0l0-0.1c0,0-0.1-2.4,0.4-3.7c0.3-0.9,0.8-1.6,1.1-2
		c0.2-0.2-0.1-0.2-0.2-0.2c-1.2-0.4-2-1.3-2.1-1.4c-0.1-0.1-0.2-0.1-0.1,0c0.1,0.1,0.6,0.7,0.7,1c0.1,0.2,0,0.3,0,0.6
		c0,0.3,0.3,0.6,0.3,0.6c-0.5,0.4-0.9,1.2-1,1.6c-0.1,0.5,0.4,2.2,0.4,2.8C1.8,28.2,1.2,29.2,1.2,29.2 M7.2,26.8
		c0.2-0.2,0.3-0.2,0.3-0.2L7,25.9l-0.5,0.4L6.8,27C6.8,27,7,26.9,7.2,26.8z M13.1,19.6l-0.1,0.8c0.3,0,0.6,0,0.9,0.1l0.1-0.7
		C13.6,19.7,13.3,19.7,13.1,19.6z M8.9,30c-0.5,0-0.8-0.2-1-0.4c-0.1-0.1-0.2-0.3-0.2-0.3c0,0,0-0.1-0.1-0.1c0,0-0.1,0-0.1,0
		c0,0-0.7,0.5-1.6,0.6c-0.9,0.1-5.2,0.2-5.6,0.2c0-0.4,0.1-4.7,0.2-5.6C0.6,23.7,1.1,23,1.1,23c0,0,0-0.1,0-0.1c0,0,0-0.1-0.1-0.1
		c0,0-0.1-0.1-0.3-0.2c-0.2-0.2-0.4-0.5-0.4-1c0-0.8,0.7-1.5,0.7-1.5L0.9,20c0,0-0.7,0.7-0.8,1.6c0,0.5,0.3,0.9,0.5,1.2
		c0.1,0.1,0.1,0.1,0.2,0.2c-0.1,0.2-0.5,0.9-0.6,1.6c-0.2,1-0.2,5.7-0.2,5.7l0,0.2l0.2,0c0,0,4.7-0.1,5.7-0.2
		c0.8-0.1,1.4-0.5,1.6-0.6c0,0.1,0.1,0.1,0.2,0.2c0.2,0.2,0.6,0.5,1.2,0.5c0.9,0,1.6-0.8,1.6-0.8l-0.2-0.2C10.3,29.4,9.7,30,8.9,30z
		 M14.1,20.6c0.3,0.1,0.7,0.2,1,0.3l0.5-0.7c-0.4-0.2-0.8-0.3-1.1-0.4L14.1,20.6z M5.3,26.8l0.1,0.8c0.1,0,0.2,0,0.3-0.1
		c0.2-0.1,0.4-0.2,0.6-0.3l0,0l-0.3-0.6L5.3,26.8z M21,26.1l0.1-0.9c-0.2-0.1-0.5-0.1-0.7-0.2l0,0.9C20.6,25.9,20.8,26,21,26.1z
		 M19,24.7C19,24.7,19,24.8,19,24.7c0,0.1,0.1,0.1,0.1,0.1l0-0.2L19,24.7z M19.6,25.5c0.1,0,0.3,0.1,0.4,0.2L20,24.9
		c-0.2,0-0.4-0.1-0.6-0.1l0,0.7C19.5,25.5,19.5,25.5,19.6,25.5z M19.1,25.6v-0.8c-0.1,0-0.2,0-0.5,0.2c-0.2,0.2-0.8,0.6-0.8,0.6
		c0.1,0.5,0.1,0.9,0.1,0.9S18.5,25.8,19.1,25.6z M18.6,23.4l-1,0.9c0.1,0.3,0.1,0.6,0.2,0.9l1.1-0.9C18.9,24.1,18.8,23.8,18.6,23.4z
		 M23.4,26.2c0.2-0.1,0.3-0.1,0.4-0.1c0.2,0,0.3,0.2,0.4,0.5l0.3-1c-0.2-0.8-0.3-1.4-0.3-1.4S24,24.7,23.5,25L23.4,26.2z M16.1,21.5
		c0.1,0.1,0.1,0.1,0.2,0.2l0.6-0.7c-0.3-0.2-0.6-0.4-0.9-0.6l-0.5,0.7C15.7,21.2,15.9,21.4,16.1,21.5z M17.8,22
		c-0.2-0.2-0.4-0.4-0.6-0.7L16.5,22c0.2,0.2,0.3,0.4,0.5,0.7L17.8,22z M22.1,26.4l0.1-1c-0.2,0-0.4,0-0.6-0.1c0,0-0.1,0-0.1,0
		l-0.1,0.9C21.6,26.3,21.9,26.4,22.1,26.4z M27,28.8l0,1.1c0.3,0.1,0.6,0.1,0.9,0.2l0-1.2C27.8,28.8,27.4,28.8,27,28.8z M23.1,26.3
		l0-1.1c-0.2,0.1-0.4,0.2-0.6,0.2l0,1C22.7,26.4,22.9,26.4,23.1,26.3z"/>
	<path id="XMLID_6305_" class="st0" d="M12.5,18c0,0,0.5-0.7,0.7-1c0.1-0.3,0.3-0.7,0.7-0.8c0.3-0.1,0.5-0.1,0.5-0.1
		c0,0,0,0.3-0.1,0.6c-0.1,0.3-0.5,0.5-0.8,0.7C13.1,17.5,12.5,18,12.5,18z"/>
</g>
</svg>
