<?xml version="1.0" encoding="utf-8"?>
<!-- Generator: Adobe Illustrator 19.0.0, SVG Export Plug-In . SVG Version: 6.00 Build 0)  -->
<svg version="1.1" id="レイヤー_1" xmlns="http://www.w3.org/2000/svg" xmlns:xlink="http://www.w3.org/1999/xlink" x="0px"
	 y="0px" viewBox="0 0 30.5 30.5" style="enable-background:new 0 0 30.5 30.5;" xml:space="preserve" width="100px" height="100px">
<style type="text/css">
	.st0{fill:#E5E5E4;}
</style>
<g id="XMLID_6304_">
	<path id="XMLID_6306_" class="st0" d="M20.6,16.4c0.1-0.3,0.2-0.7,0.3-1l-0.7-0.5c-0.2,0.4-0.3,0.8-0.4,1.1L20.6,16.4z M29.9,0.1
		c0,0-1.6,0.1-2,0c-0.4,0,0.1,0.4,0,0.9c0,0.5-0.3,1.7-1.3,2.2c-0.4,0.2-0.7,0.3-1,0.4c-0.4,0-0.9,0.1-1.2,0.2c0,0,0,0,0-0.1
		c-0.3-0.3-0.7-0.3-1,0c-0.2,0.2-0.3,0.5-0.1,0.8c0,0,0,0-0.1,0l0,0c-0.9,0.9-1.3,2.3-0.9,3.8l0.2-0.1c0,0-0.1,0.1-0.1,0.1
		c-0.6,1.2-0.3,2.5,0.5,3.7c-0.2,0.1-0.3,0.2-0.5,0.3l0.7,0.9c0.2-0.1,0.4-0.2,0.6-0.2c0,0,0,0,0,0c0.8,0.8,1.9,1.2,2.9,1.7
		c-0.6,0-1.8,0.1-2.7,0.4c-1.1,0.4-1.5,1.3-1.4,1.7c0.1,0.4,0.1,0.6,0.7,0.9c0.5,0.4-0.1-0.4-0.1-1.1c0-0.7,0.5-1.2,1.5-1.5
		c0.9-0.2,2.5,0,2.9,0.1c0.3,0.2,0.5,0.3,0.8,0.5c0.3,0.3,0.6,0.6,0.8,1c0.1,0.2,0.1,0.5,0.1,0.7c-0.1,0.3-0.1,0.3-0.3,0.1
		c0-0.1-0.1-0.1-0.1-0.2c-0.5-1-1.8-2.4-3-1.6c-1.2,0.8-0.7,1.9-0.3,2.2c0.4,0.3-0.1-0.6,0.5-0.9c0.6-0.3,1.4-0.5,1.9-0.3
		c0.3,0.2,0.9,0.7,1.1,1.2c0.1,0.4,0.1,1.1,0,1.2c0,0-0.8-0.6-1.7-0.6c-0.9,0-2.1,0.5-2.1,0.5s-1.1-0.8-1.6-1
		c-0.5-0.2-0.3,0.6-1.6,0.8C21.5,19,21,19,20.5,18.9c0-0.2-0.1-0.5-0.1-0.9l-0.8-0.3c0,0.4,0,0.7,0,0.8c-0.6-0.4-1.1-0.9-1.2-1.7
		c-0.3-1.7,1.5-2,1.5-2s0.2-0.9-0.7-1.5c-1.7-1.2-2.4,1.4-2.4,1.4s-0.7-0.3-1.3-0.6c-0.6-0.3-1.8-0.4-1.8-0.4l0,0
		c0,0,0.1,1.1,0.4,1.8c0.3,0.6,0.6,1.3,0.6,1.3s-2.6,0.7-1.4,2.4c0.6,0.9,1.5,0.7,1.5,0.7s0.3-1.7,2-1.5c0.8,0.1,1.4,0.6,1.7,1.2
		c-0.1,0-0.4,0-0.8,0l0.3,0.8c0.4,0,0.7,0,0.9,0.1c0.1,0.5,0.2,1,0.1,1.5c-0.3,1.3-1.1,1.1-0.8,1.6c0.2,0.5,1,1.6,1,1.6
		s-0.5,1.2-0.5,2.1c0,0.9,0.6,1.7,0.6,1.7c-0.1,0.2-0.8,0.1-1.2,0c-0.5-0.2-1-0.8-1.2-1.1c-0.3-0.4-0.1-1.2,0.3-1.9
		c0.3-0.6,1.2-0.2,0.9-0.5c-0.3-0.4-1.5-0.9-2.2,0.3c-0.8,1.2,0.6,2.5,1.6,3c0,0,0.1,0.1,0.2,0.1c0.2,0.2,0.2,0.2-0.1,0.3
		c-0.1,0-0.4,0-0.6-0.1c-0.4-0.2-0.7-0.5-1-0.8c-0.2-0.2-0.4-0.5-0.5-0.8c-0.1-0.4-0.3-2.1-0.1-2.9c0.3-1,0.8-1.5,1.5-1.5
		c0.7,0,1.4,0.7,1.1,0.1c-0.4-0.5-0.5-0.6-0.9-0.7c-0.4-0.1-1.3,0.3-1.7,1.4c-0.3,0.9-0.4,2.2-0.4,2.7c-0.5-1-0.9-2-1.7-2.9
		c0,0,0,0,0,0c0.1-0.2,0.2-0.4,0.2-0.6l-0.9-0.7c-0.1,0.2-0.2,0.3-0.3,0.5C11,22,9.6,21.6,8.4,22.3c0,0-0.1,0.1-0.1,0.1l0.1-0.2
		c-1.5-0.4-2.9,0-3.8,0.9l0,0c0,0,0,0,0,0.1c-0.3-0.1-0.6-0.1-0.8,0.1c-0.3,0.3-0.3,0.7,0,1c0,0,0,0,0.1,0c-0.1,0.4-0.2,0.8-0.2,1.2
		c-0.1,0.3-0.2,0.7-0.4,1c-0.4,1-1.7,1.3-2.2,1.3c-0.5,0-0.9-0.4-0.9,0c0,0.4,0,2,0,2s-0.6,0.2,2.1,0.1l0-1c-0.2,0.3-0.6,0.6-1,0.7
		c-0.6,0.2-0.5-0.8-0.3-1c0.2-0.2,1.1-0.5,1.5-0.6c0.5-0.2,0.7-0.9,1-1.6c0-0.1,0.1-0.1,0.1-0.2c0.2,0.8,0.5,1.5,1,2
		c-0.2,0.2-0.4,0.3-0.6,0.4l0,1c0.4-0.2,0.6-0.4,0.9-0.6l-0.1-0.5c0.1,0.1,0.3,0.2,0.4,0.3l0,0.1c0,0,1.3,1,2,1.4
		C8,30.5,8.7,30,9.9,29.6c1.1-0.3,2.5,0.2,2.6,0.2c0,0.1,0.1,0.2,0.1,0.2c0,0,0.1,0,0.1,0.1c0.2,0,0.4-0.1,0.7-0.2
		c0.3-0.1,0.6-0.2,0.8-0.3c0.5,0,2.5,0.4,3,0.5c0.5,0.1,1.8-0.1,1.8-0.1c0.1,0,0.1-0.1,0.1-0.1c0,0,0,0,0,0c0,0,0,0,0,0c0,0,0,0,0,0
		s0,0,0,0c0,0,0,0,0,0c0-0.1-0.2-0.2-0.4-0.3c-0.3-0.1-0.4-0.4-0.1-0.3c0.3,0,0.9-0.1,1-0.1c0.1,0,0.3,0,0.2-0.2c0,0-0.6-1-0.6-1.5
		c0-0.5,0.1-0.7,0.5-1.4c0.3-0.7,0.2-0.7-0.4-1.1c-0.6-0.4-0.6-0.8-0.6-1.2c0-0.3,0.8-1.3,1-2.4c0.1-1.1-0.9-2.4-1.8-2.8
		c-0.9-0.4-1.6-0.4-2.3,0c-0.7,0.4-0.8,1-1,1.1c-0.1,0.1-1.2-0.8-0.7-1.6c0.4-0.8,1.8-0.7,1.8-0.7s-0.5-0.7-0.6-1.2
		c-0.2-0.5-0.1-1-0.1-1c0.1,0,0.6-0.1,1,0.1c0.5,0.2,1.2,0.6,1.2,0.6S17.1,14.4,18,14c0.8-0.4,1.7,0.6,1.6,0.7
		c-0.1,0.1-0.7,0.2-1.1,1c-0.4,0.7-0.4,1.5,0,2.3c0.4,0.9,1.7,1.9,2.8,1.8c1.1-0.1,2.1-0.9,2.4-1c0.3,0,0.8,0,1.2,0.6
		c0.4,0.6,0.4,0.7,1.1,0.4c0.7-0.3,1-0.5,1.4-0.5c0.5,0,1.5,0.6,1.5,0.6c0.2,0,0.2-0.1,0.2-0.2c0-0.1,0.1-0.7,0.1-1
		c0-0.3,0.3-0.2,0.3,0.1c0.1,0.3,0.1,0.5,0.3,0.4c0,0,0,0,0,0c0,0,0,0,0,0s0,0,0,0c0,0,0,0,0,0c0,0,0,0,0,0c0.1,0,0.1-0.1,0.1-0.1
		c0,0,0.1-1.3,0.1-1.8c-0.1-0.5-0.5-2.4-0.5-3c0-0.3,0.1-0.6,0.3-0.8c0.1-0.3,0.2-0.4,0.2-0.6c0,0,0-0.1-0.1-0.1
		c0,0-0.1-0.1-0.2-0.1c-0.1-0.2-0.5-1.6-0.2-2.6C30,8.7,30.5,8,30.2,7.2c-0.3-0.7-1.4-2-1.4-2l-0.1,0c-0.1-0.1-0.2-0.3-0.3-0.4
		L29,4.9c0.2-0.2,0.4-0.5,0.6-0.9l-1,0c-0.1,0.2-0.2,0.4-0.4,0.6c-0.5-0.5-1.1-0.8-2-1c0.1,0,0.1-0.1,0.2-0.1c0.7-0.4,1.4-0.6,1.6-1
		c0.2-0.5,0.4-1.3,0.6-1.5c0.2-0.2,1.2-0.3,1,0.3c-0.1,0.4-0.5,0.7-0.7,1l1,0C30.1-0.5,29.9,0.1,29.9,0.1z M16,29.1h-3.3
		c0-0.1,0.1-0.2,0.2-0.3l2.9,0C15.8,29,15.9,29.1,16,29.1z M13.1,28.6c0.1-0.1,0.3-0.2,0.5-0.2c0.7-0.2,1.3,0,1.8,0.3L13.1,28.6z
		 M14.2,29.4h1.9c0,0,0,0,0,0c0.1,0.1-0.1,0.2-0.2,0.2C15.3,29.5,14.6,29.4,14.2,29.4z M12.8,29.9c0,0-0.1-0.2-0.1-0.4
		c0-0.1,0-0.2,0-0.2l0,0.2h1.4c-0.3,0-0.6,0.2-0.9,0.3C13,29.8,12.8,29.9,12.8,29.9z M12.2,29.5C12.2,29.5,12.1,29.5,12.2,29.5
		C12.2,29.5,12.2,29.5,12.2,29.5C12.2,29.5,12.2,29.5,12.2,29.5z M10.3,29.3c0,0-0.4,0-0.9-0.2c-0.3-0.1-0.7-0.1-1-0.2
		c0.1,0,0.2-0.1,0.3-0.1c0.4,0.1,1.1,0.2,1.4,0.2c0.4,0,1,0.2,1,0.2l0-0.1c0.1,0.1,0,0.2-0.1,0.2C10.8,29.3,10.5,29.3,10.3,29.3
		L10.3,29.3z M10.1,28.8c-0.2,0-0.6-0.1-0.9-0.1c0.3-0.1,0.5-0.1,0.8-0.1c0.4,0,0.8,0.2,1,0.4C10.8,28.9,10.4,28.8,10.1,28.8z
		 M8.9,29.7c-0.2,0-0.4,0-0.5-0.1c-0.2-0.1-0.8-0.4-0.8-0.4s0.1,0,0.3-0.1v0c0,0,1,0,1.4,0.2c0.1,0,0.2,0.1,0.4,0.1
		C9.4,29.5,9.2,29.6,8.9,29.7z M6.5,29.5c0.2,0,0.8-0.1,1.4,0.1c0.3,0.1,0.6,0.2,0.8,0.2c-0.6,0.2-1,0.4-1.4,0.2
		C7.1,29.9,6.8,29.7,6.5,29.5z M15.1,27.8c0.1,0.2,0.3,0.5,0.7,0.8c-0.6-0.4-1.3-0.7-2.2-0.5c-0.3,0.1-0.6,0.3-0.8,0.4
		c-0.3,0.3-0.4,0.6-0.4,0.9c-0.1-0.1-0.1-0.2-0.2-0.2c-0.4-0.4-1.1-0.9-1.8-1c-1.1-0.1-2.3,0.2-3.2,0.7c-0.3,0.2-0.7,0.2-1.3,0
		c0.3,0,0.8,0,1.3-0.2c0.8-0.3,1.5-1.3,1.5-1.4c-0.1-0.1-1-0.1-1.4,0.1c-0.4,0.2-0.3,0.4-0.9,0.9c-0.3,0.3-0.7,0.3-0.9,0.3
		c-0.1-0.1-0.2-0.1-0.4-0.2c0.3-0.4,0.5-0.9,0.6-1.1c0-0.1,0.1-0.1,0.1-0.2l-0.2-0.9c-0.2,0.5-0.4,1-0.7,1.4c0,0,0,0.1-0.1,0.1
		l0.1,0.6c-0.1-0.1-0.2-0.2-0.3-0.3c-0.5-0.5-0.8-1.1-1-1.9c-0.1-0.3-0.1-0.5-0.1-0.8c0,0,0-0.1,0-0.1c0-0.3,0.1-0.6,0.2-0.9
		c0.2,0.1,0.5,0,0.7-0.2c0.3-0.3,0.3-0.7,0-1c0,0,0,0,0,0c0.8-0.8,2.1-1.2,3.6-0.9c-1.3,0.9,0,2.2,0.6,1.9c0,0,0-0.2-0.1-0.5
		c-0.1-0.3,0.2-0.8,0.5-1c0.4-0.3,1-0.6,2.4,0c0,0,0.1,0.1,0.4,0.2c0,0,0,0.1-0.1,0.1l1,0.9c0-0.1,0-0.1,0.1-0.2
		c0.4,0.4,0.7,0.9,1,1.6C14.8,27.5,14.9,27.4,15.1,27.8z M7.8,28.3c0,0-0.3,0.2-0.5,0.3c0,0-0.3,0-0.4,0c-0.1,0-0.1-0.2,0-0.2
		c0.1-0.1,0.3,0,0.4,0C7.5,28.3,7.8,28.3,7.8,28.3z M7.3,28.2c-0.3-0.1-0.2-0.3,0-0.3c0.2,0,0.3,0,0.5,0c0.2,0,0.4-0.1,0.4-0.1
		c-0.1,0.1-0.3,0.3-0.5,0.3C7.6,28.2,7.6,28.2,7.3,28.2z M29.8,8.7c0-0.2,0-0.5-0.2-0.8c-0.2-0.6-0.2-1.2-0.1-1.4
		c0.2,0.3,0.4,0.6,0.5,0.8C30.1,7.7,30,8.1,29.8,8.7z M29.4,9.7c0-0.1-0.1-0.2-0.1-0.4c-0.1-0.4-0.2-1.4-0.2-1.4l0,0
		c0.1-0.2,0.1-0.3,0.1-0.3s0.3,0.7,0.4,0.8c0,0.1,0,0.3,0.1,0.5C29.6,9.2,29.5,9.4,29.4,9.7z M29.1,11.1l0.1,0c0,0-0.2-0.7-0.2-1
		c0-0.3-0.2-1-0.2-1.4c0-0.1,0.1-0.2,0.1-0.3c0,0.3,0.1,0.8,0.2,1c0.1,0.4,0.2,0.9,0.2,0.9l0,0c0,0.3,0,0.5,0,0.8
		C29.3,11.1,29.2,11.3,29.1,11.1z M28.9,11c-0.2-0.2-0.4-0.6-0.4-1c0-0.3,0-0.5,0.1-0.8c0.1,0.3,0.1,0.7,0.1,0.9
		C28.8,10.4,28.9,10.8,28.9,11z M29.5,12.1C29.5,12.1,29.5,12.2,29.5,12.1C29.5,12.2,29.5,12.2,29.5,12.1
		C29.5,12.2,29.5,12.2,29.5,12.1z M29.4,14.1v-1.4l-0.2,0c0.1,0,0.2,0,0.2,0c0.2,0,0.4,0.1,0.4,0.1c0,0-0.1,0.3-0.2,0.5
		C29.6,13.5,29.4,13.8,29.4,14.1z M29.4,16.2v-1.9c0,0.4,0.1,1.1,0.2,1.7C29.6,16.1,29.5,16.2,29.4,16.2
		C29.4,16.2,29.4,16.2,29.4,16.2z M28.9,15.8l0-2.9c0.1-0.1,0.2-0.1,0.3-0.2V16C29.1,15.9,29,15.8,28.9,15.8z M28.6,15.4
		c-0.3-0.5-0.5-1.1-0.3-1.8c0.1-0.2,0.2-0.4,0.2-0.5L28.6,15.4z M26.2,3.8c0.8,0.2,1.5,0.5,1.9,1c0.1,0.1,0.2,0.2,0.3,0.3L27.8,5
		c0,0-0.1,0-0.1,0.1c-0.4,0.3-0.9,0.5-1.4,0.7L27.2,6c0.1,0,0.1-0.1,0.2-0.1c0.2-0.1,0.7-0.3,1.1-0.6c0.1,0.1,0.2,0.2,0.2,0.4
		c0,0.3,0,0.6-0.3,0.9c-0.5,0.5-0.7,0.5-0.9,0.9c-0.2,0.4-0.2,1.3-0.1,1.4c0.1,0.1,1.1-0.7,1.4-1.5c0.2-0.4,0.2-0.9,0.2-1.3
		c0.2,0.5,0.2,1,0,1.3c-0.5,0.9-0.8,2-0.7,3.2c0.1,0.7,0.6,1.3,1,1.8c0.1,0.1,0.2,0.2,0.2,0.2c-0.3,0-0.6,0.1-0.9,0.4
		c-0.2,0.2-0.3,0.4-0.4,0.8c-0.3,0.9,0.1,1.6,0.5,2.2c-0.3-0.4-0.6-0.6-0.8-0.7c-0.3-0.2-0.2-0.3-2.3-1.1c-0.7-0.3-1.2-0.6-1.6-1
		c0.1,0,0.1,0,0.2-0.1l-0.9-1c0,0-0.1,0-0.1,0.1c-0.1-0.2-0.2-0.4-0.2-0.4c-0.6-1.3-0.3-1.9,0-2.4c0.2-0.3,0.7-0.6,1-0.5
		c0.3,0.1,0.5,0.1,0.5,0.1c0.2-0.6-1-1.9-1.9-0.6c-0.4-1.4,0.1-2.7,0.9-3.6c0,0,0,0,0,0c0.3,0.3,0.7,0.3,1,0
		c0.2-0.2,0.2-0.5,0.2-0.7c0.3-0.1,0.6-0.2,0.9-0.2c0,0,0.1,0,0.1,0C25.7,3.7,25.9,3.8,26.2,3.8z M28.3,7.3c0-0.2,0-0.3,0-0.4
		c0.1-0.1,0.2-0.1,0.2,0c0,0.1,0,0.4,0,0.4c-0.1,0.2-0.3,0.5-0.3,0.5S28.3,7.5,28.3,7.3z M28.2,7.3c0.1,0.3,0,0.3,0,0.5
		c0,0.2-0.2,0.4-0.3,0.5c0,0,0.1-0.2,0.1-0.4c0-0.2-0.1-0.3,0-0.5C27.9,7.1,28.1,7,28.2,7.3z M26.6,6.2l-1-0.3
		c-0.8,0.2-1.4,0.3-1.4,0.3S24.7,6.5,25,7L26.2,7c-0.1-0.2-0.1-0.3-0.1-0.4C26.1,6.4,26.3,6.3,26.6,6.2z M26.3,7.4l-1.1,0
		c0.1,0.2,0.2,0.4,0.2,0.6l1,0C26.4,7.7,26.4,7.5,26.3,7.4z M25.9,23.5l0.4,0.5l0.7-0.4c0,0-0.1-0.2-0.2-0.4
		c-0.2-0.2-0.2-0.3-0.2-0.3L25.9,23.5z M26.9,25.5l0.1,0.9l0.7,0c0,0,0-0.3,0-0.5c0-0.2-0.1-0.4-0.1-0.4L26.9,25.5z M22.6,13.5
		L22,12.7c-0.2,0.2-0.4,0.4-0.7,0.6L22,14C22.2,13.8,22.4,13.6,22.6,13.5z M21.5,14.4c0.1-0.1,0.1-0.1,0.2-0.2L21,13.6
		c-0.2,0.3-0.4,0.6-0.6,0.9l0.7,0.5C21.2,14.8,21.4,14.6,21.5,14.4z M26.8,26.8L26.8,26.8l-0.1,0.8l0,0.1l0.1,0c0.3,0,0.6,0,0.8,0
		l0,0l0,0c0-0.2,0-0.5,0-0.8l0-0.1l-0.1,0L26.8,26.8z M26.6,24.4l0.2,0.8l0.8-0.1c0-0.1,0-0.2-0.1-0.3c-0.1-0.2-0.2-0.4-0.3-0.6l0,0
		L26.6,24.4z M25.6,11.4h-0.8c0,0.1,0,0.2,0.2,0.5c0.2,0.2,0.6,0.8,0.6,0.8c0.5-0.1,0.9-0.1,0.9-0.1S25.8,11.9,25.6,11.4z M28.8,3.4
		l1.1,0C29.9,3.1,30,2.8,30,2.5l-1.2,0C28.8,2.7,28.8,3,28.8,3.4z M25.7,10.4l-0.8,0.1c0,0.2-0.1,0.4-0.1,0.6l0.7,0
		c0-0.1,0-0.2,0-0.3C25.5,10.7,25.6,10.6,25.7,10.4z M25.2,12.6l-0.9-1.1c-0.2,0-0.6,0.1-0.9,0.3l0.9,1
		C24.6,12.7,24.9,12.7,25.2,12.6z M26.4,8.4l-1-0.1c0,0.2,0,0.4-0.1,0.6c0,0,0,0.1,0,0.1l0.9,0.1C26.3,8.9,26.4,8.6,26.4,8.4z
		 M24.8,11.5c0,0,0-0.1,0-0.1h-0.2L24.8,11.5C24.7,11.5,24.8,11.5,24.8,11.5z M20.9,20.9c0.2,0.3,0.5,0.8,0.5,1.3
		c0,0.6-0.3,1.4-0.5,1.5c-0.1,0.1-0.2,0.3-0.1,0.4c0.1,0.1,0.5,0.4,0.8,0.8c0.3,0.4-0.1,0.4-0.4,0.9c-0.2,0.5-0.3,1.1-0.2,1.5
		c0.1,0.4,0.3,0.6,0.1,0.8c-0.2,0.3-0.6,0.5-0.7,0.5c-0.1,0-0.1,0.2,0,0.1c0.2-0.1,1.3-0.7,1.5-2.3c0.3-1.6-0.2-3.7-0.2-3.7
		s0.6,0.9,0.7,3c0,0.2,0,0.6,0,0.6c0,0.1,0.1,0.1,0.1,0l0.5-0.6c0,0-0.4-0.4-0.5-0.5c-0.1-0.1-0.1-0.6-0.1-0.8
		c0-0.2,0.1-0.2,0.2-0.1c0.1,0.1,0.7,0.5,1.2,0.6c0.4,0.1,0.4,0.2,0.2,0.2c-0.2,0-0.4,0.1-0.7,0c-0.3-0.1-0.4,0-0.3,0.1
		c0.1,0.1,0.7,0.7,1.4,1.1c0.6,0.3,1.8,0.3,2,0.3l0,0c0,0,0,0,0,0c0,0,0,0,0,0l0,0c0-0.2,0-1.4-0.3-2c-0.4-0.7-1-1.3-1.1-1.4
		c-0.1-0.1-0.2,0-0.1,0.3c0.1,0.3,0.1,0.6,0,0.7c0,0.2-0.2,0.2-0.2-0.2c-0.1-0.4-0.5-1-0.6-1.2c-0.1-0.1,0-0.3,0.1-0.2
		c0.2,0,0.7,0.1,0.8,0.1c0.1,0.1,0.5,0.5,0.5,0.5l0.6-0.5c0.1,0,0.1-0.1,0-0.1c0,0-0.3,0-0.6,0c-2,0-3-0.7-3-0.7s2.1,0.5,3.7,0.2
		c1.6-0.3,2.2-1.4,2.3-1.5c0.1-0.2-0.1-0.1-0.1,0c0,0.1-0.3,0.5-0.5,0.7c-0.3,0.2-0.4,0-0.8-0.1c-0.4-0.1-1.1,0-1.5,0.2
		c-0.5,0.2-0.5,0.6-0.9,0.4c-0.4-0.3-0.6-0.6-0.8-0.8c-0.1-0.1-0.3,0-0.4,0.1c-0.1,0.1-1,0.5-1.5,0.5C21.7,21.4,21.2,21,20.9,20.9
		L20.9,20.9z M22.7,23.2c0.1,0,0.2,0.1,0.2,0.3c0,0.4,0.1,0.8,0.1,0.8s-0.5-0.3-0.5-0.7C22.5,23.2,22.7,23.2,22.7,23.2z M22.3,22.7
		c0.1,0.3,0.1,1.1,0.1,1.1c0-0.2-0.3-0.8-0.4-1C21.9,22.5,22.2,22.4,22.3,22.7z M23.6,22.6c0.4,0,0.7,0.5,0.7,0.5s-0.4-0.2-0.8-0.1
		c-0.1,0-0.2-0.1-0.3-0.2C23.2,22.7,23.2,22.5,23.6,22.6z M23.8,22.4c0,0-0.8,0-1.1-0.1c-0.3-0.1-0.2-0.4,0.1-0.3
		C23,22.1,23.6,22.4,23.8,22.4z M20.4,17.5c0-0.3,0-0.6,0.1-0.9l-0.7-0.1c-0.1,0.3-0.1,0.6-0.1,0.9L20.4,17.5z M26.1,9.5l-0.9-0.1
		C25.1,9.6,25,9.9,25,10.1l0.9,0C25.9,9.9,26,9.7,26.1,9.5z M25.5,26.9l-0.1,0.7c0,0,0.2,0.1,0.4,0.1c0.2,0,0.5,0,0.5,0l0-0.7
		L25.5,26.9z M29.2,29.2c0,0-0.5-1.1-0.5-1.7c0-0.6,0.5-2.3,0.4-2.8c-0.1-0.5-0.5-1.2-1-1.6c0,0,0.3-0.3,0.3-0.6
		c0-0.3-0.1-0.4,0-0.6c0.1-0.2,0.6-0.8,0.7-1c0.1-0.1,0-0.1-0.1,0C29,21,28.1,21.9,27,22.3c-0.1,0-0.4,0.1-0.2,0.2
		c0.3,0.4,0.8,1.1,1.1,2c0.4,1.3,0.4,3.7,0.4,3.7l0,0.1l0,0v0l0,0l0,0l-0.1,0c0,0-2.4,0.1-3.7-0.4c-0.9-0.3-1.6-0.8-2-1.1
		c-0.2-0.2-0.2,0.1-0.2,0.2c-0.4,1.2-1.3,2-1.4,2.1c-0.1,0.1-0.1,0.2,0,0.1c0.1-0.1,0.7-0.6,1-0.7c0.2-0.1,0.3,0,0.6,0
		c0.3,0,0.6-0.3,0.6-0.3c0.4,0.5,1.2,0.9,1.6,1c0.5,0.1,2.2-0.4,2.8-0.4C28.2,28.7,29.2,29.2,29.2,29.2 M23.7,27l0.4-0.7l-0.5-0.4
		L23,26.5c0,0,0.1,0.1,0.3,0.2C23.5,26.9,23.7,27,23.7,27z M16.5,19.8l0.1,0.7c0.3-0.1,0.6-0.1,0.9-0.1l-0.1-0.8
		C17.1,19.7,16.8,19.7,16.5,19.8z M20.1,29.4L20,29.5c0,0,0.7,0.7,1.6,0.8c0.5,0,0.9-0.3,1.2-0.5c0.1-0.1,0.1-0.1,0.2-0.2
		c0.2,0.1,0.9,0.5,1.6,0.6c1,0.2,5.7,0.2,5.7,0.2l0.2,0l0-0.2c0,0-0.1-4.7-0.2-5.7c-0.1-0.8-0.5-1.4-0.6-1.6c0.1,0,0.1-0.1,0.2-0.2
		c0.2-0.2,0.5-0.6,0.5-1.2c0-0.9-0.8-1.6-0.8-1.6l-0.2,0.2c0,0,0.7,0.7,0.7,1.5c0,0.5-0.2,0.8-0.4,1c-0.1,0.1-0.2,0.2-0.3,0.2
		c0,0-0.1,0-0.1,0.1c0,0,0,0.1,0,0.1c0,0,0.5,0.7,0.6,1.6c0.1,0.9,0.2,5.2,0.2,5.6c-0.4,0-4.7-0.1-5.6-0.2c-0.9-0.1-1.6-0.6-1.6-0.6
		c0,0-0.1,0-0.1,0c0,0-0.1,0-0.1,0.1c0,0-0.1,0.1-0.2,0.3c-0.2,0.2-0.5,0.4-1,0.4C20.8,30,20.1,29.4,20.1,29.4z M16,19.9
		c-0.4,0.1-0.8,0.2-1.1,0.4l0.5,0.7c0.3-0.2,0.7-0.3,1-0.3L16,19.9z M24.4,26.6l-0.3,0.6l0,0c0.2,0.1,0.4,0.2,0.6,0.3
		c0.1,0,0.2,0.1,0.3,0.1l0.1-0.8L24.4,26.6z M10.1,25.8l0-0.9c-0.2,0.1-0.4,0.1-0.7,0.2l0.1,0.9C9.7,26,9.9,25.9,10.1,25.8z
		 M11.4,24.6l0,0.2c0.1,0,0.1,0,0.1,0s0,0,0-0.1L11.4,24.6z M11.1,25.5l0-0.7c-0.2,0-0.4,0-0.6,0.1l-0.1,0.8
		c0.2-0.1,0.3-0.1,0.4-0.2C10.9,25.5,11,25.5,11.1,25.5z M12.5,26.4c0,0,0-0.3,0.1-0.9c0,0-0.5-0.5-0.8-0.6
		c-0.2-0.2-0.4-0.2-0.5-0.2v0.8C11.9,25.8,12.5,26.4,12.5,26.4z M11.6,24.3l1.1,0.9c0-0.3,0.1-0.6,0.2-0.9l-1-0.9
		C11.7,23.8,11.6,24.1,11.6,24.3z M7,25c-0.5-0.3-0.8-0.7-0.8-0.7s-0.1,0.6-0.3,1.4l0.3,1c0.1-0.3,0.2-0.5,0.4-0.5
		c0.1,0,0.3,0,0.4,0.1L7,25z M15,21.1l-0.5-0.7c-0.3,0.2-0.6,0.3-0.9,0.6l0.6,0.7c0.1-0.1,0.1-0.1,0.2-0.2
		C14.6,21.4,14.8,21.2,15,21.1z M13.5,22.6c0.1-0.2,0.3-0.5,0.5-0.7l-0.7-0.7c-0.2,0.2-0.4,0.4-0.6,0.7L13.5,22.6z M9.1,26.2L9,25.3
		c0,0-0.1,0-0.1,0c-0.2,0.1-0.4,0.1-0.6,0.1l0.1,1C8.6,26.4,8.9,26.3,9.1,26.2z M2.5,28.8l0,1.2c0.3,0,0.6-0.1,0.9-0.2l0-1.1
		C3,28.8,2.7,28.8,2.5,28.8z M8,26.4l0-1c-0.2,0-0.4-0.1-0.6-0.2l0,1.1C7.5,26.4,7.7,26.4,8,26.4z"/>
	<path id="XMLID_6305_" class="st0" d="M18,18c0,0-0.5-0.7-0.7-1c-0.1-0.3-0.3-0.7-0.7-0.8c-0.3-0.1-0.5-0.1-0.5-0.1
		c0,0,0,0.3,0.1,0.6c0.1,0.3,0.5,0.5,0.8,0.7C17.3,17.5,18,18,18,18z"/>
</g>
</svg>
