<?xml version="1.0" encoding="utf-8"?>
<!-- Generator: Adobe Illustrator 19.0.0, SVG Export Plug-In . SVG Version: 6.00 Build 0)  -->
<svg version="1.1" id="レイヤー_1" xmlns="http://www.w3.org/2000/svg" xmlns:xlink="http://www.w3.org/1999/xlink" x="0px"
	 y="0px" viewBox="0 0 30.5 30.5" style="enable-background:new 0 0 30.5 30.5;" xml:space="preserve" width="100px" height="100px">
<style type="text/css">
	.st0{fill:#E5E5E4;}
</style>
<g id="XMLID_6304_">
	<path id="XMLID_6306_" class="st0" d="M9.9,14.1c-0.1,0.3-0.2,0.7-0.3,1l0.7,0.5c0.2-0.4,0.3-0.8,0.4-1.1L9.9,14.1z M0.6,30.4
		c0,0,1.6-0.1,2,0c0.4,0-0.1-0.4,0-0.9c0-0.5,0.3-1.7,1.3-2.2c0.4-0.2,0.7-0.3,1-0.4c0.4,0,0.9-0.1,1.2-0.2c0,0,0,0,0,0.1
		c0.3,0.3,0.7,0.3,1,0c0.2-0.2,0.3-0.5,0.1-0.8c0,0,0,0,0.1,0l0,0c0.9-0.9,1.3-2.3,0.9-3.8l-0.2,0.1c0,0,0.1-0.1,0.1-0.1
		c0.6-1.2,0.3-2.5-0.5-3.7C7.9,18.2,8,18.1,8.2,18l-0.7-0.9c-0.2,0.1-0.4,0.2-0.6,0.2c0,0,0,0,0,0C6.1,16.6,5,16.2,4,15.7
		c0.6,0,1.8-0.1,2.7-0.4c1.1-0.4,1.5-1.3,1.4-1.7C8,13.2,8,13.1,7.4,12.7c-0.5-0.4,0.1,0.4,0.1,1.1c0,0.7-0.5,1.2-1.5,1.5
		c-0.9,0.2-2.5,0-2.9-0.1c-0.3-0.2-0.5-0.3-0.8-0.5c-0.3-0.3-0.6-0.6-0.8-1c-0.1-0.2-0.1-0.5-0.1-0.7c0.1-0.3,0.1-0.3,0.3-0.1
		c0,0.1,0.1,0.1,0.1,0.2c0.5,1,1.8,2.4,3,1.6c1.2-0.8,0.7-1.9,0.3-2.2c-0.4-0.3,0.1,0.6-0.5,0.9c-0.6,0.3-1.4,0.5-1.9,0.3
		c-0.3-0.2-0.9-0.7-1.1-1.2c-0.1-0.4-0.1-1.1,0-1.2c0,0,0.8,0.6,1.7,0.6c0.9,0,2.1-0.5,2.1-0.5s1.1,0.8,1.6,1
		c0.5,0.2,0.3-0.6,1.6-0.8c0.4-0.1,0.9-0.1,1.5,0.1c0,0.2,0.1,0.5,0.1,0.9l0.8,0.3c0-0.4,0-0.7,0-0.8c0.6,0.4,1.1,0.9,1.2,1.7
		c0.3,1.7-1.5,2-1.5,2s-0.2,0.9,0.7,1.5c1.7,1.2,2.4-1.4,2.4-1.4s0.7,0.3,1.3,0.6c0.6,0.3,1.8,0.4,1.8,0.4l0,0c0,0-0.1-1.1-0.4-1.8
		c-0.3-0.6-0.6-1.3-0.6-1.3s2.6-0.7,1.4-2.4c-0.6-0.9-1.5-0.7-1.5-0.7s-0.3,1.7-2,1.5c-0.8-0.1-1.4-0.6-1.7-1.2c0.1,0,0.4,0,0.8,0
		l-0.3-0.8c-0.4,0-0.7,0-0.9-0.1c-0.1-0.5-0.2-1-0.1-1.5c0.3-1.3,1.1-1.1,0.8-1.6c-0.2-0.5-1-1.6-1-1.6s0.5-1.2,0.5-2.1
		c0-0.9-0.6-1.7-0.6-1.7c0.1-0.2,0.8-0.1,1.2,0c0.5,0.2,1,0.8,1.2,1.1c0.3,0.4,0.1,1.2-0.3,1.9c-0.3,0.6-1.2,0.2-0.9,0.5
		c0.3,0.4,1.5,0.9,2.2-0.3c0.8-1.2-0.6-2.5-1.6-3c0,0-0.1-0.1-0.2-0.1c-0.2-0.2-0.2-0.2,0.1-0.3c0.1,0,0.4,0,0.6,0.1
		c0.4,0.2,0.7,0.5,1,0.8c0.2,0.2,0.4,0.5,0.5,0.8c0.1,0.4,0.3,2.1,0.1,2.9c-0.3,1-0.8,1.5-1.5,1.5c-0.7,0-1.4-0.7-1.1-0.1
		C13.1,8,13.2,8,13.6,8.1c0.4,0.1,1.3-0.3,1.7-1.4c0.3-0.9,0.4-2.2,0.4-2.7c0.5,1,0.9,2,1.7,2.9c0,0,0,0,0,0
		c-0.1,0.2-0.2,0.4-0.2,0.6L18,8.2c0.1-0.2,0.2-0.3,0.3-0.5c1.2,0.8,2.5,1.1,3.7,0.5c0,0,0.1-0.1,0.1-0.1l-0.1,0.2
		c1.5,0.4,2.9,0,3.8-0.9l0,0c0,0,0,0,0-0.1c0.3,0.1,0.6,0.1,0.8-0.1c0.3-0.3,0.3-0.7,0-1c0,0,0,0-0.1,0C26.9,5.8,27,5.3,27,4.9
		c0.1-0.3,0.2-0.7,0.4-1c0.4-1,1.7-1.3,2.2-1.3c0.5,0,0.9,0.4,0.9,0c0-0.4,0-2,0-2s0.6-0.2-2.1-0.1l0,1c0.2-0.3,0.6-0.6,1-0.7
		c0.6-0.2,0.5,0.8,0.3,1C29.3,2,28.5,2.2,28,2.3c-0.5,0.2-0.7,0.9-1,1.6c0,0.1-0.1,0.1-0.1,0.2c-0.2-0.8-0.5-1.5-1-2
		c0.2-0.2,0.4-0.3,0.6-0.4l0-1c-0.4,0.2-0.6,0.4-0.9,0.6L25.7,2c-0.1-0.1-0.3-0.2-0.4-0.3l0-0.1c0,0-1.3-1-2-1.4
		c-0.8-0.3-1.5,0.2-2.7,0.6c-1.1,0.3-2.5-0.2-2.6-0.2c0-0.1-0.1-0.2-0.1-0.2c0,0-0.1,0-0.1-0.1c-0.2,0-0.4,0.1-0.7,0.2
		c-0.3,0.1-0.6,0.2-0.8,0.3c-0.5,0-2.5-0.4-3-0.5c-0.5-0.1-1.8,0.1-1.8,0.1c-0.1,0-0.1,0.1-0.1,0.1c0,0,0,0,0,0c0,0,0,0,0,0
		c0,0,0,0,0,0s0,0,0,0c0,0,0,0,0,0c0,0.1,0.2,0.2,0.4,0.3c0.3,0.1,0.4,0.4,0.1,0.3c-0.3,0-0.9,0.1-1,0.1c-0.1,0-0.3,0-0.2,0.2
		c0,0,0.6,1,0.6,1.5c0,0.5-0.1,0.7-0.5,1.4c-0.3,0.7-0.2,0.7,0.4,1.1c0.6,0.4,0.6,0.8,0.6,1.2c0,0.3-0.8,1.3-1,2.4
		c-0.1,1.1,0.9,2.4,1.8,2.8c0.9,0.4,1.6,0.4,2.3,0c0.7-0.4,0.8-1,1-1.1c0.1-0.1,1.2,0.8,0.7,1.6c-0.4,0.8-1.8,0.7-1.8,0.7
		s0.5,0.7,0.6,1.2c0.2,0.5,0.1,1,0.1,1c-0.1,0-0.6,0.1-1-0.1c-0.5-0.2-1.2-0.6-1.2-0.6s0.2,1.3-0.7,1.8c-0.8,0.4-1.7-0.6-1.6-0.7
		c0.1-0.1,0.7-0.2,1.1-1c0.4-0.7,0.4-1.5,0-2.3c-0.4-0.9-1.7-1.9-2.8-1.8c-1.1,0.1-2.1,0.9-2.4,1c-0.3,0-0.8,0-1.2-0.6
		c-0.4-0.6-0.4-0.7-1.1-0.4c-0.7,0.3-1,0.5-1.4,0.5c-0.5,0-1.5-0.6-1.5-0.6c-0.2,0-0.2,0.1-0.2,0.2c0,0.1-0.1,0.7-0.1,1
		c0,0.3-0.3,0.2-0.3-0.1c-0.1-0.3-0.1-0.5-0.3-0.4c0,0,0,0,0,0c0,0,0,0,0,0s0,0,0,0c0,0,0,0,0,0c0,0,0,0,0,0c-0.1,0-0.1,0.1-0.1,0.1
		c0,0-0.1,1.3-0.1,1.8c0.1,0.5,0.5,2.4,0.5,3c0,0.3-0.1,0.6-0.3,0.8c-0.1,0.3-0.2,0.4-0.2,0.6c0,0,0,0.1,0.1,0.1
		c0,0,0.1,0.1,0.2,0.1c0.1,0.2,0.5,1.6,0.2,2.6c-0.3,1.2-0.9,1.9-0.6,2.7c0.3,0.7,1.4,2,1.4,2l0.1,0c0.1,0.1,0.2,0.3,0.3,0.4
		l-0.5-0.1c-0.2,0.2-0.4,0.5-0.6,0.9l1,0c0.1-0.2,0.2-0.4,0.4-0.6c0.5,0.5,1.1,0.8,2,1C4.1,26.9,4,27,4,27c-0.7,0.4-1.4,0.6-1.6,1
		c-0.2,0.5-0.4,1.3-0.6,1.5c-0.2,0.2-1.2,0.3-1-0.3c0.1-0.4,0.5-0.7,0.7-1l-1,0C0.4,31,0.6,30.4,0.6,30.4z M14.5,1.3h3.3
		c0,0.1-0.1,0.2-0.2,0.3l-2.9,0C14.6,1.5,14.6,1.4,14.5,1.3z M17.3,1.9C17.2,2,17,2.1,16.8,2.1c-0.7,0.2-1.3,0-1.8-0.3L17.3,1.9z
		 M16.2,1.1h-1.9c0,0,0,0,0,0c-0.1-0.1,0.1-0.2,0.2-0.2C15.1,1,15.8,1.1,16.2,1.1z M17.7,0.6c0,0,0.1,0.2,0.1,0.4c0,0.1,0,0.2,0,0.2
		l0-0.2h-1.4c0.3,0,0.6-0.2,0.9-0.3C17.4,0.7,17.6,0.6,17.7,0.6z M18.3,1C18.3,1,18.3,1,18.3,1C18.3,1,18.3,1,18.3,1
		C18.3,1,18.3,1,18.3,1z M20.2,1.2c0,0,0.4,0,0.9,0.2c0.3,0.1,0.7,0.1,1,0.2c-0.1,0-0.2,0.1-0.3,0.1c-0.4-0.1-1.1-0.2-1.4-0.2
		c-0.4,0-1-0.2-1-0.2l0,0.1c-0.1-0.1,0-0.2,0.1-0.2C19.7,1.2,20,1.2,20.2,1.2L20.2,1.2z M20.4,1.7c0.2,0,0.6,0.1,0.9,0.1
		c-0.3,0.1-0.5,0.1-0.8,0.1c-0.4,0-0.8-0.2-1-0.4C19.7,1.6,20.1,1.7,20.4,1.7z M21.5,0.8c0.2,0,0.4,0,0.5,0.1
		c0.2,0.1,0.8,0.4,0.8,0.4s-0.1,0-0.3,0.1v0c0,0-1,0-1.4-0.2c-0.1,0-0.2-0.1-0.4-0.1C21.1,0.9,21.3,0.9,21.5,0.8z M24,1
		c-0.2,0-0.8,0.1-1.4-0.1c-0.3-0.1-0.6-0.2-0.8-0.2c0.6-0.2,1-0.4,1.4-0.2C23.4,0.6,23.7,0.8,24,1z M15.4,2.7
		c-0.1-0.2-0.3-0.5-0.7-0.8c0.6,0.4,1.3,0.7,2.2,0.5c0.3-0.1,0.6-0.3,0.8-0.4C17.9,1.7,18,1.3,18,1.1c0.1,0.1,0.1,0.2,0.2,0.2
		c0.4,0.4,1.1,0.9,1.8,1c1.1,0.1,2.3-0.2,3.2-0.7c0.3-0.2,0.7-0.2,1.3,0c-0.3,0-0.8,0-1.3,0.2C22.4,2,21.7,3,21.7,3.1
		c0.1,0.1,1,0.1,1.4-0.1c0.4-0.2,0.3-0.4,0.9-0.9c0.3-0.3,0.7-0.3,0.9-0.3C25,1.8,25.1,1.9,25.2,2c-0.3,0.4-0.5,0.9-0.6,1.1
		c0,0.1-0.1,0.1-0.1,0.2l0.2,0.9c0.2-0.5,0.4-1,0.7-1.4c0,0,0-0.1,0.1-0.1l-0.1-0.6c0.1,0.1,0.2,0.2,0.3,0.3c0.5,0.5,0.8,1.1,1,1.9
		c0.1,0.3,0.1,0.5,0.1,0.8c0,0,0,0.1,0,0.1c0,0.3-0.1,0.6-0.2,0.9c-0.2-0.1-0.5,0-0.7,0.2c-0.3,0.3-0.3,0.7,0,1c0,0,0,0,0,0
		c-0.8,0.8-2.1,1.2-3.6,0.9c1.3-0.9,0-2.2-0.6-1.9c0,0,0,0.2,0.1,0.5c0.1,0.3-0.2,0.8-0.5,1c-0.4,0.3-1,0.6-2.4,0
		c0,0-0.1-0.1-0.4-0.2c0,0,0-0.1,0.1-0.1l-1-0.9c0,0.1,0,0.1-0.1,0.2c-0.4-0.4-0.7-0.9-1-1.6C15.7,2.9,15.6,3,15.4,2.7z M22.7,2.2
		c0,0,0.3-0.2,0.5-0.3c0,0,0.3,0,0.4,0c0.1,0,0.1,0.2,0,0.2c-0.1,0.1-0.3,0-0.4,0C23,2.1,22.7,2.2,22.7,2.2z M23.2,2.3
		c0.3,0.1,0.2,0.3,0,0.3c-0.2,0-0.3,0-0.5,0c-0.2,0-0.4,0.1-0.4,0.1c0.1-0.1,0.3-0.3,0.5-0.3C22.9,2.3,22.9,2.2,23.2,2.3z M0.7,21.8
		c0,0.2,0,0.5,0.2,0.8C1.1,23.1,1,23.8,1,24c-0.2-0.3-0.4-0.6-0.5-0.8C0.3,22.8,0.5,22.4,0.7,21.8z M1,20.8c0,0.1,0.1,0.2,0.1,0.4
		c0.1,0.4,0.2,1.4,0.2,1.4l0,0c-0.1,0.2-0.1,0.3-0.1,0.3S0.9,22.2,0.8,22c0-0.1,0-0.3-0.1-0.5C0.9,21.3,0.9,21.1,1,20.8z M1.4,19.3
		l-0.1,0c0,0,0.2,0.7,0.2,1c0,0.3,0.2,1,0.2,1.4c0,0.1-0.1,0.2-0.1,0.3c0-0.3-0.1-0.8-0.2-1c-0.1-0.4-0.2-0.9-0.2-0.9l0,0
		c0-0.3,0-0.5,0-0.8C1.2,19.4,1.2,19.2,1.4,19.3z M1.5,19.5c0.2,0.2,0.4,0.6,0.4,1c0,0.3,0,0.5-0.1,0.8c-0.1-0.3-0.1-0.7-0.1-0.9
		C1.7,20.1,1.6,19.7,1.5,19.5z M1,18.3C1,18.3,1,18.3,1,18.3C1,18.3,1,18.3,1,18.3C1,18.3,1,18.3,1,18.3z M1.1,16.3v1.4l0.2,0
		c-0.1,0-0.2,0-0.2,0c-0.2,0-0.4-0.1-0.4-0.1c0,0,0.1-0.3,0.2-0.5C0.9,17,1.1,16.6,1.1,16.3z M1.1,14.3v1.9c0-0.4-0.1-1.1-0.2-1.7
		C0.9,14.4,0.9,14.2,1.1,14.3C1.1,14.3,1.1,14.3,1.1,14.3z M1.6,14.7l0,2.9c-0.1,0.1-0.2,0.1-0.3,0.2v-3.3
		C1.4,14.6,1.5,14.6,1.6,14.7z M1.8,15c0.3,0.5,0.5,1.1,0.3,1.8C2.1,17,2,17.2,1.9,17.3L1.8,15z M4.3,26.7c-0.8-0.2-1.5-0.5-1.9-1
		c-0.1-0.1-0.2-0.2-0.3-0.3l0.6,0.1c0,0,0.1,0,0.1-0.1c0.4-0.3,0.9-0.5,1.4-0.7l-0.9-0.2c-0.1,0-0.1,0.1-0.2,0.1
		c-0.2,0.1-0.7,0.3-1.1,0.6c-0.1-0.1-0.2-0.2-0.2-0.4c0-0.3,0-0.6,0.3-0.9c0.5-0.5,0.7-0.5,0.9-0.9c0.2-0.4,0.2-1.3,0.1-1.4
		C3,21.7,2,22.4,1.7,23.2c-0.2,0.4-0.2,0.9-0.2,1.3c-0.2-0.5-0.2-1,0-1.3c0.5-0.9,0.8-2,0.7-3.2c-0.1-0.7-0.6-1.3-1-1.8
		c-0.1-0.1-0.2-0.2-0.2-0.2c0.3,0,0.6-0.1,0.9-0.4c0.2-0.2,0.3-0.4,0.4-0.8c0.3-0.9-0.1-1.6-0.5-2.2c0.3,0.4,0.6,0.6,0.8,0.7
		C3,15.6,2.9,15.7,5,16.5c0.7,0.3,1.2,0.6,1.6,1c-0.1,0-0.1,0-0.2,0.1l0.9,1c0,0,0.1,0,0.1-0.1c0.1,0.2,0.2,0.4,0.2,0.4
		c0.6,1.3,0.3,1.9,0,2.4c-0.2,0.3-0.7,0.6-1,0.5c-0.3-0.1-0.5-0.1-0.5-0.1c-0.2,0.6,1,1.9,1.9,0.6C8.4,23.7,8,25,7.2,25.8
		c0,0,0,0,0,0c-0.3-0.3-0.7-0.3-1,0C6,26,5.9,26.3,6,26.5c-0.3,0.1-0.6,0.2-0.9,0.2c0,0-0.1,0-0.1,0C4.8,26.7,4.5,26.7,4.3,26.7z
		 M2.1,23.1c0,0.2,0,0.3,0,0.4c-0.1,0.1-0.2,0.1-0.2,0c0-0.1,0-0.4,0-0.4c0.1-0.2,0.3-0.5,0.3-0.5S2.1,23,2.1,23.1z M2.3,23.2
		c-0.1-0.3,0-0.3,0-0.5c0-0.2,0.2-0.4,0.3-0.5c0,0-0.1,0.2-0.1,0.4c0,0.2,0.1,0.3,0,0.5C2.6,23.4,2.4,23.4,2.3,23.2z M3.8,24.3
		l1,0.3c0.8-0.2,1.4-0.3,1.4-0.3S5.8,24,5.5,23.5l-1.2-0.1c0.1,0.2,0.1,0.3,0.1,0.4C4.3,24,4.1,24.1,3.8,24.3z M4.1,23.1l1.1,0
		c-0.1-0.2-0.2-0.4-0.2-0.6l-1,0C4.1,22.7,4.1,22.9,4.1,23.1z M4.5,7L4.1,6.5L3.5,6.8c0,0,0.1,0.2,0.2,0.4c0.2,0.2,0.2,0.3,0.2,0.3
		L4.5,7z M3.6,4.9L3.5,4L2.8,4c0,0,0,0.3,0,0.5C2.8,4.7,2.8,5,2.8,5L3.6,4.9z M7.8,17l0.7,0.8c0.2-0.2,0.4-0.4,0.7-0.6l-0.7-0.7
		C8.3,16.7,8.1,16.8,7.8,17z M8.9,16.1c-0.1,0.1-0.1,0.1-0.2,0.2l0.7,0.6c0.2-0.3,0.4-0.6,0.6-0.9l-0.7-0.5
		C9.2,15.7,9.1,15.9,8.9,16.1z M3.6,3.6L3.6,3.6l0.1-0.8l0-0.1l-0.1,0c-0.3,0-0.6,0-0.8,0l0,0l0,0c0,0.2,0,0.5,0,0.8l0,0.1l0.1,0
		L3.6,3.6z M3.9,6.1L3.7,5.3L2.9,5.4c0,0.1,0,0.2,0.1,0.3c0.1,0.2,0.2,0.4,0.3,0.6l0,0L3.9,6.1z M4.9,19.1h0.8c0-0.1,0-0.2-0.2-0.5
		c-0.2-0.2-0.6-0.8-0.6-0.8C4.4,18,4.1,18,4.1,18S4.6,18.5,4.9,19.1z M1.7,27l-1.1,0c-0.1,0.3-0.1,0.6-0.2,0.9l1.2,0
		C1.7,27.8,1.6,27.4,1.7,27z M4.8,20.1L5.6,20c0-0.2,0.1-0.4,0.1-0.6l-0.7,0c0,0.1,0,0.2,0,0.3C4.9,19.8,4.9,19.9,4.8,20.1z
		 M5.3,17.8l0.9,1.1c0.2,0,0.6-0.1,0.9-0.3l-0.9-1C5.8,17.7,5.5,17.8,5.3,17.8z M4,22.1l1,0.1c0-0.2,0-0.4,0.1-0.6c0,0,0-0.1,0-0.1
		l-0.9-0.1C4.1,21.6,4.1,21.9,4,22.1z M5.7,19c0,0,0,0.1,0,0.1h0.2L5.7,19C5.7,19,5.7,19,5.7,19z M9.6,9.6C9.4,9.3,9.1,8.7,9.1,8.3
		c0-0.6,0.3-1.4,0.5-1.5c0.1-0.1,0.2-0.3,0.1-0.4C9.5,6.2,9.1,6,8.9,5.6C8.6,5.2,9,5.2,9.2,4.7c0.2-0.5,0.3-1.1,0.2-1.5
		C9.3,2.8,9.1,2.6,9.3,2.4C9.5,2.1,9.9,1.9,10,1.8c0.1,0,0.1-0.2,0-0.1C9.8,1.8,8.7,2.4,8.4,4C8.2,5.5,8.6,7.7,8.6,7.7S8,6.8,8,4.7
		c0-0.2,0-0.6,0-0.6c0-0.1-0.1-0.1-0.1,0L7.3,4.7c0,0,0.4,0.4,0.5,0.5C7.9,5.3,7.9,5.8,8,6c0,0.2-0.1,0.2-0.2,0.1
		C7.6,6.1,7,5.6,6.5,5.6C6.1,5.5,6.1,5.4,6.3,5.3c0.2,0,0.4-0.1,0.7,0c0.3,0.1,0.4,0,0.3-0.1C7.2,5.3,6.6,4.6,5.9,4.3
		c-0.6-0.3-1.8-0.3-2-0.3l0,0c0,0,0,0,0,0c0,0,0,0,0,0l0,0c0,0.2,0,1.4,0.3,2c0.4,0.7,1,1.3,1.1,1.4c0.1,0.1,0.2,0,0.1-0.3
		c-0.1-0.3-0.1-0.6,0-0.7c0-0.2,0.2-0.2,0.2,0.2c0.1,0.4,0.5,1,0.6,1.2C6.2,7.9,6.2,8,6,8c-0.2,0-0.7-0.1-0.8-0.1
		C5.1,7.8,4.7,7.3,4.7,7.3L4.1,7.8c-0.1,0-0.1,0.1,0,0.1c0,0,0.3,0,0.6,0c2,0,3,0.7,3,0.7S5.5,8.2,4,8.4C2.4,8.7,1.8,9.8,1.7,10
		c-0.1,0.2,0.1,0.1,0.1,0c0-0.1,0.3-0.5,0.5-0.7c0.3-0.2,0.4,0,0.8,0.1c0.4,0.1,1.1,0,1.5-0.2C5.2,9,5.2,8.6,5.6,8.9
		C6,9.1,6.2,9.5,6.4,9.7c0.1,0.1,0.3,0,0.4-0.1c0.1-0.1,1-0.5,1.5-0.5C8.7,9.1,9.3,9.4,9.6,9.6L9.6,9.6z M7.7,7.2
		C7.6,7.2,7.5,7.1,7.6,7c0-0.4-0.1-0.8-0.1-0.8s0.5,0.3,0.5,0.7C7.9,7.2,7.7,7.2,7.7,7.2z M8.2,7.8C8,7.5,8.1,6.7,8.1,6.7
		c0,0.2,0.3,0.8,0.4,1C8.6,8,8.3,8.1,8.2,7.8z M6.9,7.9c-0.4,0-0.7-0.5-0.7-0.5S6.5,7.6,7,7.6c0.1,0,0.2,0.1,0.3,0.2
		C7.2,7.7,7.2,7.9,6.9,7.9z M6.7,8.1c0,0,0.8,0,1.1,0.1C8.1,8.3,8,8.6,7.7,8.5C7.5,8.4,6.9,8.1,6.7,8.1z M10.1,12.9
		c0,0.3,0,0.6-0.1,0.9l0.7,0.1c0.1-0.3,0.1-0.6,0.1-0.9L10.1,12.9z M4.4,21l0.9,0.1c0.1-0.2,0.1-0.5,0.2-0.7l-0.9,0
		C4.6,20.6,4.5,20.8,4.4,21z M4.9,3.6L5,2.8c0,0-0.2-0.1-0.4-0.1c-0.2,0-0.5,0-0.5,0l0,0.7L4.9,3.6z M1.2,1.2c0,0,0.5,1.1,0.5,1.7
		c0,0.6-0.5,2.3-0.4,2.8c0.1,0.5,0.5,1.2,1,1.6c0,0-0.3,0.3-0.3,0.6c0,0.3,0.1,0.4,0,0.6c-0.1,0.2-0.6,0.8-0.7,1
		c-0.1,0.1,0,0.1,0.1,0c0.1-0.1,0.9-0.9,2.1-1.4c0.1,0,0.4-0.1,0.2-0.2C3.4,7.6,2.9,6.9,2.6,6C2.2,4.7,2.2,2.3,2.2,2.3l0-0.1l0,0v0
		l0,0l0,0l0.1,0c0,0,2.4-0.1,3.7,0.4c0.9,0.3,1.6,0.8,2,1.1c0.2,0.2,0.2-0.1,0.2-0.2c0.4-1.2,1.3-2,1.4-2.1c0.1-0.1,0.1-0.2,0-0.1
		C9.4,1.4,8.8,1.9,8.6,2c-0.2,0.1-0.3,0-0.6,0C7.6,2,7.4,2.3,7.4,2.3c-0.4-0.5-1.2-0.9-1.6-1C5.3,1.2,3.6,1.7,2.9,1.7
		C2.3,1.8,1.2,1.2,1.2,1.2 M6.8,3.5L6.5,4.1L7,4.5l0.5-0.6c0,0-0.1-0.1-0.3-0.2C7,3.5,6.8,3.5,6.8,3.5z M13.9,10.7L13.8,10
		c-0.3,0.1-0.6,0.1-0.9,0.1l0.1,0.8C13.3,10.8,13.6,10.8,13.9,10.7z M10.3,1.1l0.2-0.2c0,0-0.7-0.7-1.6-0.8c-0.5,0-0.9,0.3-1.2,0.5
		C7.7,0.7,7.6,0.8,7.6,0.9C7.3,0.7,6.7,0.4,5.9,0.2C4.9,0.1,0.2,0,0.2,0L0,0l0,0.2c0,0,0.1,4.7,0.2,5.7c0.1,0.8,0.5,1.4,0.6,1.6
		c-0.1,0-0.1,0.1-0.2,0.2C0.4,7.9,0.2,8.3,0.2,8.9c0,0.9,0.8,1.6,0.8,1.6l0.2-0.2c0,0-0.7-0.7-0.7-1.5c0-0.5,0.2-0.8,0.4-1
		C1,7.8,1.1,7.7,1.1,7.7c0,0,0.1,0,0.1-0.1c0,0,0-0.1,0-0.1c0,0-0.5-0.7-0.6-1.6C0.3,5,0.3,0.7,0.3,0.3c0.4,0,4.7,0.1,5.6,0.2
		c0.9,0.1,1.6,0.6,1.6,0.6c0,0,0.1,0,0.1,0c0,0,0.1,0,0.1-0.1c0,0,0.1-0.1,0.2-0.3c0.2-0.2,0.5-0.4,1-0.4C9.7,0.4,10.3,1.1,10.3,1.1
		z M14.4,10.6c0.4-0.1,0.8-0.2,1.1-0.4l-0.5-0.7c-0.3,0.2-0.7,0.3-1,0.3L14.4,10.6z M6.1,3.9l0.3-0.6l0,0C6.2,3.2,5.9,3.1,5.7,3
		C5.6,3,5.5,2.9,5.4,2.9L5.3,3.7L6.1,3.9z M20.4,4.7l0,0.9c0.2-0.1,0.4-0.1,0.7-0.2L21,4.4C20.8,4.5,20.6,4.6,20.4,4.7z M19.1,5.9
		l0-0.2c-0.1,0-0.1,0-0.1,0s0,0,0,0.1L19.1,5.9z M19.4,5l0,0.7c0.2,0,0.4,0,0.6-0.1l0.1-0.8c-0.2,0.1-0.3,0.1-0.4,0.2
		C19.5,5,19.5,5,19.4,5z M18,4.1c0,0,0,0.3-0.1,0.9c0,0,0.5,0.5,0.8,0.6c0.2,0.2,0.4,0.2,0.5,0.2V4.9C18.5,4.7,18,4.1,18,4.1z
		 M18.9,6.1l-1.1-0.9c0,0.3-0.1,0.6-0.2,0.9l1,0.9C18.8,6.7,18.9,6.4,18.9,6.1z M23.5,5.5c0.5,0.3,0.8,0.7,0.8,0.7s0.1-0.6,0.3-1.4
		l-0.3-1c-0.1,0.3-0.2,0.5-0.4,0.5c-0.1,0-0.3,0-0.4-0.1L23.5,5.5z M15.5,9.3L16,10c0.3-0.2,0.6-0.3,0.9-0.6l-0.6-0.7
		c-0.1,0.1-0.1,0.1-0.2,0.2C15.9,9.1,15.7,9.2,15.5,9.3z M17,7.8c-0.1,0.2-0.3,0.5-0.5,0.7l0.7,0.7c0.2-0.2,0.4-0.4,0.6-0.7L17,7.8z
		 M21.3,4.2l0.1,0.9c0,0,0.1,0,0.1,0C21.8,5.1,22,5,22.2,5l-0.1-1C21.9,4.1,21.6,4.1,21.3,4.2z M27.9,1.7l0-1.2
		c-0.3,0-0.6,0.1-0.9,0.2l0,1.1C27.4,1.6,27.8,1.7,27.9,1.7z M22.5,4l0,1c0.2,0,0.4,0.1,0.6,0.2l0-1.1C22.9,4.1,22.7,4.1,22.5,4z"/>
	<path id="XMLID_6305_" class="st0" d="M12.5,12.4c0,0,0.5,0.7,0.7,1c0.1,0.3,0.3,0.7,0.7,0.8c0.3,0.1,0.5,0.1,0.5,0.1
		c0,0,0-0.3-0.1-0.6c-0.1-0.3-0.5-0.5-0.8-0.7C13.1,13,12.5,12.4,12.5,12.4z"/>
</g>
</svg>
