<?xml version="1.0" encoding="utf-8"?>
<!-- Generator: Adobe Illustrator 19.0.0, SVG Export Plug-In . SVG Version: 6.00 Build 0)  -->
<svg version="1.1" id="レイヤー_1" xmlns="http://www.w3.org/2000/svg" xmlns:xlink="http://www.w3.org/1999/xlink" x="0px"
	 y="0px" viewBox="0 0 30.5 30.5" style="enable-background:new 0 0 30.5 30.5;" xml:space="preserve" width="100px" height="100px">
<style type="text/css">
	.st0{fill:#E5E5E4;}
</style>
<g id="XMLID_6304_">
	<path id="XMLID_6306_" class="st0" d="M19.9,14.4c0.1,0.4,0.2,0.8,0.4,1.1l0.7-0.5c-0.2-0.3-0.3-0.7-0.3-1L19.9,14.4z M30,28.3
		l-1,0c0.3,0.2,0.6,0.6,0.7,1c0.2,0.6-0.8,0.5-1,0.3c-0.2-0.2-0.5-1.1-0.6-1.5c-0.2-0.5-0.9-0.7-1.6-1c-0.1,0-0.1-0.1-0.2-0.1
		c0.8-0.2,1.5-0.5,2-1c0.2,0.2,0.3,0.4,0.4,0.6l1,0c-0.2-0.4-0.4-0.6-0.6-0.9l-0.5,0.1c0.1-0.1,0.2-0.3,0.3-0.4l0.1,0
		c0,0,1-1.3,1.4-2c0.3-0.8-0.2-1.5-0.6-2.7c-0.3-1.1,0.2-2.5,0.2-2.6c0.1,0,0.2-0.1,0.2-0.1c0,0,0-0.1,0.1-0.1
		c0-0.2-0.1-0.4-0.2-0.6c-0.1-0.3-0.2-0.6-0.3-0.8c0-0.5,0.4-2.5,0.5-3c0.1-0.5-0.1-1.8-0.1-1.8c0-0.1-0.1-0.1-0.1-0.1c0,0,0,0,0,0
		c0,0,0,0,0,0c0,0,0,0,0,0s0,0,0,0c0,0,0,0,0,0c-0.1,0-0.2,0.2-0.3,0.4c-0.1,0.3-0.4,0.4-0.3,0.1c0-0.3-0.1-0.9-0.1-1
		c0-0.1,0-0.3-0.2-0.2c0,0-1,0.6-1.5,0.6c-0.5,0-0.7-0.1-1.4-0.5c-0.7-0.3-0.7-0.2-1.1,0.4c-0.4,0.6-0.8,0.6-1.2,0.6
		c-0.3,0-1.3-0.8-2.4-1c-1.1-0.1-2.4,0.9-2.8,1.8c-0.4,0.9-0.4,1.6,0,2.3c0.4,0.7,1,0.8,1.1,1c0.1,0.1-0.8,1.2-1.6,0.7
		c-0.8-0.4-0.7-1.8-0.7-1.8s-0.7,0.5-1.2,0.6c-0.5,0.1-0.9,0.1-1,0.1c0,0-0.1-0.5,0.1-1c0.2-0.5,0.6-1.2,0.6-1.2s-1.3,0.2-1.8-0.7
		c-0.4-0.8,0.6-1.7,0.7-1.6c0.1,0.1,0.2,0.7,1,1.1c0.7,0.4,1.5,0.4,2.3,0c0.9-0.4,1.9-1.7,1.8-2.8c-0.1-1.1-0.9-2.1-1-2.4
		c0-0.3,0-0.8,0.6-1.2c0.6-0.4,0.7-0.4,0.4-1.1c-0.3-0.7-0.5-1-0.5-1.4c0-0.5,0.6-1.5,0.6-1.5c0-0.2-0.1-0.2-0.2-0.2
		c-0.1,0-0.7-0.1-1-0.1c-0.3,0-0.2-0.3,0.1-0.3c0.3-0.1,0.5-0.1,0.4-0.3c0,0,0,0,0,0c0,0,0,0,0,0s0,0,0,0c0,0,0,0,0,0c0,0,0,0,0,0
		c0-0.1-0.1-0.1-0.1-0.1c0,0-1.3-0.1-1.8-0.1c-0.5,0.1-2.4,0.5-3,0.5c-0.3,0-0.6-0.1-0.8-0.3c-0.3-0.1-0.4-0.2-0.7-0.2
		c0,0-0.1,0-0.1,0.1c0,0-0.1,0.1-0.1,0.2c-0.2,0.1-1.6,0.5-2.6,0.2C8.7,0.5,8-0.1,7.2,0.3c-0.7,0.3-2,1.4-2,1.4l0,0.1
		C5.1,1.8,4.9,1.9,4.8,2l0.1-0.5C4.6,1.3,4.3,1,4,0.9l0,1c0.2,0.1,0.4,0.2,0.6,0.4c-0.5,0.5-0.8,1.1-1,2C3.5,4.1,3.5,4,3.5,4
		c-0.4-0.7-0.6-1.4-1-1.6C2,2.2,1.1,2,0.9,1.7c-0.2-0.2-0.3-1.2,0.3-1c0.4,0.1,0.7,0.5,1,0.7l0-1c-2.7-0.1-2.1,0.1-2.1,0.1
		s0.1,1.6,0,2c0,0.4,0.4-0.1,0.9,0c0.5,0,1.7,0.3,2.2,1.3c0.2,0.4,0.3,0.7,0.4,1c0,0.4,0.1,0.9,0.2,1.2c0,0,0,0-0.1,0
		c-0.3,0.3-0.3,0.7,0,1c0.2,0.2,0.5,0.3,0.8,0.1c0,0,0,0,0,0.1l0,0c0.9,0.9,2.3,1.3,3.8,0.9L8.3,8.1c0,0,0.1,0.1,0.1,0.1
		c1.2,0.6,2.5,0.3,3.7-0.5c0.1,0.2,0.2,0.3,0.3,0.5l0.9-0.7c-0.1-0.2-0.2-0.4-0.2-0.6c0,0,0,0,0,0C13.9,6.1,14.3,5,14.8,4
		c0,0.6,0.1,1.8,0.4,2.7c0.4,1.1,1.3,1.5,1.7,1.4C17.3,8,17.4,8,17.8,7.4c0.4-0.5-0.4,0.1-1.1,0.1c-0.7,0-1.2-0.5-1.5-1.5
		c-0.2-0.9,0-2.5,0.1-2.9c0.2-0.3,0.3-0.5,0.5-0.8c0.3-0.3,0.6-0.6,1-0.8c0.2-0.1,0.5-0.1,0.6-0.1c0.3,0.1,0.3,0.1,0.1,0.3
		c-0.1,0-0.1,0.1-0.2,0.1c-1,0.5-2.4,1.8-1.6,3c0.8,1.2,1.9,0.7,2.2,0.3c0.3-0.4-0.6,0.1-0.9-0.5c-0.3-0.6-0.5-1.4-0.3-1.9
		c0.2-0.3,0.7-0.9,1.2-1.1c0.4-0.1,1.1-0.1,1.2,0c0,0-0.6,0.8-0.6,1.7c0,0.9,0.5,2.1,0.5,2.1s-0.8,1.1-1,1.6
		c-0.2,0.5,0.6,0.3,0.8,1.6C19,9,19,9.5,18.9,10c-0.2,0-0.5,0.1-0.9,0.1l-0.3,0.8c0.4,0,0.7,0,0.8,0c-0.4,0.6-0.9,1.1-1.7,1.2
		c-1.7,0.3-2-1.5-2-1.5s-0.9-0.2-1.5,0.7c-1.2,1.7,1.4,2.4,1.4,2.4s-0.3,0.7-0.6,1.3c-0.3,0.6-0.4,1.8-0.4,1.8l0,0
		c0,0,1.2-0.1,1.8-0.4c0.6-0.3,1.3-0.6,1.3-0.6s0.7,2.6,2.4,1.4c0.9-0.6,0.7-1.5,0.7-1.5s-1.7-0.3-1.5-2c0.1-0.8,0.6-1.4,1.2-1.7
		c0,0.1,0,0.4,0,0.8l0.8-0.3c0-0.4,0-0.7,0.1-0.9c0.5-0.1,1-0.2,1.5-0.1c1.3,0.3,1.1,1.1,1.6,0.8c0.5-0.2,1.6-1,1.6-1
		s1.2,0.5,2.1,0.5c0.9,0,1.7-0.6,1.7-0.6c0.2,0.1,0.1,0.8,0,1.2c-0.2,0.5-0.8,1-1.1,1.2c-0.4,0.3-1.2,0.1-1.9-0.3
		c-0.6-0.3-0.2-1.2-0.5-0.9c-0.4,0.3-0.9,1.5,0.3,2.2c1.2,0.8,2.5-0.6,3-1.6c0,0,0.1-0.1,0.1-0.2c0.2-0.2,0.2-0.2,0.3,0.1
		c0,0.1,0,0.4-0.1,0.7c-0.2,0.4-0.5,0.7-0.8,1c-0.2,0.2-0.5,0.4-0.8,0.5c-0.4,0.1-2.1,0.3-2.9,0.1c-1-0.3-1.5-0.8-1.5-1.5
		c0-0.7,0.7-1.4,0.1-1.1c-0.5,0.4-0.6,0.5-0.7,0.9c-0.1,0.4,0.3,1.3,1.4,1.7c0.9,0.3,2.2,0.4,2.7,0.4c-1,0.5-2,0.9-2.9,1.7
		c0,0,0,0,0,0c-0.2-0.1-0.4-0.2-0.6-0.2L22.3,18c0.2,0.1,0.3,0.2,0.5,0.3c-0.8,1.2-1.1,2.5-0.5,3.7c0,0,0.1,0.1,0.1,0.1l-0.2-0.1
		c-0.4,1.5,0,2.9,0.9,3.8l0,0c0,0,0,0,0.1,0c-0.1,0.3-0.1,0.6,0.1,0.8c0.3,0.3,0.7,0.3,1,0c0,0,0,0,0-0.1c0.4,0.1,0.8,0.2,1.2,0.2
		c0.3,0.1,0.7,0.2,1,0.4c1,0.4,1.3,1.7,1.3,2.2c0,0.5-0.4,0.9,0,0.9c0.4,0,2,0,2,0S30.1,31,30,28.3z M15.8,1.6l-2.9,0
		c-0.1-0.1-0.1-0.2-0.2-0.3H16C15.9,1.4,15.8,1.5,15.8,1.6z M15.4,1.8c-0.5,0.3-1.1,0.5-1.8,0.3c-0.2-0.1-0.4-0.2-0.5-0.2L15.4,1.8z
		 M16,0.8c0.1,0,0.3,0.1,0.2,0.2c0,0,0,0,0,0h-1.9C14.6,1.1,15.3,1,16,0.8z M13.3,0.8c0.3,0.1,0.6,0.3,0.9,0.3h-1.4l0,0.2
		c0-0.1,0-0.2,0-0.2c0-0.2,0.1-0.4,0.1-0.4C12.8,0.6,13,0.7,13.3,0.8z M12.2,1C12.2,1,12.2,1,12.2,1C12.1,1,12.2,1,12.2,1
		C12.2,1,12.2,1,12.2,1z M10.2,1.2c0.3,0,0.5,0,0.8,0c0.1,0,0.2,0,0.1,0.2l0-0.1c0,0-0.7,0.2-1,0.2c-0.3,0-1,0.2-1.4,0.2
		c-0.1,0-0.2-0.1-0.3-0.1c0.3,0,0.8-0.1,1-0.2C9.8,1.2,10.3,1.2,10.2,1.2L10.2,1.2z M11,1.5c-0.2,0.2-0.6,0.4-1,0.4
		c-0.3,0-0.5,0-0.8-0.1c0.3-0.1,0.7-0.1,0.9-0.1C10.4,1.7,10.8,1.6,11,1.5z M9.7,1c-0.1,0-0.2,0.1-0.4,0.1C8.9,1.3,7.9,1.3,7.9,1.3
		v0C7.7,1.2,7.6,1.2,7.6,1.2s0.7-0.3,0.8-0.4c0.1,0,0.3,0,0.5-0.1C9.2,0.9,9.4,0.9,9.7,1z M7.3,0.5c0.4-0.2,0.8,0,1.4,0.2
		c-0.2,0-0.5,0-0.8,0.2C7.3,1.1,6.7,1,6.5,1C6.8,0.8,7.1,0.6,7.3,0.5z M14,5c-0.3,0.7-0.6,1.2-1,1.6c0-0.1,0-0.1-0.1-0.2l-1,0.9
		c0,0,0,0.1,0.1,0.1c-0.2,0.1-0.4,0.2-0.4,0.2c-1.3,0.6-1.9,0.3-2.4,0C9,7.5,8.7,7,8.8,6.7c0.1-0.3,0.1-0.5,0.1-0.5
		C8.2,5.9,7,7.2,8.3,8.1C6.8,8.4,5.5,8,4.7,7.2c0,0,0,0,0,0c0.3-0.3,0.3-0.7,0-1C4.5,6,4.2,5.9,4,6C3.9,5.7,3.8,5.5,3.8,5.2
		c0,0,0-0.1,0-0.1c0-0.3,0-0.5,0.1-0.8c0.2-0.8,0.5-1.5,1-1.9C4.9,2.2,5,2.1,5.1,2.1L5,2.7c0,0,0,0.1,0.1,0.1
		c0.3,0.4,0.5,0.9,0.7,1.4L6,3.3c0-0.1-0.1-0.1-0.1-0.2C5.7,2.8,5.6,2.4,5.3,2c0.1-0.1,0.2-0.2,0.4-0.2c0.3,0,0.6,0,0.9,0.3
		C7.1,2.5,7,2.7,7.4,3c0.4,0.2,1.3,0.2,1.4,0.1C8.8,3,8.1,2,7.3,1.7C6.8,1.6,6.4,1.6,6,1.6c0.5-0.2,1-0.2,1.3,0
		c0.9,0.5,2,0.8,3.2,0.7c0.7-0.1,1.3-0.6,1.8-1c0.1-0.1,0.2-0.2,0.2-0.2c0,0.3,0.1,0.6,0.4,0.9c0.2,0.2,0.4,0.3,0.8,0.4
		c0.9,0.3,1.6-0.1,2.2-0.5c-0.4,0.3-0.6,0.6-0.7,0.8C14.9,3,14.8,2.9,14,5z M7.3,2.1c-0.2,0-0.3,0-0.4,0c-0.1-0.1-0.1-0.2,0-0.2
		c0.1,0,0.4,0,0.4,0c0.2,0.1,0.5,0.3,0.5,0.3S7.5,2.1,7.3,2.1z M7.8,2.3c0.2,0,0.4,0.2,0.5,0.3c0,0-0.2-0.1-0.4-0.1
		c-0.2,0-0.3,0.1-0.5,0c-0.2,0-0.3-0.2,0-0.3C7.6,2.2,7.6,2.3,7.8,2.3z M30,23.2c-0.1,0.2-0.3,0.5-0.5,0.8c0-0.2-0.1-0.8,0.1-1.4
		c0.1-0.3,0.2-0.6,0.2-0.8C30,22.4,30.1,22.8,30,23.2z M29.7,21.5c0,0.2,0,0.4-0.1,0.5c-0.1,0.2-0.4,0.8-0.4,0.8s0-0.1-0.1-0.3l0,0
		c0,0,0-1,0.2-1.4c0-0.1,0.1-0.2,0.1-0.4C29.5,21.1,29.6,21.3,29.7,21.5z M29.3,19.4c0,0.3,0,0.5,0,0.8l0,0c0,0,0,0.4-0.2,0.9
		c-0.1,0.3-0.1,0.7-0.2,1c0-0.1-0.1-0.2-0.1-0.3c0.1-0.4,0.2-1.1,0.2-1.4C29.1,20,29.2,19.3,29.3,19.4l-0.2-0.1
		C29.2,19.2,29.3,19.4,29.3,19.4z M28.8,20.4c0,0.2-0.1,0.6-0.1,0.9c-0.1-0.3-0.1-0.5-0.1-0.8c0-0.4,0.2-0.8,0.4-1
		C28.9,19.7,28.8,20.1,28.8,20.4z M29.5,18.3C29.5,18.3,29.5,18.3,29.5,18.3C29.5,18.3,29.5,18.3,29.5,18.3
		C29.5,18.3,29.5,18.3,29.5,18.3z M29.7,17.2c0.1,0.2,0.2,0.4,0.2,0.5c0,0-0.2,0.1-0.4,0.1c-0.1,0-0.2,0-0.2,0l0.2,0v-1.4
		C29.4,16.6,29.6,17,29.7,17.2z M29.4,14.3c0.1-0.1,0.2,0.1,0.2,0.2c-0.1,0.6-0.2,1.3-0.2,1.7L29.4,14.3
		C29.4,14.3,29.4,14.3,29.4,14.3z M29.1,14.5v3.3c-0.1,0-0.2-0.1-0.3-0.2l0-2.9C29,14.6,29.1,14.6,29.1,14.5z M28.6,17.3
		c-0.1-0.1-0.2-0.3-0.2-0.5c-0.2-0.7,0-1.3,0.3-1.8L28.6,17.3z M25.4,26.7c0,0-0.1,0-0.1,0c-0.3,0-0.6-0.1-0.9-0.2
		c0.1-0.2,0-0.5-0.2-0.7c-0.3-0.3-0.7-0.3-1,0c0,0,0,0,0,0c-0.8-0.8-1.2-2.1-0.9-3.6c0.9,1.3,2.2,0,1.9-0.6c0,0-0.2,0-0.5,0.1
		c-0.3,0.1-0.8-0.2-1-0.5c-0.3-0.4-0.6-1,0-2.4c0,0,0.1-0.1,0.2-0.4c0,0,0.1,0,0.1,0.1l0.9-1c-0.1,0-0.1,0-0.2-0.1
		c0.4-0.4,0.9-0.7,1.6-1c2.1-0.8,2-0.9,2.3-1.1c0.2-0.1,0.5-0.3,0.8-0.7c-0.4,0.6-0.7,1.3-0.5,2.2c0.1,0.3,0.3,0.6,0.4,0.8
		c0.3,0.3,0.6,0.4,0.9,0.4c-0.1,0.1-0.2,0.1-0.2,0.2c-0.4,0.4-0.9,1.1-1,1.8c-0.1,1.1,0.2,2.3,0.7,3.2c0.2,0.3,0.2,0.7,0,1.3
		c0-0.3,0-0.8-0.2-1.3c-0.3-0.8-1.3-1.5-1.4-1.5c-0.1,0.1-0.1,1,0.1,1.4c0.2,0.4,0.4,0.3,0.9,0.9c0.3,0.3,0.3,0.7,0.3,0.9
		c-0.1,0.1-0.1,0.2-0.2,0.4c-0.4-0.3-0.9-0.5-1.1-0.6c-0.1,0-0.1-0.1-0.2-0.1l-0.9,0.2c0.5,0.2,1,0.4,1.4,0.7c0,0,0.1,0,0.1,0.1
		l0.6-0.1c-0.1,0.1-0.2,0.2-0.3,0.3c-0.5,0.5-1.1,0.8-1.9,1C25.9,26.7,25.7,26.7,25.4,26.7z M28.3,22.7c0,0,0.2,0.3,0.3,0.5
		c0,0,0,0.3,0,0.4c0,0.1-0.2,0.1-0.2,0c-0.1-0.1,0-0.3,0-0.4C28.3,23,28.3,22.7,28.3,22.7z M27.9,23.2c0-0.2,0-0.3,0-0.5
		c0-0.2-0.1-0.4-0.1-0.4c0.1,0.1,0.3,0.3,0.3,0.5c0,0.2,0.1,0.2,0,0.5C28.1,23.4,27.9,23.4,27.9,23.2z M26.1,23.9
		c0-0.1,0-0.3,0.1-0.4L25,23.5c-0.3,0.5-0.7,0.8-0.7,0.8s0.6,0.1,1.4,0.3l1-0.3C26.3,24.1,26.1,24,26.1,23.9z M26.4,22.5l-1,0
		c0,0.2-0.1,0.4-0.2,0.6l1.1,0C26.4,22.9,26.4,22.7,26.4,22.5z M26.5,7.5c0,0,0.1-0.1,0.2-0.3C26.9,7,27,6.8,27,6.8l-0.7-0.4L25.9,7
		L26.5,7.5z M27.6,5c0,0,0.1-0.2,0.1-0.4c0-0.2,0-0.5,0-0.5L27,4l-0.1,0.9L27.6,5z M22,16.5l-0.7,0.7c0.2,0.2,0.4,0.4,0.7,0.6
		l0.7-0.8C22.4,16.8,22.2,16.7,22,16.5z M21.1,15.5L20.5,16c0.2,0.3,0.3,0.6,0.6,0.9l0.7-0.6c-0.1-0.1-0.1-0.1-0.2-0.2
		C21.4,15.9,21.2,15.7,21.1,15.5z M27.6,3.7L27.6,3.7L27.6,3.7c0.1-0.4,0.1-0.7,0.1-0.9l0,0l0,0c-0.2,0-0.5,0-0.8,0l-0.1,0l0,0.1
		l0.1,0.8l0,0L27.6,3.7z M27.2,6.4L27.2,6.4c0.1-0.2,0.2-0.4,0.3-0.6c0-0.1,0.1-0.2,0.1-0.3l-0.8-0.1l-0.2,0.8L27.2,6.4z M26.4,18
		c0,0-0.3,0-0.9-0.1c0,0-0.5,0.5-0.6,0.8c-0.2,0.2-0.2,0.4-0.2,0.5h0.8C25.8,18.5,26.4,18,26.4,18z M28.8,27.9l1.2,0
		c0-0.3-0.1-0.6-0.2-0.9l-1.1,0C28.8,27.4,28.8,27.8,28.8,27.9z M25.5,19.6c0-0.1,0-0.2,0-0.3l-0.7,0c0,0.2,0,0.4,0.1,0.6l0.8,0.1
		C25.6,19.9,25.5,19.8,25.5,19.6z M24.3,17.7l-0.9,1c0.4,0.1,0.7,0.2,0.9,0.3l0.9-1.1C24.9,17.8,24.6,17.7,24.3,17.7z M26.2,21.4
		l-0.9,0.1c0,0,0,0.1,0,0.1c0.1,0.2,0.1,0.4,0.1,0.6l1-0.1C26.4,21.9,26.3,21.6,26.2,21.4z M24.7,19l-0.1,0.1h0.2
		C24.8,19,24.8,19,24.7,19C24.8,19,24.7,19,24.7,19z M20.9,9.6c0.3-0.2,0.8-0.5,1.3-0.5c0.6,0,1.4,0.3,1.5,0.5
		c0.1,0.1,0.3,0.2,0.4,0.1c0.1-0.1,0.4-0.5,0.8-0.8c0.4-0.3,0.4,0.1,0.9,0.4c0.5,0.2,1.1,0.3,1.5,0.2c0.4-0.1,0.6-0.3,0.8-0.1
		c0.3,0.2,0.5,0.6,0.5,0.7c0,0.1,0.2,0.1,0.1,0c-0.1-0.2-0.7-1.3-2.3-1.5c-1.6-0.3-3.7,0.2-3.7,0.2s0.9-0.6,3-0.7c0.2,0,0.6,0,0.6,0
		c0.1,0,0.1-0.1,0-0.1l-0.6-0.5c0,0-0.4,0.4-0.5,0.5c-0.1,0.1-0.6,0.1-0.8,0.1c-0.2,0-0.2-0.1-0.1-0.2c0.1-0.1,0.5-0.7,0.6-1.2
		c0.1-0.4,0.2-0.4,0.2-0.2c0,0.2,0.1,0.4,0,0.7c-0.1,0.3,0,0.4,0.1,0.3c0.1-0.1,0.7-0.7,1.1-1.4c0.3-0.6,0.3-1.8,0.3-2l0,0
		c0,0,0,0,0,0c0,0,0,0,0,0l0,0c-0.2,0-1.4,0-2,0.3c-0.7,0.4-1.3,1-1.4,1.1c-0.1,0.1,0,0.2,0.3,0.1c0.3-0.1,0.6-0.1,0.7,0
		c0.2,0,0.2,0.2-0.2,0.2c-0.4,0.1-1,0.5-1.2,0.6c-0.1,0.1-0.3,0-0.2-0.1c0-0.2,0.1-0.7,0.1-0.8c0.1-0.1,0.5-0.5,0.5-0.5l-0.5-0.6
		c0-0.1-0.1-0.1-0.1,0c0,0,0,0.3,0,0.6c0,2-0.7,3-0.7,3S22.3,5.5,22,4c-0.3-1.6-1.4-2.2-1.5-2.3c-0.2-0.1-0.1,0.1,0,0.1
		c0.1,0,0.5,0.3,0.7,0.5c0.2,0.3,0,0.4-0.1,0.8c-0.1,0.4,0,1.1,0.2,1.5c0.2,0.5,0.6,0.5,0.4,0.9c-0.3,0.4-0.6,0.6-0.8,0.8
		c-0.1,0.1,0,0.3,0.1,0.4c0.1,0.1,0.5,1,0.5,1.5C21.4,8.7,21,9.3,20.9,9.6L20.9,9.6z M22.6,6.9c0-0.4,0.5-0.7,0.5-0.7
		S22.9,6.5,22.9,7c0,0.1-0.1,0.2-0.2,0.3C22.7,7.2,22.5,7.2,22.6,6.9z M22,7.7c0.1-0.3,0.4-0.8,0.4-1c0,0,0,0.8-0.1,1.1
		C22.2,8.1,21.9,8,22,7.7z M23.2,7.7c0-0.1,0.1-0.2,0.3-0.2c0.4,0,0.8-0.1,0.8-0.1S24,7.9,23.6,7.9C23.2,7.9,23.2,7.7,23.2,7.7z
		 M22.7,8.5c-0.3,0.1-0.3-0.2-0.1-0.3c0.3-0.1,1.1-0.1,1.1-0.1C23.6,8.1,23,8.4,22.7,8.5z M19.6,13.1c0,0.3,0.1,0.6,0.1,0.9l0.7-0.1
		c-0.1-0.3-0.1-0.6-0.1-0.9L19.6,13.1z M25.8,20.4l-0.9,0c0.1,0.2,0.1,0.4,0.2,0.7l0.9-0.1C26,20.8,25.9,20.6,25.8,20.4z M26.4,3.5
		l0-0.7c0,0-0.3,0-0.5,0c-0.2,0-0.4,0.1-0.4,0.1l0.1,0.7L26.4,3.5z M29.2,1.2c0,0-1.1,0.5-1.7,0.5c-0.6,0-2.3-0.5-2.8-0.4
		c-0.5,0.1-1.2,0.5-1.6,1c0,0-0.3-0.3-0.6-0.3c-0.3,0-0.4,0.1-0.6,0c-0.2-0.1-0.8-0.6-1-0.7c-0.1-0.1-0.1,0,0,0.1
		c0.1,0.1,0.9,0.9,1.4,2.1c0,0.1,0.1,0.4,0.2,0.2c0.4-0.3,1.1-0.8,2-1.1c1.3-0.4,3.7-0.4,3.7-0.4l0.1,0l0,0l0,0v0l0,0l0,0.1
		c0,0,0.1,2.4-0.4,3.7c-0.3,0.9-0.8,1.6-1.1,2c-0.2,0.2,0.1,0.2,0.2,0.2c1.2,0.4,2,1.3,2.1,1.4c0.1,0.1,0.2,0.1,0.1,0
		c-0.1-0.1-0.6-0.7-0.7-1c-0.1-0.2,0-0.3,0-0.6c0-0.3-0.3-0.6-0.3-0.6c0.5-0.4,0.9-1.2,1-1.6c0.1-0.5-0.4-2.2-0.4-2.8
		C28.7,2.3,29.2,1.2,29.2,1.2 M23.3,3.7C23.1,3.8,23,3.9,23,3.9l0.5,0.6L24,4.1l-0.4-0.7C23.7,3.5,23.5,3.5,23.3,3.7z M17.4,10.8
		l0.1-0.8c-0.3,0-0.6,0-0.9-0.1l-0.1,0.7C16.8,10.8,17.1,10.8,17.4,10.8z M21.6,0.4c0.5,0,0.8,0.2,1,0.4c0.1,0.1,0.2,0.3,0.2,0.3
		c0,0,0,0.1,0.1,0.1c0,0,0.1,0,0.1,0c0,0,0.7-0.5,1.6-0.6c0.9-0.1,5.2-0.2,5.6-0.2c0,0.4-0.1,4.7-0.2,5.6c-0.1,0.9-0.6,1.6-0.6,1.6
		c0,0,0,0.1,0,0.1c0,0,0,0.1,0.1,0.1c0,0,0.1,0.1,0.3,0.2c0.2,0.2,0.4,0.5,0.4,1c0,0.8-0.7,1.5-0.7,1.5l0.2,0.2c0,0,0.7-0.7,0.8-1.6
		c0-0.5-0.3-0.9-0.5-1.2c-0.1-0.1-0.1-0.1-0.2-0.2c0.1-0.2,0.5-0.9,0.6-1.6c0.2-1,0.2-5.7,0.2-5.7l0-0.2l-0.2,0c0,0-4.7,0.1-5.7,0.2
		c-0.8,0.1-1.4,0.5-1.6,0.6c0-0.1-0.1-0.1-0.2-0.2c-0.2-0.2-0.6-0.5-1.2-0.5c-0.9,0-1.6,0.8-1.6,0.8l0.2,0.2
		C20.1,1.1,20.8,0.4,21.6,0.4z M16.4,9.9c-0.3-0.1-0.7-0.2-1-0.3l-0.5,0.7c0.4,0.2,0.8,0.3,1.1,0.4L16.4,9.9z M25.1,3.7L25,2.9
		c-0.1,0-0.2,0-0.3,0.1c-0.2,0.1-0.4,0.2-0.6,0.3l0,0l0.3,0.6L25.1,3.7z M9.5,4.4L9.4,5.3c0.2,0.1,0.5,0.1,0.7,0.2l0-0.9
		C9.9,4.6,9.7,4.5,9.5,4.4z M11.5,5.8C11.5,5.7,11.5,5.7,11.5,5.8c0-0.1-0.1-0.1-0.1-0.1l0,0.2L11.5,5.8z M10.8,5
		c-0.1,0-0.3-0.1-0.4-0.2l0.1,0.8c0.2,0,0.4,0.1,0.6,0.1l0-0.7C11,5,10.9,5,10.8,5z M11.4,4.9v0.8c0.1,0,0.2,0,0.5-0.2
		c0.2-0.2,0.8-0.6,0.8-0.6c-0.1-0.5-0.1-0.9-0.1-0.9S11.9,4.7,11.4,4.9z M11.8,7.1l1-0.9c-0.1-0.3-0.1-0.6-0.2-0.9l-1.1,0.9
		C11.6,6.4,11.7,6.7,11.8,7.1z M7,4.2C6.8,4.3,6.7,4.3,6.6,4.3c-0.2,0-0.3-0.2-0.4-0.5l-0.3,1c0.2,0.8,0.3,1.4,0.3,1.4
		S6.5,5.8,7,5.5L7,4.2z M14.4,8.9c-0.1-0.1-0.1-0.1-0.2-0.2l-0.6,0.7c0.3,0.2,0.6,0.4,0.9,0.6L15,9.3C14.8,9.2,14.6,9.1,14.4,8.9z
		 M12.7,8.5c0.2,0.2,0.4,0.4,0.6,0.7L14,8.5c-0.2-0.2-0.3-0.4-0.5-0.7L12.7,8.5z M8.4,4L8.3,5c0.2,0,0.4,0,0.6,0.1c0,0,0.1,0,0.1,0
		l0.1-0.9C8.9,4.1,8.6,4.1,8.4,4z M3.4,1.7l0-1.1C3.1,0.6,2.8,0.5,2.5,0.5l0,1.2C2.7,1.7,3,1.6,3.4,1.7z M7.4,4.2l0,1.1
		C7.5,5.2,7.7,5.1,7.9,5l0-1C7.7,4.1,7.5,4.1,7.4,4.2z"/>
	<path id="XMLID_6305_" class="st0" d="M18,12.4c0,0-0.5,0.7-0.7,1c-0.1,0.3-0.3,0.7-0.7,0.8c-0.3,0.1-0.5,0.1-0.5,0.1
		c0,0,0-0.3,0.1-0.6c0.1-0.3,0.5-0.5,0.8-0.7C17.3,13,18,12.4,18,12.4z"/>
</g>
</svg>
