<?xml version="1.0" encoding="UTF-8"?>
<svg width="1574px" height="693px" viewBox="0 0 1574 693" version="1.1" xmlns="http://www.w3.org/2000/svg" xmlns:xlink="http://www.w3.org/1999/xlink">
    <!-- Generator: Sketch 55.2 (78181) - https://sketchapp.com -->
    <title>pouf • site</title>
    <desc>Created with Sketch.</desc>
    <g id="pouf-•-site" stroke="none" stroke-width="1" fill="none" fill-rule="evenodd" opacity="0.06">
        <g id="Group-4" transform="translate(-1264.000000, 17.000000)">
            <g id="Group-282">
                <g>
                    <path d="M1968.09833,459.491272 C1968.19538,459.451995 1968.29089,459.418329 1968.38639,459.382793 C1968.68216,459.276185 1968.97176,459.186409 1969.25366,459.119077 C1969.31528,459.104115 1969.37689,459.081671 1969.43697,459.068579 C1969.76816,458.997506 1970.09012,458.958229 1970.40436,458.939526 C1970.48139,458.935786 1970.55687,458.937656 1970.63389,458.935786 C1970.8819,458.932045 1971.12529,458.945137 1971.36252,458.975062 C1971.43646,458.984414 1971.51194,458.988155 1971.58434,459.001247 C1971.8724,459.049875 1972.15276,459.120948 1972.42388,459.218204 C1972.47009,459.233167 1972.51476,459.257481 1972.55944,459.276185 C1972.70886,459.334165 1972.85674,459.390274 1973,459.463217 L1968.21386,457 L1967,460 C1967.37587,459.798005 1967.74095,459.635287 1968.09833,459.491272" id="Fill-2" fill="#E6E6E6"></path>
                    <path d="M1954.16578,497.321099 C1953.81451,497.076962 1953.48012,496.799382 1953.16938,496.486686 C1953.09845,496.416455 1953.03766,496.32783 1952.96841,496.254255 C1952.73367,495.998412 1952.50737,495.732537 1952.29796,495.434891 C1952.20001,495.299445 1952.11557,495.145606 1952.02268,494.998455 C1951.85887,494.735924 1951.69843,494.466705 1951.5532,494.175747 C1951.46369,493.998497 1951.38432,493.809542 1951.30157,493.623931 C1951.17491,493.327957 1951.05331,493.025294 1950.94354,492.704238 C1950.87261,492.496888 1950.80337,492.286195 1950.74088,492.067141 C1950.64124,491.72769 1950.55511,491.371518 1950.47574,491.006985 C1950.42677,490.781242 1950.37441,490.558843 1950.33219,490.323067 C1950.25957,489.908369 1950.20553,489.471933 1950.15487,489.025464 C1950.13122,488.813098 1950.09914,488.610765 1950.08225,488.391711 C1950.02483,487.714482 1949.99105,487.008827 1949.99105,486.266383 C1949.99105,485.722928 1950.00119,485.179473 1950.02483,484.625984 C1950.04847,484.072496 1950.08732,483.507303 1950.14811,482.923715 C1950.20553,482.336784 1950.28491,481.729786 1950.38961,481.091017 C1950.44196,480.773305 1950.50107,480.443887 1950.56694,480.107781 C1950.69866,479.433896 1950.85741,478.723224 1951.04993,477.964059 C1951.1462,477.584476 1951.25259,477.193189 1951.36574,476.790196 C1951.93487,474.76687 1952.73029,472.410782 1953.83308,469.556388 C1954.05432,468.984506 1954.28737,468.392558 1954.53394,467.780544 L1970,429.327322 L1944.72368,419 L1933.79543,446.154369 L1946.40403,451.450131 L1934.33922,475.628037 L1933,478.310198 C1933.41207,478.127932 1933.81063,477.984125 1934.20412,477.853696 C1934.31051,477.81858 1934.41691,477.786809 1934.52161,477.75671 C1934.84586,477.659724 1935.16167,477.57946 1935.47072,477.519262 C1935.53827,477.505884 1935.60582,477.489163 1935.67169,477.475785 C1936.03647,477.413915 1936.38774,477.375455 1936.73057,477.358733 C1936.81839,477.357061 1936.89945,477.358733 1936.98558,477.358733 C1937.25747,477.353717 1937.52431,477.36375 1937.78269,477.390505 C1937.86375,477.398865 1937.94651,477.403882 1938.02588,477.415587 C1938.34169,477.459064 1938.64905,477.520934 1938.94459,477.607887 C1938.99863,477.622936 1939.04592,477.644674 1939.09827,477.661396 C1942.69542,478.825226 1944.69328,483.197951 1944.69497,489.212747 C1944.69497,490.607336 1944.58519,491.998582 1944.38085,493.374778 L1955.39691,498 C1955.35638,497.983278 1955.32261,497.956524 1955.28208,497.93813 C1954.99498,497.811045 1954.72308,497.653861 1954.45456,497.489988 C1954.35999,497.42979 1954.25866,497.384641 1954.16578,497.321099" id="Fill-4" fill="#E6E6E6"></path>
                    <path d="M1922.04433,515.321085 C1921.69681,515.076943 1921.36768,514.799357 1921.05859,514.486654 C1920.98842,514.414749 1920.9266,514.326122 1920.85977,514.250873 C1920.62753,513.99837 1920.40365,513.732489 1920.19648,513.436509 C1920.09958,513.299388 1920.01604,513.145545 1919.92415,512.998391 C1919.76209,512.735855 1919.60503,512.46663 1919.45968,512.175666 C1919.3728,512.000085 1919.2926,511.811125 1919.21241,511.625511 C1919.08543,511.32953 1918.96681,511.025189 1918.85654,510.702453 C1918.78637,510.496772 1918.71954,510.286074 1918.65605,510.07036 C1918.55914,509.72923 1918.47227,509.371378 1918.39374,509.006837 C1918.34529,508.781089 1918.2935,508.560358 1918.2534,508.324577 C1918.17988,507.90987 1918.12642,507.473425 1918.07797,507.028618 C1918.05458,506.814576 1918.02283,506.612239 1918.00446,506.39318 C1917.94932,505.714265 1917.91591,505.010266 1917.91591,504.267807 C1917.91423,501.824715 1918.1047,499.37995 1918.96347,495.966979 C1919.0587,495.585716 1919.16229,495.196093 1919.2759,494.791419 C1919.83894,492.76805 1920.62419,490.411913 1921.71686,487.555786 C1921.93573,486.985564 1922.1663,486.393603 1922.40855,485.781576 L1938,447.217175 L1912.70483,437 L1897.49432,475.204877 C1893.5998,484.998984 1893,489.346718 1893,493.689435 C1893.00334,500.010372 1895.0333,504.015304 1898.3464,505.421629 L1923.26231,516 C1923.22388,515.983278 1923.18879,515.956523 1923.15037,515.938128 C1922.86467,515.811041 1922.59568,515.655526 1922.3317,515.489977 C1922.23647,515.429778 1922.13622,515.384628 1922.04433,515.321085" id="Fill-6" fill="#E6E6E6"></path>
                    <path d="M1969.75654,429 L1954.48558,467.324543 C1954.24212,467.934509 1954.01201,468.524477 1953.79356,469.094445 C1952.70469,471.939287 1951.91929,474.287491 1951.35735,476.304046 C1951.24562,476.70569 1951.14057,477.095668 1951.04552,477.473981 C1950.85543,478.230605 1950.69868,478.9389 1950.56862,479.610529 C1950.50359,479.94551 1950.44522,480.273826 1950.39353,480.590475 C1950.29015,481.227106 1950.21177,481.832073 1950.15508,482.41704 C1950.09505,482.998675 1950.05836,483.561977 1950.03335,484.113613 C1950.01001,484.665249 1950,485.208552 1950,485.748522 C1950,486.488481 1950.03335,487.191776 1950.09005,487.866738 C1950.10672,488.085059 1950.1384,488.286715 1950.16342,488.49837 C1950.21177,488.943345 1950.26513,489.378321 1950.33684,489.793298 C1950.37852,490.026619 1950.43022,490.248273 1950.47857,490.47326 C1950.55695,490.836574 1950.64199,491.191554 1950.74037,491.531535 C1950.80207,491.74819 1950.87044,491.958178 1950.94047,492.164833 C1951.04886,492.484816 1951.16892,492.786466 1951.29398,493.081449 C1951.37569,493.268106 1951.45406,493.454762 1951.54244,493.631419 C1951.68584,493.921403 1951.84426,494.189721 1952.006,494.451373 C1952.09772,494.598032 1952.18109,494.751357 1952.27781,494.886349 C1952.48458,495.182999 1952.70802,495.447985 1952.9398,495.702971 C1953.00817,495.7763 1953.0682,495.864628 1953.13824,495.934624 C1953.44506,496.24794 1953.77522,496.524592 1954.12206,496.766245 C1954.21377,496.829575 1954.31382,496.876239 1954.4072,496.934569 C1954.67234,497.097893 1954.9408,497.254551 1955.22428,497.381211 C1957.65716,498.469484 1960.79373,498.139502 1964.33717,496.254607 C1972.11939,492.121502 1978.43588,481.542089 1978.43255,470.797684 C1978.43088,464.799683 1976.45823,460.443258 1972.90479,459.283322 C1972.85476,459.266656 1972.8064,459.244991 1972.75638,459.231658 C1972.46457,459.144996 1972.15941,459.081667 1971.84759,459.038336 C1971.76922,459.028336 1971.68751,459.023336 1971.60747,459.015004 C1971.35234,458.988338 1971.08721,458.976672 1970.81874,458.980005 C1970.73537,458.981672 1970.65533,458.980005 1970.57029,458.983339 C1970.23012,459 1969.88327,459.035002 1969.52309,459.099999 C1969.45806,459.109998 1969.39136,459.129997 1969.32633,459.14333 C1969.01951,459.203326 1968.70602,459.283322 1968.38586,459.379983 C1968.28247,459.409982 1968.17909,459.441647 1968.07404,459.474978 C1967.68718,459.603304 1967.29198,459.748296 1966.88511,459.929953 L1968.1991,457.255101 L1980,433.224766 L1969.75654,429 Z" id="Fill-8" fill="#FFFFFF"></path>
                    <path d="M1939.81515,476.346639 C1939.76366,476.329999 1939.7155,476.308367 1939.66401,476.293391 C1939.37336,476.206862 1939.07108,476.145294 1938.7605,476.102029 C1938.68244,476.090381 1938.60106,476.085389 1938.52134,476.077069 C1938.26557,476.050445 1938.00482,476.038797 1937.73742,476.043789 C1937.65272,476.043789 1937.57133,476.042125 1937.48663,476.045453 C1937.14948,476.062093 1936.80402,476.100365 1936.44527,476.161934 C1936.3805,476.173582 1936.31407,476.191886 1936.24763,476.205198 C1935.9437,476.265103 1935.63146,476.344975 1935.31423,476.441488 C1935.21126,476.471441 1935.10663,476.503057 1935.00199,476.538001 C1934.61501,476.66613 1934.22305,476.8109 1933.8178,476.992277 L1935.13486,474.323197 L1947,450.263206 L1936.96678,446 L1921.4677,484.373847 C1921.22521,484.982877 1920.99601,485.571938 1920.77844,486.141031 C1919.6939,488.981505 1918.91164,491.326102 1918.35193,493.33956 C1918.24066,493.742251 1918.13602,494.131631 1918.04136,494.509362 C1917.18768,497.905616 1917,500.338406 1917,502.769532 C1917,503.508354 1917.03322,504.208905 1917.08803,504.884495 C1917.10629,505.102481 1917.13785,505.303827 1917.1611,505.51682 C1917.21093,505.959448 1917.26408,506.39542 1917.33549,506.808096 C1917.37701,507.041058 1917.4285,507.260708 1917.475,507.48535 C1917.55473,507.849769 1917.63943,508.205869 1917.73742,508.545328 C1917.79887,508.759985 1917.86697,508.967987 1917.93672,509.174325 C1918.04468,509.493816 1918.1626,509.798331 1918.28882,510.091197 C1918.36854,510.277567 1918.44826,510.463937 1918.53463,510.638658 C1918.67912,510.928197 1918.83524,511.196103 1918.99801,511.459018 C1919.08769,511.603787 1919.1724,511.756876 1919.26707,511.893326 C1919.47301,512.187856 1919.69557,512.452435 1919.92642,512.705365 C1919.99286,512.780245 1920.05431,512.866774 1920.12407,512.938327 C1920.43132,513.251162 1920.75851,513.527388 1921.10397,513.76867 C1921.19532,513.831903 1921.29663,513.878495 1921.38964,513.936736 C1921.65205,514.101473 1921.92111,514.256227 1922.20345,514.382692 C1924.62664,515.469293 1927.75403,515.138155 1931.28999,513.256154 C1938.02807,509.66521 1943.66667,501.195374 1945.0103,491.981723 C1945.21126,490.613903 1945.31922,489.229443 1945.31756,487.841654 C1945.31756,481.856193 1943.35277,477.504794 1939.81515,476.346639" id="Fill-10" fill="#FFFFFF"></path>
                    <polygon id="Fill-42" fill="#E6E6E6" points="2206.27271 43.5794009 2170 181.287734 2194.9354 192 2231.20978 54.2899737 2249 44.7122662 2224.06293 34"></polygon>
                    <polygon id="Fill-44" fill="#FFFFFF" points="2195 192 2212.89923 182.37002 2249 45 2231.22937 54.558997"></polygon>
                    <path d="M2579.69688,97.4171665 C2579.39209,97.2777086 2579.10076,97.1130475 2578.8229,96.9265436 C2578.76396,96.8878987 2578.69997,96.8576548 2578.64272,96.8173296 C2578.31434,96.5787391 2578.00786,96.304864 2577.71821,96.000745 C2577.63738,95.9167342 2577.56497,95.8209619 2577.48751,95.7319105 C2577.28038,95.49332 2577.08336,95.2412877 2576.89644,94.9690928 C2576.8156,94.8481173 2576.73477,94.7237813 2576.65731,94.596085 C2576.47881,94.3054077 2576.31378,93.9962481 2576.15885,93.6719665 C2576.10497,93.5593921 2576.04771,93.4552188 2575.99551,93.3359235 C2575.80185,92.8923466 2575.62504,92.4218863 2575.47348,91.9228624 C2575.44317,91.8237297 2575.41959,91.7145157 2575.39096,91.6137028 C2575.27645,91.20205 2575.17205,90.7752753 2575.08448,90.328338 C2575.04912,90.1519154 2575.0188,89.9670917 2574.98849,89.7839483 C2574.92113,89.3790164 2574.86725,88.9606428 2574.82178,88.5305076 C2574.80326,88.3473642 2574.78305,88.1659009 2574.76789,87.9777168 C2574.72074,87.3694788 2574.68875,86.7444387 2574.68875,86.0958756 C2574.68875,86.0925152 2574.68875,86.0891548 2574.68875,86.0841141 C2574.68706,80.6670999 2576.28179,75.2937713 2578.87174,70.7454284 C2579.19506,70.1758354 2579.53522,69.6196841 2579.88886,69.080335 C2580.94976,67.4555668 2582.14033,65.9618554 2583.43026,64.6378457 C2585.14791,62.8752998 2587.0407,61.4151927 2589.03284,60.3583372 C2589.51277,60.1063049 2589.98091,59.8861967 2590.44401,59.6896115 C2590.59388,59.6257634 2590.73702,59.5770371 2590.88521,59.5182296 C2591.19843,59.3955739 2591.50828,59.2813192 2591.81308,59.1838667 C2591.97979,59.1317801 2592.14314,59.0880945 2592.30817,59.0427286 C2592.58939,58.9654387 2592.86893,58.8982301 2593.14342,58.8444632 C2593.30508,58.8108589 2593.46506,58.780615 2593.62335,58.7554118 C2593.90289,58.7134064 2594.17738,58.686523 2594.4485,58.6680406 C2594.58658,58.6596395 2594.72804,58.6428374 2594.86444,58.639477 C2595.19618,58.6310759 2595.51951,58.6461978 2595.83778,58.6747615 C2595.90345,58.6798021 2595.97081,58.6781219 2596.03649,58.6848428 C2596.4137,58.7302086 2596.77912,58.8041381 2597.13275,58.8999103 C2597.23548,58.928474 2597.33146,58.9687992 2597.4325,59.0024035 C2597.62279,59.0628912 2597.81645,59.1166581 2598,59.1956282 L2572.88858,48.5665861 C2570.47039,47.5416547 2567.3803,47.8944999 2563.92141,49.7292951 C2556.98849,53.4089666 2551.26298,61.9595824 2549.89391,71.2545336 L2538.89251,66.598657 C2536.476,65.5754058 2533.39096,65.9282511 2529.93713,67.7596858 C2521.95846,71.9921482 2515.57788,82.6581551 2515.58294,93.4905033 C2515.58462,99.2687638 2517.44541,103.511307 2520.73084,104.900846 L2525.93601,107.105288 L2514,131.370958 L2539.11142,142 L2552.35588,115.07623 C2549.74235,116.230538 2547.50435,116.272543 2545.7025,115.450918 C2545.3977,115.31146 2545.10637,115.148479 2544.82683,114.960295 C2544.76958,114.92165 2544.70559,114.891406 2544.65001,114.851081 C2544.31996,114.61417 2544.01347,114.338615 2543.72214,114.036176 C2543.643,113.952166 2543.57059,113.856393 2543.49312,113.767342 C2543.28599,113.528751 2543.08897,113.275039 2542.90205,113.002844 C2542.82122,112.881868 2542.74039,112.759213 2542.66292,112.633197 C2542.48442,112.340839 2542.32108,112.031679 2542.16447,111.707398 C2542.11226,111.594823 2542.05333,111.48897 2542.00112,111.373035 C2541.80578,110.926098 2541.63065,110.455637 2541.47741,109.956613 C2541.44878,109.859161 2541.42689,109.753307 2541.39826,109.654175 C2541.28207,109.239162 2541.17766,108.809026 2541.09009,108.363769 C2541.05473,108.185667 2541.0261,108.004203 2540.99579,107.82106 C2540.92675,107.412767 2540.87118,106.992714 2540.82739,106.560898 C2540.80887,106.379435 2540.78866,106.201332 2540.77351,106.014828 C2540.72635,105.40155 2540.69436,104.773149 2540.69436,104.117865 C2540.69267,98.0254045 2542.71008,91.9867106 2545.89615,87.1124059 C2546.60511,86.0303472 2547.36963,85.0054159 2548.18468,84.0510536 C2548.59051,83.5738724 2549.00982,83.1118132 2549.44092,82.6715968 C2551.16026,80.9073707 2553.05473,79.4472636 2555.05024,78.3887279 C2555.05192,78.3887279 2555.05361,78.3870477 2555.05529,78.3870477 C2555.53017,78.1333352 2555.99663,77.9165874 2556.45804,77.7200022 C2556.60791,77.656154 2556.75274,77.6057476 2556.89924,77.5486203 C2557.21078,77.4276448 2557.52231,77.3117099 2557.82543,77.2159376 C2557.99214,77.1621707 2558.15549,77.1184851 2558.32052,77.0747995 C2558.60174,76.9975096 2558.8796,76.930301 2559.1524,76.8748539 C2559.31406,76.84461 2559.47572,76.8126859 2559.63402,76.7891629 C2559.91356,76.7454773 2560.18636,76.7202741 2560.45748,76.7001115 C2560.59557,76.6917104 2560.73702,76.6749083 2560.87342,76.6715479 C2561.20853,76.6631468 2561.53186,76.6782687 2561.85181,76.7085126 C2561.91412,76.7135532 2561.98148,76.711873 2562.04378,76.7185939 C2562.42099,76.7622795 2562.78642,76.836209 2563.14005,76.9336614 C2563.24277,76.9622251 2563.34044,77.0042305 2563.44148,77.0361546 C2567.10244,78.2240668 2569.40443,82.3254724 2569.4078,89.0463337 C2569.4078,90.3148963 2569.35223,91.5868193 2569.18552,92.9864387 C2568.77463,96.4157582 2567.66489,100.634779 2564.87791,107.632876 L2560.50968,118.634926 L2573.10581,123.966249 L2586.35027,97.0407983 C2583.73674,98.1967864 2581.49874,98.2371116 2579.69688,97.4171665" id="Fill-70" fill="#E6E6E6"></path>
                    <path d="M2597.08871,59.3637902 C2596.98866,59.3303181 2596.89361,59.2901516 2596.79356,59.2617003 C2596.44172,59.1663048 2596.08154,59.0926662 2595.70635,59.0491525 C2595.64132,59.042458 2595.57462,59.0441316 2595.50959,59.0391108 C2595.1961,59.0089859 2594.87427,58.9939235 2594.54577,59.0022915 C2594.41071,59.0056387 2594.2723,59.0223748 2594.1339,59.0324164 C2593.86543,59.0508261 2593.59363,59.0759301 2593.31683,59.1194439 C2593.16008,59.1428743 2593.00167,59.1746728 2592.84159,59.2064713 C2592.56978,59.2600267 2592.29465,59.3286445 2592.01451,59.4039567 C2591.85109,59.449144 2591.68934,59.4926578 2591.52593,59.5445395 C2591.22244,59.6416086 2590.91562,59.7554137 2590.60547,59.8792605 C2590.45873,59.936163 2590.31699,59.9846976 2590.17025,60.0482946 C2589.71002,60.2441063 2589.24646,60.4633486 2588.77289,60.7160629 C2586.80023,61.7687604 2584.92596,63.223123 2583.22345,64.977061 C2581.94614,66.2975352 2580.76722,67.7836963 2579.71669,69.4020723 C2579.36652,69.9392994 2579.02968,70.4932626 2578.70952,71.0606147 C2576.14491,75.5910631 2574.56578,80.9449251 2574.56745,86.3389537 C2574.56745,86.3439745 2574.56912,86.3473217 2574.56912,86.3506689 C2574.56912,86.998354 2574.59913,87.6192614 2574.64582,88.2251064 C2574.66083,88.4125501 2574.68084,88.5932994 2574.70085,88.7757224 C2574.74421,89.2041652 2574.79757,89.6208928 2574.86427,90.0242316 C2574.89428,90.2083282 2574.9243,90.3907511 2574.95931,90.5681532 C2575.04602,91.0116585 2575.14941,91.4367541 2575.26447,91.8467873 C2575.29281,91.9488772 2575.31449,92.0559879 2575.34451,92.1564042 C2575.49458,92.6534649 2575.66967,93.1204006 2575.86143,93.5639059 C2575.91312,93.6810583 2575.96982,93.7848218 2576.02485,93.8986269 C2576.17659,94.2199591 2576.34,94.529576 2576.51676,94.8191096 C2576.59346,94.9463036 2576.6735,95.0684767 2576.75521,95.1889763 C2576.93864,95.4601003 2577.13373,95.7128146 2577.33884,95.9487929 C2577.41554,96.037494 2577.48724,96.134563 2577.56728,96.2182433 C2577.85409,96.5194922 2578.15758,96.7922898 2578.48274,97.0299417 C2578.53944,97.0701082 2578.60447,97.1002331 2578.66116,97.138726 C2578.93797,97.3261697 2579.22645,97.4885094 2579.5266,97.6274186 C2581.31249,98.4458114 2583.52693,98.4039713 2586.11489,97.2542047 L2573,124.072049 L2583.45523,128 L2598.51442,89.8401351 C2602.39303,80.0294633 2603,75.6864586 2603,71.3250443 C2602.99666,64.6289511 2600.71719,60.5436816 2597.08871,59.3637902" id="Fill-72" fill="#FFFFFF"></path>
                    <path d="M2568.77989,93.2526007 C2568.94664,91.8585217 2569,90.5916335 2569,89.3264189 C2568.99666,82.6321617 2566.71886,78.5486649 2563.09205,77.3654549 C2562.992,77.3319836 2562.89695,77.2918181 2562.79523,77.2616939 C2562.44339,77.1663008 2562.08154,77.0926639 2561.70802,77.0474777 C2561.64632,77.0407834 2561.58129,77.042457 2561.51793,77.0391099 C2561.20277,77.0089857 2560.88094,76.9939236 2560.54911,77.0022915 C2560.41404,77.0056386 2560.27397,77.0223742 2560.13724,77.0307421 C2559.86877,77.0491513 2559.59863,77.0759283 2559.32183,77.1177674 C2559.16508,77.1428709 2559.005,77.1746686 2558.84492,77.2047927 C2558.57479,77.2583468 2558.29965,77.3252894 2558.02118,77.4022733 C2557.85776,77.4474596 2557.69601,77.4909722 2557.53093,77.5428527 C2557.23078,77.6399195 2556.92396,77.7537218 2556.61547,77.875892 C2556.46873,77.9327932 2556.32533,77.9830001 2556.17692,78.0465956 C2555.72003,78.240729 2555.25813,78.4582924 2554.78789,78.7110006 C2554.78623,78.7110006 2554.78456,78.7126742 2554.78289,78.7126742 C2552.8069,79.7653461 2550.93097,81.221347 2549.22845,82.976916 C2548.80323,83.4170634 2548.38803,83.87562 2547.98449,84.3525858 C2547.17742,85.3031703 2546.42038,86.322371 2545.71836,87.40182 C2542.56345,92.2551564 2540.56578,98.27162 2540.56745,104.339964 C2540.56912,104.992654 2540.59913,105.618567 2540.64582,106.229418 C2540.66083,106.41351 2540.68084,106.592582 2540.70085,106.773327 C2540.74421,107.203433 2540.79757,107.621824 2540.86593,108.0285 C2540.89595,108.210918 2540.9243,108.391663 2540.95931,108.567388 C2541.04769,109.012556 2541.14941,109.440988 2541.26613,109.854358 C2541.29281,109.953099 2541.31449,110.058533 2541.34284,110.1556 C2541.49458,110.650975 2541.668,111.121247 2541.86143,111.564741 C2541.91312,111.681891 2541.97149,111.785652 2542.02485,111.899454 C2542.17826,112.222452 2542.34167,112.530388 2542.51676,112.819914 C2542.59346,112.947105 2542.6735,113.069275 2542.75521,113.189772 C2542.93864,113.46089 2543.1354,113.713598 2543.3405,113.951244 C2543.41721,114.039943 2543.48724,114.135336 2543.56562,114.217341 C2543.85409,114.520256 2544.15758,114.79472 2544.48441,115.030693 C2544.53944,115.070858 2544.6028,115.100983 2544.6595,115.139474 C2544.9363,115.32524 2545.22478,115.489249 2545.5266,115.628155 C2547.31082,116.444855 2549.5286,116.404689 2552.11489,115.253277 L2539,142.072145 L2549.45523,146 L2560.1906,118.79956 L2564.51442,107.841061 C2567.2758,100.870665 2568.37302,96.6683454 2568.77989,93.2526007" id="Fill-74" fill="#FFFFFF"></path>
                    <path d="M2335.32122,482.704436 C2335.50954,482.772988 2335.70298,482.829235 2335.90328,482.874936 C2336.06934,482.910091 2336.23882,482.939972 2336.41172,482.961065 C2336.624,482.983916 2336.84484,482.99622 2337.0691,482.997977 C2337.25228,483.001493 2337.43717,483.001493 2337.62719,482.989189 C2337.86344,482.973369 2338.10995,482.943488 2338.35818,482.908333 C2338.55677,482.880209 2338.75364,482.852086 2338.95907,482.813416 C2339.221,482.758926 2339.49148,482.690374 2339.76368,482.620065 C2339.97253,482.565575 2340.17968,482.514601 2340.39709,482.447807 C2340.6847,482.361679 2340.98257,482.254457 2341.28045,482.148993 C2341.49615,482.073411 2341.70843,482.003101 2341.92927,481.916973 C2342.2494,481.792174 2342.5798,481.649797 2342.90849,481.507421 C2343.12248,481.417777 2343.33134,481.333406 2343.54875,481.234973 C2343.92024,481.064473 2344.30371,480.878153 2344.68718,480.690076 C2344.87207,480.600432 2345.05354,480.517818 2345.24185,480.421143 C2345.81706,480.131117 2346.40425,479.821756 2347,479.498334 L2332.08397,473 C2331.65085,478.951679 2332.91768,481.84139 2335.32122,482.704436" id="Fill-88" fill="#E6E6E6"></path>
                    <path d="M2306.39655,573.66687 C2311.53698,570.91986 2314.35674,567.620747 2313.61904,561.355134 L2311.16225,539.74375 C2309.56416,524.842025 2314.8239,515.692643 2322.54211,508.479843 L2322.54211,507.824748 C2322.10856,507.878777 2321.68677,507.912545 2321.27003,507.936182 C2319.3493,508.052681 2317.63022,507.834879 2316.16488,507.1629 C2316.07918,507.124067 2315.99348,507.080169 2315.90778,507.03627 C2315.65067,506.906264 2315.40197,506.761063 2315.16167,506.600666 C2315.09781,506.558456 2315.0306,506.517935 2314.96674,506.474037 C2314.67939,506.268053 2314.40548,506.036744 2314.14501,505.783486 C2314.08619,505.724392 2314.02906,505.658545 2313.97193,505.597763 C2313.76523,505.381649 2313.56862,505.148651 2313.38209,504.900458 C2313.31992,504.817727 2313.25606,504.734996 2313.19557,504.647199 C2313.15188,504.584729 2313.11491,504.508752 2313.07122,504.442904 C2312.89477,504.17445 2312.71833,503.907685 2312.56205,503.602086 C2312.54188,503.563253 2312.52508,503.517667 2312.50491,503.480522 C2312.33183,503.132714 2312.17387,502.756203 2312.02767,502.36112 C2311.98062,502.237868 2311.93693,502.112927 2311.89323,501.986298 C2311.76048,501.592903 2311.63949,501.179248 2311.53026,500.741955 C2311.51178,500.667666 2311.48993,500.60013 2311.47145,500.522464 C2311.35214,500.009194 2311.25131,499.460467 2311.16561,498.883038 C2311.14376,498.73446 2311.12528,498.575751 2311.10679,498.423796 C2311.04462,497.945982 2310.99421,497.447907 2310.95556,496.927883 C2310.94379,496.770863 2310.92867,496.618908 2310.92027,496.458511 C2310.87994,495.794974 2310.85809,495.102734 2310.85473,494.371662 C2310.85473,494.229837 2310.85977,494.077882 2310.86145,493.934369 C2310.86481,493.31473 2310.8833,492.668077 2310.91354,491.999475 C2310.92363,491.774919 2310.93371,491.552051 2310.94715,491.324119 C2310.99589,490.491743 2311.05638,489.635729 2311.14544,488.727376 L2312.74017,473.008471 L2312.79563,472.466498 L2313.58543,464.672892 C2313.59215,464.615487 2313.59383,464.568212 2313.59887,464.510807 C2313.64256,464.085333 2313.67785,463.675054 2313.69633,463.300232 C2313.70306,463.151653 2313.69802,463.026712 2313.70138,462.886576 C2313.7081,462.621499 2313.7165,462.351357 2313.71146,462.113294 C2313.70642,461.964716 2313.69129,461.841463 2313.68121,461.703015 C2313.66945,461.49872 2313.65937,461.287671 2313.63584,461.105325 C2313.61904,460.971943 2313.59047,460.862197 2313.56862,460.738945 C2313.53837,460.580236 2313.51485,460.411397 2313.4762,460.267884 C2313.44595,460.154762 2313.40562,460.061901 2313.36865,459.957221 C2313.32664,459.83228 2313.28631,459.698897 2313.23422,459.589152 C2313.19221,459.49629 2313.13843,459.42369 2313.0897,459.340958 C2313.03425,459.24472 2312.98047,459.141728 2312.91662,459.058997 C2312.86284,458.988085 2312.79731,458.934057 2312.73513,458.873275 C2312.66791,458.804051 2312.60238,458.728073 2312.52676,458.670668 C2312.45954,458.618328 2312.38392,458.58456 2312.31166,458.54235 C2310.99084,457.785952 2308.85334,458.589625 2306.3579,459.923453 L2296.06696,465.420849 L2296.05855,439.585114 L2313.32328,430.361443 C2314.08956,429.951164 2314.82894,429.589849 2315.55489,429.250483 C2315.70613,429.17957 2315.85737,429.108658 2316.00692,429.041122 C2316.70262,428.723705 2317.3832,428.436679 2318.04024,428.186797 C2318.15619,428.144588 2318.2671,428.105755 2318.38137,428.065233 C2318.98632,427.842366 2319.57447,427.646513 2320.14582,427.477674 C2320.23488,427.45066 2320.32899,427.420269 2320.41973,427.394943 C2321.03141,427.224415 2321.62124,427.089344 2322.19426,426.979599 C2322.3203,426.955961 2322.44297,426.935701 2322.569,426.913752 C2323.13866,426.815825 2323.69657,426.741536 2324.22926,426.709457 C2324.26791,426.707768 2324.3032,426.707768 2324.34185,426.70608 C2324.84598,426.677377 2325.33162,426.684131 2325.80214,426.712833 C2325.89961,426.719587 2326.00043,426.722964 2326.09622,426.731406 C2326.57178,426.770239 2327.03054,426.839463 2327.47081,426.939078 C2327.55483,426.95765 2327.63717,426.982976 2327.72119,427.004925 C2328.13122,427.107916 2328.52612,427.234546 2328.90254,427.388189 C2328.93278,427.401696 2328.96975,427.40845 2329,427.421957 L2303.94145,416.741206 C2300.31676,415.196329 2295.12424,416.015198 2288.26305,419.680692 L2271,428.904363 L2271.0084,454.740097 L2287.72867,461.865101 L2286.08521,478.046625 C2284.96772,489.515854 2287.12876,494.800513 2291.28446,496.571633 L2296.47026,498.781735 C2289.31331,505.845956 2284.57618,514.824811 2286.10369,529.062999 L2288.56048,550.674383 C2289.29819,556.941684 2286.47675,560.240797 2281.33632,562.986118 L2271.04705,568.483514 L2271.05545,594.31756 L2296.11569,605 L2296.10561,579.164265 L2306.39655,573.66687 Z" id="Fill-90" fill="#E6E6E6"></path>
                    <path d="M2345.24182,480.876383 C2345.0546,480.969082 2344.87418,481.048297 2344.69036,481.134254 C2344.30911,481.314595 2343.92786,481.493251 2343.55852,481.656738 C2343.34237,481.751122 2343.13472,481.830337 2342.92197,481.91798 C2342.59518,482.0545 2342.26669,482.19102 2341.94842,482.310685 C2341.72886,482.391586 2341.51781,482.459003 2341.30335,482.531477 C2341.0072,482.634288 2340.71105,482.737099 2340.42511,482.819686 C2340.20896,482.882047 2340.00301,482.93261 2339.79537,482.984858 C2339.52474,483.052275 2339.25583,483.118007 2338.99542,483.16857 C2338.79118,483.207335 2338.59544,483.232616 2338.39801,483.261269 C2338.15122,483.294977 2337.90613,483.32363 2337.67125,483.338799 C2337.48233,483.350597 2337.29851,483.350597 2337.11639,483.347226 C2336.89343,483.34554 2336.67387,483.333742 2336.46282,483.310146 C2336.29091,483.291607 2336.12241,483.262954 2335.95732,483.229246 C2335.75818,483.185424 2335.56585,483.131491 2335.37863,483.065759 C2332.989,482.238212 2331.73121,479.467362 2332.16012,473.76049 C2332.18565,473.450371 2332.19076,473.168904 2332.2248,472.836874 L2334.57358,448.556545 C2335.76669,437.41247 2333.77363,429.935895 2328.26421,427.699328 C2327.88466,427.544268 2327.48468,427.419546 2327.06939,427.316735 C2326.98429,427.294824 2326.90089,427.269542 2326.81409,427.251003 C2326.36986,427.151562 2325.90521,427.08246 2325.42354,427.043695 C2325.32482,427.035267 2325.2244,427.031897 2325.12569,427.025155 C2324.64912,426.996503 2324.15724,426.989761 2323.64664,427.018413 C2323.60749,427.020099 2323.57175,427.020099 2323.5326,427.021784 C2322.99306,427.053807 2322.42799,427.127966 2321.84931,427.225721 C2321.72336,427.247632 2321.59741,427.267857 2321.47146,427.291453 C2320.88937,427.399321 2320.29366,427.535841 2319.67413,427.706069 C2319.58222,427.731351 2319.48691,427.761689 2319.395,427.788655 C2318.81802,427.957199 2318.22231,428.152709 2317.60958,428.375186 C2317.49385,428.415636 2317.38151,428.452716 2317.26407,428.496537 C2316.59688,428.745981 2315.90927,429.032504 2315.20463,429.349365 C2315.05316,429.416782 2314.89827,429.487571 2314.74679,429.558359 C2314.01152,429.89713 2313.26263,430.257813 2312.48481,430.667373 L2295,439.874886 L2295.00851,465.665362 L2305.42996,460.177596 C2307.95915,458.846105 2310.12412,458.04384 2311.4619,458.798913 C2311.53509,458.841049 2311.61168,458.874758 2311.67976,458.927006 C2311.75635,458.984311 2311.82273,459.060155 2311.89081,459.129258 C2311.95208,459.189933 2312.01846,459.243867 2312.07463,459.314655 C2312.1393,459.397241 2312.19377,459.500053 2312.24993,459.596122 C2312.29929,459.678708 2312.35376,459.751182 2312.39631,459.843881 C2312.44907,459.953434 2312.48822,460.086583 2312.53247,460.211305 C2312.56991,460.315802 2312.61076,460.406815 2312.6414,460.521424 C2312.68054,460.664686 2312.70437,460.831544 2312.73501,460.99166 C2312.75714,461.114696 2312.78607,461.224249 2312.80309,461.357398 C2312.82692,461.539425 2312.83543,461.750104 2312.84904,461.952356 C2312.85926,462.090561 2312.87457,462.215283 2312.87798,462.363601 C2312.88479,462.601247 2312.87628,462.870916 2312.86947,463.135529 C2312.86606,463.27542 2312.86947,463.400142 2312.86436,463.54846 C2312.84394,463.92094 2312.8099,464.332185 2312.76565,464.756914 C2312.76054,464.814219 2312.75884,464.861411 2312.75203,464.918716 L2311.95038,472.696983 L2311.89592,473.239692 L2310.279,488.931061 C2310.19049,489.837823 2310.12922,490.692337 2310.07986,491.523255 C2310.06625,491.750788 2310.05604,491.973265 2310.04582,492.197428 C2310.01519,492.864859 2309.99647,493.510379 2309.99306,494.128932 C2309.99136,494.272194 2309.98625,494.423883 2309.98625,494.565459 C2309.98966,495.295251 2310.01178,495.986278 2310.05263,496.646967 C2310.06114,496.808769 2310.07646,496.960458 2310.08837,497.117203 C2310.12752,497.636316 2310.17858,498.133518 2310.24156,498.60881 C2310.26028,498.762184 2310.279,498.920615 2310.30113,499.068933 C2310.38793,499.64535 2310.49005,500.193116 2310.61089,500.705487 C2310.62962,500.783017 2310.65174,500.850434 2310.67046,500.924593 C2310.77939,501.36112 2310.90364,501.77405 2311.0381,502.166756 C2311.08235,502.293163 2311.1266,502.417885 2311.17256,502.540922 C2311.32234,502.935313 2311.48233,503.311164 2311.65763,503.658363 C2311.67806,503.695443 2311.69508,503.740949 2311.7155,503.779714 C2311.87379,504.084777 2312.0525,504.351076 2312.22951,504.619059 C2312.27376,504.684791 2312.31121,504.760635 2312.35716,504.822996 C2312.41673,504.910639 2312.48141,504.993225 2312.54609,505.074126 C2312.73501,505.32357 2312.93415,505.556159 2313.14349,505.771894 C2313.20136,505.83257 2313.25753,505.898302 2313.3188,505.957292 C2313.58261,506.210107 2313.86004,506.441011 2314.15109,506.646634 C2314.21576,506.690455 2314.28384,506.730905 2314.34852,506.773041 C2314.59191,506.933157 2314.84381,507.078104 2315.10422,507.207882 C2315.19102,507.250018 2315.27782,507.295525 2315.36462,507.33429 C2316.84708,508.005091 2318.58995,508.222512 2320.53535,508.106217 C2320.95575,508.082621 2321.38295,508.048913 2321.82378,507.994979 L2321.82378,508.648926 C2314.00471,515.849091 2308.6791,524.982445 2310.29772,539.858065 L2312.78607,561.431591 C2313.53325,567.686228 2310.67557,570.979561 2305.4708,573.721759 L2295.04766,579.209524 L2295.05787,605 L2312.54268,595.792487 C2329.41647,586.906891 2336.60749,571.759916 2334.61102,554.799417 L2332.24522,532.693295 C2330.88361,521.394161 2337.57934,514.959183 2347,509.997272 L2346.98979,479.991531 C2346.39749,480.301651 2345.81369,480.598287 2345.24182,480.876383" id="Fill-92" fill="#FFFFFF"></path>
                    <path d="M1523.32122,438.705592 C1523.50954,438.774151 1523.70298,438.830406 1523.90328,438.876112 C1524.06934,438.909513 1524.23882,438.939398 1524.41172,438.960493 C1524.624,438.985104 1524.84484,438.99741 1525.0691,438.999168 C1525.25228,439.000926 1525.43717,439.000926 1525.62719,438.98862 C1525.86344,438.974557 1526.10995,438.944672 1526.35818,438.907755 C1526.55677,438.881386 1526.75364,438.853259 1526.95907,438.812826 C1527.221,438.760088 1527.49148,438.691528 1527.76368,438.621211 C1527.97253,438.564956 1528.17968,438.515734 1528.39709,438.448932 C1528.6847,438.361035 1528.98257,438.255559 1529.28045,438.150082 C1529.49615,438.072733 1529.70843,438.004173 1529.92927,437.918034 C1530.2494,437.79322 1530.5798,437.649069 1530.90849,437.508434 C1531.12248,437.417021 1531.33134,437.334398 1531.54875,437.234195 C1531.92024,437.065433 1532.30371,436.879091 1532.68718,436.690991 C1532.87207,436.599579 1533.05354,436.518713 1533.24185,436.422027 C1533.81706,436.131966 1534.40425,435.822569 1535,435.49735 L1520.08397,429 C1519.65085,434.952388 1520.91768,437.840685 1523.32122,438.705592" id="Fill-100" fill="#E6E6E6"></path>
                    <path d="M1494.39655,529.66659 C1499.53698,526.921244 1502.35674,523.622102 1501.61904,517.356433 L1499.16225,495.743167 C1497.56416,480.841309 1502.8239,471.693534 1510.54211,464.48067 L1510.54211,463.825569 C1510.10856,463.879598 1509.68677,463.913366 1509.27003,463.937003 C1507.3493,464.053503 1505.63022,463.835699 1504.16488,463.163714 C1504.07918,463.124881 1503.99348,463.079294 1503.90778,463.037084 C1503.65067,462.907077 1503.40197,462.761874 1503.16167,462.601475 C1503.09781,462.557577 1503.0306,462.518744 1502.96674,462.474845 C1502.67939,462.267171 1502.40548,462.037548 1502.14501,461.782599 C1502.08619,461.725193 1502.02906,461.659346 1501.97193,461.598563 C1501.76523,461.382447 1501.56862,461.149448 1501.38209,460.899564 C1501.31992,460.816832 1501.25606,460.735788 1501.19557,460.647991 C1501.15188,460.58552 1501.11491,460.509542 1501.07122,460.443694 C1500.89477,460.175238 1500.71833,459.90847 1500.56205,459.602869 C1500.54188,459.562347 1500.52508,459.518449 1500.50491,459.479616 C1500.33183,459.131804 1500.17387,458.756978 1500.02767,458.361892 C1499.98062,458.238638 1499.93693,458.113696 1499.89323,457.987066 C1499.76048,457.593668 1499.63949,457.180009 1499.53026,456.742712 C1499.51178,456.666734 1499.48993,456.599197 1499.47145,456.523219 C1499.35214,456.009944 1499.25131,455.459524 1499.16561,454.883779 C1499.14376,454.733511 1499.12528,454.576489 1499.10679,454.424532 C1499.04462,453.946714 1498.99421,453.446946 1498.95556,452.928606 C1498.94379,452.771585 1498.92867,452.61794 1498.92027,452.457541 C1498.87994,451.795687 1498.85809,451.103441 1498.85473,450.370673 C1498.85473,450.230536 1498.85977,450.078579 1498.86145,449.935065 C1498.86481,449.313732 1498.8833,448.668762 1498.91354,447.998465 C1498.92363,447.775596 1498.93371,447.552726 1498.94715,447.324792 C1498.99589,446.492408 1499.05638,445.636387 1499.14544,444.728026 L1500.74017,429.00898 L1500.79563,428.467002 L1501.58543,420.673327 C1501.59215,420.614233 1501.59383,420.566957 1501.59887,420.509552 C1501.64256,420.084074 1501.67785,419.673792 1501.69633,419.298966 C1501.70306,419.152075 1501.69802,419.027133 1501.70138,418.886995 C1501.7081,418.621916 1501.7165,418.351771 1501.71146,418.113706 C1501.70642,417.965126 1501.69129,417.841873 1501.68121,417.703423 C1501.66945,417.497438 1501.65937,417.286388 1501.63584,417.105728 C1501.61904,416.972344 1501.59047,416.86091 1501.56862,416.739345 C1501.53837,416.578946 1501.51485,416.410106 1501.4762,416.26828 C1501.44595,416.155157 1501.40562,416.060606 1501.36865,415.957613 C1501.32664,415.832671 1501.28631,415.699287 1501.23422,415.589541 C1501.19221,415.496679 1501.13843,415.422389 1501.0897,415.339657 C1501.03425,415.243418 1500.98047,415.142114 1500.91662,415.059382 C1500.86284,414.988469 1500.79731,414.93444 1500.73513,414.871969 C1500.66791,414.802745 1500.60238,414.728455 1500.52676,414.671049 C1500.45954,414.618709 1500.38392,414.58494 1500.31166,414.54273 C1498.99084,413.784637 1496.85334,414.590006 1494.3579,415.922157 L1484.06696,421.419602 L1484.05855,395.583636 L1501.32328,386.361571 C1502.08956,385.951289 1502.82894,385.58997 1503.55489,385.250601 C1503.70613,385.179688 1503.85737,385.107087 1504.00692,385.03955 C1504.70262,384.723819 1505.3832,384.43679 1506.04024,384.186906 C1506.15619,384.143008 1506.2671,384.105863 1506.38137,384.063653 C1506.98632,383.842472 1507.57447,383.646617 1508.14582,383.477776 C1508.23488,383.450762 1508.32899,383.420371 1508.41973,383.395044 C1509.03141,383.222827 1509.62124,383.089443 1510.19426,382.979697 C1510.3203,382.954371 1510.44297,382.93411 1510.569,382.913849 C1511.13866,382.815922 1511.69657,382.741632 1512.22926,382.709552 C1512.26791,382.706175 1512.3032,382.707864 1512.34185,382.706175 C1512.84598,382.677473 1513.33162,382.684226 1513.80214,382.712929 C1513.89961,382.717994 1514.00043,382.721371 1514.09622,382.729813 C1514.57178,382.770335 1515.03054,382.839559 1515.47081,382.939175 C1515.55483,382.957748 1515.63717,382.981385 1515.72119,383.003335 C1516.13122,383.108016 1516.52612,383.232958 1516.90254,383.388291 C1516.93278,383.401798 1516.96975,383.406863 1517,383.420371 L1491.94145,372.741212 C1488.31676,371.196322 1483.12424,372.015198 1476.26305,375.680724 L1459,384.904478 L1459.0084,410.738755 L1475.72867,417.86551 L1474.08521,434.047179 C1472.96772,445.514822 1475.12876,450.799528 1479.28446,452.572353 L1484.47026,454.780786 C1477.31331,461.84507 1472.57618,470.825694 1474.10369,485.064009 L1476.56048,506.675586 C1477.29819,512.941255 1474.47675,516.240397 1469.33632,518.987431 L1459.04705,524.484876 L1459.05545,550.319153 L1484.11569,561 L1484.10561,535.164035 L1494.39655,529.66659 Z" id="Fill-102" fill="#E6E6E6"></path>
                    <path d="M1533.24182,436.876893 C1533.0546,436.969593 1532.87418,437.047123 1532.69036,437.133081 C1532.30911,437.315109 1531.92786,437.493767 1531.55852,437.65557 C1531.34237,437.75164 1531.13472,437.829171 1530.92197,437.9185 C1530.59518,438.053336 1530.26669,438.191542 1529.94842,438.311209 C1529.72886,438.39211 1529.51781,438.457843 1529.30335,438.532003 C1529.0072,438.634815 1528.71105,438.735942 1528.42511,438.820214 C1528.20896,438.882576 1528.00301,438.931454 1527.79537,438.985388 C1527.52474,439.052806 1527.25583,439.118538 1526.99542,439.167416 C1526.79118,439.207867 1526.59544,439.233149 1526.39801,439.260116 C1526.15122,439.29551 1525.90613,439.324163 1525.67125,439.337647 C1525.48233,439.349445 1525.29851,439.349445 1525.11639,439.347759 C1524.89343,439.346074 1524.67387,439.334276 1524.46282,439.308994 C1524.29091,439.290454 1524.12241,439.261801 1523.95732,439.229778 C1523.75818,439.185956 1523.56585,439.132022 1523.37863,439.06629 C1520.989,438.237049 1519.73121,435.467859 1520.16012,429.760933 C1520.18565,429.449125 1520.19076,429.167655 1520.2248,428.837308 L1522.57358,404.555063 C1523.76669,393.412569 1521.77363,385.935923 1516.26421,383.699334 C1515.88466,383.544273 1515.48468,383.41955 1515.06939,383.315052 C1514.98429,383.293141 1514.90089,383.269545 1514.81409,383.251005 C1514.36986,383.151564 1513.90521,383.08246 1513.42354,383.04201 C1513.32482,383.033582 1513.2244,383.030211 1513.12569,383.025155 C1512.64912,382.996502 1512.15724,382.989761 1511.64664,383.018413 C1511.60749,383.020099 1511.57175,383.018413 1511.5326,383.021784 C1510.99306,383.053808 1510.42799,383.127967 1509.84931,383.225723 C1509.72336,383.245949 1509.59741,383.266174 1509.47146,383.291456 C1508.88937,383.399324 1508.29366,383.53416 1507.67413,383.706076 C1507.58222,383.731358 1507.48691,383.761696 1507.395,383.788663 C1506.81802,383.957208 1506.22231,384.15272 1505.60958,384.373513 C1505.49385,384.415649 1505.38151,384.452729 1505.26407,384.496551 C1504.59688,384.745997 1503.90927,385.032523 1503.20463,385.347702 C1503.05316,385.41512 1502.89827,385.487594 1502.74679,385.558383 C1502.01152,385.897158 1501.26263,386.257844 1500.48481,386.667407 L1483,395.873323 L1483.00851,421.664043 L1493.42996,416.176225 C1495.95915,414.846407 1498.12412,414.042448 1499.4619,414.799214 C1499.53509,414.84135 1499.61168,414.875059 1499.67976,414.927308 C1499.75635,414.984613 1499.82273,415.058773 1499.89081,415.127877 C1499.95208,415.190238 1500.01846,415.244172 1500.07463,415.314961 C1500.1393,415.397548 1500.19377,415.498675 1500.24993,415.594746 C1500.29929,415.677332 1500.35376,415.751492 1500.39631,415.844192 C1500.44907,415.953746 1500.48822,416.086896 1500.53247,416.211619 C1500.56991,416.314432 1500.61076,416.407131 1500.6414,416.521742 C1500.68054,416.663319 1500.70437,416.831864 1500.73501,416.991982 C1500.75714,417.113334 1500.78607,417.224573 1500.80309,417.357724 C1500.82692,417.538067 1500.83543,417.748748 1500.84904,417.952687 C1500.85926,418.090894 1500.87457,418.215617 1500.87798,418.363936 C1500.88479,418.601584 1500.87628,418.871256 1500.86947,419.135871 C1500.86606,419.275763 1500.86947,419.400486 1500.86436,419.54712 C1500.84394,419.92129 1500.8099,420.330853 1500.76565,420.755586 C1500.76054,420.812891 1500.75884,420.860084 1500.75203,420.919075 L1499.95038,428.697416 L1499.89592,429.24013 L1498.279,444.931647 C1498.19049,445.838418 1498.12922,446.69294 1498.07986,447.523866 C1498.06625,447.751401 1498.05604,447.97388 1498.04582,448.196359 C1498.01519,448.865482 1497.99647,449.509323 1497.99306,450.129568 C1497.99136,450.272831 1497.98625,450.424521 1497.98625,450.564413 C1497.98966,451.295898 1498.01178,451.986931 1498.05263,452.645941 C1498.06114,452.807744 1498.07646,452.96112 1498.08837,453.117867 C1498.12752,453.635299 1498.17858,454.134192 1498.24156,454.609488 C1498.26028,454.762864 1498.279,454.91961 1498.30113,455.069615 C1498.38793,455.644353 1498.49005,456.193809 1498.61089,456.706185 C1498.62962,456.78203 1498.65174,456.849448 1498.67046,456.925293 C1498.77939,457.361824 1498.90364,457.774759 1499.0381,458.167468 C1499.08235,458.293876 1499.1266,458.4186 1499.17256,458.541637 C1499.32234,458.936032 1499.48233,459.310201 1499.65763,459.657404 C1499.67806,459.696169 1499.69508,459.73999 1499.7155,459.780441 C1499.87379,460.085507 1500.0525,460.351808 1500.22951,460.619794 C1500.27376,460.685527 1500.31121,460.761372 1500.35716,460.823733 C1500.41673,460.911377 1500.48141,460.992278 1500.54609,461.074865 C1500.73501,461.324311 1500.93415,461.556903 1501.14349,461.77264 C1501.20136,461.833316 1501.25753,461.899049 1501.3188,461.956354 C1501.58261,462.210857 1501.86004,462.440078 1502.15109,462.647388 C1502.21576,462.691209 1502.28384,462.729975 1502.34852,462.773796 C1502.59191,462.933914 1502.84381,463.078862 1503.10422,463.208642 C1503.19102,463.250778 1503.27782,463.296285 1503.36462,463.33505 C1504.84708,464.005858 1506.58995,464.223281 1508.53535,464.106985 C1508.95575,464.083389 1509.38295,464.04968 1509.82378,463.995746 L1509.82378,464.649699 C1502.00471,471.849932 1496.6791,480.981687 1498.29772,495.857448 L1500.78607,517.432864 C1501.53325,523.68756 1498.67557,526.980925 1493.4708,529.721462 L1483.04766,535.20928 L1483.05787,561 L1500.54268,551.794085 C1517.41647,542.908405 1524.60749,527.759601 1522.61102,510.798942 L1520.24522,488.694296 C1518.88361,477.395055 1525.57934,470.960015 1535,465.998058 L1534.98979,435.990348 C1534.39749,436.302155 1533.81369,436.598794 1533.24182,436.876893" id="Fill-104" fill="#FFFFFF"></path>
                    <path d="M1886.93547,186.89093 C1887.01897,186.914672 1887.09725,186.945196 1887.1877,186.960459 C1887.28859,186.977417 1887.39992,186.977417 1887.50777,186.9842 C1887.6017,186.989288 1887.69042,187.002854 1887.78957,186.999462 C1887.90437,186.997767 1888.02962,186.979113 1888.15138,186.967242 C1888.25402,186.955371 1888.35143,186.953675 1888.45754,186.935022 C1888.58626,186.914672 1888.72542,186.877364 1888.8611,186.846839 C1888.97069,186.821402 1889.0768,186.802748 1889.19161,186.772224 C1889.33251,186.73322 1889.48558,186.68065 1889.63344,186.633167 C1889.75173,186.592467 1889.8648,186.563639 1889.98656,186.517852 C1890.14486,186.46189 1890.31011,186.390666 1890.47362,186.326225 C1890.59713,186.277046 1890.71541,186.232955 1890.8424,186.180385 C1891.02852,186.100682 1891.22161,186.007412 1891.41469,185.920926 C1891.5295,185.86666 1891.63909,185.820873 1891.75564,185.766607 C1892.06875,185.615679 1892.39055,185.454577 1892.7228,185.2833 L1898.36053,182.359719 L1904,179.436138 L1886.01701,172 L1885.11421,180.574028 C1884.70891,184.623629 1885.39775,186.465281 1886.93547,186.89093" id="Fill-122" fill="#E6E6E6"></path>
                    <path d="M1876,137.374622 C1876.51802,137.263595 1877.02313,137.191088 1877.51694,137.143505 C1877.67187,137.132175 1877.82033,137.134441 1877.97203,137.125378 C1878.31092,137.109517 1878.64336,137.104985 1878.96611,137.125378 C1879.13717,137.136707 1879.30339,137.154834 1879.46961,137.175227 C1879.773,137.213746 1880.06832,137.272659 1880.3588,137.347432 C1880.5121,137.388218 1880.66864,137.424471 1880.81711,137.476586 C1881.13825,137.585347 1881.44486,137.725831 1881.74502,137.888973 C1881.82733,137.932024 1881.91931,137.952417 1882,138 L1876.96181,135 C1876.64389,135.437311 1876.3276,135.872356 1876,136.298338 L1876,137.374622 Z" id="Fill-124" fill="#E6E6E6"></path>
                    <path d="M1869.20406,216.382514 C1869.02079,216.26642 1868.84088,216.145279 1868.6677,216.014042 C1868.5685,215.938328 1868.47098,215.85925 1868.37346,215.781854 C1868.21205,215.647252 1868.05232,215.504238 1867.89931,215.356176 C1867.8102,215.268685 1867.71941,215.182876 1867.63366,215.090337 C1867.47561,214.92545 1867.32429,214.747103 1867.17801,214.567073 C1867.10739,214.479582 1867.03341,214.397138 1866.96615,214.309647 C1866.77112,214.048856 1866.58448,213.77797 1866.40962,213.491941 C1866.39617,213.471751 1866.38104,213.453243 1866.36927,213.43137 C1866.18264,213.121786 1866.00945,212.793694 1865.843,212.452142 C1865.79256,212.346143 1865.74548,212.231732 1865.69672,212.122368 C1865.58743,211.878402 1865.4815,211.632754 1865.38399,211.373645 C1865.33018,211.235678 1865.28142,211.090982 1865.23098,210.94965 C1865.14523,210.702319 1865.06284,210.451623 1864.9855,210.190832 C1864.9401,210.037723 1864.89471,209.884613 1864.85435,209.726456 C1864.78037,209.45557 1864.7148,209.176271 1864.65091,208.891925 C1864.6156,208.737133 1864.58029,208.584023 1864.54666,208.425866 C1864.47941,208.089362 1864.42056,207.741079 1864.36676,207.389432 C1864.34826,207.273338 1864.3264,207.162292 1864.30959,207.04115 C1864.24065,206.564996 1864.18517,206.075382 1864.13809,205.568943 C1864.128,205.452849 1864.12296,205.330025 1864.11455,205.210566 C1864.08261,204.816856 1864.05402,204.418098 1864.03721,204.007562 C1864.0288,203.814072 1864.02376,203.617217 1864.01871,203.423727 C1864.00863,203.070397 1864.00022,202.71202 1864.00022,202.34523 C1863.99854,202.129867 1864.00022,201.91114 1864.0019,201.692412 C1864.00694,201.325622 1864.01535,200.952102 1864.0288,200.575217 C1864.03553,200.354806 1864.04393,200.134396 1864.05402,199.908938 C1864.07252,199.498402 1864.09942,199.077772 1864.128,198.653776 C1864.14145,198.453556 1864.15322,198.258384 1864.16836,198.054798 C1864.2188,197.425535 1864.27596,196.786176 1864.34826,196.129993 L1866.27007,177.134315 L1866.52059,174.66269 L1866.78961,171.999257 C1866.79129,171.979067 1866.79129,171.965607 1866.79297,171.945416 C1866.86527,171.188281 1866.90899,170.478257 1866.92748,169.811978 C1866.93253,169.581473 1866.91908,169.381252 1866.91908,169.162524 C1866.91739,168.733481 1866.91908,168.301073 1866.89386,167.910728 C1866.8804,167.673492 1866.84678,167.468224 1866.82156,167.244449 C1866.78793,166.916357 1866.75598,166.579853 1866.70386,166.283729 C1866.66519,166.068366 1866.6097,165.881606 1866.56263,165.683068 C1866.49873,165.418912 1866.43652,165.151391 1866.3575,164.914156 C1866.29697,164.730761 1866.21963,164.570921 1866.14901,164.404351 C1866.05821,164.192353 1865.97078,163.980356 1865.86654,163.795278 C1865.78079,163.643851 1865.68495,163.514297 1865.59248,163.379695 C1865.47646,163.216491 1865.36213,163.053286 1865.23434,162.911954 C1865.12842,162.794177 1865.0124,162.694909 1864.89639,162.592275 C1864.7602,162.471133 1864.61896,162.355039 1864.46932,162.254088 C1864.34322,162.169962 1864.20871,162.097613 1864.0742,162.026947 C1861.43277,160.672517 1857.16713,162.058915 1852.08267,164.762729 L1852.07258,134.96694 C1860.45757,130.504891 1867.1242,124.826378 1866.90731,114.265185 C1866.89217,113.561891 1866.84678,112.835041 1866.76943,112.086319 L1864.31127,90.0705138 C1863.94473,86.9881328 1863.88084,83.9394023 1864.13473,80.9663854 C1864.55843,76.0063095 1865.85981,71.2464537 1868.08931,66.8483403 C1871.65549,59.8086668 1877.59745,53.692698 1886.11191,49.1616653 L1904,39.6436364 L1878.92742,29 L1861.03933,38.5180289 C1844.00705,47.5800943 1837.27653,62.9835865 1839.23869,79.4268774 L1841.69685,101.442682 C1842.93098,113.422242 1835.9432,119.565131 1827,124.323304 L1827.01009,154.119092 L1841.77924,160.389853 C1841.75738,160.712897 1841.75066,161.012386 1841.71703,161.355621 L1839.27568,185.486356 C1838.04996,196.774399 1839.99194,204.110196 1845.28489,206.356364 L1870.35916,217 C1870.30199,216.976445 1870.25323,216.944477 1870.19775,216.919239 C1869.95731,216.809875 1869.72192,216.695463 1869.49493,216.562544 C1869.39573,216.507021 1869.30158,216.443085 1869.20406,216.382514" id="Fill-126" fill="#E6E6E6"></path>
                    <path d="M1897.53897,181.929211 L1892.08804,184.82854 C1891.7668,184.998396 1891.45398,185.158162 1891.15124,185.307837 C1891.03855,185.361653 1890.9326,185.40706 1890.82327,185.460876 C1890.63659,185.546645 1890.44822,185.639141 1890.26994,185.718183 C1890.14716,185.770317 1890.0328,185.814042 1889.91338,185.862813 C1889.75529,185.926719 1889.59383,185.997353 1889.44246,186.05285 C1889.32473,186.098257 1889.21373,186.126847 1889.09936,186.167209 C1888.9564,186.214298 1888.81008,186.266432 1888.67385,186.305112 C1888.56284,186.335383 1888.46025,186.353883 1888.35429,186.379109 C1888.22311,186.40938 1888.08856,186.446379 1887.9641,186.466559 C1887.8615,186.485059 1887.76732,186.48674 1887.66809,186.498513 C1887.55036,186.510285 1887.42926,186.528784 1887.31826,186.530466 C1887.22239,186.533829 1887.13494,186.518694 1887.0458,186.51533 C1886.94152,186.508603 1886.8322,186.508603 1886.73465,186.491786 C1886.64888,186.47665 1886.57151,186.446379 1886.49246,186.422834 C1885.00401,186.000716 1884.33799,184.174341 1884.73155,180.158333 L1885.60444,171.655429 L1887.17362,156.359956 C1888.38793,144.570921 1886.07368,139.399554 1881.87574,137.801896 C1881.56291,137.680811 1881.24335,137.576543 1880.91034,137.495819 C1880.75393,137.45882 1880.59247,137.430231 1880.43101,137.399959 C1880.12996,137.344462 1879.82049,137.300736 1879.5043,137.272147 C1879.33107,137.258693 1879.15784,137.243557 1878.98124,137.235148 C1878.64319,137.220013 1878.29672,137.223376 1877.94521,137.235148 C1877.78543,137.241875 1877.6307,137.240194 1877.46924,137.250284 C1876.95459,137.283919 1876.42985,137.337735 1875.88829,137.42014 L1875.88829,136.622993 C1876.2297,136.305143 1876.55935,135.982248 1876.89068,135.657671 C1884.15467,128.560706 1888.80167,119.533098 1887.1568,105.692334 L1884.69791,83.8599168 C1883.95957,76.9647611 1887.02562,74.2016537 1892.04767,71.5310422 L1902.95123,65.7340662 L1902.94282,40 L1885.04942,49.5153148 C1876.53076,54.042573 1870.58872,60.1573989 1867.01979,67.1921393 C1864.79132,71.5899032 1863.48955,76.3475606 1863.06572,81.303664 C1862.81176,84.2769896 1862.87399,87.3226303 1863.24232,90.4035876 L1865.70121,112.409225 C1865.77858,113.157601 1865.82399,113.884115 1865.83744,114.587085 C1866.0544,125.1434 1859.38748,130.81929 1851,135.28096 L1851.01009,165.062987 C1856.09438,162.358741 1860.36296,160.972983 1863.00349,162.32847 C1863.13972,162.399103 1863.27259,162.471418 1863.40041,162.553823 C1863.5501,162.654728 1863.69138,162.770769 1863.82761,162.893536 C1863.94198,162.994441 1864.05802,163.095345 1864.16398,163.211386 C1864.2918,163.352652 1864.40785,163.517463 1864.52222,163.678911 C1864.6164,163.815132 1864.71227,163.944627 1864.79636,164.095984 C1864.90064,164.280976 1864.98978,164.492876 1865.07892,164.704776 C1865.15124,164.869587 1865.22692,165.029352 1865.28915,165.214344 C1865.3682,165.449789 1865.42875,165.717186 1865.49266,165.982902 C1865.54143,166.181348 1865.59525,166.36634 1865.63393,166.581603 C1865.68775,166.879272 1865.71971,167.21394 1865.75335,167.54188 C1865.77689,167.765552 1865.81053,167.970725 1865.82567,168.209533 C1865.8509,168.598016 1865.84921,169.030224 1865.84921,169.45907 C1865.8509,169.679378 1865.86435,169.877824 1865.85762,170.109905 C1865.8408,170.774194 1865.79539,171.483891 1865.72476,172.240676 C1865.72307,172.260857 1865.72307,172.275993 1865.72139,172.294492 L1865.45229,174.956695 L1865.20169,177.427179 L1863.27764,196.414083 C1863.207,197.069963 1863.14982,197.710708 1863.09936,198.339681 C1863.08422,198.541491 1863.07245,198.736573 1863.05899,198.936701 C1863.02872,199.360501 1863.00349,199.780937 1862.98331,200.191283 C1862.97322,200.416637 1862.96649,200.636945 1862.95808,200.858936 C1862.94631,201.233965 1862.93622,201.607312 1862.93285,201.973933 C1862.93117,202.194241 1862.92949,202.412868 1862.92949,202.628132 C1862.93117,202.99307 1862.9379,203.351282 1862.94967,203.704449 C1862.95472,203.897849 1862.95808,204.096295 1862.96649,204.288014 C1862.98499,204.69836 1863.0119,205.096934 1863.04386,205.492144 C1863.05395,205.609866 1863.05899,205.732633 1863.06909,205.850356 C1863.1145,206.354879 1863.17168,206.844267 1863.23895,207.321883 C1863.25577,207.441287 1863.27764,207.552282 1863.29614,207.670004 C1863.35164,208.021489 1863.41051,208.36961 1863.47778,208.704277 C1863.50974,208.864043 1863.54674,209.0154 1863.58037,209.170121 C1863.64428,209.454336 1863.71156,209.733505 1863.78388,210.004266 C1863.82593,210.16235 1863.87134,210.317071 1863.91675,210.47011 C1863.99411,210.729099 1864.07653,210.979679 1864.1623,211.226895 C1864.21276,211.369844 1864.26153,211.514474 1864.31367,211.652377 C1864.4129,211.909684 1864.51886,212.1569 1864.62818,212.399072 C1864.67695,212.510067 1864.72236,212.622744 1864.7745,212.728694 C1864.93932,213.07177 1865.11256,213.398028 1865.30093,213.707469 C1865.3127,213.729332 1865.32783,213.747831 1865.33961,213.769694 C1865.5162,214.055591 1865.70289,214.326352 1865.89799,214.58534 C1865.96526,214.674473 1866.03927,214.756878 1866.1099,214.842648 C1866.25623,215.024276 1866.40591,215.200859 1866.56401,215.367352 C1866.65147,215.458166 1866.7406,215.543935 1866.83143,215.631386 C1866.98448,215.77938 1867.14257,215.922328 1867.30571,216.056868 C1867.40326,216.13591 1867.49913,216.214952 1867.59836,216.29063 C1867.77327,216.421806 1867.95323,216.54121 1868.13655,216.657251 C1868.23242,216.719475 1868.32661,216.783382 1868.42584,216.838879 C1868.65289,216.970055 1868.89003,217.084414 1869.13054,217.195409 C1872.79197,218.841838 1878.09153,218.00601 1885.1066,214.275899 L1903,204.763948 L1902.99159,179.029882 L1897.53897,181.929211 Z" id="Fill-128" fill="#FFFFFF"></path>
                    <polygon id="Fill-204" fill="#E6E6E6" points="1582 61.319244 1560 52 1560.00824 73"></polygon>
                    <polygon id="Fill-206" fill="#E6E6E6" points="1519.03807 119.512829 1519.02968 95.4419558 1541.41741 83.5399387 1541.40734 53.5012748 1560 43.6164919 1534.97032 33 1516.37766 42.884783 1516.38773 72.9234468 1494 84.8254639 1494.00839 108.898015 1516.40284 118.396805 1516.4062 126.383508 1541.43587 137 1541.4258 107.610812"></polygon>
                    <polygon id="Fill-208" fill="#FFFFFF" points="1581.99166 61.062163 1559.73693 72.9169722 1559.72859 51.6040543 1559.72692 43 1541.24472 52.8441881 1541.25473 82.7594889 1519 94.6126267 1519.00667 118.584645 1541.26307 106.731507 1541.27308 136 1559.75528 126.155812 1559.74527 96.8889907 1582 85.0358529"></polygon>
                    <polygon id="Fill-264" fill="#E6E6E6" points="2687 427.604586 2670.2002 420.470789 2637.13819 438.06659 2637.12976 414.205732 2686.98652 387.669489 2661.85507 377 2612 403.534556 2612.00843 427.395414 2628.80822 434.529211 2612.0118 443.467966 2612.02022 467.330511 2637.15167 478 2637.14324 454.139142"></polygon>
                    <polygon id="Fill-266" fill="#FFFFFF" points="2686.99155 427 2637 453.852887 2637.00845 478 2687 451.147113"></polygon>
                    <polygon id="Fill-268" fill="#FFFFFF" points="2637.00845 438 2670.15985 420.191994 2687 411.148012 2686.99155 387 2637 413.851988"></polygon>
                </g>
            </g>
        </g>
    </g>
</svg>