<svg width="151" height="30" viewBox="0 0 151 30" fill="none" xmlns="http://www.w3.org/2000/svg">
<path fill-rule="evenodd" clip-rule="evenodd" d="M17.9458 14.8478C17.9458 9.88848 14.7859 6.62256 10.0759 6.62256C7.5718 6.62256 5.42546 7.52976 4.26287 9.01152L3.93495 6.92496H0V28.9397H4.50135V21.289C5.72357 22.4986 7.63142 23.1941 9.71814 23.1941C14.6666 23.1941 17.9458 19.8677 17.9458 14.8478ZM13.3848 14.9386C13.3848 17.6602 11.626 19.4141 8.97288 19.4141C6.26015 19.4141 4.50135 17.6602 4.50135 14.999V14.6966C4.50135 12.096 6.28996 10.3723 8.97288 10.3723C11.626 10.3723 13.3848 12.1867 13.3848 14.9386Z" fill="white"/>
<path d="M46.5988 23.1942C42.7831 23.1942 40.8455 20.7447 40.8455 17.0252V6.92505H45.3468V16.3297C45.3468 17.7207 45.943 19.4142 48.1788 19.4142C50.2953 19.4142 51.3983 17.9626 51.3983 15.9668V6.92505H55.8996V22.8918H51.7262L51.3685 20.8657C50.4742 22.2567 48.5663 23.1942 46.5988 23.1942Z" fill="white"/>
<path d="M68.1895 0C68.9049 0 69.9781 0.09072 70.5743 0.24192V3.81024C70.2166 3.74976 69.7992 3.71952 69.4713 3.71952C67.6827 3.71952 67.1163 4.50576 67.1163 5.86656V6.92496H71.0513V10.6445H67.1163V22.8917H62.615V10.6445H59.157V6.92496H62.615V5.50368C62.615 2.63088 64.1055 0 68.1895 0Z" fill="white"/>
<path d="M75.4959 23.1637C73.8265 23.1637 72.5745 21.9844 72.5745 20.2305C72.5745 18.5068 73.8265 17.3577 75.4959 17.3577C77.1652 17.3577 78.4471 18.5068 78.4471 20.2305C78.4471 21.9844 77.1652 23.1637 75.4959 23.1637Z" fill="white"/>
<path fill-rule="evenodd" clip-rule="evenodd" d="M29.0198 23.2106C33.7347 23.2106 37.6586 22.2484 37.6586 17.3578C37.6586 12.4672 33.4712 6.67212 29.0198 6.67212C24.5683 6.67212 20.3145 12.4672 20.3145 17.3578C20.3145 22.2484 24.3048 23.2106 29.0198 23.2106Z" fill="#125FFF"/>
<path fill-rule="evenodd" clip-rule="evenodd" d="M150.52 0.239469C149.919 0.0898008 148.838 0 148.118 0C144.004 0 142.503 2.60422 142.503 5.44791V6.85479H139.02V10.5366H142.503V22.6597H147.037V10.5366H151V6.85479H147.037V5.80712C147.037 4.4601 147.607 3.68183 149.409 3.68183C149.739 3.68183 150.159 3.71177 150.52 3.77163V0.239469ZM82.1228 14.7573C82.1228 9.81822 85.6057 6.55546 90.5898 6.55546C95.0035 6.55546 98.2462 8.98008 98.7266 12.632H94.1328C93.7124 11.2251 92.3013 10.387 90.5898 10.387C88.1578 10.387 86.7166 12.153 86.7166 14.7573C86.7166 17.4812 88.2479 19.1276 90.6199 19.1276C92.4214 19.1276 93.7124 18.2595 94.1328 16.8825H98.7266C98.2462 20.5644 95.0335 22.9591 90.6799 22.9591C85.6057 22.9591 82.1228 19.6664 82.1228 14.7573ZM100.798 14.7573C100.798 9.81822 104.311 6.55546 109.566 6.55546C114.82 6.55546 118.363 9.81822 118.363 14.7573C118.363 19.6364 114.82 22.9291 109.566 22.9291C104.311 22.9291 100.798 19.6364 100.798 14.7573ZM109.566 19.0976C107.074 19.0976 105.392 17.5112 105.392 14.7872C105.392 12.1231 106.953 10.387 109.626 10.387C112.088 10.387 113.739 11.9734 113.739 14.7273C113.739 17.3615 112.208 19.0976 109.566 19.0976ZM121.305 6.85479H125.539L125.899 8.89028C126.77 7.45346 128.631 6.55546 130.793 6.55546C134.636 6.55546 136.558 8.92021 136.558 12.6619V22.6597H132.024V13.4102C132.024 11.285 130.883 10.2972 129.202 10.2972C127.19 10.2972 125.839 11.704 125.839 14.1287V22.6597H121.305V6.85479Z" fill="white"/>
</svg>
