<svg width="115" height="34" viewBox="0 0 115 34" fill="none" xmlns="http://www.w3.org/2000/svg">
<path d="M113.978 5.42762C114.215 5.28456 114.29 4.97711 114.147 4.74091L111.816 0.891901C111.673 0.655706 111.365 0.580207 111.129 0.723269C110.893 0.866331 110.817 1.17378 110.96 1.40997L113.033 4.83132L109.611 6.90361C109.375 7.04667 109.3 7.35412 109.443 7.59032C109.586 7.82651 109.893 7.90201 110.129 7.75895L113.978 5.42762ZM1.01645 33.027C0.84284 33.2417 0.87618 33.5566 1.09092 33.7302C1.30566 33.9038 1.62048 33.8704 1.7941 33.6557L1.01645 33.027ZM113.719 4.99995C113.839 4.51438 113.838 4.51427 113.837 4.51409C113.837 4.51393 113.836 4.51368 113.834 4.51338C113.832 4.51277 113.828 4.51189 113.824 4.51073C113.814 4.50843 113.8 4.50504 113.782 4.50062C113.745 4.49177 113.69 4.47877 113.618 4.46193C113.474 4.42826 113.26 4.37924 112.98 4.31741C112.421 4.19376 111.597 4.01889 110.536 3.81315C108.414 3.4017 105.342 2.86671 101.54 2.37112C93.9356 1.3801 83.4012 0.545832 71.6814 1.17439C48.255 2.4308 20.0063 9.53859 1.01645 33.027L1.7941 33.6557C20.5266 10.4855 48.4349 3.42259 71.735 2.17295C83.3784 1.54849 93.8496 2.37736 101.41 3.36273C105.19 3.85535 108.241 4.38687 110.345 4.79487C111.398 4.99887 112.213 5.17197 112.765 5.29385C113.04 5.35479 113.25 5.40293 113.39 5.43572C113.461 5.45212 113.514 5.46468 113.549 5.47309C113.566 5.47729 113.579 5.48045 113.588 5.48254C113.592 5.48358 113.595 5.48436 113.597 5.48486C113.598 5.4851 113.599 5.48527 113.6 5.4854C113.6 5.4855 113.6 5.48552 113.719 4.99995Z" fill="#979797"/>
</svg>
