<?xml version="1.0" encoding="UTF-8"?>
<svg width="22px" height="13px" viewBox="0 0 22 13" version="1.1" xmlns="http://www.w3.org/2000/svg" xmlns:xlink="http://www.w3.org/1999/xlink">
    <!-- Generator: Sketch 55.2 (78181) - https://sketchapp.com -->
    <title>Path</title>
    <desc>Created with Sketch.</desc>
    <g id="Site" stroke="none" stroke-width="1" fill="none" fill-rule="evenodd">
        <g id="pouf-•-site" transform="translate(-739.000000, -7540.000000)" fill="#FFFFFF">
            <g id="Bitmap-+-Rectangle-+-Rectangle-+-Group-3-+-Mask-Mask" transform="translate(0.000000, 7096.000000)">
                <g id="Group-17" transform="translate(643.000000, 70.000000)">
                    <g id="Input" transform="translate(80.000000, 358.000000)">
                        <g id="Button">
                            <g id="Group-19">
                                <path d="M37.3726942,16.8745188 C37.5349598,16.3812005 37.3726942,16.0224236 36.6540895,16.0224236 L34.2664675,16.0224236 C33.6637668,16.0224236 33.3855972,16.3363534 33.2233317,16.6727068 C33.2233317,16.6727068 31.9947495,19.5429225 30.2793705,21.404078 C29.7230314,21.9422434 29.4680427,22.1216319 29.1666923,22.1216319 C29.0044267,22.1216319 28.7957996,21.9422434 28.7957996,21.4489251 L28.7957996,16.8520953 C28.7957996,16.2690827 28.6103532,16 28.1003757,16 L24.3450867,16 C23.9741939,16 23.742386,16.2690827 23.742386,16.5381654 C23.742386,17.0987544 24.6000754,17.2332958 24.6927986,18.802945 L24.6927986,22.2113262 C24.6927986,22.9513037 24.5537138,23.085845 24.2523635,23.085845 C23.4410356,23.085845 21.4706679,20.1932058 20.2884473,16.8969424 C20.0566394,16.2466592 19.8248314,16 19.2221307,16 L16.8113279,16 C16.115904,16 16,16.3139298 16,16.6502832 C16,17.2557194 16.8113279,20.3053236 19.7784698,24.3415644 C21.7488375,27.0996623 24.5537138,28.5796173 27.0804206,28.5796173 C28.6103532,28.5796173 28.7957996,28.2432639 28.7957996,27.6826748 L28.7957996,25.5972838 C28.7957996,24.9245769 28.9348843,24.8124591 29.4216811,24.8124591 C29.769393,24.8124591 30.3952745,24.9918476 31.8093031,26.3148377 C33.4319588,27.8844869 33.7101284,28.6020408 34.6141794,28.6020408 L37.0018015,28.6020408 C37.6972253,28.6020408 38.0217565,28.2656874 37.8363101,27.6154042 C37.627683,26.9651209 36.8395359,26.0233314 35.8195808,24.9021534 C35.2632417,24.2742937 34.4287331,23.5791633 34.1737443,23.2428099 C33.8260324,22.7943387 33.9187555,22.6149503 34.1737443,22.2113262 C34.1505635,22.2113262 37.0713438,18.2199325 37.3726942,16.8745188" id="Path"></path>
                            </g>
                        </g>
                    </g>
                </g>
            </g>
        </g>
    </g>
</svg>