<svg xmlns="http://www.w3.org/2000/svg" viewBox="0 0 16.875 17.641"><defs><style>.a{fill:#0e76bc;}</style></defs><g transform="translate(-4.718 -36.496)"><path class="a" d="M60.76,51a.4.4,0,0,0-.4.4v.719a1.209,1.209,0,0,1-1.205,1.205H50.009A1.209,1.209,0,0,1,48.8,52.124V38.5A1.209,1.209,0,0,1,50.009,37.3h6v2.338a2.01,2.01,0,0,0,2.009,2.009h2.338v2.129a.4.4,0,0,0,.8,0V41.237a.415.415,0,0,0-.117-.285l-4.339-4.331,0,0a.4.4,0,0,0-.289-.121.137.137,0,0,0-.04,0H50.009A2.01,2.01,0,0,0,48,38.509v13.62a2.01,2.01,0,0,0,2.009,2.009h9.144a2.01,2.01,0,0,0,2.009-2.009v-.719a.4.4,0,0,0-.4-.406ZM56.815,39.638V37.866L59.8,40.843H58.02A1.209,1.209,0,0,1,56.815,39.638Z" transform="translate(-43.282 0)"/><path class="a" d="M272.192,216.905a.4.4,0,0,0-.567-.036l-5.259,4.6a.388.388,0,0,0-.129.221l-.422,1.989a.416.416,0,0,0,.088.345.406.406,0,0,0,.305.141h.024l2.065-.117a.393.393,0,0,0,.241-.1l5.255-4.6a.4.4,0,0,0,.137-.277.378.378,0,0,0-.1-.289Zm-4.082,6.352-1.4.08.285-1.35,4.853-4.251,1.113,1.27Z" transform="translate(-252.34 -173.029)"/><path class="a" d="M103.5,190.4h3.777a.4.4,0,1,0,0-.8H103.5a.4.4,0,1,0,0,.8Z" transform="translate(-96.169 -146.953)"/><path class="a" d="M111.457,255.8a.4.4,0,0,0-.4-.4H103.5a.4.4,0,1,0,0,.8h7.553A.4.4,0,0,0,111.457,255.8Z" transform="translate(-96.169 -210.109)"/><path class="a" d="M108.789,321.2H103.5a.4.4,0,1,0,0,.8h5.287a.4.4,0,1,0,0-.8Z" transform="translate(-96.169 -273.266)"/><path class="a" d="M108.789,387H103.5a.4.4,0,1,0,0,.8h5.287a.4.4,0,1,0,0-.8Z" transform="translate(-96.169 -336.422)"/></g></svg>