<svg xmlns="http://www.w3.org/2000/svg" viewBox="0 0 16 20.964"><defs><style>.a{fill:#333;}</style></defs><g transform="translate(-15.655 -5)"><g transform="translate(15.655 5)"><path class="a" d="M29.828,41.643H17.6a1.945,1.945,0,0,0-1.945,1.947l0,8.537A1.945,1.945,0,0,0,17.6,54.071l12.107-.006a1.945,1.945,0,0,0,1.945-1.947l0-8.537A1.944,1.944,0,0,0,29.828,41.643ZM24.187,48.19v2.418h-.881V48.19a1.272,1.272,0,1,1,.881,0Z" transform="translate(-15.655 -33.108)"/><path class="a" d="M27.006,12.665a.756.756,0,0,0,.756-.756V10.667a3.577,3.577,0,1,1,7.154,0V11.91a.756.756,0,0,0,.756.755h.577A.756.756,0,0,0,37,11.909V10.662a5.665,5.665,0,0,0-11.33.006V11.91a.756.756,0,0,0,.756.755h.577Z" transform="translate(-23.339 -5)"/></g></g></svg>