<svg xmlns="http://www.w3.org/2000/svg" viewBox="0 0 20 20.424"><defs><style>.a{fill:#0e76bc;}</style></defs><g transform="translate(-3.929 -24)"><g transform="translate(3.929 24)"><path class="a" d="M48.444,31.879a.8.8,0,0,0,.211-1.039l-2.086-3.508a.707.707,0,0,0-.995-.295l-2.2,1.012a9.082,9.082,0,0,0-1.563-.907l-.22-2.421a.551.551,0,0,0-.013-.084A.8.8,0,0,0,40.825,24H36.749a.76.76,0,0,0-.762.691l-.22,2.447a7.539,7.539,0,0,0-1.567.907l-2.21-1.017a.063.063,0,0,0-.026-.009.786.786,0,0,0-.96.313L28.966,30.84a.8.8,0,0,0,.216,1.043s.009,0,.009.009l1.985,1.413a5.531,5.531,0,0,0,0,1.813L29.1,36.532l-.022.013a.8.8,0,0,0-.207,1.034l2.038,3.508,0,0a.824.824,0,0,0,.423.357.679.679,0,0,0,.572-.062l2.2-1.012a9.083,9.083,0,0,0,1.563.907l.22,2.421a.55.55,0,0,0,.013.084.8.8,0,0,0,.753.638h4.076a.759.759,0,0,0,.761-.691l.22-2.447a7.738,7.738,0,0,0,1.567-.9L45.49,41.4a.062.062,0,0,0,.026.009.786.786,0,0,0,.955-.313l2.038-3.513a.788.788,0,0,0-.216-1.039l-1.858-1.413a6.477,6.477,0,0,0,.075-.916,6.349,6.349,0,0,0-.075-.907l1.99-1.413A.062.062,0,0,0,48.444,31.879Zm-2.874.748a.518.518,0,0,0-.216.506l.022.145a6.506,6.506,0,0,1,.088.933,6.084,6.084,0,0,1-.088.933l-.022.141a.533.533,0,0,0,.2.5l1.928,1.47L45.7,40.33l-2.271-1.043a.528.528,0,0,0-.555.07l-.114.092a6.713,6.713,0,0,1-1.615.933l-.132.057a.537.537,0,0,0-.317.449l-.224,2.487H36.925L36.7,40.889a.532.532,0,0,0-.317-.44l-.132-.057a7.851,7.851,0,0,1-1.642-.951l-.114-.088a.525.525,0,0,0-.537-.057L31.7,40.339l-1.783-3.064L31.929,35.9s.009,0,.013-.009l.123-.088a.52.52,0,0,0,.211-.5l-.022-.15a4.966,4.966,0,0,1,0-1.862l.022-.145a.539.539,0,0,0-.216-.506l-2.056-1.461,1.783-3.068,2.271,1.043a.528.528,0,0,0,.555-.07l.114-.092a6.8,6.8,0,0,1,1.615-.933L36.476,28a.537.537,0,0,0,.317-.449l.224-2.487H40.56l.224,2.487A.545.545,0,0,0,41.1,28l.132.057A7.852,7.852,0,0,1,42.876,29l.114.088a.525.525,0,0,0,.537.057l2.267-1.043,1.827,3.072Z" transform="translate(-28.762 -24)"/><path class="a" d="M136.12,130.6a5.52,5.52,0,1,0,5.52,5.52A5.462,5.462,0,0,0,136.12,130.6Zm0,9.983a4.463,4.463,0,1,1,4.463-4.463A4.414,4.414,0,0,1,136.12,140.583Z" transform="translate(-126.117 -125.908)"/><path class="a" d="M195.677,192.9a2.777,2.777,0,1,0,2.777,2.777A2.747,2.747,0,0,0,195.677,192.9Zm0,4.5a1.721,1.721,0,1,1,1.721-1.721A1.7,1.7,0,0,1,195.677,197.4Z" transform="translate(-185.675 -185.466)"/></g></g></svg>