<svg xmlns="http://www.w3.org/2000/svg" viewBox="0 0 20 13.2"><defs><style>.a{fill:#fff;}</style></defs><g transform="translate(-1 -11)"><path class="a" d="M15.1,11h-.2a1.5,1.5,0,0,0-1.436,1.088L3.336,15.372A1.132,1.132,0,0,0,2.264,14.6H2.136A1.136,1.136,0,0,0,1,15.736v2.932A1.136,1.136,0,0,0,2.136,19.8h.128a1.132,1.132,0,0,0,1.084-.82L6.6,20.332v.908a.96.96,0,0,0,.96.96H9.8a.8.8,0,0,0,.6-.28l3.088,1.288A1.5,1.5,0,0,0,14.9,24.2h.2a1.5,1.5,0,0,0,1.5-1.5V12.5A1.5,1.5,0,0,0,15.1,11ZM3.4,16.2l10-3.24V22.3l-10-4.168ZM2.264,19H2.136a.336.336,0,0,1-.336-.336V15.736a.336.336,0,0,1,.336-.336h.128a.336.336,0,0,1,.336.336V18.4h0v.264A.336.336,0,0,1,2.264,19Zm5.3,2.4a.16.16,0,0,1-.16-.16v-.572l1.76.732Zm8.24,1.3a.7.7,0,0,1-.7.7h-.2a.7.7,0,0,1-.7-.7V12.5a.7.7,0,0,1,.7-.7h.2a.7.7,0,0,1,.7.7Zm4.8-5.3H17.8a.4.4,0,0,0,0,.8h2.8a.4.4,0,0,0,0-.8Zm-2.88-1.488A.4.4,0,0,0,18,15.8l2.112-2.112a.4.4,0,0,0-.564-.564l-2.112,2.112a.4.4,0,0,0,.284.676ZM18,19.828a.4.4,0,0,0-.564.564L19.552,22.5a.4.4,0,0,0,.564-.564Z"/></g></svg>