<svg xmlns="http://www.w3.org/2000/svg" viewBox="0 0 20 16.897"><defs><style>.a{fill:#0e76bc;}</style></defs><g transform="translate(-2.01 -54)"><g transform="translate(2.01 54)"><path class="a" d="M33.517,54.226A.512.512,0,0,0,33.1,54H20.618a.524.524,0,0,0-.414.226l-3.254,4.71a.509.509,0,0,0,.029.615l9.465,11.117a.505.505,0,0,0,.414.23h0a.505.505,0,0,0,.414-.23l9.465-11.113a.515.515,0,0,0,.029-.619Zm-2.986,5.5-3.672,9.277L23.207,59.73Zm-6.91-1,3.2-3.438,3.262,3.438ZM27.967,55h4.425l-1.3,3.292Zm-5.32,3.275L21.359,55H25.7Zm-.912.448H18.322L20.5,55.585Zm.393,1,3.158,8.026L18.452,59.73Zm9.482,0h3.664l-6.843,8.035Zm.4-1L33.241,55.6,35.4,58.726Z" transform="translate(-16.861 -54)"/></g></g></svg>