<svg xmlns="http://www.w3.org/2000/svg" viewBox="0 0 15 17.641"><defs><style>.a{fill:#0e76bc;}</style></defs><g transform="translate(-11.738 -5)"><rect class="a" width="10.875" height="0.914" transform="translate(13.905 13.449)"/><rect class="a" width="10.875" height="0.915" transform="translate(13.905 15.44)"/><rect class="a" width="10.875" height="0.915" transform="translate(13.905 17.431)"/><rect class="a" width="10.875" height="0.915" transform="translate(13.905 19.422)"/><rect class="a" width="6.697" height="0.915" transform="translate(13.905 7.369)"/><rect class="a" width="6.697" height="0.915" transform="translate(13.905 9.36)"/><rect class="a" width="10.875" height="0.915" transform="translate(13.905 11.351)"/><path class="a" d="M22,5H13.666a1.93,1.93,0,0,0-1.928,1.928V20.713a1.93,1.93,0,0,0,1.928,1.928H24.81a1.93,1.93,0,0,0,1.928-1.928v-11Zm.191,1.1L25.627,9.52H23.194c-.416,0-.777.005-.9-.12a.611.611,0,0,1-.1-.418Zm2.62,15.889H13.666a1.281,1.281,0,0,1-1.28-1.28V6.928a1.281,1.281,0,0,1,1.28-1.28h7.874V8.983a1.178,1.178,0,0,0,.293.878,1.6,1.6,0,0,0,1.186.309h3.069V20.713A1.281,1.281,0,0,1,24.81,21.993Z"/></g></svg>