<svg xmlns="http://www.w3.org/2000/svg" viewBox="0 0 20 20"><defs><style>.a{fill:#0e76bc;}</style></defs><g transform="translate(20) rotate(90)"><path class="a" d="M20,10.6V9.4a.43.43,0,0,0-.4-.4H.4a.43.43,0,0,0-.4.4v1.2a.43.43,0,0,0,.4.4H19.6A.43.43,0,0,0,20,10.6Z"/><path class="a" d="M10.7,19.7l4-4a.99.99,0,0,0-1.4-1.4L10,17.6,6.7,14.3a.967.967,0,0,0-1.4,0,.967.967,0,0,0,0,1.4l4,4A.967.967,0,0,0,10.7,19.7Z"/><path class="a" d="M14.7,5.7a.967.967,0,0,0,0-1.4l-4-4A.967.967,0,0,0,9.3.3l-4,4A.908.908,0,0,0,5,5a.908.908,0,0,0,.3.7.967.967,0,0,0,1.4,0L10,2.4l3.3,3.3A.967.967,0,0,0,14.7,5.7Z"/></g></svg>