<svg xmlns="http://www.w3.org/2000/svg" viewBox="0 0 18 18"><defs><style>.a{fill:#0e76bc;}</style></defs><g transform="translate(-2.5 -2.5)"><g transform="translate(2.5 2.5)"><path class="a" d="M20.5,11.5a9,9,0,1,0-9,9A9.008,9.008,0,0,0,20.5,11.5Zm-16.712,0A7.712,7.712,0,1,1,11.5,19.212,7.731,7.731,0,0,1,3.788,11.5Z" transform="translate(-2.5 -2.5)"/><path class="a" d="M43.966,32.887a.64.64,0,0,0,0-.909L40.5,28.51a.643.643,0,1,0-.909.909l2.994,3.013-2.994,2.994a.616.616,0,0,0-.189.455.588.588,0,0,0,.189.455.652.652,0,0,0,.909,0Z" transform="translate(-32.408 -23.432)"/></g></g></svg>