<svg xmlns="http://www.w3.org/2000/svg" viewBox="0 0 17 17"><defs><style>.a{fill:#0e76bc;}</style></defs><g transform="translate(-129 -46)"><g transform="translate(117 34)"><path class="a" d="M29,14.729,25.533,12H12V29H29ZM16.362,12.895h7.382V17.7H16.362ZM28.105,28.105H12.895V12.895h2.572v5.7h9.171v-5.7h.582l2.886,2.259Z"/><path class="a" d="M38.684,50a2.684,2.684,0,1,0,2.684,2.684A2.684,2.684,0,0,0,38.684,50Zm0,4.474a1.789,1.789,0,1,1,1.789-1.789A1.789,1.789,0,0,1,38.684,54.474Z" transform="translate(-18.632 -29.5)"/></g></g></svg>