<?xml version="1.0" encoding="UTF-8"?>
<svg width="166px" height="34px" viewBox="0 0 166 34" version="1.1" xmlns="http://www.w3.org/2000/svg" xmlns:xlink="http://www.w3.org/1999/xlink">
    <!-- Generator: Sketch 55.2 (78181) - https://sketchapp.com -->
    <title>Лого дополнительная версия красный</title>
    <desc>Created with Sketch.</desc>
    <defs>
        <polygon id="path-1" points="0 33.5771605 165.242615 33.5771605 165.242615 0.136821219 0 0.136821219"></polygon>
    </defs>
    <g id="Site" stroke="none" stroke-width="1" fill="none" fill-rule="evenodd">
        <g id="pouf-•-site" transform="translate(-557.000000, -5869.000000)">
            <g id="Group-27" transform="translate(151.000000, 5797.000000)">
                <g id="Group-28" transform="translate(83.000000, 71.000000)">
                    <g id="Лого-дополнительная-версия-красный" transform="translate(323.000000, 1.000000)">
                        <polygon id="Fill-1" fill="#EF3124" points="159.588429 7.02777778 153.872263 13.2135882 153.872263 7.02777778 149.735849 7.02777778 149.735849 22.6450617 153.872263 22.6450617 153.872263 16.0709174 159.990551 22.6450617 165.333333 22.6450617 157.807501 14.4620739 164.787513 7.02777778"></polygon>
                        <polygon id="Fill-2" fill="#EF3124" points="142.465688 12.8530083 136.729511 12.8530083 136.729511 7.02777778 132.578616 7.02777778 132.578616 22.6450617 136.729511 22.6450617 136.729511 16.4870053 142.465688 16.4870053 142.465688 22.6450617 146.616352 22.6450617 146.616352 7.02777778 142.465688 7.02777778"></polygon>
                        <g id="Group-18">
                            <path d="M24.2261187,15.4455167 C24.128597,18.4411933 23.7444068,19.0412423 22.0727031,19.0412423 L22.0727031,22.8080515 L22.6959349,22.8080515 C26.8662358,22.8080515 27.8691219,20.6390126 28.0228887,15.8164643 L28.1929847,10.47998 L32.1029253,10.47998 L32.1029253,22.8080515 L36.1834155,22.8080515 L36.1834155,6.74172279 L24.5093853,6.74172279 L24.2261187,15.4455167 Z" id="Fill-3" fill="#EF3124"></path>
                            <path d="M46.0130151,19.2694756 L43.3778875,19.2694756 L43.3778875,15.1885943 L46.0130151,15.1885943 C47.4295748,15.1885943 48.2796013,15.81651 48.2796013,17.1575407 C48.2796013,18.6130078 47.4579241,19.2694756 46.0130151,19.2694756 M46.324631,11.6216491 L43.3778875,11.6216491 L43.3778875,6.74154005 L39.2978509,6.74154005 L39.2978509,22.8080971 L46.3813297,22.8080971 C50.8299076,22.8080971 52.4165633,19.8971629 52.4165633,17.1575407 C52.4165633,13.6191476 50.206449,11.6216491 46.324631,11.6216491" id="Fill-5" fill="#EF3124"></path>
                            <path d="M65.7053944,19.2980276 L65.7053944,10.223286 C67.9722074,10.5371297 69.3889939,12.2493365 69.3889939,14.7605426 C69.3889939,17.2717487 67.9722074,18.9839555 65.7053944,19.2980276 L65.7053944,19.2980276 Z M61.6253578,19.2980276 C59.3585449,18.9839555 57.9419852,17.2717487 57.9419852,14.7605426 C57.9419852,12.2493365 59.3585449,10.5371297 61.6253578,10.223286 L61.6253578,19.2980276 Z M65.7053944,6.37059238 L65.7053944,0.406192276 L61.6253578,0.406192276 L61.6253578,6.37059238 C56.950212,6.77032048 53.8047963,10.109078 53.8047963,14.7605426 C53.8047963,19.4407876 56.950212,22.7795451 61.6253578,23.1790448 L61.6253578,29.2291009 L65.7053944,29.2291009 L65.7053944,23.1790448 C70.3805403,22.8080971 73.5257291,19.4407876 73.5257291,14.7605426 C73.5257291,10.080526 70.3805403,6.74154005 65.7053944,6.37059238 L65.7053944,6.37059238 Z" id="Fill-7" fill="#EF3124"></path>
                            <path d="M84.7464194,16.8152364 C84.7464194,18.6702032 83.4430303,19.7261706 81.7429772,19.7261706 C80.2694921,19.7261706 79.1078497,19.1839109 79.1078497,17.5856838 C79.1078497,16.016237 80.3828894,15.7594974 81.48806,15.7594974 L84.7464194,15.7594974 L84.7464194,16.8152364 Z M88.826456,17.8712038 L88.826456,12.4776155 C88.826456,8.53949421 86.3330751,6.05661166 82.1396412,6.05661166 C77.8044605,6.05661166 75.5092982,8.68225425 75.3108529,11.421648 L79.4478149,11.421648 C79.5895616,10.8222843 80.2130202,9.79509728 82.1396412,9.79509728 C83.7262968,9.79509728 84.7464194,10.5372211 84.7464194,12.4776155 L80.6945053,12.4776155 C77.0678314,12.4776155 74.9141889,14.3894579 74.9141889,17.5856838 C74.9141889,20.9246697 77.2699054,23.2076882 80.666156,23.2076882 C83.1565886,23.2076882 84.539129,22.0222089 85.1430833,21.1245337 C85.6812671,22.2085964 86.8714857,22.8079601 88.429792,22.8079601 L89.8465785,22.8079601 L89.8465785,19.0982549 C89.1099493,19.0982549 88.826456,18.7558592 88.826456,17.8712038 L88.826456,17.8712038 Z" id="Fill-9" fill="#EF3124"></path>
                            <path d="M106.110729,18.7557679 L101.747199,18.7557679 L101.747199,12.9341278 L106.110729,12.9341278 C108.377315,12.9341278 109.652355,13.9900952 109.652355,15.8448336 C109.652355,17.7569044 108.377315,18.7557679 106.110729,18.7557679 M106.308948,9.02455855 L101.747199,9.02455855 L101.747199,4.48730198 L112.315832,4.48730198 L112.315832,0.406420692 L97.4687173,0.406420692 L97.4687173,22.8080971 L106.308948,22.8080971 C111.210888,22.8080971 114.015885,20.353995 114.015885,15.8448336 C114.015885,11.5930971 111.210888,9.02455855 106.308948,9.02455855" id="Fill-11" fill="#EF3124"></path>
                            <path d="M125.548191,16.8152364 C125.548191,18.6702032 124.244802,19.7261706 122.544749,19.7261706 C121.071491,19.7261706 119.909622,19.1839109 119.909622,17.5856838 C119.909622,16.016237 121.184661,15.7594974 122.289832,15.7594974 L125.548191,15.7594974 L125.548191,16.8152364 Z M129.628228,17.8712038 L129.628228,12.4776155 C129.628228,8.53949421 127.134847,6.05661166 122.941413,6.05661166 C118.606232,6.05661166 116.31107,8.68225425 116.112625,11.421648 L120.249587,11.421648 C120.391334,10.8222843 121.014792,9.79509728 122.941413,9.79509728 C124.528069,9.79509728 125.548191,10.5372211 125.548191,12.4776155 L121.496277,12.4776155 C117.869603,12.4776155 115.715961,14.3894579 115.715961,17.5856838 C115.715961,20.9246697 118.071904,23.2076882 121.467928,23.2076882 C123.958587,23.2076882 125.340901,22.0222089 125.944855,21.1245337 C126.483266,22.2085964 127.673258,22.8079601 129.231791,22.8079601 L130.64835,22.8079601 L130.64835,19.0982549 C129.911721,19.0982549 129.628228,18.7558592 129.628228,17.8712038 L129.628228,17.8712038 Z" id="Fill-13" fill="#EF3124"></path>
                            <mask id="mask-2" fill="white">
                                <use xlink:href="#path-1"></use>
                            </mask>
                            <g id="Clip-16"></g>
                            <polygon id="Fill-15" fill="#EF3124" mask="url(#mask-2)" points="0 33.5771605 21.8176497 33.5771605 21.8176497 29.0111235 0 29.0111235"></polygon>
                            <path d="M7.79191733,14.3325366 L10.8520582,5.172139 L10.9654555,5.172139 L13.8555003,14.3325366 L7.79191733,14.3325366 Z M14.8744889,3.48117493 C14.252391,1.61273158 13.535493,0.136935427 11.0788529,0.136935427 C8.62198592,0.136935427 7.85904856,1.60679276 7.20429227,3.48117493 L0.453521353,22.8079144 L4.93022186,22.8079144 L6.48875501,18.2135538 L15.1021908,18.2135538 L16.5473266,22.8079144 L21.3077472,22.8079144 L14.8744889,3.48117493 Z" id="Fill-17" fill="#EF3124" mask="url(#mask-2)"></path>
                        </g>
                    </g>
                </g>
            </g>
        </g>
    </g>
</svg>