<?xml version="1.0" encoding="UTF-8"?>
<svg width="266px" height="42px" viewBox="0 0 266 42" version="1.1" xmlns="http://www.w3.org/2000/svg" xmlns:xlink="http://www.w3.org/1999/xlink">
    <!-- Generator: Sketch 55.2 (78181) - https://sketchapp.com -->
    <title>logotype_deutsche_bank_right_alignment_above_40mm_rgb</title>
    <desc>Created with Sketch.</desc>
    <defs>
        <polygon id="path-1" points="0 0.491806526 173.460807 0.491806526 173.460807 24.0672081 0 24.0672081"></polygon>
    </defs>
    <g id="Site" stroke="none" stroke-width="1" fill="none" fill-rule="evenodd">
        <g id="pouf-•-site" transform="translate(-297.000000, -5957.000000)">
            <g id="Group-27" transform="translate(151.000000, 5797.000000)">
                <g id="Group-28" transform="translate(83.000000, 71.000000)">
                    <g id="logotype_deutsche_bank_right_alignment_above_40mm_rgb" transform="translate(63.000000, 89.000000)">
                        <path d="M232.915679,31.4537758 L248.622016,9.9343847 L256.063099,9.9343847 L240.356762,31.4537758 L232.915679,31.4537758 Z M223.823899,41.3858025 L265.157233,41.3858025 L265.157233,0 L223.823899,0 L223.823899,41.3858025 Z M229.609577,35.5944783 L259.371555,35.5944783 L259.371555,5.79604025 L229.609577,5.79604025 L229.609577,35.5944783 Z" id="Fill-1" fill="#0018A8"></path>
                        <g id="Group-13" transform="translate(0.000000, 17.179012)">
                            <mask id="mask-2" fill="white">
                                <use xlink:href="#path-1"></use>
                            </mask>
                            <g id="Clip-3"></g>
                            <path d="M7.39359539,3.83712205 L3.99950734,3.83712205 L3.99950734,20.5101932 L7.36320755,20.5101932 C13.4548008,20.5101932 15.4533857,18.0791399 15.4533857,11.9840587 C15.4533857,5.92154674 13.1065094,3.83712205 7.39359539,3.83712205 Z M8.50625786,0.491806526 C15.6450629,0.491806526 19.803522,3.74406737 19.803522,12.0468706 C19.803522,19.0562139 16.6595493,23.8601615 8.44080713,23.8601615 L0,23.8601615 L0,0.491806526 L8.50625786,0.491806526 L8.50625786,0.491806526 Z" id="Fill-2" fill="#0018A8" mask="url(#mask-2)"></path>
                            <path d="M25.2289203,14.1638645 L32.8141929,14.1638645 C32.7183543,11.6397564 31.7062055,10.2136936 29.1653145,10.2136936 C26.8792138,10.2136936 25.5772117,11.3210442 25.2289203,14.1638645 Z M32.6552411,19.0259712 L36.3672327,19.0259712 C35.8903774,21.6477866 33.7959539,24.2067901 29.1349266,24.2067901 C23.863805,24.2067901 21.3883648,20.5427623 21.3883648,15.8388486 C21.3883648,10.8813608 23.9292558,7.24524947 29.1349266,7.24524947 C34.747327,7.24524947 36.4934591,11.0372274 36.4934591,15.1083694 L36.4934591,16.9113037 L25.1681447,16.9113037 C25.3878721,19.8797478 26.7225996,21.238346 29.1349266,21.238346 C31.9282704,21.238346 32.4939518,19.9425597 32.6552411,19.0259712 L32.6552411,19.0259712 Z" id="Fill-4" fill="#0018A8" mask="url(#mask-2)"></path>
                            <path d="M49.7612579,21.9641725 C48.8402725,23.1320086 47.2834801,24.2067901 44.5579245,24.2067901 C40.6542558,24.2067901 38.6509958,22.1246918 38.6509958,18.1442781 L38.6509958,7.62444727 L42.3980503,7.62444727 L42.3980503,17.2253632 C42.3980503,19.4982236 43.0058071,21.142965 45.5396855,21.142965 C47.5733333,21.142965 48.7771593,19.7238812 49.1558386,18.7375017 C49.4129665,18.0488971 49.4433543,17.3207443 49.4433543,16.469294 L49.4433543,7.62444727 L53.1857338,7.62444727 L53.1857338,23.8601615 L49.8547589,23.8601615 L49.7612579,21.9641725" id="Fill-5" fill="#0018A8" mask="url(#mask-2)"></path>
                            <path d="M66.0094025,23.7950232 C65.5652725,23.8904042 64.7074004,23.9857853 63.6298008,23.9857853 C59.7892453,23.9857853 58.1062264,23.1622514 58.1062264,18.5839615 L58.1062264,10.4672675 L55.0277044,10.4672675 L55.0277044,7.62444727 L58.1062264,7.62444727 L58.1062264,3.04848369 L61.8509434,3.04848369 L61.8509434,7.62444727 L65.8831761,7.62444727 L65.8831761,10.4672675 L61.8509434,10.4672675 L61.8509434,18.2978183 C61.8509434,20.5427623 62.3628616,21.1103959 64.5180608,21.1103959 C65.247369,21.1103959 65.8504507,20.9824457 66.0094025,20.9522029 L66.0094025,23.7950232" id="Fill-6" fill="#0018A8" mask="url(#mask-2)"></path>
                            <path d="M71.1496226,18.9282638 C71.2127358,19.8797478 71.5633648,21.3639698 74.26087,21.3942126 C76.5446331,21.3942126 77.3721174,20.5427623 77.3721174,19.3749262 C77.3721174,18.3350402 76.7363103,17.8255659 75.3361321,17.5115063 L71.8181551,16.7205416 C69.529717,16.21572 67.7228092,14.985072 67.7228092,12.1399253 C67.7228092,8.95280273 70.3572013,7.24524947 74.0715304,7.24524947 C78.4520545,7.24524947 80.6376415,9.45529797 80.7989308,12.5214495 L77.2084906,12.5214495 C77.1149895,11.6676728 76.446457,10.057827 73.8471279,10.057827 C72.0074948,10.057827 71.2127358,10.844139 71.2127358,11.8886777 C71.2127358,13.0867566 72.0074948,13.5659882 73.4357233,13.8498049 L76.8625367,14.5453886 C79.6231551,15.1083694 80.9882704,16.7880063 80.9882704,19.2167332 C80.9882704,21.745494 79.2398008,24.2067901 74.3216457,24.2067901 C69.4969916,24.174221 67.6293082,21.9316034 67.4656813,18.9282638 L71.1496226,18.9282638" id="Fill-7" fill="#0018A8" mask="url(#mask-2)"></path>
                            <path d="M86.1588784,15.8086058 C86.1588784,19.0259712 87.1406394,21.238346 89.8732075,21.238346 C92.6688889,21.238346 93.1106813,19.4656545 93.2065199,18.20709 L96.9488994,18.20709 C96.5678826,21.9013606 94.2210063,24.2067901 89.9059329,24.2067901 C83.9078407,24.2067901 82.3229979,20.261272 82.3229979,15.8086058 C82.3229979,11.4140989 83.9382285,7.28014497 89.8732075,7.28014497 C94.6324109,7.28014497 96.694109,9.83682213 96.9792872,13.2472759 L93.2369078,13.2472759 C93.0756184,12.1399253 92.6969392,10.2485891 89.8732075,10.2485891 C87.4304927,10.2485891 86.1588784,12.0166279 86.1588784,15.8086058" id="Fill-8" fill="#0018A8" mask="url(#mask-2)"></path>
                            <path d="M102.470136,23.8601615 L98.7277568,23.8601615 L98.7277568,0.491806526 L102.442086,0.491806526 L102.442086,9.26686226 C103.423847,8.22697628 104.945577,7.24524947 107.579969,7.24524947 C111.355073,7.24524947 113.260157,9.52276261 113.260157,12.9332164 L113.260157,23.8601615 L109.51544,23.8601615 L109.51544,14.1638645 C109.51544,11.5118063 108.402778,10.4672675 106.504706,10.4672675 C104.786625,10.4672675 103.580461,11.3792034 103.04283,12.2678755 C102.565975,13.0262711 102.470136,13.7195284 102.470136,14.8896909 L102.470136,23.8601615" id="Fill-9" fill="#0018A8" mask="url(#mask-2)"></path>
                            <path d="M119.073585,14.1638645 L126.65652,14.1638645 C126.558344,11.6397564 125.543857,10.2136936 123.002966,10.2136936 C120.721541,10.2136936 119.417201,11.3210442 119.073585,14.1638645 Z M126.492893,19.0259712 L130.204885,19.0259712 C129.732704,21.6477866 127.638281,24.2067901 122.970241,24.2067901 C117.703795,24.2067901 115.230692,20.5427623 115.230692,15.8388486 C115.230692,10.8813608 117.769245,7.24524947 122.970241,7.24524947 C128.587317,7.24524947 130.333449,11.0372274 130.333449,15.1083694 L130.333449,16.9113037 L119.003459,16.9113037 C119.230199,19.8797478 120.562589,21.238346 122.970241,21.238346 C125.763585,21.238346 126.336279,19.9425597 126.492893,19.0259712 L126.492893,19.0259712 Z" id="Fill-10" fill="#0018A8" mask="url(#mask-2)"></path>
                            <path d="M143.8537,13.3100878 L143.8537,20.5427623 L149.15521,20.5427623 C152.168281,20.5427623 153.533396,19.5331191 153.533396,16.9113037 C153.533396,14.2894883 152.168281,13.3100878 149.15521,13.3100878 L143.8537,13.3100878 Z M148.390839,3.80455291 L143.8537,3.80455291 L143.8537,9.99501508 L148.486677,9.99501508 C151.504423,9.99501508 152.455797,9.04585741 152.455797,6.89862081 C152.455797,4.87700802 151.537149,3.80455291 148.390839,3.80455291 Z M139.85653,23.8601615 L139.85653,0.491806526 L149.122484,0.491806526 C154.615671,0.491806526 156.705419,2.95310265 156.705419,6.45893748 C156.705419,9.01561464 155.340304,10.8813608 153.533396,11.4769108 C155.690933,11.8281922 157.820419,13.5939046 157.820419,16.9113037 C157.820419,21.2081033 155.597432,23.8601615 149.821405,23.8601615 L139.85653,23.8601615 L139.85653,23.8601615 Z" id="Fill-11" fill="#0018A8" mask="url(#mask-2)"></path>
                            <path d="M169.811929,17.7301848 L169.811929,16.6600561 L166.102275,16.6600561 C163.972788,16.6600561 163.119591,17.4789372 163.119591,18.9980548 C163.119591,20.286862 163.689948,21.238346 165.814759,21.238346 C167.941908,21.238346 169.241572,20.1961337 169.652977,18.9654856 C169.781541,18.5513923 169.811929,18.2675756 169.811929,17.7301848 Z M173.460807,23.8601615 L170.228008,23.8601615 L170.13217,21.9641725 C169.211184,23.1320086 167.530503,24.2067901 164.896111,24.2067901 C161.653962,24.2067901 159.344486,22.3410439 159.344486,19.0934358 C159.344486,15.9970415 161.628249,13.8777213 166.102275,13.8777213 L169.811929,13.8777213 L169.811929,12.7424543 C169.811929,10.7208415 168.767055,10.1206389 166.798857,10.1206389 C164.517432,10.1206389 163.947075,11.1349348 163.813836,12.1748208 L160.038732,12.1748208 C160.581038,9.29943139 162.511834,7.24524947 166.894696,7.24524947 C171.368721,7.24524947 173.460807,9.01561464 173.460807,12.9960283 L173.460807,23.8601615 L173.460807,23.8601615 Z" id="Fill-12" fill="#0018A8" mask="url(#mask-2)"></path>
                        </g>
                        <path d="M180.036415,26.2970396 C181.037443,25.221848 182.593805,24.2067901 185.277516,24.2067901 C189.129093,24.2067901 191.069182,26.5616281 191.069182,30.0878718 L191.069182,41.3858025 L187.253356,41.3858025 L187.253356,31.3603021 C187.253356,28.6182027 186.12124,27.5382004 184.181151,27.5382004 C182.434117,27.5382004 181.204282,28.4810977 180.656099,29.3999416 C180.167502,30.1840858 180.069782,31.0019049 180.069782,32.2093908 L180.069782,41.3858025 L176.251572,41.3858025 L176.251572,24.5988622 L179.87911,24.5988622 L180.036415,26.2970396" id="Fill-14" fill="#0018A8"></path>
                        <path d="M198.087462,31.4841024 L204.543054,24.298908 L208.889161,24.298908 L202.431214,31.3908185 L209.786164,40.6049383 L205.247001,40.6049383 L198.087462,31.4841024 Z M194.188679,40.6049383 L197.960328,40.6049383 L197.960328,17.1790123 L194.188679,17.1790123 L194.188679,40.6049383 Z" id="Fill-15" fill="#0018A8"></path>
                    </g>
                </g>
            </g>
        </g>
    </g>
</svg>