<?xml version="1.0" encoding="UTF-8"?>
<svg width="150px" height="37px" viewBox="0 0 150 37" version="1.1" xmlns="http://www.w3.org/2000/svg" xmlns:xlink="http://www.w3.org/1999/xlink">
    <!-- Generator: Sketch 55.2 (78181) - https://sketchapp.com -->
    <title>Group 14</title>
    <desc>Created with Sketch.</desc>
    <defs>
        <polygon id="path-1" points="0 0.65793913 30.3701436 0.65793913 30.3701436 35.5145478 0 35.5145478"></polygon>
        <polygon id="path-3" points="0.267878788 0.658330435 25.2759394 0.658330435 25.2759394 36 0.267878788 36"></polygon>
        <polygon id="path-5" points="0 37 150 37 150 1 0 1"></polygon>
    </defs>
    <g id="Page-1" stroke="none" stroke-width="1" fill="none" fill-rule="evenodd">
        <g id="Artboard" transform="translate(-618.000000, -1394.000000)">
            <g id="Group-5" transform="translate(43.000000, 1152.000000)">
                <g id="Group-2" transform="translate(49.000000, 102.000000)">
                    <g id="Group-14" transform="translate(526.000000, 140.000000)">
                        <g id="Group-3">
                            <mask id="mask-2" fill="white">
                                <use xlink:href="#path-1"></use>
                            </mask>
                            <g id="Clip-2"></g>
                            <path d="M7.3649641,7.39150435 L7.3649641,28.8044609 L12.7454513,28.8044609 C15.5815538,28.8044609 18.0059128,27.768287 20.0145538,25.6935913 C22.0216051,23.6188957 23.0271179,21.0879391 23.0271179,18.0983739 C23.0271179,15.1088087 22.0478359,12.5778522 20.0860923,10.5039391 C18.1251436,8.42924348 15.6777333,7.39150435 12.7454513,7.39150435 L7.3649641,7.39150435 Z M12.7454513,0.65793913 C17.7356564,0.65793913 21.9190667,2.34446087 25.3004513,5.71437391 C28.6802462,9.08585217 30.3701436,13.2102 30.3701436,18.0850696 C30.3701436,22.9630696 28.6802462,27.0874174 25.3004513,30.458113 C21.9190667,33.8288087 17.7356564,35.5145478 12.7454513,35.5145478 L-0.000317948718,35.5145478 L-0.000317948718,0.65793913 L12.7454513,0.65793913 Z" id="Fill-1" fill="#111111" mask="url(#mask-2)"></path>
                        </g>
                        <g id="Group-6" transform="translate(36.000000, 0.000000)">
                            <mask id="mask-4" fill="white">
                                <use xlink:href="#path-3"></use>
                            </mask>
                            <g id="Clip-5"></g>
                            <path d="M16.776303,28.1482435 C17.907697,26.885113 18.4718182,25.2721565 18.4718182,23.3109391 C18.4718182,21.3497217 17.907697,19.7430261 16.776303,18.4869391 C15.6472727,17.2316348 14.2716364,16.6024174 12.6541212,16.6024174 C11.0334545,16.6024174 9.6570303,17.2316348 8.52957576,18.4869391 C7.39818182,19.7430261 6.83484848,21.3497217 6.83484848,23.3109391 C6.83484848,25.2721565 7.39818182,26.885113 8.52957576,28.1482435 C9.6570303,29.4129391 11.0334545,30.0445043 12.6541212,30.0445043 C14.2716364,30.0445043 15.6472727,29.4129391 16.776303,28.1482435 M21.8849091,14.3062435 C24.1453333,16.7620696 25.2759394,19.7618087 25.2759394,23.3109391 C25.2759394,26.8600696 24.1413939,29.8605913 21.8738788,32.3156348 C19.6063636,34.7714609 16.9386061,36.0001565 13.8745455,36.0001565 C12.5154545,36.0001565 11.2430303,35.7113739 10.0572727,35.1361565 C8.87151515,34.5601565 8.03478788,33.9912 7.54472727,33.4238087 L6.83484848,32.5245913 L6.83484848,35.5141565 L0.267878788,35.5141565 L0.267878788,0.658330435 L6.83484848,0.658330435 L6.83484848,14.1012 C6.89709091,14.0041565 6.99321212,13.8820696 7.11769697,13.7365043 C7.24533333,13.5901565 7.52581818,13.3178087 7.96151515,12.9202435 C8.39327273,12.5234609 8.86363636,12.1673739 9.36945455,11.8512 C9.87448485,11.5350261 10.536303,11.2517217 11.3486061,11.0005043 C12.161697,10.7500696 13.0047273,10.6248522 13.8745455,10.6248522 C16.9559394,10.6248522 19.6260606,11.8512 21.8849091,14.3062435" id="Fill-4" fill="#111111" mask="url(#mask-4)"></path>
                        </g>
                        <path d="M80,17.8303061 C79.5207749,17.6659787 78.8081008,17.5754795 77.8666006,17.5588086 C76.1839194,17.5588086 74.848715,18.1256192 73.867151,19.2608281 C72.8871278,20.3944494 72.3978867,22.0218468 72.3978867,24.1430204 L72.3978867,36 L66,36 L66,11.2468881 L72.3978867,11.2468881 L72.3978867,14.2794043 C72.5804854,14.0491871 72.8439822,13.7506986 73.1845248,13.3815572 C73.5258379,13.011622 74.2701007,12.5210212 75.4211656,11.9129303 C76.5722305,11.3040455 77.7818502,11 79.0507952,11 L80,11 L80,17.8303061 Z" id="Fill-7" fill="#111111"></path>
                        <path d="M98.7530401,28.9547866 C99.8911222,27.6605601 100.459769,26.0078954 100.459769,24.0016038 C100.459769,21.9921046 99.8911222,20.3426474 98.7530401,19.0556378 C97.6165333,17.7694301 96.2421713,17.1271281 94.629954,17.1271281 C93.0200996,17.1271281 91.6449499,17.7694301 90.5084431,19.0556378 C89.3695734,20.3426474 88.8017138,21.9921046 88.8017138,24.0016038 C88.8017138,26.0078954 89.3695734,27.6605601 90.5084431,28.9547866 C91.6449499,30.249815 93.0200996,30.898532 94.629954,30.898532 C96.2421713,30.898532 97.6165333,30.249815 98.7530401,28.9547866 M97.2258837,11.8972983 C98.4017705,12.4946953 99.2366266,13.0760548 99.7257262,13.639773 L100.459769,14.5619294 L100.459769,11.5701332 L107,11.5701332 L107,36.5020355 L100.459769,36.5020355 L100.459769,33.4388724 C100.396761,33.5375031 100.295949,33.6682087 100.163632,33.8253763 C100.02974,33.9833457 99.7454162,34.2656057 99.3098734,34.6729583 C98.8751181,35.079509 98.4057085,35.4451641 97.8984941,35.7691216 C97.3928549,36.0914755 96.7383593,36.3777449 95.9342196,36.6255243 C95.1292924,36.8757094 94.2920736,37 93.4217756,37 C90.3430471,37 87.669145,35.7442635 85.4016445,33.2279793 C83.134144,30.7124969 82,27.6349001 82,24.0016038 C82,20.3650999 83.134144,17.2875031 85.4016445,14.7720207 C87.669145,12.2573402 90.3430471,11 93.4217756,11 C94.7819608,11 96.047634,11.2982976 97.2258837,11.8972983" id="Fill-9" fill="#111111"></path>
                        <mask id="mask-6" fill="white">
                            <use xlink:href="#path-5"></use>
                        </mask>
                        <g id="Clip-12"></g>
                        <path d="M113.50325,36 L120.494234,36 L120.494234,11.6651356 L113.50325,11.6651356 L113.50325,36 Z M119.889495,7.42280592 C119.148039,8.10176597 118.1407,8.4420264 116.861606,8.4420264 C115.682323,8.4420264 114.745439,8.10176597 114.047599,7.42280592 C113.34892,6.74462629 113,5.84558955 113,4.7210132 C113,3.59877809 113.352275,2.69583928 114.059342,2.01765965 C114.765569,1.33869961 115.700776,1 116.861606,1 C118.1407,1 119.148039,1.33869961 119.889495,2.01765965 C120.630111,2.69583928 121,3.59877809 121,4.7210132 C121,5.84558955 120.630111,6.74462629 119.889495,7.42280592 L119.889495,7.42280592 Z" id="Fill-11" fill="#111111" mask="url(#mask-6)"></path>
                        <path d="M133.668482,14.4911326 C133.862016,14.2309289 134.136657,13.9117666 134.488391,13.5281429 C134.843336,13.1460914 135.62229,12.6280423 136.822038,11.9771398 C138.021787,11.3262373 139.280158,11 140.602772,11 C143.370867,11 145.629831,11.9677064 147.378059,13.9054776 C149.127894,15.8424627 150,18.4555059 150,21.7438211 L150,36 L143.332321,36 L143.332321,22.5000629 C143.332321,21.0025156 142.894661,19.792686 142.016131,18.8729325 C141.138403,17.953179 140.006913,17.4940884 138.621661,17.4940884 C137.107922,17.4940884 135.901749,17.994057 135.01037,18.9947802 C134.114975,19.9962895 133.668482,21.4183699 133.668482,23.2570907 L133.668482,36 L127,36 L127,11.4881768 L133.668482,11.4881768 L133.668482,14.4911326 Z" id="Fill-13" fill="#111111" mask="url(#mask-6)"></path>
                    </g>
                </g>
            </g>
        </g>
    </g>
</svg>