<?xml version="1.0" encoding="UTF-8"?>
<svg width="292px" height="48px" viewBox="0 0 292 48" version="1.1" xmlns="http://www.w3.org/2000/svg" xmlns:xlink="http://www.w3.org/1999/xlink">
    <!-- Generator: Sketch 55.2 (78181) - https://sketchapp.com -->
    <title>dodo</title>
    <desc>Created with Sketch.</desc>
    <defs>
        <polygon id="path-1" points="6.70127666e-05 0.0822758242 45.2497676 0.0822758242 45.2497676 47.1301775 6.70127666e-05 47.1301775"></polygon>
        <polygon id="path-3" points="-0.000268051067 0.0822758242 45.2501026 0.0822758242 45.2501026 47.1301775 -0.000268051067 47.1301775"></polygon>
    </defs>
    <g id="Site" stroke="none" stroke-width="1" fill="none" fill-rule="evenodd">
        <g id="pouf-•-site" transform="translate(-402.000000, -6754.000000)">
            <g id="Group-25" transform="translate(151.000000, 6695.000000)">
                <g id="Group-31" transform="translate(159.000000, 59.000000)">
                    <g id="dodo" transform="translate(91.936813, 0.000000)">
                        <g id="Group-3">
                            <mask id="mask-2" fill="white">
                                <use xlink:href="#path-1"></use>
                            </mask>
                            <g id="Clip-2"></g>
                            <path d="M22.6249173,45.9215371 L20.754668,45.9215371 C12.9442242,45.9215371 6.08062979,49.0096776 2.53482491,43.2253281 C0.408027278,39.7558363 1.77454247,30.0050608 1.77454247,25.298209 L1.77454247,22.8138337 C3.73172787,16.3064005 0.669859615,8.68299429 2.53482491,3.69253502 C2.61433046,3.47978617 4.47840278,2.14351026 4.64513619,1.99576103 C8.63277121,-1.53784407 15.8983128,1.14824744 21.6332232,1.14824744 C34.1284236,1.14824744 45.2497676,10.259701 45.2497676,22.8138337 L45.2497676,24.3987543 C45.2497676,36.952887 33.2498684,45.9215371 20.754668,45.9215371" id="Fill-1" fill="#FF6900" mask="url(#mask-2)"></path>
                        </g>
                        <path d="M280.646714,25.5538589 C279.554193,25.5538589 278.39339,25.4186971 277.505717,25.1483734 L280.578431,18.3902814 L283.651145,25.1483734 C282.764155,25.4186971 281.739917,25.5538589 280.646714,25.5538589 M291.503637,30.6900088 L284.333971,15.2139782 C283.51458,13.5244552 282.422742,12.7810651 280.783279,12.7810651 L280.510148,12.7810651 C278.803085,12.7810651 277.710564,13.5244552 276.891174,15.2139782 L269.721508,30.6900088 C269.038682,32.24437 269.51666,33.5959884 270.950593,34.1366358 C272.247961,34.6097022 273.477047,34.3393785 274.228838,32.8525983 L275.866936,29.4735523 C277.301552,29.9466187 279.144498,30.2169424 280.783279,30.2169424 C282.558625,30.2169424 284.197405,29.9466187 285.495457,29.4735523 L287.065272,32.8525983 C287.748097,34.3393785 289.113748,34.6097022 290.342834,34.1366358 C291.640885,33.5959884 292.186462,32.1767891 291.503637,30.6900088" id="Fill-4" fill="#000000"></path>
                        <path d="M266.076496,29.3317355 L264.740238,29.3317355 L264.740238,15.3170549 C264.740238,13.7153771 263.536938,12.7810651 262.134536,12.7810651 C260.731466,12.7810651 259.595647,13.7153771 259.595647,15.3170549 L259.595647,29.3317355 L250.642054,29.3317355 L250.642054,15.3170549 C250.642054,13.7153771 249.506236,12.7810651 248.037021,12.7810651 C246.567137,12.7810651 245.431319,13.7153771 245.431319,15.3170549 L245.431319,31.8009887 C245.431319,33.2024567 246.366699,34.3369785 247.96954,34.3369785 L263.536938,34.3369785 L263.536938,36.606022 C263.536938,38.2076998 264.672757,39.1420118 266.076496,39.1420118 C267.545711,39.1420118 268.615385,38.2076998 268.615385,36.606022 L268.615385,31.8677253 C268.615385,30.1993109 267.613192,29.3317355 266.076496,29.3317355" id="Fill-6" fill="#000000"></path>
                        <path d="M239.693959,29.3317355 L238.357702,29.3317355 L238.357702,15.3170549 C238.357702,13.7153771 237.15507,12.7810651 235.752668,12.7810651 C234.34893,12.7810651 233.213779,13.7153771 233.213779,15.3170549 L233.213779,29.3317355 L224.260186,29.3317355 L224.260186,15.3170549 C224.260186,13.7153771 223.124367,12.7810651 221.654484,12.7810651 C220.185269,12.7810651 219.049451,13.7153771 219.049451,15.3170549 L219.049451,31.8009887 C219.049451,33.2024567 219.984163,34.3369785 221.587671,34.3369785 L237.15507,34.3369785 L237.15507,36.606022 C237.15507,38.2076998 238.290889,39.1420118 239.693959,39.1420118 C241.163842,39.1420118 242.233516,38.2076998 242.233516,36.606022 L242.233516,31.8677253 C242.233516,30.1993109 241.231323,29.3317355 239.693959,29.3317355" id="Fill-8" fill="#000000"></path>
                        <path d="M211.224365,12.1880786 L211.017884,12.1880786 C209.434866,12.1880786 208.402463,12.9427887 207.301234,14.520819 L198.629048,26.8020111 L198.629048,14.589429 C198.629048,12.9427887 197.527818,11.9822485 196.082454,11.9822485 C194.568263,11.9822485 193.467033,12.9427887 193.467033,14.589429 L193.467033,31.1244419 C193.467033,32.9083022 194.63709,34.0746724 196.426588,34.0746724 L196.701896,34.0746724 C198.353741,34.0746724 199.454971,33.2513522 200.487374,31.741932 L209.159559,19.4607398 L209.159559,31.741932 C209.159559,33.3885723 210.260789,34.3491124 211.706153,34.3491124 C213.151517,34.3491124 214.252747,33.3885723 214.252747,31.741932 L214.252747,15.1383091 C214.252747,13.3544488 213.151517,12.1880786 211.224365,12.1880786" id="Fill-10" fill="#000000"></path>
                        <path d="M185.211183,12.7810651 L170.476097,12.7810651 C168.770726,12.7810651 167.884615,13.9162255 167.884615,15.3184824 L167.884615,31.8116951 C167.884615,33.4142745 169.1118,34.3491124 170.544994,34.3491124 C171.977505,34.3491124 173.137157,33.4142745 173.137157,31.8116951 L173.137157,17.7891256 L182.550804,17.7891256 L182.550804,31.8116951 C182.550804,33.4142745 183.710456,34.3491124 185.211183,34.3491124 C186.643694,34.3491124 187.870879,33.4142745 187.870879,31.744921 L187.870879,15.2517083 C187.870879,13.9162255 186.916554,12.7810651 185.211183,12.7810651" id="Fill-12" fill="#000000"></path>
                        <path d="M147.898352,30.0707881 C144.417817,30.0707881 141.960969,27.4636077 141.960969,23.895887 C141.960969,20.3967764 144.486063,17.789596 147.898352,17.789596 C151.378886,17.789596 153.835734,20.3967764 153.835734,23.895887 C153.835734,27.4636077 151.447132,30.0707881 147.898352,30.0707881 M147.898352,12.7810651 C141.551494,12.7810651 136.706044,17.5837659 136.706044,23.964497 C136.706044,30.4138382 141.551494,35.147929 147.898352,35.147929 C154.176963,35.147929 159.090659,30.2766181 159.090659,23.895887 C159.022414,17.4465459 154.176963,12.7810651 147.898352,12.7810651" id="Fill-14" fill="#000000"></path>
                        <path d="M126.721758,29.2566568 L118.088985,29.2566568 C118.637097,28.1134525 119.048182,27.1047428 119.390752,25.6253019 C119.733323,24.0113664 119.870351,22.3974309 119.938865,20.3127642 L120.007379,17.8246136 L126.721758,17.8246136 L126.721758,29.2566568 Z M133.367624,29.2566568 L131.997342,29.2566568 L131.997342,15.336463 C131.997342,13.9242694 131.038145,12.7810651 129.393807,12.7810651 L117.266816,12.7810651 C115.82802,12.7810651 114.868823,13.7225275 114.868823,15.336463 L114.868823,18.6988286 C114.868823,21.1197319 114.800309,23.0026567 114.389225,25.0200761 C113.97814,26.9702482 113.430028,28.2479471 112.676373,29.2566568 L112.059746,29.2566568 C110.346894,29.2566568 109.524725,30.3326138 109.524725,31.8120547 L109.524725,36.5866139 C109.524725,38.2005495 110.689465,39.1420118 112.12826,39.1420118 C113.63557,39.1420118 114.731795,38.2005495 114.731795,36.5866139 L114.731795,34.3002053 L130.695575,34.3002053 L130.695575,36.5866139 C130.695575,38.2005495 131.860314,39.1420118 133.29911,39.1420118 C134.806419,39.1420118 135.902645,38.2005495 135.902645,36.5866139 L135.902645,31.8120547 C135.971159,30.3326138 135.14899,29.2566568 133.367624,29.2566568 L133.367624,29.2566568 Z" id="Fill-16" fill="#000000"></path>
                        <path d="M97.532967,30.0707881 C94.0524323,30.0707881 91.5955843,27.4636077 91.5955843,23.895887 C91.5955843,20.3967764 94.1206781,17.789596 97.532967,17.789596 C101.013502,17.789596 103.47035,20.3967764 103.47035,23.895887 C103.47035,27.4636077 101.149993,30.0707881 97.532967,30.0707881 M97.532967,12.7810651 C91.1861096,12.7810651 86.3406593,17.5837659 86.3406593,23.964497 C86.3406593,30.4138382 91.1861096,35.147929 97.532967,35.147929 C103.811579,35.147929 108.725275,30.2766181 108.725275,23.895887 C108.725275,17.4465459 103.879824,12.7810651 97.532967,12.7810651" id="Fill-18" fill="#000000"></path>
                        <path d="M76.2904239,29.2566568 L67.6563579,29.2566568 C68.2045526,28.1134525 68.6156986,27.1047428 68.9583203,25.6253019 C69.3009419,24.0113664 69.4379906,22.3974309 69.5065149,20.3127642 L69.5750392,17.8246136 L76.2904239,17.8246136 L76.2904239,29.2566568 Z M82.9372841,29.2566568 L81.5667975,29.2566568 L81.5667975,15.336463 C81.5667975,13.9242694 80.6074568,12.7810651 78.9628728,12.7810651 L66.8340659,12.7810651 C65.3950549,12.7810651 64.4357143,13.7225275 64.4357143,15.336463 L64.4357143,18.6988286 C64.4357143,21.1197319 64.4357143,23.0026567 63.956044,25.0200761 C63.544898,26.9702482 62.9967033,28.2479471 62.2429356,29.2566568 L61.694741,29.2566568 C59.9816327,29.2566568 59.1593407,30.3326138 59.1593407,31.8120547 L59.1593407,36.5866139 C59.1593407,38.2005495 60.3242543,39.1420118 61.7632653,39.1420118 C63.2708006,39.1420118 64.36719,38.2005495 64.36719,36.5866139 L64.36719,34.3002053 L80.3333595,34.3002053 L80.3333595,36.5866139 C80.3333595,38.2005495 81.4982732,39.1420118 82.9372841,39.1420118 C84.4448195,39.1420118 85.5412088,38.2005495 85.5412088,36.5866139 L85.5412088,31.8120547 C85.5412088,30.3326138 84.7189168,29.2566568 82.9372841,29.2566568 L82.9372841,29.2566568 Z" id="Fill-20" fill="#000000"></path>
                        <g id="Group-24" transform="translate(0.799451, 0.000000)">
                            <mask id="mask-4" fill="white">
                                <use xlink:href="#path-3"></use>
                            </mask>
                            <g id="Clip-23"></g>
                            <path d="M25.9772309,17.1265679 C26.4108035,15.8264483 26.7887555,14.8454673 27.4930597,14.097444 C28.2355612,13.3096968 29.0604883,13.0632733 30.869833,13.0632733 C33.3694092,13.0632733 35.4568569,15.60157 35.4568569,19.1497991 C35.4568569,19.6776571 34.7532229,19.6736173 34.5267197,19.1915429 C33.6763277,17.6833773 32.5250484,17.4665784 30.7110128,17.3325941 C29.3720977,17.2538194 27.7577601,17.3676051 26.2868299,17.4308942 C26.0127477,17.4443599 25.935683,17.2511262 25.9772309,17.1265679 M21.1033924,45.2127872 L8.61489323,45.2127872 C12.204097,43.215141 13.9852963,41.3844702 15.2203416,39.6662386 C17.6267701,40.7434998 19.9420612,41.2067221 22.0288387,41.2067221 C25.941044,41.2067221 29.2755993,39.39625 31.0145806,36.1664863 C32.8038215,35.0878785 33.9899474,32.8693937 34.0650017,31.2844732 C35.1794241,29.8759542 35.3858234,28.0971266 35.0433881,26.897327 C34.9616326,26.6105062 34.7304385,26.6031 34.329032,26.8475036 C30.8041605,28.9710548 27.3898601,29.9823337 24.1330396,29.9823337 C22.1568331,29.9823337 20.1310372,29.6665615 17.9759066,29.0404035 C17.8217772,26.7189056 17.3473269,24.7724292 17.1704131,23.5928282 C16.9191153,22.0341659 17.2776336,20.8814964 18.9790877,20.8814964 C20.2275356,20.8814964 22.5388059,21.2006351 24.3843375,22.043592 C26.2131159,22.8791427 27.3014032,24.5239859 28.061328,24.5239859 C28.3695867,24.5239859 28.6945986,24.3314254 28.6945986,23.6756427 C28.6945986,22.3452251 28.2228287,20.2041685 27.6357969,19.4413329 C29.3466328,19.3437061 30.7056518,19.3612116 31.4702674,19.4480658 C33.0631609,19.7261338 33.1382152,20.5293667 33.4518349,21.053185 C33.7654547,21.5770032 34.297536,21.8052479 34.9368378,21.8052479 C36.1216236,21.8052479 36.8607744,21.191209 36.8607744,18.9747441 C36.8607744,14.1068701 33.8023117,11.747668 30.5944106,11.747668 C27.9608088,11.747668 26.943555,12.3300624 24.4426386,12.3300624 C22.6688106,12.3300624 21.1985505,8.70305858 19.1821364,8.2263705 C18.2922069,6.23680372 16.2945563,6.01192544 15.064872,7.0117585 C13.9477692,6.32904421 12.2014165,6.69733288 12.1297128,7.95772849 C10.8450781,7.55846855 9.18517187,8.25464861 9.90086822,9.951335 C6.75863959,10.0408823 6.17227788,12.8323354 8.30395399,13.1433946 C5.5597812,14.70475 6.81359006,17.3999229 9.11748898,16.8269546 C9.27965987,18.7411131 10.0523171,21.8321795 10.0523171,23.9665032 C10.0523171,26.9350311 8.71206174,27.623805 6.8799327,27.623805 C5.43781796,27.623805 3.3048016,27.095947 1.86469724,26.6838946 L1.86469724,7.37196771 C1.86469724,4.09036078 4.21818561,1.99576103 7.05550615,1.99576103 L21.1033924,1.99576103 C33.6280785,1.99576103 43.2477612,10.6529014 43.2477612,23.4999145 C43.2477612,36.415603 33.6280785,45.2127872 21.1033924,45.2127872 M31.6438305,32.4809064 C30.9636509,35.0064107 27.5875477,36.0217293 24.5223838,36.1678329 C24.4359373,36.3664529 24.3441298,36.553627 24.2503119,36.7307019 C26.0348619,36.763693 27.7443576,36.4304153 28.7629516,36.1079102 C27.846217,37.8658658 24.6832144,39.2541862 21.4625809,39.2541862 C19.8790692,39.2541862 17.9035328,38.9438003 16.1893462,38.1244085 C17.4284123,35.8486943 17.9062133,33.5150772 18.004052,31.3639212 C19.9815987,31.9160176 22.7150495,32.2109178 24.9834316,32.0506752 C28.9686808,31.769914 31.9608009,30.2785806 33.6455018,29.1925666 C32.633609,31.760488 28.8386761,33.3555079 25.1583349,33.8072843 C25.1348805,33.9944584 25.1067351,34.1769195 25.0732287,34.3526478 C27.8341547,34.2058709 30.4556941,33.304338 31.6438305,32.4809064 M1.86469724,40.0466465 L1.86469724,35.0629669 C3.36980398,34.7626803 4.86150817,34.483939 4.86150817,34.483939 L5.0511543,33.6658937 C4.37231497,33.631556 3.01396619,33.6483883 1.86469724,33.6786862 L1.86469724,28.7529094 C3.32155479,29.116485 5.51555277,29.5837471 7.14865389,29.5837471 C10.0369041,29.5837471 11.6385093,27.8816744 11.6385093,24.6404648 C11.6385093,20.6599846 10.3706277,17.0417336 10.786777,14.7740987 L10.6855877,14.6428075 C9.24280285,16.1550129 8.30462412,15.7550797 8.20209459,15.2682923 C7.99636539,14.2933709 9.68508711,13.1003041 10.650071,12.6848853 C10.6688345,12.6215962 10.6936293,12.5542674 10.7197642,12.4869385 C9.81710226,12.6269825 8.75629017,12.5118502 8.71943314,11.8634736 C8.67587485,11.0939052 10.2138178,10.4064779 12.2228606,10.5768198 C12.2610579,10.5445019 12.3005954,10.5128574 12.3387927,10.4798663 C12.2121385,10.4293697 12.0774429,10.3660806 11.9079006,10.2785531 C11.3885516,10.0105844 11.2625676,9.56352096 11.4321099,9.23899603 C11.6190756,8.88215325 12.1866737,8.74278259 12.6477215,8.75288191 C13.3707893,8.76836754 13.9859665,8.94476906 14.4362923,9.12790347 C14.487222,9.10568495 14.5381517,9.08413973 14.5864009,9.06596095 C14.4195391,8.93466974 14.2741214,8.79260592 14.1896853,8.64582908 C14.0650415,8.43172342 14.0348858,8.13749645 14.2754616,7.94695587 C14.5562451,7.72409746 15.2699311,7.64464945 15.9145939,8.23310338 C16.0479493,8.35429527 16.1605308,8.47212071 16.2623902,8.58523314 C16.3347639,8.57109408 16.4064676,8.55762832 16.4795115,8.54550913 C16.3729612,8.38055351 16.2885251,8.208865 16.2603798,8.04929569 C16.2235228,7.83047701 16.2938862,7.59549941 16.5498749,7.51268495 C16.828648,7.42111775 17.1818053,7.56520144 17.3647502,7.83855647 C17.5610976,8.13076357 17.6817206,8.49029949 17.7567749,8.74614903 C16.3354341,8.91245123 12.565966,9.77695334 12.565966,14.3553134 C12.565966,18.8192145 16.2576993,23.5086672 16.2576993,30.4273773 C16.2516681,32.9421089 15.700153,35.4642467 13.4311008,38.4018033 C11.6880987,40.6586655 8.85948983,42.8636845 4.55928059,44.6566511 C2.96169623,43.8729436 1.86469724,42.2853299 1.86469724,40.0466465 M21.0879795,0.0822758242 L6.87524181,0.0822758242 C2.95566509,0.0822758242 -0.000268051067,3.12553872 -0.000268051067,7.16122849 L-0.000268051067,40.2634453 C-0.000268051067,44.2419056 2.89133283,47.1303122 6.87524181,47.1303122 L21.0879795,47.1303122 C35.0098818,47.1303122 45.2501026,37.1919043 45.2501026,23.5005877 C45.2501026,9.93046306 35.0098818,0.0822758242 21.0879795,0.0822758242" id="Fill-22" fill="#000000" mask="url(#mask-4)"></path>
                        </g>
                        <path d="M22.7360587,18.8282237 C20.367003,18.3122777 17.7735387,17.6296825 16.3908056,15.6125602 C16.3652741,15.5752308 16.3182424,15.5578992 16.2738981,15.5705646 C16.2295539,15.5832299 16.1986474,15.6225591 16.1966317,15.6678877 C16.1919285,15.7778762 16.2067099,15.8978637 16.2315696,16.0185177 L16.0441145,16.0885104 C15.6786107,15.5792303 15.6047037,14.9606284 15.9661762,14.5153417 C16.4868847,13.8754086 17.5430831,13.9414017 18.1733084,14.3360271 L18.0926826,14.5086757 C17.7540541,14.4526816 17.4322226,14.452015 17.1809388,14.6039991 C16.9672803,14.7333189 16.9377175,14.9246322 17.0694064,15.1672735 C18.2176526,17.2850519 21.556234,17.7443371 25.5243688,17.4383691 C25.9342168,17.4063725 26.0276084,17.2230583 26.081359,17.0277454 C26.4260344,15.6638882 27.0508846,14.448682 27.9807692,13.5214457 C27.2578243,13.6221018 26.5845985,13.6447661 25.9973737,13.6767628 C23.9488057,13.805416 22.7770435,13.5381106 22.4108679,13.2481409 L22.4773842,13.0721593 C22.6957458,13.1461516 22.92217,13.1628165 22.9692018,13.1001564 C23.0330306,13.0134988 22.9839832,12.9601711 22.8838728,12.8728469 C22.4948531,12.5115513 20.7466163,10.7337374 20.7499757,10.7444029 C20.5611769,9.24056028 18.3547165,9.18656593 17.4752231,10.6650779 L17.1769075,10.5857529 C17.2635803,10.2611202 17.3945972,9.99648118 17.5162079,9.80450127 C15.6739076,10.2177914 14.6257717,11.8582864 14.4356291,13.4434538 C13.6186207,20.2554077 24.032119,18.6809058 27.008556,21.409287 C27.0649941,21.4532824 27.2067612,21.6532614 27.3082154,21.526608 C27.4237791,21.1559801 26.1122655,19.5694795 22.7360587,18.8282237 M19.0272704,10.6624115 C19.5573852,10.4857633 20.3166118,11.0037091 20.7237723,11.8149576 C21.1302609,12.6268726 21.0301505,13.4314551 20.5020513,13.6041037 C19.9773114,13.7880844 19.2201005,13.2708052 18.8115963,12.4548906 C18.7565019,12.3449021 18.7128296,12.2355802 18.676548,12.1275915 L18.7685958,12.1022608 C18.9379101,12.2615775 19.1401465,12.3055729 19.2758667,12.2195819 C19.4613061,12.0982613 19.4418215,11.7762949 19.285273,11.4976574 C19.1730688,11.2703479 18.9137223,11.0317062 18.6987201,11.0497043 L18.6610947,11.0010427 C18.7410487,10.8397263 18.8626593,10.7184056 19.0272704,10.6624115" id="Fill-25" fill="#FFFFFF"></path>
                        <path d="M34.3763736,28.7573964 C32.6784495,29.8772702 29.6577397,31.4190951 25.6393643,31.7089693 C23.3533852,31.873718 20.5929066,31.5685506 18.5996032,30.9992294 C18.5691865,31.6825539 18.501594,32.3888182 18.3873626,33.1006436 C19.5107503,33.3974692 21.511489,33.7888342 24.3976897,33.8729463 C24.2685879,34.6716645 23.4811351,37.3792425 21.4641742,39.1303052 C25.1405315,39.2887976 28.4721669,37.8185723 29.4509066,35.8971998 C28.4241762,36.2301728 26.699215,36.573573 24.8992262,36.5402061 C24.9952076,36.3573838 25.0864575,36.1634392 25.1743277,35.9583723 C28.2639819,35.8082216 31.6719968,34.7578621 32.357385,32.1517748 C31.1589696,33.0012383 28.5127224,33.9327285 25.7299383,34.0849646 C25.7637345,33.9028374 25.7914475,33.714454 25.8157808,33.5218996 C29.5252583,33.0554594 33.3564025,31.4065826 34.3763736,28.7573964" id="Fill-27" fill="#FFFFFF"></path>
                    </g>
                </g>
            </g>
        </g>
    </g>
</svg>