<?xml version="1.0" encoding="UTF-8"?>
<svg width="192px" height="21px" viewBox="0 0 192 21" version="1.1" xmlns="http://www.w3.org/2000/svg" xmlns:xlink="http://www.w3.org/1999/xlink">
    <!-- Generator: Sketch 55.2 (78181) - https://sketchapp.com -->
    <title>Combined Shape</title>
    <desc>Created with Sketch.</desc>
    <g id="Site" stroke="none" stroke-width="1" fill="none" fill-rule="evenodd">
        <g id="pouf-•-site" transform="translate(-283.000000, -6395.000000)" fill="#0F54B9">
            <g id="Group-26" transform="translate(151.000000, 6327.000000)">
                <g id="Group-30" transform="translate(132.000000, 63.000000)">
                    <path d="M14.2144812,6.38297872 L18.4,6.38297872 L18.4,25.5319149 L13.9502916,25.5319149 L13.9502916,12.9763669 L4.24536584,25.5319149 L0,25.5319149 L0,6.38297872 L4.4502476,6.38297872 L4.4502476,18.9390305 L14.2144812,6.38297872 Z M34.6141302,6.38297872 L39.2,6.38297872 L39.2,25.5319149 L34.6141302,25.5319149 L34.6141302,17.8448344 L25.389711,17.8448344 L25.389711,25.5319149 L20.8,25.5319149 L20.8,6.38297872 L25.389711,6.38297872 L25.389711,13.9602366 L34.6141302,13.9602366 L34.6141302,6.38297872 Z M41.6,6.38297872 L55.2,6.38297872 L55.2,10.1859652 L45.9993967,10.1859652 L45.9993967,25.5319149 L41.6,25.5319149 L41.6,6.38297872 Z M66.0013407,21.6197208 C69.6073292,21.6171824 72.1128585,19.3057082 72.1128585,15.561049 C72.1128585,11.8133438 69.6073292,9.49933121 66.0013407,9.49933121 C62.3953522,9.49933121 59.889823,11.8133438 59.8866053,15.561049 C59.889823,19.3057082 62.3953522,21.6171824 66.0013407,21.6197208 Z M76.8,15.561049 L76.8,15.5635875 C76.7973186,21.4420322 72.2866152,25.479116 66.0630136,25.5319149 L65.9396678,25.5319149 C59.7160662,25.479116 55.2053629,21.4420322 55.2,15.5635875 L55.2,15.561049 L55.2,15.5554645 C55.2053629,9.67955817 59.7160662,5.63790527 65.9396678,5.58510638 L66.0630136,5.58510638 C72.2866152,5.63790527 76.7973186,9.67955817 76.8,15.5554645 L76.8,15.561049 Z M122.563138,10.2680876 L116,10.2680876 L116,6.38297872 L133.6,6.38297872 L133.6,10.2680876 L127.039003,10.2680876 L127.039003,25.5319149 L122.563138,25.5319149 L122.563138,10.2680876 Z M144.783991,16.0390689 C147.005083,16.0390689 148.30258,14.7794693 148.30258,13.085056 C148.30258,11.1966644 146.919575,10.1839463 144.695296,10.1839463 L140.438998,10.1839463 L140.438998,16.0390689 L144.783991,16.0390689 Z M136,6.38297872 L145.072382,6.38297872 C149.888467,6.38297872 152.8,9.08960623 152.8,13.0588563 C152.8,17.4881122 149.167754,19.7871333 144.640061,19.7871333 L140.438998,19.7871333 L140.438998,25.5319149 L136,25.5319149 L136,6.38297872 Z M192,25.5319149 L186.842251,25.5319149 L182.352509,19.280589 L177.815798,25.5319149 L172.8,25.5319149 L179.859484,15.8085817 L173.086513,6.38297872 L178.24635,6.38297872 L182.450622,12.2373311 L186.700821,6.38297872 L191.714009,6.38297872 L184.943648,15.7088346 L192,25.5319149 Z M159.275137,16.6428441 L164.721646,16.6428441 L162.00134,10.7012611 L159.275137,16.6428441 Z M168.228986,24.7340426 L166.320375,20.3517686 L157.679625,20.3517686 L155.771014,24.7340426 L151.2,24.7340426 L159.932964,5.58510638 L164.067036,5.58510638 L172.8,24.7340426 L168.228986,24.7340426 Z M89.2278619,21.6197208 C91.1196868,21.6197208 92.6771227,21.1135623 94.005002,20.0479387 L96.8,22.6721447 C94.894735,24.3815085 92.3685385,25.5055155 89.2896862,25.5319149 L89.1660375,25.5319149 C82.9271548,25.479116 78.405376,21.4420322 78.4,15.5635875 L78.4,15.561049 L78.4,15.5554645 C78.405376,9.67955817 82.9271548,5.63790527 89.1660375,5.58510638 L89.2896862,5.58510638 C92.3685385,5.61150582 94.894735,6.73500512 96.8,8.44436893 L94.005002,11.0711133 C92.6771227,10.0029513 91.1196868,9.49933121 89.2278619,9.49933121 C85.6130193,9.49933121 83.1013382,11.8133438 83.0981125,15.561049 C83.1013382,19.3057082 85.6130193,21.6171824 89.2278619,21.6197208 Z M107.628083,21.6197208 C109.519853,21.6197208 111.077243,21.1135623 112.404546,20.0479387 L115.2,22.6721447 C113.294253,24.3815085 110.768668,25.5055155 107.689368,25.5319149 L107.566261,25.5319149 C101.327023,25.479116 96.8059135,21.4420322 96.8,15.5635875 L96.8,15.561049 L96.8,15.5554645 C96.8059135,9.67955817 101.327023,5.63790527 107.566261,5.58510638 L107.689368,5.58510638 C110.768668,5.61150582 113.294253,6.73500512 115.2,8.44436893 L112.404546,11.0711133 C111.077243,10.0029513 109.519853,9.49933121 107.628083,9.49933121 C104.012809,9.49933121 101.501201,11.8133438 101.498513,15.561049 C101.501201,19.3057082 104.012809,21.6171824 107.628083,21.6197208 Z" id="Combined-Shape"></path>
                </g>
            </g>
        </g>
    </g>
</svg>