<?xml version="1.0" encoding="UTF-8"?>
<svg width="131px" height="96px" viewBox="0 0 131 96" version="1.1" xmlns="http://www.w3.org/2000/svg" xmlns:xlink="http://www.w3.org/1999/xlink">
    <!-- Generator: Sketch 55.2 (78181) - https://sketchapp.com -->
    <title>Lanit_logo_lat_горизонт_голубой</title>
    <desc>Created with Sketch.</desc>
    <g id="Site" stroke="none" stroke-width="1" fill="none" fill-rule="evenodd">
        <g id="pouf-•-site" transform="translate(-734.000000, -6054.000000)" fill="#00AEDD">
            <g id="Group-27" transform="translate(151.000000, 5797.000000)">
                <g id="Group-28" transform="translate(83.000000, 71.000000)">
                    <g id="Lanit_logo_lat_горизонт_голубой" transform="translate(500.000000, 186.000000)">
                        <path d="M94.3647799,3.27226453 L94.3647799,0.137849998 C89.6067603,0.164616988 75.9672832,0.992386154 65.6087131,9.13088946 C55.2058699,0.848513582 41.4087536,0.0247594657 36.6540881,0 L36.6540881,3.13441453 C40.9552894,3.01262472 52.705109,3.49844559 62.9409218,11.4643018 C62.0729002,12.3168304 61.2431145,13.2269081 60.4549186,14.2059108 C57.7455374,12.2037399 54.7477101,10.7509615 51.7022556,9.80742513 C45.6784271,7.80257758 39.5264749,7.50747151 36.6540881,7.49408802 L36.6540881,10.7690292 C37.2007941,10.7710368 37.8541581,10.7884353 38.6094845,10.8245707 C42.4793583,11.0233156 50.8865568,11.9976341 57.0955274,16.2147734 C57.5060601,16.4898042 57.9192759,16.7755418 58.3338334,17.0739937 C57.6194261,18.0991694 56.962708,19.1056083 56.357642,20.0859493 C54.1406316,18.4290726 51.6110261,17.216528 48.9231107,16.5473532 C44.3529165,15.2016428 39.219917,14.9941986 36.6540881,14.9848302 L36.6540881,18.4417869 C36.8975902,18.4538321 37.1531669,18.4632005 37.4355758,18.4785915 C40.0161625,18.610419 48.3220694,19.1972852 52.8446364,22.1409849 C53.3886592,22.4862791 53.9595143,22.8288966 54.5511642,23.2290631 C53.9400609,24.3726827 53.4074418,25.4674526 52.9351951,26.5120344 C51.0804194,24.9260902 48.7869373,23.7362975 46.1439657,23.2872813 C42.9871576,22.5766177 38.8858561,22.4715573 36.6540881,22.4728956 L36.6540881,26.1493417 C38.7255337,26.2329885 45.9648608,26.522072 48.5957578,28.0712116 C49.3980406,28.5121977 50.4096144,28.8454468 51.563399,29.876645 C50.9737614,31.500063 50.5571915,32.9280819 50.2593541,34.1325964 C48.9868371,32.1939972 46.7215288,30.2426836 43.3621376,30.0292169 C41.554989,29.9141188 38.5122178,29.9295098 36.6540881,29.9576152 L36.6540881,33.7578586 C39.0683151,33.7270765 43.5150811,33.7103472 44.3495625,33.9974231 C44.9787775,34.2135666 46.2351952,33.9331824 47.8934251,36.5195428 C48.8754835,38.0552988 49.2041779,39.3628663 49.3980406,40.2314551 C49.4604254,40.5131777 49.4872576,42.4056039 49.4966489,44.4626471 L49.4631087,49.9753086 L52.8030465,49.9753086 C52.818475,49.1254567 52.9372075,41.3048114 52.8023757,39.9336724 C52.7795683,39.8413262 52.7547486,39.7543335 52.7305996,39.6673408 L52.7379784,38.1081636 C52.7379784,38.1081636 52.9989216,36.0558047 53.9528062,32.9320969 C54.8349147,34.4096348 55.3608258,35.7586911 55.7398306,36.8521226 C56.4200268,38.4266908 56.6427341,40.9561714 56.6923736,42.7555823 C56.68097,45.3232058 56.6648706,48.9815841 56.660175,49.9753086 L60.0001129,49.9753086 C60.0001129,49.3342392 60.0081625,45.3111606 60.0209078,43.685066 C60.0256035,42.888748 60.0188954,41.8374745 59.9370572,40.717276 C59.9383988,40.3164403 59.9404112,40.0380636 59.9404112,39.9530784 C59.9417528,39.4558816 60.281851,36.3301663 61.6784669,32.518547 C61.8200067,32.8410892 61.9575217,33.1596164 62.0809498,33.46476 C63.3655413,36.3067452 63.7868068,39.4478515 63.8807195,41.0190738 C63.8646202,41.4252629 63.8612662,41.7565044 63.8632786,41.9913847 C63.8706575,43.0406507 63.8572414,48.7212752 63.8538873,49.9753086 L67.1958376,49.9753086 C67.1924836,49.0799528 67.1743719,42.9489738 67.1837631,41.8555422 C67.1851047,41.6547898 67.1824215,41.3831049 67.1730302,41.0565476 C67.2790174,39.4511974 67.710345,36.386377 68.9660919,33.60261 C69.1056193,33.2579851 69.2599045,32.8986382 69.4235809,32.5312613 C70.7765945,36.2766323 71.1079721,39.323385 71.1079721,39.8152284 C71.1079721,39.9182813 71.1106553,40.2963651 71.1119969,40.8417425 C71.0274755,41.9652869 71.0214383,43.022583 71.0261339,43.8182318 C71.0375376,45.3526495 71.0482705,49.023073 71.0482705,49.9753086 L74.3888791,49.9753086 C74.3855251,49.2693293 74.3674134,45.5560786 74.3566805,42.8619811 C74.4096741,41.0665852 74.6303689,38.5524957 75.3092235,36.9866268 C75.6935948,35.8704433 76.2342636,34.4892666 77.1512539,32.9789392 C78.0595239,35.9989248 78.3083925,37.9736595 78.3083925,37.9736595 L78.3184546,39.7991682 C78.2943056,39.8874993 78.2701566,39.9771687 78.244666,40.070184 C78.1158715,41.3851124 78.2198462,48.6235756 78.2419828,49.9753086 L81.5832623,49.9753086 L81.5483804,44.4593012 C81.5631381,42.4584687 81.5866163,40.6436668 81.6469887,40.3693051 C81.8428638,39.4973704 82.1715582,38.1931488 83.1542875,36.6573928 C84.8125173,34.0710324 86.0682642,34.3480707 86.7008333,34.1339348 C87.530619,33.8481972 91.9404908,33.862919 94.3647799,33.8943702 L94.3647799,30.0921193 C92.5046377,30.0653523 89.4860154,30.0506305 87.6849041,30.1663977 C84.3671028,30.3758494 82.1192354,32.2803207 80.8400104,34.196168 C80.5502226,33.0023603 80.1403608,31.5723339 79.5581021,29.9509234 C80.6810296,28.9699133 81.6664421,28.6393409 82.4499423,28.2057157 C85.0694356,26.6646062 92.2544275,26.3741844 94.3647799,26.2871917 L94.3647799,22.6107456 C92.1242913,22.6073997 88.0471388,22.715806 84.9057592,23.4244621 C82.3037068,23.8667866 80.0404109,25.0231206 78.2003929,26.575606 C77.7361959,25.5330317 77.2055891,24.4362543 76.6052187,23.2946422 C77.1559496,22.9245886 77.6925935,22.5993696 78.2024053,22.2795041 C82.7249723,19.3351352 91.0308793,18.7462614 93.6107951,18.6184491 C93.8818003,18.6003813 94.1306689,18.5903437 94.3647799,18.5776294 L94.3647799,15.1193343 C91.7895597,15.1320486 86.6773551,15.344177 82.1232603,16.6852032 C79.4836428,17.3423328 76.9942856,18.5220879 74.8027658,20.1354682 C74.203737,19.1557964 73.5543978,18.14735 72.8420029,17.1194976 C73.2136289,16.8504894 73.5865964,16.5968721 73.9528559,16.3506158 C80.1591434,12.1334766 88.5670127,11.1598273 92.4395697,10.9624207 C93.1801383,10.9262853 93.8241111,10.9102251 94.3647799,10.9055409 L94.3647799,7.63193802 C91.4783062,7.64532151 85.3498321,7.94645015 79.3454569,9.94393678 C76.3503128,10.8700746 73.4001126,12.292071 70.7269549,14.241377 C69.9454671,13.2563518 69.120377,12.338244 68.2604051,11.4837079 C78.4358454,3.64700238 90.0582121,3.15047472 94.3647799,3.27226453 M65.5939554,13.7415035 C66.4660018,14.5605734 67.3159117,15.4385306 68.1410018,16.3880896 C67.2354151,17.2426258 66.3781264,18.1687636 65.5798685,19.17721 C64.7883186,18.1674253 63.937738,17.2345957 63.0361761,16.3767136 C63.8679742,15.4338464 64.7232506,14.5545508 65.5939554,13.7415035 M59.043545,30.3939171 C58.5914225,31.4625892 58.2325418,32.4757198 57.9367168,33.4205945 C57.33098,32.1351098 56.6125479,30.9506705 55.6492719,29.5500878 C55.5774958,29.4450273 55.5043781,29.3392977 55.4279063,29.2355756 C55.3916828,29.18338 55.353447,29.1325227 55.3152111,29.0830038 C55.7988614,27.8791584 56.367704,26.6057189 57.038509,25.2901213 C57.5617369,25.8234536 58.0923436,26.4484628 58.6283167,27.1879009 C59.0274457,27.73194 59.391022,28.2692873 59.7237412,28.7972662 C59.4835931,29.3319368 59.2561902,29.8632615 59.043545,30.3939171 M61.4020952,25.4587533 C61.2115866,25.1843917 61.017724,24.9100301 60.8158117,24.6283075 C60.7245822,24.5045102 60.6380484,24.3787053 60.5468189,24.2582538 C59.9954172,23.527515 59.4037673,22.838265 58.7698566,22.1925114 C59.3990716,21.1626515 60.0906715,20.1281073 60.8520352,19.0922248 C61.7603051,19.9106255 62.6658918,20.8481393 63.559404,21.964992 C62.7484008,23.163484 62.0353351,24.3231638 61.4020952,25.4587533 M65.5496823,33.3362785 C64.9399206,31.6760559 64.2496623,30.1510067 63.3816406,28.6025363 C63.9920732,27.3692473 64.7091637,26.0743941 65.567794,24.7628116 C66.4203871,26.0810859 67.1334528,27.375939 67.7371772,28.6112356 C66.8604351,30.1617135 66.1614564,31.684086 65.5496823,33.3362785 M74.1011038,25.334956 C74.7652007,26.6498844 75.3266645,27.9206472 75.80629,29.1211467 C75.7412219,29.2047936 75.6795079,29.2864329 75.617123,29.3720873 C75.5440053,29.4771477 75.4702167,29.5842157 75.4017946,29.6879378 C74.4619969,31.0490392 73.7576517,32.2073807 73.1613061,33.449369 C72.8581022,32.457652 72.480439,31.3869725 72.0041675,30.2560671 C71.8129881,29.7809531 71.6117466,29.3045006 71.3984307,28.8240332 C71.710355,28.3315205 72.0484407,27.8323162 72.418725,27.3264201 C72.9868968,26.5414781 73.5510438,25.8890327 74.1011038,25.334956 M70.3157515,19.1196609 C71.0710778,20.157551 71.7593237,21.1961102 72.3838431,22.2239626 C71.710355,22.903175 71.0818107,23.623207 70.5022352,24.3947655 C70.4130182,24.5152169 70.3204471,24.6423602 70.23123,24.7661575 C70.0581624,25.0050529 69.8911319,25.2399332 69.7287971,25.472806 C69.1009237,24.339224 68.3938953,23.178875 67.5896001,21.9770371 C68.491162,20.8682146 69.4014443,19.9347158 70.3157515,19.1196609" id="Fill-1"></path>
                        <polyline id="Fill-2" points="0 64.0308642 3.97961852 64.0308642 3.97961852 91.8810293 17.1572327 91.8810293 17.1572327 95.2654321 0 95.2654321 0 64.0308642"></polyline>
                        <path d="M42.0883824,82.28846 L38.9854356,73.2989926 C38.2800369,71.2594603 37.8108929,69.4057019 37.3404027,67.5990505 L37.245497,67.5990505 C36.7756799,69.4541358 36.2594195,71.3516838 35.6469072,73.2525491 L32.5459798,82.28846 L42.0883824,82.28846 Z M31.6999051,85.4393185 L28.4084931,95.2654321 L24.1761006,95.2654321 L34.9428547,64.0308642 L39.8779535,64.0308642 L50.6918239,95.2654321 L46.3207748,95.2654321 L42.934457,85.4393185 L31.6999051,85.4393185 L31.6999051,85.4393185 Z" id="Fill-3"></path>
                        <path d="M59.2704403,95.2654321 L59.2704403,64.0308642 L63.6639766,64.0308642 L73.6498882,79.8335903 C75.9615093,83.4946636 77.7647326,86.7835255 79.2442495,89.9814909 L79.3375881,89.934384 C78.9688674,85.7657498 78.8748667,81.9646826 78.8748667,77.0987328 L78.8748667,64.0308642 L82.6666667,64.0308642 L82.6666667,95.2654321 L78.5981607,95.2654321 L68.7042637,79.415599 C66.5303337,75.9396362 64.4484184,72.3714499 62.8762249,68.989701 L62.7385338,69.0361445 C62.9695635,72.9745517 63.0622402,76.7291754 63.0622402,81.9189026 L63.0622402,95.2654321 L59.2704403,95.2654321" id="Fill-4"></path>
                        <polygon id="Fill-5" points="95.1446541 95.2654321 99.0440252 95.2654321 99.0440252 64.0308642 95.1446541 64.0308642"></polygon>
                        <polyline id="Fill-6" points="116.454197 67.461047 106.842767 67.461047 106.842767 64.0308642 130.238994 64.0308642 130.238994 67.461047 120.580574 67.461047 120.580574 95.2654321 116.454197 95.2654321 116.454197 67.461047"></polyline>
                    </g>
                </g>
            </g>
        </g>
    </g>
</svg>