<?xml version="1.0" encoding="UTF-8"?>
<svg width="148px" height="43px" viewBox="0 0 148 43" version="1.1" xmlns="http://www.w3.org/2000/svg" xmlns:xlink="http://www.w3.org/1999/xlink">
    <!-- Generator: Sketch 55.2 (78181) - https://sketchapp.com -->
    <title>Mars Wordmark RGB Blue</title>
    <desc>Created with Sketch.</desc>
    <g id="Site" stroke="none" stroke-width="1" fill="none" fill-rule="evenodd">
        <g id="pouf-•-site" transform="translate(-628.000000, -6483.000000)" fill="#0000A0" fill-rule="nonzero">
            <g id="Group-26" transform="translate(151.000000, 6327.000000)">
                <g id="Group-30" transform="translate(132.000000, 63.000000)">
                    <g id="Mars-Wordmark-RGB-Blue" transform="translate(345.600000, 93.351064)">
                        <path d="M58.7762942,0.352571749 C58.0929618,0.352571749 57.7863736,0.76084557 57.5313508,1.35094427 C41.5482073,38.3841363 40.2037681,41.3154383 40.2037681,41.3154383 L49.2614142,41.3154383 L51.1493412,36.66767 L64.7983327,36.66767 L66.6907256,41.3154383 L77.3478336,41.3154383 C77.3478336,41.3154383 76.4347159,39.4128823 60.020926,1.35094427 C59.7665263,0.761573702 59.4580168,0.352571749 58.7762942,0.352571749 Z M54.0280716,29.5806605 L57.9657879,19.8865237 L61.9127996,29.5806605 L54.0280716,29.5806605 Z M34.9035932,1.19918083 C35.3995661,0.701918915 35.9038476,0.352363712 36.6885972,0.352363712 L36.6885972,41.3154383 L28.1818648,41.3154383 L28.1818648,21.729685 L18.3442986,31.5771455 L8.50652468,21.7293729 L8.50652468,41.3154383 L0,41.3154383 L0,0.352363712 C0.78490529,0.352363712 1.2893426,0.701918915 1.78500393,1.19918083 L18.3442986,17.7869561 L34.9035932,1.19918083 Z M104.209718,22.6030789 C107.340096,20.7250193 109.715375,17.4416657 109.715375,12.7445404 C109.715375,9.04755591 108.241633,6.00885447 105.687926,3.94678563 C103.098751,1.85611161 100.098403,0.729535909 93.9698064,0.729535909 L80.8631084,0.729535909 L80.8631084,41.3154903 L90.5485749,41.3154903 L90.5485749,26.2070185 C90.6233525,26.2070185 92.7013393,26.2070185 93.5487669,26.2070185 C96.8199759,26.2070185 98.4647199,27.448171 99.8346562,30.7452551 C100.992826,33.5326991 101.811174,36.8415374 102.875249,41.3154903 L113.677342,41.3154903 C112.144505,36.7097976 111.37684,34.5383009 110.223759,31.2894815 C108.650521,26.8569801 106.736578,24.1253942 104.209718,22.6030789 Z M98.0144444,17.6184976 C96.8480175,18.5230972 95.3341344,18.8054042 92.6110868,18.8054042 C91.8899502,18.8054042 90.5485749,18.8054042 90.5485749,18.8054042 C90.5485749,18.8054042 90.52879,7.9883844 90.5485749,7.9883844 C90.5847174,7.9883844 91.7029543,7.9883844 92.6110868,7.9883844 C95.4541421,7.9883844 96.8674909,8.30231316 98.0104978,9.17180637 C99.3186906,10.1663302 99.9023195,11.6605604 99.9023195,13.389821 C99.9023195,15.2707931 99.2495213,16.6605884 98.0144444,17.6184976 Z M146.096969,34.4142065 C143.785302,39.7701869 138.120586,42.287234 131.666395,42.287234 C125.030038,42.287234 119.538038,40.1306641 115.847555,35.6548908 L121.426224,29.8032088 C123.948048,32.9691772 127.382573,34.7685466 131.232478,34.6756578 C134.009999,34.6087217 135.699973,33.5458575 136.377489,31.983755 C137.151905,30.197024 136.425679,28.5442171 135.121069,27.5181236 C131.466365,24.64424 123.024596,24.4735451 119.027265,18.875773 C116.957327,15.9765608 116.38289,11.951865 118.065127,8.08902259 C120.230458,3.11733965 125.087887,0 131.52707,0 C137.046852,0 142.294631,2.10508062 145.575706,5.59959247 L140.005086,11.4419648 C137.924866,8.9695418 134.931736,7.44759061 131.587931,7.44759061 C129.161709,7.44759061 127.512603,8.53443113 127.017461,10.192959 C126.616102,11.5372461 127.052357,12.9376513 128.27736,13.8932721 C131.39569,16.32622 139.287948,17.0409332 143.638291,21.176669 C147.395139,24.7479467 148.119495,29.7283152 146.096969,34.4142065 Z" id="Shape"></path>
                    </g>
                </g>
            </g>
        </g>
    </g>
</svg>