<?xml version="1.0" encoding="UTF-8"?>
<svg width="131px" height="32px" viewBox="0 0 131 32" version="1.1" xmlns="http://www.w3.org/2000/svg" xmlns:xlink="http://www.w3.org/1999/xlink">
    <!-- Generator: Sketch 55.2 (78181) - https://sketchapp.com -->
    <title>MTS_Corp_Rus_Red_RGB</title>
    <desc>Created with Sketch.</desc>
    <g id="Site" stroke="none" stroke-width="1" fill="none" fill-rule="evenodd">
        <g id="pouf-•-site" transform="translate(-834.000000, -5868.000000)" fill="#CF232A">
            <g id="Group-27" transform="translate(151.000000, 5797.000000)">
                <g id="Group-28" transform="translate(83.000000, 71.000000)">
                    <g id="MTS_Corp_Rus_Red_RGB" transform="translate(600.000000, 0.000000)">
                        <path d="M11.6983035,0 C9.25657425,0 6.3615876,2.29436242 3.97351855,6.15177785 C1.48459878,10.1468253 0,15.0922773 0,19.3871393 C0,25.6750612 3.61121708,32.0154321 11.6983035,32.0154321 C19.7781591,32.0154321 23.3962264,25.6750612 23.3962264,19.3871393 C23.3962264,15.0922773 21.9123888,10.1468253 19.4356472,6.15177785 C17.0266469,2.29436242 14.1331825,0 11.6983035,0" id="Fill-1"></path>
                        <polyline id="Fill-2" points="74.0880503 9.36230231 82.2136203 9.36230231 82.2136203 30.4537037 90.9192104 30.4537037 90.9192104 9.36230231 99.0440252 9.36230231 99.0440252 1.5617284 74.0880503 1.5617284 74.0880503 9.36230231"></polyline>
                        <path d="M117.614417,9.36230231 L130.238994,9.36230231 L130.238994,1.5617284 L117.615537,1.5617284 C106.016532,1.5617284 99.8238994,7.36892257 99.8238994,16.0075281 C99.8238994,24.6461336 106.016532,30.4537037 117.615537,30.4537037 L130.238994,30.4537037 L130.238994,22.6527538 L117.614417,22.6527538 C112.247618,22.6527538 108.717665,20.7202808 108.717665,16.0075281 C108.717665,11.2943993 112.247618,9.36230231 117.614417,9.36230231" id="Fill-3"></path>
                        <polyline id="Fill-4" points="56.4690703 1.5617284 51.85976 18.8069822 47.2500746 1.5617284 31.9748428 1.5617284 31.9748428 30.4537037 40.6215189 30.4537037 40.6215189 6.95272653 46.9027824 30.4537037 56.8163625 30.4537037 63.1017516 6.9380638 63.1017516 30.4537037 71.7484277 30.4537037 71.7484277 1.5617284 56.4690703 1.5617284"></polyline>
                    </g>
                </g>
            </g>
        </g>
    </g>
</svg>