<?xml version="1.0" encoding="UTF-8"?>
<svg width="212px" height="36px" viewBox="0 0 212 36" version="1.1" xmlns="http://www.w3.org/2000/svg" xmlns:xlink="http://www.w3.org/1999/xlink">
    <!-- Generator: Sketch 55.2 (78181) - https://sketchapp.com -->
    <title>mveldo_logo</title>
    <desc>Created with Sketch.</desc>
    <g id="Site" stroke="none" stroke-width="1" fill="none" fill-rule="evenodd">
        <g id="pouf-•-site" transform="translate(-234.000000, -5868.000000)">
            <g id="Group-27" transform="translate(151.000000, 5797.000000)">
                <g id="Group-28" transform="translate(83.000000, 71.000000)">
                    <g id="mveldo_logo">
                        <g id="Group-4" transform="translate(0.000000, 31.234568)">
                            <polygon id="Fill-1" fill="#D7252C" points="0 3.87829218 105.642063 3.87829218 105.642063 0.334036351 0 0.334036351"></polygon>
                            <polygon id="Fill-3" fill="#6DB744" points="105.643534 3.87829218 211.285597 3.87829218 211.285597 0.334036351 105.643534 0.334036351"></polygon>
                        </g>
                        <path d="M76.7064676,16.1936376 L77.6576614,18.185436 C76.9653581,18.8271159 75.4472085,19.5216049 73.1249072,19.5216049 C71.658825,19.5216049 69.85093,18.9880341 68.738231,17.9203943 C67.6255319,16.8527545 67.0691824,15.3217898 67.0691824,13.3284968 C67.0691824,11.4243814 67.5696077,9.89790053 68.5699762,8.75005071 C69.5703447,7.60220089 70.9072228,7.02777778 72.5801282,7.02777778 C74.52928,7.02777778 75.9780064,7.7491695 76.9267897,9.19045836 C77.6335561,10.2765315 77.9874214,11.7088528 77.9874214,13.4884186 L77.9874214,13.9158731 L69.8118795,13.9158731 C69.8292353,14.9127687 70.1517638,15.6864713 70.7823575,16.2384755 C71.4115049,16.7904796 72.6336419,17.0654853 73.4098314,17.0654853 C74.7197116,17.0654853 75.7875748,16.7566021 76.7064676,16.1936376 M69.9671174,11.6734807 L75.270758,11.6734807 C75.11552,10.9969269 74.8007053,10.4628579 74.3267958,10.0717719 C73.8524041,9.68018769 73.2873767,9.4843956 72.6317135,9.4843956 C71.9938881,9.4843956 71.4331997,9.68467148 70.9501301,10.084725 C70.4675427,10.4852768 70.139229,11.014862 69.9671174,11.6734807" id="Fill-5" fill="#0A0B09"></path>
                        <polyline id="Fill-6" fill="#0A0B09" points="16.791951 0 10.296965 14.0360841 3.88115616 0 0 19.4735209 2.90447393 19.4735209 4.83177386 8.51942385 10.1381189 20.3024691 15.5241329 8.54550964 17.3722556 19.4735209 20.2767296 19.4735209 16.791951 0"></polyline>
                        <path d="M23.1925082,18.9454762 C22.8078539,18.5608385 22.6163522,18.1022532 22.6163522,17.5697204 C22.6163522,17.0371875 22.8078539,16.5780504 23.1925082,16.1939646 C23.5760619,15.8098787 24.0344554,15.617284 24.5660377,15.617284 C25.0981704,15.617284 25.5554632,15.8098787 25.9401175,16.1939646 C26.3236713,16.5780504 26.5157233,17.0371875 26.5157233,17.5697204 C26.5157233,18.1022532 26.3236713,18.5608385 25.9401175,18.9454762 C25.5554632,19.3301139 25.0981704,19.5216049 24.5660377,19.5216049 C24.0344554,19.5216049 23.5760619,19.3301139 23.1925082,18.9454762" id="Fill-7" fill="#0A0B09"></path>
                        <path d="M28.0754717,1.5617284 L30.8438323,1.5617284 C31.5755747,1.5617284 32.1020011,1.57034362 32.424571,1.58757408 C32.7466545,1.60432591 33.2035069,1.68569194 33.7961015,1.83071493 C34.3872365,1.97669516 34.9102572,2.20308418 35.3632174,2.51036061 C36.7386402,3.45181347 37.4265948,4.80296824 37.4265948,6.56478216 C37.4265948,7.93316738 36.8870321,9.02777983 35.8069336,9.84861952 C36.8690304,10.173605 37.665968,10.7431673 38.1972597,11.5549131 C38.7280648,12.3676162 38.9937107,13.2449334 38.9937107,14.1844718 C38.9937107,15.9132607 38.383601,17.2725521 37.1653277,18.264739 C36.6778238,18.6581677 36.0944733,18.9525213 35.4152762,19.1492357 C34.7360791,19.3469073 34.2091662,19.4574694 33.8345375,19.483315 C33.4603952,19.5086821 32.9422399,19.5216049 32.2805579,19.5216049 L28.0754717,19.5216049 L28.0754717,1.5617284 Z M30.8963776,4.12715154 L30.8963776,9.28432215 L31.7322376,9.28432215 C33.7172835,9.28432215 34.710293,8.40317588 34.710293,6.64184058 C34.710293,4.96570031 33.7523138,4.12715154 31.8368418,4.12715154 L30.8963776,4.12715154 Z M30.8963776,11.5415116 L30.8963776,16.9557032 L32.5685842,16.9557032 C33.9089767,16.9557032 34.8445755,16.686238 35.3758672,16.1477863 C35.9071589,15.608856 36.1723182,14.9718078 36.1723182,14.2356846 C36.1723182,13.4837667 35.9071589,12.8467185 35.3758672,12.32454 C34.8445755,11.8028402 33.9260053,11.5415116 32.6201564,11.5415116 L30.8963776,11.5415116 L30.8963776,11.5415116 Z" id="Fill-8" fill="#0A0B09"></path>
                        <polyline id="Fill-9" fill="#0A0B09" points="40.5534591 8.05717704 43.2965439 8.05717704 43.2965439 14.5143179 51.4716981 7.02777778 51.4716981 19.4280796 48.7286133 19.4280796 48.7286133 12.816409 40.5534591 20.3024691 40.5534591 8.05717704"></polyline>
                        <path d="M55.6934327,7.80864198 L64.5318419,7.80864198 L64.5318419,16.9508158 L66.2893082,16.9508158 L66.2893082,22.6450617 L63.7865056,22.6450617 L63.7865056,19.3540351 L55.5337532,19.3540351 L55.5337532,22.6450617 L53.0314465,22.6450617 L53.0314465,16.9508158 C54.00688,16.8640816 54.7348598,16.3587818 55.2143942,15.4363783 C55.5337532,14.7922063 55.6934327,13.7728359 55.6934327,12.3797289 L55.6934327,7.80864198 Z M61.8167945,16.9508158 L61.8167945,10.2118613 L58.3018619,10.2118613 L58.3018619,13.398612 C58.3018619,15.0699507 57.8401798,16.2545059 56.9178076,16.9508158 L61.8167945,16.9508158 L61.8167945,16.9508158 Z" id="Fill-10" fill="#0A0B09"></path>
                        <path d="M120.100629,7.80864198 L120.100629,19.468948 L117.448662,19.468948 L117.448662,10.2357809 L114.017133,10.2357809 L114.017133,14.9315959 C114.017133,16.355793 113.66173,17.4733989 112.951407,18.281461 C112.22317,19.1087157 111.191822,19.5216049 109.858334,19.5216049 C109.719368,19.5216049 109.494215,19.5038886 109.18239,19.468948 L109.18239,17.0418091 C109.390596,17.0777339 109.55474,17.0949581 109.67579,17.0949581 C110.265062,17.0949581 110.733284,16.9015547 111.079972,16.5142558 C111.339504,16.2155386 111.470238,15.7057016 111.470238,14.9847449 L111.470238,7.80864198 L120.100629,7.80864198" id="Fill-11" fill="#0A0B09"></path>
                        <path d="M122.440252,7.80864198 L125.091894,7.80864198 L125.091894,11.9690326 L126.651599,11.9690326 C127.136797,11.9690326 127.526602,11.9823799 127.821498,12.0090744 C128.116394,12.0357689 128.500873,12.141064 128.978323,12.326937 C129.454321,12.5118212 129.848969,12.791125 130.161297,13.1618823 C130.732688,13.8158981 131.018868,14.663202 131.018868,15.7057713 C131.018868,16.9426175 130.672159,17.8878013 129.979226,18.5403341 C129.667382,18.8418833 129.303242,19.0712585 128.887288,19.2299426 C128.471819,19.389121 128.120268,19.4776084 127.834572,19.4949104 C127.548392,19.5127068 127.145997,19.5216049 126.62545,19.5216049 L122.440252,19.5216049 L122.440252,7.80864198 Z M125.091894,17.1892947 L126.287458,17.1892947 C126.928094,17.1892947 127.388112,17.1013016 127.665576,16.9243268 C128.064097,16.6771553 128.2636,16.2801979 128.2636,15.7324659 C128.2636,15.2198322 128.072329,14.8312786 127.691724,14.5663107 C127.413777,14.3898303 126.954242,14.3008486 126.313606,14.3008486 L125.091894,14.3008486 L125.091894,17.1892947 L125.091894,17.1892947 Z" id="Fill-12" fill="#0A0B09"></path>
                        <path d="M133.680755,7.80864198 L142.519329,7.80864198 L142.519329,16.9508158 L144.27673,16.9508158 L144.27673,22.6450617 L141.774021,22.6450617 L141.774021,19.3540351 L133.521577,19.3540351 L133.521577,22.6450617 L131.018868,22.6450617 L131.018868,16.9508158 C131.994265,16.8640816 132.722713,16.3587818 133.201734,15.4363783 C133.521577,14.7922063 133.680755,13.7728359 133.680755,12.3797289 L133.680755,7.80864198 Z M139.803887,16.9508158 L139.803887,10.2118613 L136.289582,10.2118613 L136.289582,13.398612 C136.289582,15.0699507 135.827917,16.2545059 134.905084,16.9508158 L139.803887,16.9508158 L139.803887,16.9508158 Z" id="Fill-13" fill="#0A0B09"></path>
                        <path d="M162.525767,8.13357976 L162.525767,9.43181722 C163.392025,8.35003676 164.553653,7.80864198 166.009198,7.80864198 C167.551418,7.80864198 168.863637,8.38636521 169.947791,9.540298 C171.030492,10.6942308 171.572327,12.2089253 171.572327,14.0838768 C171.572327,15.9598375 171.008703,17.4916871 169.882906,18.6824529 C168.756142,19.8722096 167.47346,20.4670879 166.035346,20.4670879 C165.739976,20.4670879 165.428627,20.4307595 165.099361,20.3591117 C164.769612,20.2869593 164.349315,20.1108673 163.83847,19.8318446 C163.32714,19.5518128 162.889411,19.1779326 162.525767,18.7086901 L162.525767,25.7685185 L159.874214,25.7685185 L159.874214,8.13357976 L162.525767,8.13357976 Z M165.619407,10.2971407 C164.735233,10.2971407 163.972597,10.6397381 163.331498,11.3254376 C162.690399,12.0106325 162.370334,12.9576949 162.370334,14.1656158 C162.370334,15.2468917 162.655536,16.1535892 163.227876,16.8831856 C163.799248,17.613791 164.596264,17.9790938 165.619407,17.9790938 C166.589286,17.9790938 167.364996,17.6097545 167.945568,16.870067 C168.526624,16.130884 168.817152,15.2115724 168.817152,14.1111232 C168.817152,12.9208619 168.500477,11.9884318 167.86761,11.3113098 C167.234743,10.6351971 166.48518,10.2971407 165.619407,10.2971407 L165.619407,10.2971407 Z" id="Fill-14" fill="#0A0B09"></path>
                        <path d="M182.178745,7.34848986 L184.830189,7.34848986 L184.830189,19.1481048 L182.178745,19.1481048 L182.178745,17.9195385 C181.295092,18.9882468 180.133028,19.5216049 178.695458,19.5216049 C177.013854,19.5216049 175.666828,18.8996028 174.652927,17.6536065 C173.63951,16.4076102 173.132075,14.9395058 173.132075,13.2482974 C173.132075,11.5580849 173.635637,10.0979486 174.640822,8.87037824 C175.645039,7.64181193 177.005139,7.02777778 178.72112,7.02777778 C180.211952,7.02777778 181.363848,7.59798792 182.178745,8.73691421 L182.178745,7.34848986 Z M179.110896,9.4839144 C178.158003,9.4839144 177.38281,9.84894849 176.784346,10.5790167 C176.186852,11.3080889 175.888104,12.2159431 175.888104,13.3020814 C175.888104,14.3518656 176.177652,15.2417919 176.759168,15.971362 C177.339232,16.7014302 178.123626,17.0659663 179.110896,17.0659663 C180.099135,17.0659663 180.88256,16.7098962 181.463108,15.997756 C182.04414,15.2861139 182.334172,14.3787576 182.334172,13.2751894 C182.334172,12.0650491 182.022351,11.1308008 181.39871,10.4714486 C180.775069,9.81359048 180.01198,9.4839144 179.110896,9.4839144 L179.110896,9.4839144 Z" id="Fill-15" fill="#0A0B09"></path>
                        <path d="M188.272049,7.80864198 L197.110954,7.80864198 L197.110954,16.9508158 L198.867925,16.9508158 L198.867925,22.6450617 L196.365618,22.6450617 L196.365618,19.3540351 L188.112865,19.3540351 L188.112865,22.6450617 L185.610063,22.6450617 L185.610063,16.9508158 C186.585496,16.8640816 187.313972,16.3587818 187.793011,15.4363783 C188.112865,14.7922063 188.272049,13.7728359 188.272049,12.3797289 L188.272049,7.80864198 Z M194.395907,16.9508158 L194.395907,10.2118613 L190.880974,10.2118613 L190.880974,13.398612 C190.880974,15.0699507 190.419292,16.2545059 189.49692,16.9508158 L194.395907,16.9508158 L194.395907,16.9508158 Z" id="Fill-16" fill="#0A0B09"></path>
                        <path d="M94.4178474,5.36311919 L92.8294529,3.68164588 C94.5264982,1.7143221 97.618061,0.780864198 99.8478937,0.780864198 C102.504853,0.780864198 104.688335,1.57019581 106.400831,3.14933947 C108.254373,4.88317867 109.18239,7.20793563 109.18239,10.125532 C109.18239,12.9403184 108.254373,15.2405739 106.400831,17.0243769 C104.670393,18.6895159 102.459499,19.5216049 99.7671532,19.5216049 C97.7516317,19.5216049 94.4278154,18.4800523 92.8050314,16.6054498 L94.4178474,14.9138876 C95.9873027,16.270116 97.6983031,16.9475095 99.5528421,16.9475095 C101.692465,16.9475095 103.378047,16.3128734 104.608093,15.0426404 C105.625323,13.9789885 106.168079,12.6996275 106.239848,11.2064792 L96.9317669,11.2064792 L96.9317669,8.63238374 L106.159108,8.63238374 C105.945793,7.22523079 105.374629,6.04099315 104.448107,5.08015126 C103.306277,3.93002351 101.736822,3.35495963 99.7402397,3.35495963 C97.7969859,3.35495963 96.022689,4.02466644 94.4178474,5.36311919" id="Fill-17" fill="#0A0B09"></path>
                        <path d="M85.0067856,19.5216049 C81.5661568,19.5216049 78.7672956,16.7194279 78.7672956,13.2746914 C78.7672956,9.83045249 81.5661568,7.02777778 85.0067856,7.02777778 C88.4464218,7.02777778 91.245283,9.83045249 91.245283,13.2746914 C91.245283,16.7194279 88.4464218,19.5216049 85.0067856,19.5216049 M85.0067856,9.70104468 C83.0387976,9.70104468 81.4376048,11.3042085 81.4376048,13.2746914 C81.4376048,15.2451743 83.0387976,16.848338 85.0067856,16.848338 C86.9742774,16.848338 88.5754702,15.2451743 88.5754702,13.2746914 C88.5754702,11.3042085 86.9742774,9.70104468 85.0067856,9.70104468" id="Fill-18" fill="#0A0B09"></path>
                        <path d="M205.106918,19.5216049 C201.666786,19.5216049 198.867925,16.7194279 198.867925,13.2746914 C198.867925,9.83045249 201.666786,7.02777778 205.106918,7.02777778 C208.547051,7.02777778 211.345912,9.83045249 211.345912,13.2746914 C211.345912,16.7194279 208.547051,19.5216049 205.106918,19.5216049 M205.106918,9.70104468 C203.13893,9.70104468 201.537737,11.3042085 201.537737,13.2746914 C201.537737,15.2451743 203.13893,16.848338 205.106918,16.848338 C207.074906,16.848338 208.676099,15.2451743 208.676099,13.2746914 C208.676099,11.3042085 207.074906,9.70104468 205.106918,9.70104468" id="Fill-19" fill="#0A0B09"></path>
                        <path d="M151.295597,19.5216049 C147.855191,19.5216049 145.056604,16.7194279 145.056604,13.2746914 C145.056604,9.83045249 147.855191,7.02777778 151.295597,7.02777778 C154.736004,7.02777778 157.534591,9.83045249 157.534591,13.2746914 C157.534591,16.7194279 154.736004,19.5216049 151.295597,19.5216049 M151.295597,9.70104468 C149.327453,9.70104468 147.725636,11.3042085 147.725636,13.2746914 C147.725636,15.2451743 149.327453,16.848338 151.295597,16.848338 C153.263742,16.848338 154.865062,15.2451743 154.865062,13.2746914 C154.865062,11.3042085 153.263742,9.70104468 151.295597,9.70104468" id="Fill-20" fill="#0A0B09"></path>
                    </g>
                </g>
            </g>
        </g>
    </g>
</svg>