<?xml version="1.0" encoding="UTF-8"?>
<svg width="282px" height="54px" viewBox="0 0 282 54" version="1.1" xmlns="http://www.w3.org/2000/svg" xmlns:xlink="http://www.w3.org/1999/xlink">
    <!-- Generator: Sketch 55.2 (78181) - https://sketchapp.com -->
    <title>Group 6</title>
    <desc>Created with Sketch.</desc>
    <defs>
        <polygon id="path-1" points="2.97794118e-05 0.08559 80.876743 0.08559 80.876743 54 2.97794118e-05 54"></polygon>
    </defs>
    <g id="Page-1" stroke="none" stroke-width="1" fill="none" fill-rule="evenodd">
        <g id="Artboard" transform="translate(-309.000000, -1495.000000)">
            <g id="Group-6" transform="translate(309.000000, 1495.000000)">
                <path d="M261.302476,17.4333246 L267.290834,33.7962105 L255.125386,33.7962105 L261.302476,17.4333246 Z M254.885318,11.0613375 L241.081231,45.987851 L250.829377,45.987851 L253.013139,39.8149885 L269.34937,39.8149885 L271.416808,45.987851 L282,45.987851 L268.090568,11.0583743 L254.885318,11.0613375 Z M227.172986,46 L237.060306,46 L237.060306,11.0503738 L227.170612,11.0485959 L227.172986,46 Z M158.513101,11.0485959 L150.262935,38.7497312 L142.357293,11.0503738 L131.685967,11.0485959 L142.976308,46 L157.224328,46 L168.6031,11.0485959 L158.513101,11.0485959 Z M198.489401,18.6591854 L202.740008,18.6591854 C208.906415,18.6591854 212.894401,21.4244097 212.894401,28.5991178 C212.894401,35.7747149 208.906415,38.5399392 202.740008,38.5399392 L198.489401,38.5399392 L198.489401,18.6591854 Z M188.68339,11.0485959 L188.68339,46 L204.717532,46 C213.260587,46 216.048527,44.5815336 219.064072,41.4008737 C221.195904,39.1675373 222.572811,34.2655757 222.572811,28.9087684 C222.572811,23.9955468 221.407485,19.6127314 219.372986,16.8836577 C215.711125,12.0030309 210.434663,11.0485959 202.557509,11.0485959 L188.68339,11.0485959 Z M95,11 L95,46 L104.973377,46 L104.973377,18.8316415 L112.753792,18.8577173 C115.313237,18.8577173 117.082147,19.469907 118.315428,20.7843663 C119.879286,22.4481827 120.517292,25.1301421 120.517292,30.038919 L120.517292,46 L130.180865,46 L130.180865,26.6623941 C130.180865,12.8611631 121.37044,11 112.751418,11 L95,11 Z M172.766463,11.0474106 L172.769727,46 L182.655267,46 L182.655267,11.0480033 L172.766463,11.0474106 Z" id="Fill-1" fill="#000000"></path>
                <g id="Group-5">
                    <mask id="mask-2" fill="white">
                        <use xlink:href="#path-1"></use>
                    </mask>
                    <g id="Clip-4"></g>
                    <path d="M8.26322096,23.29659 C8.26322096,23.29659 15.5755555,12.42699 30.1761033,11.30289 L30.1761033,7.35999 C14.0043937,8.66739 2.97794118e-05,22.46529 2.97794118e-05,22.46529 C2.97794118e-05,22.46529 7.93147831,45.56559 30.1761033,47.68059 L30.1761033,43.48899 C13.8525187,41.41989 8.26322096,23.29659 8.26322096,23.29659 L8.26322096,23.29659 Z M30.1761033,35.15289 L30.1761033,38.99229 C17.838493,36.77649 14.4141585,23.85639 14.4141585,23.85639 C14.4141585,23.85639 20.337879,17.24439 30.1761033,16.17309 L30.1761033,20.38539 C30.1686585,20.38539 30.163596,20.38329 30.1570445,20.38329 C24.9944857,19.75869 20.9605665,24.61809 20.9605665,24.61809 C20.9605665,24.61809 23.2205261,32.79879 30.1761033,35.15289 L30.1761033,35.15289 Z M30.1761033,0.08559 L30.1761033,7.35999 C30.6507871,7.32219 31.1257687,7.29159 31.6025371,7.27449 C49.9895371,6.65049 61.9683055,22.46529 61.9683055,22.46529 C61.9683055,22.46529 48.2090261,39.32049 33.875004,39.32049 C32.561732,39.32049 31.3318423,39.19839 30.1761033,38.99229 L30.1761033,43.48899 C31.164482,43.61529 32.1880004,43.68999 33.2564857,43.68999 C46.5961732,43.68999 56.2423202,36.82779 65.5838239,28.70499 C67.1317577,29.95419 73.4726879,32.99319 74.7767283,34.32549 C65.8941254,41.81529 45.1959452,47.85279 33.461368,47.85279 C32.3306437,47.85279 31.2430996,47.78379 30.1761033,47.68059 L30.1761033,54.00009 L80.876743,54.00009 L80.876743,0.08559 L30.1761033,0.08559 Z M30.1761033,16.17309 L30.1761033,11.30289 C30.6454268,11.26929 31.1195151,11.24409 31.6025371,11.22879 C44.8242982,10.81029 53.4984452,22.67379 53.4984452,22.67379 C53.4984452,22.67379 44.1298423,35.78259 34.0849489,35.78259 C32.6382651,35.78259 31.3434562,35.54769 30.1761033,35.15289 L30.1761033,20.38539 C35.3234746,21.01179 36.3583092,23.30229 39.4535812,28.49859 L46.3361989,22.65279 C46.3361989,22.65279 41.3121143,16.01469 32.8431474,16.01469 C31.9214746,16.01469 31.0408974,16.08009 30.1761033,16.17309 L30.1761033,16.17309 Z" id="Fill-3" fill="#41B700" mask="url(#mask-2)"></path>
                </g>
            </g>
        </g>
    </g>
</svg>