<?xml version="1.0" encoding="UTF-8"?>
<svg width="131px" height="100px" viewBox="0 0 131 100" version="1.1" xmlns="http://www.w3.org/2000/svg" xmlns:xlink="http://www.w3.org/1999/xlink">
    <!-- Generator: Sketch 55.2 (78181) - https://sketchapp.com -->
    <title>pwc</title>
    <desc>Created with Sketch.</desc>
    <g id="Site" stroke="none" stroke-width="1" fill="none" fill-rule="evenodd">
        <g id="pouf-•-site" transform="translate(-534.000000, -6054.000000)" fill-rule="nonzero">
            <g id="Group-27" transform="translate(151.000000, 5797.000000)">
                <g id="Group-28" transform="translate(83.000000, 71.000000)">
                    <g id="pwc" transform="translate(300.000000, 186.000000)">
                        <polygon id="Path" fill="#E669A2" points="130.238994 42.1666667 82.6666667 42.1666667 82.6666667 29.6728395 130.238994 29.6728395"></polygon>
                        <polygon id="Path" fill="#F3BE26" points="124 42.9475309 82.6666667 42.9475309 82.6666667 12.4938272 124 12.4938272"></polygon>
                        <polygon id="Path" fill="#EE9C34" points="106.842767 42.1666667 82.6666667 42.1666667 82.6666667 0 106.842767 0"></polygon>
                        <polygon id="Path" fill="#F3BC87" points="111.522013 42.1666667 82.6666667 42.1666667 82.6666667 3.90432099 111.522013 3.90432099"></polygon>
                        <polygon id="Path" fill="#E3721C" points="82.6666667 3.90432099 82.6666667 42.1666667 106.842767 42.1666667 106.842767 3.90432099"></polygon>
                        <polygon id="Path" fill="#AD1B02" points="58.490566 42.1666667 82.6666667 42.1666667 82.6666667 48.4135802 58.490566 48.4135802"></polygon>
                        <polygon id="Path" fill="#E88D14" points="82.6666667 12.4938272 82.6666667 42.9475309 111.522013 42.9475309 111.522013 12.4938272"></polygon>
                        <polygon id="Path" fill="#D85604" points="82.6666667 12.4938272 82.6666667 42.9475309 106.842767 42.9475309 106.842767 12.4938272"></polygon>
                        <polygon id="Path" fill="#C14303" points="97.4842767 42.9475309 82.6666667 42.9475309 82.6666667 24.2067901 97.4842767 24.2067901"></polygon>
                        <polygon id="Path" fill="#DB4E18" points="82.6666667 30.4537037 82.6666667 42.9475309 124 42.9475309 124 30.4537037 82.6666667 30.4537037"></polygon>
                        <polygon id="Path" fill="#D1390D" points="82.6666667 30.4537037 82.6666667 42.9475309 111.522013 42.9475309 111.522013 30.4537037 82.6666667 30.4537037"></polygon>
                        <polygon id="Path" fill="#C22303" points="82.6666667 30.4537037 82.6666667 42.9475309 106.842767 42.9475309 106.842767 30.4537037 82.6666667 30.4537037"></polygon>
                        <polygon id="Path" fill="#AD1B02" points="82.6666667 30.4537037 82.6666667 42.9475309 97.4842767 42.9475309 97.4842767 30.4537037 82.6666667 30.4537037"></polygon>
                        <path d="M88.0047111,65.9714744 C83.8839278,66.6971494 81.6861507,69.781075 81.6861507,75.1327027 C81.6861507,80.5751363 84.6164335,84.2033825 88.9205707,84.2033825 C91.0268009,84.2033825 92.8582601,83.4777075 96.7044025,81.5728428 L96.7044025,86.01757 C92.0340774,88.1943374 89.2867586,88.738658 85.6238401,88.738658 C81.5029268,88.738658 78.5722539,87.7409515 76.2829299,85.291895 C73.9019288,82.9333869 72.6198814,79.8494613 72.6198814,76.3117635 C72.6198814,68.6018853 78.4807069,63.2502576 86.9973045,63.2502576 C92.5834892,63.2502576 96.5213086,65.8807973 96.5213086,69.5997206 C96.5213086,72.0487771 94.6895893,73.7722874 92.0339474,73.7722874 C90.660353,73.7722874 89.5612694,73.3187728 88.004581,72.5022918 L88.0047111,65.9714744 Z M67.4001445,76.3118923 C71.15474,71.6859396 72.5284644,69.781075 72.5284644,67.5133728 C72.5284644,65.2456706 70.6968752,63.25 68.1327802,63.25 C66.6675088,63.25 65.2940444,64.066481 64.6529557,64.792156 L64.6529557,74.3162217 L58.5172291,82.4797434 L58.5172291,63.9759326 L52.6564035,63.9759326 L42.9491755,79.8495901 L42.9491755,63.9759326 L39.6523148,63.9759326 L30.7693994,65.9716032 L30.7693994,68.2391766 L35.6229484,68.6925625 L35.6229484,88.3759493 L41.7585449,88.3759493 L51.0993251,73.1372896 L51.0993251,88.3759493 L57.9675573,88.3759493 L67.4001445,76.3118923 Z M12.179646,85.291895 L13.5532405,85.291895 C18.4982064,85.291895 21.2455253,82.2985178 21.2455253,76.3117635 C21.2455253,71.3231021 19.0478782,68.6018853 14.9267048,68.6018853 C14.3772931,68.6018853 13.5531104,68.6925625 12.179516,68.9647228 L12.179516,85.291895 L12.179646,85.291895 L12.179646,85.291895 Z M12.179646,95.9951504 L16.2088824,96.9021797 L16.2088824,99.1697531 L0.366317854,99.1697531 L0.366317854,96.9021797 L4.02923632,95.9951504 L4.02923632,68.6017565 L0,68.6017565 L0,66.3341831 L9.61542105,63.431612 L12.1797761,63.431612 L12.1797761,66.6971494 C16.6668772,63.9759326 18.2236956,63.5224179 20.6045666,63.5224179 C25.9161104,63.5224179 29.9453468,68.4205309 29.9453468,75.2236374 C29.9453468,83.0243216 24.542386,88.3759493 16.3004293,88.3759493 C15.3846997,88.3759493 13.8278813,88.2852722 12.179646,88.194595 L12.179646,95.9951504 Z" id="Shape" fill="#000000"></path>
                    </g>
                </g>
            </g>
        </g>
    </g>
</svg>