<?xml version="1.0" encoding="UTF-8"?>
<svg width="150px" height="65px" viewBox="0 0 150 65" version="1.1" xmlns="http://www.w3.org/2000/svg" xmlns:xlink="http://www.w3.org/1999/xlink">
    <!-- Generator: Sketch 55.2 (78181) - https://sketchapp.com -->
    <title>Fill 2</title>
    <desc>Created with Sketch.</desc>
    <g id="Site" stroke="none" stroke-width="1" fill="none" fill-rule="evenodd">
        <g id="pouf-•-site" transform="translate(-427.000000, -6475.000000)" fill="#FE8C00">
            <g id="Group-26" transform="translate(151.000000, 6327.000000)">
                <g id="Group-30" transform="translate(132.000000, 63.000000)">
                    <path d="M187.636271,142.036231 C193.191839,142.036231 199.220831,143.924888 205.892988,149.785863 C206.561425,150.372963 207.45099,149.643473 206.868056,148.9144 C200.310885,140.706279 194.246091,139.143742 188.197724,137.822559 C180.799847,136.206573 176.993925,132.079337 174.342079,127.547896 C173.814321,126.646368 173.577609,126.805461 173.530435,127.964211 C173.47231,129.381435 173.57087,131.25673 173.890557,133.10196 C173.592351,133.115739 173.292038,133.111981 172.990462,133.111981 C162.406242,133.111981 153.826069,124.606134 153.826069,114.113084 C153.826069,103.620034 162.406242,95.1137693 172.990462,95.1137693 C183.574262,95.1137693 192.154435,103.620034 192.154435,114.113084 C192.154435,114.859695 192.117791,115.597536 192.03313,116.321598 C190.633077,116.071475 187.879301,116.04308 185.946856,116.208855 C185.219873,116.271072 185.322223,116.607214 185.871462,116.705342 C192.206663,117.840708 196.559297,121.732436 197.55416,128.795588 C197.576905,128.958021 197.791293,129.006459 197.875954,128.866156 C200.483154,124.553521 201.980503,119.506384 201.980503,114.113084 C201.980503,98.2400961 189.001365,85.3723404 172.990462,85.3723404 C156.979559,85.3723404 144,98.2400961 144,114.113084 C144,129.986072 156.979559,142.85508 172.990462,142.85508 C177.238219,142.85508 181.451858,142.036231 187.636271,142.036231 Z M189.794476,131.601223 C191.083756,132.682304 191.47631,133.967577 190.793973,134.874116 C190.414476,135.371021 189.799531,135.645362 189.06286,135.645362 C188.339246,135.645362 187.601733,135.380207 187.08998,134.936751 C185.917372,133.921227 185.572834,132.273506 186.338568,131.337738 C186.637616,130.971949 187.123676,130.770264 187.706611,130.770264 C188.41464,130.770264 189.155944,131.065901 189.794476,131.601223 Z M195.745126,128.855717 C195.934664,130.1151 195.533265,130.636642 195.130181,130.636642 C194.690452,130.636642 194.138265,130.125957 193.486676,129.118785 C192.844353,128.124557 192.608904,126.983345 192.927328,126.406685 C193.137926,126.025028 193.578496,125.859254 194.134053,126.06762 C195.209786,126.470572 195.632245,128.103261 195.745126,128.855717 Z M233.251957,120.280884 L230.918955,117.49905 C230.674241,117.207171 230.883575,116.764967 231.266441,116.764967 L236.148097,116.764967 C236.380597,116.078904 236.51201,115.345655 236.51201,114.58443 C236.51201,111.098995 233.895122,108.094181 230.303167,108.094181 C226.711634,108.094181 224.094746,111.098995 224.094746,114.58443 C224.094746,118.070282 226.711634,121.032505 230.303167,121.032505 C231.391536,121.032505 232.388506,120.757328 233.251957,120.280884 Z M243.810485,124.983528 C244.063623,125.26121 243.855553,125.70926 243.473528,125.70926 L238.146669,125.70926 C237.929754,125.70926 237.72421,125.613637 237.585216,125.44828 L236.682594,124.371374 C234.843233,125.553925 232.653859,126.243746 230.303167,126.243746 C223.818863,126.243746 218.542969,121.013297 218.542969,114.58443 C218.542969,108.155563 223.818863,102.925532 230.303167,102.925532 C236.787893,102.925532 242.063787,108.155563 242.063787,114.58443 C242.063787,116.901929 241.375132,119.062005 240.194522,120.87884 L243.810485,124.983528 Z M293.021699,103.462106 L288.674119,103.462106 C288.354853,103.462106 288.095818,103.718492 288.095818,104.035426 L288.095818,125.133852 C288.095818,125.450368 288.354853,125.707172 288.674119,125.707172 L293.021699,125.707172 C293.341386,125.707172 293.6,125.450368 293.6,125.133852 L293.6,104.035426 C293.6,103.718492 293.341386,103.462106 293.021699,103.462106 Z M285.705955,103.462106 L280.841568,103.462106 C280.587166,103.462106 280.362669,103.625375 280.288539,103.865058 L276.439655,116.332785 L272.209167,103.850861 C272.130404,103.618694 271.909276,103.462106 271.66035,103.462106 L268.265935,103.462106 C268.017009,103.462106 267.795881,103.618694 267.717118,103.850861 L263.486631,116.332785 L259.637746,103.865058 C259.563195,103.625375 259.339119,103.462106 259.084296,103.462106 L254.22033,103.462106 C254.034162,103.462106 253.859787,103.550213 253.750698,103.698449 C253.642029,103.846686 253.612545,104.037514 253.671513,104.210804 L260.816251,125.320504 C260.895015,125.552672 261.115721,125.70926 261.364648,125.70926 L265.225325,125.70926 C265.474252,125.70926 265.69538,125.552672 265.774143,125.320504 L269.962932,112.98807 L274.152142,125.320504 C274.230906,125.552672 274.452033,125.70926 274.700539,125.70926 L278.561637,125.70926 C278.810564,125.70926 279.03127,125.552672 279.110034,125.320504 L286.254772,104.210804 C286.313319,104.037514 286.283835,103.846686 286.175166,103.698449 C286.066498,103.550213 285.892123,103.462106 285.705955,103.462106 Z M251.830467,104.035426 L251.830467,125.133852 C251.830467,125.450368 251.571432,125.707172 251.251745,125.707172 L246.904586,125.707172 C246.584899,125.707172 246.325864,125.450368 246.325864,125.133852 L246.325864,104.035426 C246.325864,103.718492 246.584899,103.462106 246.904586,103.462106 L251.251745,103.462106 C251.571432,103.462106 251.830467,103.718492 251.830467,104.035426 L251.830467,104.035426 Z" id="Fill-2"></path>
                </g>
            </g>
        </g>
    </g>
</svg>