<?xml version="1.0" encoding="UTF-8"?>
<svg width="400px" height="39px" viewBox="0 0 400 39" version="1.1" xmlns="http://www.w3.org/2000/svg" xmlns:xlink="http://www.w3.org/1999/xlink">
    <!-- Generator: Sketch 55.2 (78181) - https://sketchapp.com -->
    <title>Group 29</title>
    <desc>Created with Sketch.</desc>
    <defs>
        <polygon id="path-1" points="0 0.367175 25.949456 0.367175 25.949456 37.9475917 0 37.9475917"></polygon>
        <polygon id="path-3" points="0.423283562 0.261405405 38.9445986 0.261405405 38.9445986 39 0.423283562 39"></polygon>
        <polygon id="path-5" points="0.514817308 0.371889041 26.9452212 0.371889041 26.9452212 39 0.514817308 39"></polygon>
        <polygon id="path-7" points="0.154946809 0.367175 24.7303191 0.367175 24.7303191 37.9475917 0.154946809 37.9475917"></polygon>
    </defs>
    <g id="Page-1" stroke="none" stroke-width="1" fill="none" fill-rule="evenodd">
        <g id="Artboard" transform="translate(-374.000000, -1815.000000)">
            <g id="Group-29" transform="translate(374.000000, 1815.000000)">
                <g id="Group-3">
                    <mask id="mask-2" fill="white">
                        <use xlink:href="#path-1"></use>
                    </mask>
                    <g id="Clip-2"></g>
                    <path d="M5.668416,5.96214722 L5.668416,17.6265639 L10.400936,17.6265639 C14.612936,17.6265639 17.368936,15.2515639 17.368936,11.714925 C17.368936,8.17881389 14.560936,5.96214722 10.348416,5.96214722 L5.668416,5.96214722 Z M-0.000104,0.367175 L10.452936,0.367175 C14.560936,0.367175 17.681456,1.42273056 19.865456,3.58714722 C22.101456,5.75103611 23.193456,8.44270278 23.193456,11.714925 C23.193456,16.9932306 20.021456,21.1632028 14.820936,22.6409806 L25.949456,37.9475917 L18.981456,37.9475917 L8.528416,23.1687583 L5.668416,23.1687583 L5.668416,37.9475917 L-0.000104,37.9475917 L-0.000104,0.367175 Z" id="Fill-1" fill="#383838" mask="url(#mask-2)"></path>
                </g>
                <path d="M52.5436922,23.8570024 L48.3741727,14.1429976 C47.7403001,12.5953317 47.1597341,11.0476659 46.6847256,9.5 L46.3680532,9.5 C46.3152744,9.71347115 46.0513808,10.4072524 45.5763722,11.527976 L44.5735764,14.1429976 L40.4040568,23.8570024 L52.5436922,23.8570024 Z M44.7319126,0 L48.2680874,0 L65,38 L58.6665526,38 L55.0242925,29.5673558 L37.9757075,29.5673558 L34.386754,38 L28,38 L44.7319126,0 Z" id="Fill-4" fill="#383838"></path>
                <path d="M88.5,13.8761586 L102.082323,0 L106,0 L106,38 L100.30631,38 L100.30631,16.3310769 C100.30631,13.3958485 100.358023,11.2077692 100.515253,9.71293748 L100.149603,9.71293748 C98.8954242,11.3678726 97.6945257,12.8088029 96.5970539,13.9295264 L88.5,22.1486995 L80.4551818,13.9295264 C79.1492896,12.5953317 77.9478688,11.2077692 76.8509193,9.71293748 L76.5375052,9.71293748 C76.6942123,12.7020673 76.746448,14.8901466 76.746448,16.3310769 L76.746448,38 L71,38 L71,0 L74.9704346,0 L88.5,13.8761586 Z" id="Fill-6" fill="#383838"></path>
                <path d="M119.686586,21.5616538 L119.686586,32.2896466 L125.686716,32.2896466 C129.599504,32.2896466 132.20803,30.4212404 132.20803,26.8450649 C132.20803,23.4295264 129.599504,21.5616538 125.425864,21.5616538 L119.686586,21.5616538 Z M119.686586,5.65698556 L119.686586,15.9575024 L125.06067,15.9575024 C128.660435,15.9575024 130.956459,14.1963654 130.956459,10.7808269 C130.956459,7.63159373 128.399583,5.65698556 124.904158,5.65698556 L119.686586,5.65698556 Z M114,0 L124.643306,0 C128.556094,0 131.529813,1.06735577 133.564985,3.14869951 C135.599635,5.23004326 136.643045,7.73832931 136.643045,10.7808269 C136.643045,13.9295264 135.182271,16.7046514 132.730257,18.2523173 C135.912658,19.8005168 138,23.3761586 138,26.9523341 C138,30.4212404 136.851727,33.0901635 134.556225,35.0647716 C132.260722,37.0393798 129.391344,38 125.947569,38 L114,38 L114,0 Z" id="Fill-8" fill="#383838"></path>
                <polygon id="Fill-10" fill="#383838" points="151.67319 0 151.67319 32.2891932 164 32.2891932 164 38 146 38 146 0"></polygon>
                <polygon id="Fill-12" fill="#383838" points="170 38 170 0 192 0 192 5.65743979 175.945654 5.65743979 175.945654 15.1573064 191.513537 15.1573064 191.513537 20.8142125 175.945654 20.8142125 175.945654 32.2891932 192 32.2891932 192 38"></polygon>
                <path d="M204.679131,5.65743979 L204.679131,17.452089 L209.420945,17.452089 C213.641217,17.452089 216.402629,15.0505723 216.402629,11.474447 C216.402629,7.89885542 213.589115,5.65743979 209.368843,5.65743979 L204.679131,5.65743979 Z M199,0 L209.472526,0 C213.589115,0 216.715763,1.06734078 218.904052,3.25592304 C221.144443,5.44397163 222.238588,8.16569061 222.238588,11.474447 C222.238588,16.8116846 219.060358,21.0282143 213.849625,22.5224914 L225,38 L218.018316,38 L207.544748,23.0561618 L204.679131,23.0561618 L204.679131,38 L199,38 L199,0 Z" id="Fill-14" fill="#383838"></path>
                <path d="M244.238045,18.2713002 L259,18.2713002 L259,36.9699742 C254.940752,38.3055175 250.933695,39 247.0326,39 C241.707605,39 237.22609,37.1302394 233.535865,33.4436058 C229.845113,29.7575064 228,25.1627034 228,19.6602652 C228,14.1572928 229.845113,9.50960221 233.535865,5.71665936 C237.279335,1.92318229 241.760322,0 247.0326,0 C250.35433,0 253.72825,0.854747685 257.154887,2.61766479 L257.154887,9.1356501 C256.153255,8.44116761 255.25653,7.96037203 254.57173,7.58641992 C253.14783,6.78509397 249.98478,5.71665936 247.0326,5.71665936 C243.183695,5.71665936 240.073362,7.05220262 237.595113,9.77671087 C235.11739,12.5012191 233.904887,15.7599447 233.904887,19.6602652 C233.904887,23.507164 235.11739,26.7653553 237.595113,29.3835543 C240.073362,32.0012191 243.183695,33.2838749 247.0326,33.2838749 C249.1413,33.2838749 251.197282,33.0696537 253.14783,32.5893924 L253.14783,24.0413813 L244.238045,24.0413813 L244.238045,18.2713002 Z" id="Fill-16" fill="#9E96B3"></path>
                <path d="M272.679131,5.65743979 L272.679131,17.452089 L277.420945,17.452089 C281.641217,17.452089 284.402629,15.0505723 284.402629,11.474447 C284.402629,7.89885542 281.589115,5.65743979 277.368843,5.65743979 L272.679131,5.65743979 Z M267,0 L277.472526,0 C281.589115,0 284.715763,1.06734078 286.904052,3.25592304 C289.144443,5.44397163 290.238588,8.16569061 290.238588,11.474447 C290.238588,16.8116846 287.060358,21.0282143 281.849625,22.5224914 L293,38 L286.018316,38 L275.544748,23.0561618 L272.679131,23.0561618 L272.679131,38 L267,38 L267,0 Z" id="Fill-18" fill="#9E96B3"></path>
                <g id="Group-22" transform="translate(295.000000, 0.000000)">
                    <mask id="mask-4" fill="white">
                        <use xlink:href="#path-3"></use>
                    </mask>
                    <g id="Clip-21"></g>
                    <path d="M29.2207767,29.40795 C31.7317356,26.7195851 32.961037,23.5047203 32.961037,19.657423 C32.961037,15.8095986 31.7317356,12.5947338 29.2207767,9.90636892 C26.7098178,7.21853108 23.5572288,5.90096351 19.657763,5.90096351 C15.8101192,5.90096351 12.6580644,7.21853108 10.1471055,9.90636892 C7.63614658,12.5947338 6.40737945,15.8095986 6.40737945,19.657423 C6.40737945,23.5047203 7.63614658,26.7195851 10.1471055,29.40795 C12.6580644,32.0430851 15.8101192,33.3606527 19.657763,33.3606527 C23.5572288,33.3606527 26.7098178,32.0430851 29.2207767,29.40795 M33.3350096,5.90096351 C37.0747356,9.64285541 38.9445986,14.2285176 38.9445986,19.657423 C38.9445986,25.0858014 37.0747356,29.6714635 33.3350096,33.4133554 C29.5947493,37.1557743 25.0536534,39.0003689 19.657763,39.0003689 C14.314763,39.0003689 9.77313288,37.1030716 6.03340685,33.3606527 C2.29368082,29.6182338 0.423283562,25.0330986 0.423283562,19.657423 C0.423283562,14.2812203 2.29368082,9.69555811 6.03340685,5.95366622 C9.77313288,2.15854459 14.314763,0.261247297 19.657763,0.261247297 C25.0536534,0.261247297 29.5947493,2.15854459 33.3350096,5.90096351" id="Fill-20" fill="#9E96B3" mask="url(#mask-4)"></path>
                </g>
                <g id="Group-25" transform="translate(339.000000, 0.000000)">
                    <mask id="mask-6" fill="white">
                        <use xlink:href="#path-5"></use>
                    </mask>
                    <g id="Clip-24"></g>
                    <path d="M26.9452212,24.681711 C26.9452212,29.0091082 25.6471442,32.4822452 23.0504712,35.1000534 C20.5062404,37.7183959 17.3908558,39.0000534 13.7557212,39.0000534 C10.0691827,39.0000534 6.90135577,37.7183959 4.357125,35.1000534 C1.81289423,32.4822452 0.514817308,29.0091082 0.514817308,24.681711 L0.514817308,0.371889041 L6.17443269,0.371889041 L6.17443269,24.3077384 C6.17443269,29.9173274 9.44610577,33.1762315 13.7557212,33.1762315 C17.9614904,33.1762315 21.2331635,29.9173274 21.2331635,24.3077384 L21.2331635,0.371889041 L26.9452212,0.371889041 L26.9452212,24.681711 Z" id="Fill-23" fill="#9E96B3" mask="url(#mask-6)"></path>
                </g>
                <g id="Group-28" transform="translate(375.000000, 0.000000)">
                    <mask id="mask-8" fill="white">
                        <use xlink:href="#path-7"></use>
                    </mask>
                    <g id="Clip-27"></g>
                    <path d="M5.95281915,5.96214722 L5.95281915,19.262675 L10.7937766,19.262675 C15.6342021,19.262675 18.7730319,16.5710083 18.7730319,12.5065917 C18.7730319,8.54825833 15.4746277,5.96214722 10.7405851,5.96214722 L5.95281915,5.96214722 Z M0.154946809,0.367175 L10.8464362,0.367175 C15.2086702,0.367175 18.6134574,1.52828611 21.059734,3.85103611 C23.5070745,6.12048056 24.7304787,9.02325833 24.7304787,12.5065917 C24.7304787,16.6237861 23.3475,19.7382028 20.634734,21.7965361 C17.9214362,23.8548694 14.5171809,24.910425 10.3145213,24.910425 L5.95281915,24.910425 L5.95281915,37.9475917 L0.154946809,37.9475917 L0.154946809,0.367175 Z" id="Fill-26" fill="#9E96B3" mask="url(#mask-8)"></path>
                </g>
            </g>
        </g>
    </g>
</svg>