<?xml version="1.0" encoding="UTF-8"?>
<svg width="228px" height="48px" viewBox="0 0 228 48" version="1.1" xmlns="http://www.w3.org/2000/svg" xmlns:xlink="http://www.w3.org/1999/xlink">
    <!-- Generator: Sketch 55.2 (78181) - https://sketchapp.com -->
    <title>rambler_ru</title>
    <desc>Created with Sketch.</desc>
    <g id="Site" stroke="none" stroke-width="1" fill="none" fill-rule="evenodd">
        <g id="pouf-•-site" transform="translate(-481.000000, -6841.000000)" fill="#315EFB">
            <g id="Group-25" transform="translate(151.000000, 6695.000000)">
                <g id="Group-31" transform="translate(159.000000, 59.000000)">
                    <g id="rambler_ru" transform="translate(171.082418, 87.869822)">
                        <path d="M102.186451,30.5822131 C97.539453,30.5822131 95.5900098,26.9750231 95.5900098,23.4622767 C95.5900098,19.9495303 97.6015977,16.8827015 102.239887,16.8827015 C106.877781,16.8827015 108.537875,20.8668692 108.537875,23.7101415 C108.537875,26.5534138 106.833844,30.5822131 102.186451,30.5822131 L102.186451,30.5822131 Z M102.813835,10.8578333 C99.4077519,10.8578333 96.9742134,12.4621801 96.292601,12.9531278 C96.4802225,12.1218641 97.2148757,5.54149191 106.403581,5.54149191 L112.080123,5.54149191 L114.184334,-3.41060513e-13 L106.500955,-3.41060513e-13 C96.3717662,-3.41060513e-13 88.6753247,4.50898756 88.6753247,20.3687486 C88.6753247,29.0758964 92.5239413,36.0117275 101.986559,36.0117275 C110.985268,36.0117275 115.39952,29.6604908 115.39952,23.4826 C115.39952,14.5363542 108.564792,10.8578333 102.813835,10.8578333 L102.813835,10.8578333 Z M10.8206965,17.0552504 L7.31486524,17.0552504 L7.31486524,5.93640191 L10.9224238,5.93640191 C13.4850016,5.93640191 17.6209879,7.45307948 17.6209879,11.5193375 C17.6209879,15.6202646 13.4850016,17.0552504 10.8206965,17.0552504 L10.8206965,17.0552504 Z M11.424727,-3.41060513e-13 L2.84217094e-14,-3.41060513e-13 L2.84217094e-14,35.4299227 L7.31486524,35.4299227 L7.31486524,22.9382538 L11.2739173,22.9382538 C18.7376131,22.9382538 24.9888938,19.0907704 24.9888938,11.4962247 C24.9888938,3.90167894 18.7376131,-3.41060513e-13 11.424727,-3.41060513e-13 L11.424727,-3.41060513e-13 Z M132.560162,10.8578333 L141.890178,35.4299227 L134.31288,35.4299227 L128.892834,19.7586505 L128.799023,19.7586505 L123.396789,35.4299227 L115.846012,35.4299227 L125.176027,10.8578333 L132.560162,10.8578333 Z M227.843407,-3.41060513e-13 L209.944549,47.1301775 L202.650662,47.1301775 L220.545958,-3.41060513e-13 L227.843407,-3.41060513e-13 Z M78.2263088,10.8578333 L84.2594893,10.8578333 L84.2594893,35.4299227 L77.197557,35.4299227 L77.197557,21.0342377 L70.3525372,29.6859945 L68.4383225,29.6859945 L68.2788046,29.4919268 L61.5394704,21.1533881 L61.5394704,35.4299227 L54.4739756,35.4299227 L54.4739756,10.8578333 L60.5111144,10.8578333 L60.6662782,11.0403447 L69.4381791,21.228704 L78.2263088,10.8578333 Z M42.076704,25.1857739 C42.076704,28.5466931 40.1367606,30.8623561 36.3787881,30.8623561 C32.7439176,30.8623561 32.4355691,28.7973474 32.4355691,28.0103169 C32.4355691,26.1927745 34.1415793,24.9813452 38.2031503,24.6234954 C39.3217547,24.5246683 40.4645045,24.4768487 41.5953795,24.4768487 L42.076704,24.4768487 L42.076704,25.1857739 Z M48.6897697,22.5118626 C48.6897697,22.0165315 48.6818531,21.5415237 48.6608744,21.0816588 C48.315714,13.4289325 44.9650466,10.2760285 37.7337007,10.2760285 C32.8373325,10.2760285 29.6537037,12.2063454 28.533516,12.9929774 L30.4406059,18.0132359 C30.4406059,18.0132359 33.4172177,15.5656706 37.1787526,15.5656706 C42.5006337,15.5656706 41.9745809,19.81444 41.9745809,19.81444 C40.1545727,19.8303798 25.6720895,19.1031238 25.6720895,28.2043847 C25.6720895,33.2533349 29.9838226,36.0117275 34.8231918,36.0117275 C39.1281958,36.0117275 41.444174,33.920418 42.2077224,33.1082822 C42.2116807,33.2190642 42.3585321,35.4295242 42.3585321,35.4295242 L48.9383484,35.4295242 C48.9383484,35.4295242 48.6897697,33.2979665 48.6897697,29.9593631 L48.6897697,22.5118626 Z M185.875159,30.5838071 C181.208766,30.5838071 178.632334,26.7522635 178.632334,23.0944644 C178.632334,19.4370638 181.265765,15.6047233 185.875159,15.6047233 C190.484157,15.6047233 193.009528,18.9369508 193.009528,23.0944644 C193.009528,27.2519781 190.541552,30.5838071 185.875159,30.5838071 L185.875159,30.5838071 Z M186.759434,10.27563 C182.251767,10.27563 179.534026,12.6522629 178.734061,13.4998649 L178.734061,10.8574348 L171.921895,10.8574348 L171.921895,47.1122452 L178.983036,47.1122452 L178.983036,33.02141 C179.783,33.8458992 182.594949,36.0117275 186.759434,36.0117275 C193.291356,36.0117275 199.298807,31.2903413 199.298807,23.0944644 C199.298807,14.5220084 192.686138,10.27563 186.759434,10.27563 L186.759434,10.27563 Z M149.331707,20.3966433 C149.530016,18.7456724 151.270067,15.4250014 155.560822,15.4250014 C160.338838,15.4250014 161.112282,19.0417553 161.226676,20.3966433 L149.331707,20.3966433 Z M155.560822,10.27563 C147.6633,10.27563 142.299066,15.8768964 142.299066,23.19369 C142.299066,30.5100852 147.728216,36.0117275 155.809796,36.0117275 C163.891376,36.0117275 167.337042,30.4622657 167.337042,30.4622657 L162.190116,27.1109103 C162.190116,27.1109103 160.432253,30.5822131 155.858879,30.5822131 C151.14934,30.5822131 149.254125,26.694083 149.254125,25.2096837 L167.916927,25.2096837 C167.916927,25.2096837 168.018655,24.1361342 168.018655,23.8233145 L168.018655,22.9952388 C168.018655,15.7477835 163.457947,10.27563 155.560822,10.27563 L155.560822,10.27563 Z" id="logo"></path>
                    </g>
                </g>
            </g>
        </g>
    </g>
</svg>