<?xml version="1.0" encoding="UTF-8"?>
<svg width="222px" height="72px" viewBox="0 0 222 72" version="1.1" xmlns="http://www.w3.org/2000/svg" xmlns:xlink="http://www.w3.org/1999/xlink">
    <!-- Generator: Sketch 55.2 (78181) - https://sketchapp.com -->
    <title>YOUNG_logo</title>
    <desc>Created with Sketch.</desc>
    <g id="Page-1" stroke="none" stroke-width="1" fill="none" fill-rule="evenodd">
        <g id="Artboard" transform="translate(-469.000000, -1918.000000)" fill-rule="nonzero">
            <g id="Group-4" transform="translate(40.000000, 1685.000000)">
                <g id="Group-3" transform="translate(49.000000, 116.000000)">
                    <g id="YOUNG_logo" transform="translate(380.000000, 117.000000)">
                        <path d="M59.9471947,39.0530035 C58.8184818,36.8904594 58.8184818,34.9823322 59.9471947,32.819788 C64.4620462,23.9151943 68.7260726,15.0106007 73.1155116,6.10600707 C74.1188119,4.19787986 74.9966997,2.16254417 76,0 L0,0 L0,72 L76,72 C75.4983498,70.9823322 75.2475248,70.0918728 74.8712871,69.3286219 C69.8547855,59.2791519 64.9636964,49.1024735 59.9471947,39.0530035 Z M7.77557756,63.9858657 L7.77557756,7.75971731 L63.5841584,7.75971731 C61.5775578,11.8303887 59.8217822,15.6466431 57.9405941,19.4628975 C55.6831683,23.9151943 53.5511551,28.4946996 51.2937294,32.9469965 C50.1650165,34.9823322 50.1650165,36.7632509 51.2937294,38.9257951 C55.0561056,46.1766784 58.5676568,53.6819788 62.0792079,60.9328622 C62.5808581,61.8233216 62.9570957,62.8409894 63.4587459,63.9858657 L7.77557756,63.9858657 L7.77557756,63.9858657 Z M45.7755776,28.7491166 C45.650165,24.4240283 44.2706271,21.1166078 41.7623762,19.0812721 C39.1287129,17.0459364 35.7425743,15.9010601 31.4785479,15.9010601 L16.0528053,15.9010601 L16.0528053,54.9540636 L25.960396,54.9540636 L25.960396,42.4876325 L27.5907591,42.4876325 L36.4950495,54.9540636 L36.4950495,54.9540636 L48.660066,54.9540636 L38.1254125,41.5971731 C43.1419142,39.9434629 45.7755776,35.6183746 45.7755776,28.7491166 Z M35.6171617,31.8021201 C34.8646865,33.3286219 33.4851485,34.0918728 31.4785479,34.0918728 L25.709571,34.0918728 L25.709571,34.0918728 L25.709571,25.1872792 L31.4785479,25.1872792 C33.359736,25.1872792 34.7392739,25.95053 35.6171617,27.4770318 C36.4950495,28.8763251 36.4950495,30.2756184 35.6171617,31.8021201 Z" id="Shape" fill="#EFB815"></path>
                        <path d="M210.662109,28.5384615 C211.166016,28.5384615 211.543945,28.5384615 211.921875,28.6666667 C213.055664,29.0512821 214.189453,29.6923077 214.693359,31.1025641 L220.740234,28.2820513 C218.850586,23.6666667 214.441406,22.1282051 210.788086,22.1282051 C205.119141,22.1282051 199.450195,25.4615385 199.450195,32 L199.450195,42 C199.450195,48.6666667 205.119141,52 210.788086,52 C216.457031,52 222,48.6666667 222,42 L222,34.8205128 L210.536133,34.8205128 L210.536133,40.974359 L215.071289,40.974359 L215.071289,42 C215.071289,46.4871795 206.756836,46.6153846 206.756836,42 L206.756836,32 C206.756836,30.2051282 208.394531,28.9230769 210.158203,28.6666667 C210.28418,28.5384615 210.410156,28.5384615 210.662109,28.5384615 L210.662109,28.5384615 Z M173.373047,51.3589744 L180.553711,51.3589744 L180.553711,39.6923077 L179.671875,34.0512821 L179.923828,34.0512821 L182.443359,39.8205128 L188.868164,51.2307692 L196.174805,51.2307692 L196.174805,22.3846154 L188.994141,22.3846154 L188.994141,35.5897436 L189.120117,36.3589744 L189.624023,39.8205128 C189.75,40.3333333 189.75,40.5897436 189.75,40.5897436 L189.498047,40.5897436 L187.104492,34.8205128 L180.175781,22.3846154 L173.373047,22.3846154 L173.373047,51.3589744 Z M154.224609,22.3846154 L146.917969,22.3846154 L146.917969,41.7435897 C146.917969,55.3333333 169.719727,55.3333333 169.719727,41.7435897 L169.719727,22.3846154 L162.413086,22.3846154 L162.413086,41.7435897 C162.413086,46.3589744 154.224609,46.4871795 154.224609,41.7435897 L154.224609,22.3846154 L154.224609,22.3846154 Z M127.391602,31.8717949 C127.391602,29.6923077 129.65918,28.5384615 131.926758,28.5384615 C134.320312,28.5384615 136.587891,29.5641026 136.587891,31.8717949 L136.587891,41.7435897 C136.587891,43.7948718 134.194336,44.9487179 132.052734,44.9487179 C129.785156,44.9487179 127.391602,43.9230769 127.391602,41.7435897 L127.391602,31.8717949 Z M120.210937,41.8717949 C120.210937,48.5384615 126.131836,51.8717949 132.052734,51.8717949 C137.973633,51.8717949 143.894531,48.5384615 143.894531,41.8717949 L143.894531,32 C143.894531,25.3333333 137.973633,22 132.052734,22 C126.131836,22 120.210937,25.3333333 120.210937,32 L120.210937,41.8717949 Z M110.258789,51.3589744 L110.258789,39.9487179 L120.210937,22.3846154 L111.770508,22.3846154 L106.605469,33.025641 L101.44043,22.3846154 L93,22.3846154 L102.952148,39.9487179 L102.952148,51.3589744 L110.258789,51.3589744 Z" id="Shape" fill="#383838"></path>
                    </g>
                </g>
            </g>
        </g>
    </g>
</svg>