<?xml version="1.0" encoding="UTF-8"?>
<svg width="171px" height="52px" viewBox="0 0 171 52" version="1.1" xmlns="http://www.w3.org/2000/svg" xmlns:xlink="http://www.w3.org/1999/xlink">
    <!-- Generator: Sketch 55.2 (78181) - https://sketchapp.com -->
    <title>Logo_SE_Green_P355C</title>
    <desc>Created with Sketch.</desc>
    <defs>
        <polygon id="path-1" points="0.42792998 0.441314095 110.016089 0.441314095 110.016089 51.035461 0.42792998 51.035461"></polygon>
    </defs>
    <g id="Site" stroke="none" stroke-width="1" fill="none" fill-rule="evenodd">
        <g id="pouf-•-site" transform="translate(-539.000000, -6390.000000)">
            <g id="Group-26" transform="translate(151.000000, 6327.000000)">
                <g id="Group-30" transform="translate(132.000000, 63.000000)">
                    <g id="Logo_SE_Green_P355C" transform="translate(256.800000, 0.000000)">
                        <polyline id="Fill-1" fill="#009D49" points="83 33.1831661 76.5652174 33.1831661 76.5652174 37.9838154 82.776659 37.9838154 82.776659 40.0470753 76.5652174 40.0470753 76.5652174 45.0102466 83.2 45.0102466 83.2 47.0744681 74.4 47.0744681 74.4 31.1170213 83 31.1170213 83 33.1831661"></polyline>
                        <polygon id="Fill-2" fill="#009D49" points="88 47.0744681 90.4 47.0744681 90.4 31.1170213 88 31.1170213"></polygon>
                        <path d="M100.217161,38.3991376 C101.711915,38.3991376 102.634242,39.3546469 102.70793,40.8668521 L97.3520943,40.8668521 C97.6351362,39.2893948 98.6052867,38.3991376 100.217161,38.3991376 Z M97.306222,42.1778254 L104.8,42.1778254 C104.8,38.4876614 102.995364,36.7021277 100.171289,36.7021277 C97.2330216,36.7021277 95.2,38.7336115 95.2,41.7557404 C95.2,44.5159483 97.0431883,47.0744681 100.361122,47.0744681 C102.161366,47.0744681 103.327206,46.6957323 104.610167,45.8971931 L104.610167,43.9820678 C103.376007,44.7395393 102.161366,45.1858087 100.883286,45.1858087 C98.8458723,45.1858087 97.6351362,44.160028 97.306222,42.1778254 L97.306222,42.1778254 Z" id="Fill-3" fill="#009D49"></path>
                        <path d="M117.377449,39.5180052 C116.248766,38.7422814 115.496006,38.5132147 114.632654,38.5132147 C112.839049,38.5132147 111.596132,39.8958284 111.596132,41.9149919 C111.596132,43.9802426 112.928706,45.2241386 114.963523,45.2241386 C115.805939,45.2241386 116.6033,45.0014602 117.6,44.5561034 L117.6,46.5004324 C116.935078,46.8098094 115.673501,47.0744681 114.632654,47.0744681 C111.664854,47.0744681 109.6,45.0238193 109.6,42.0934084 C109.6,38.7897374 111.490545,36.7021277 114.500216,36.7021277 C115.650745,36.7021277 116.424895,36.9686116 117.377449,37.3884151 L117.377449,39.5180052" id="Fill-4" fill="#009D49"></path>
                        <path d="M126.419087,36.4623378 L129.84525,36.4623378 L129.84525,38.3097667 L126.419087,38.3097667 L126.419087,43.6474708 C126.419087,44.8768698 127.333259,45.2251361 127.963859,45.2251361 C128.736246,45.2251361 129.529454,44.9696456 130.4,44.4605679 L130.4,46.3793628 C129.65141,46.7733034 128.493326,47.0744681 127.794311,47.0744681 C125.457817,47.0744681 124.283374,45.6861607 124.283374,43.8082823 L124.283374,38.3097667 L122.4,38.3097667 L122.4,38.0804438 L126.419087,34.3085106 L126.419087,36.4623378" id="Fill-5" fill="#009D49"></path>
                        <path d="M137.946349,36.9002097 L137.946349,39.2553406 L137.989711,39.2553406 C138.976662,37.4526077 139.924316,36.7021277 140.847127,36.7021277 C141.638494,36.7021277 142.383789,37.0885272 143.2,37.8822505 L142.166073,39.6487149 C141.572095,39.046564 140.801054,38.6266857 140.343488,38.6266857 C139.002409,38.6266857 137.946349,40.0337195 137.946349,41.7699601 L137.946349,47.0744681 L136,47.0744681 L136,36.9002097 L137.946349,36.9002097" id="Fill-6" fill="#009D49"></path>
                        <polygon id="Fill-7" fill="#009D49" points="148.8 47.0744681 151.2 47.0744681 151.2 36.7021277 148.8 36.7021277"></polygon>
                        <path d="M164.57889,39.5180052 C163.447407,38.7422814 162.696724,38.5132147 161.831847,38.5132147 C160.039763,38.5132147 158.8,39.8958284 158.8,41.9149919 C158.8,43.9802426 160.127571,45.2241386 162.165332,45.2241386 C163.005641,45.2241386 163.80182,45.0014602 164.8,44.5561034 L164.8,46.5004324 C164.135305,46.8098094 162.874158,47.0744681 161.831847,47.0744681 C158.866879,47.0744681 156.8,45.0238193 156.8,42.0934084 C156.8,38.7897374 158.68899,36.7021277 161.700364,36.7021277 C162.85323,36.7021277 163.626206,36.9686116 164.57889,37.3884151 L164.57889,39.5180052" id="Fill-8" fill="#009D49"></path>
                        <g id="Group-13" transform="translate(40.800000, 0.000000)">
                            <mask id="mask-2" fill="white">
                                <use xlink:href="#path-1"></use>
                            </mask>
                            <g id="Clip-10"></g>
                            <path d="M109.964062,32.8052009 C110.153251,33.3106383 109.810256,34.0160757 109.198338,34.3768322 C108.587364,34.7371158 107.935815,34.6208038 107.746154,34.1167849 C107.555549,33.6141844 107.897128,32.9115839 108.510933,32.5475177 C109.121908,32.1839243 109.772513,32.301182 109.964062,32.8052009" id="Fill-9" fill="#009D49" mask="url(#mask-2)"></path>
                            <path d="M1.0950359,39.1205674 C1.20921026,38.7574468 1.33895385,38.3933806 1.48237949,38.0283688 L1.48049231,38.0283688 C1.33659487,38.3933806 1.20873846,38.7574468 1.0950359,39.1205674 Z M25.0197538,40.0004728 C24.8249026,40.3678487 24.6154256,40.7338061 24.3917949,41.0969267 C24.6158974,40.7338061 24.8244308,40.3678487 25.0197538,40.0004728 Z M22.5300923,33.6761229 L19.2162051,33.6761229 C18.8642462,33.6761229 18.7113846,33.7390071 18.5684308,33.9026005 C18.5108718,33.9650118 18.4858667,34.0297872 18.4684103,34.1574468 L16.6562462,41.0335697 C16.2321026,43.4425532 13.2777231,45.8501182 9.42787692,45.8501182 L4.07017436,45.8501182 L5.00008205,42.3163121 L8.43993846,42.3163121 C8.79189744,42.3163121 9.06648205,42.1886525 9.29483077,41.9300236 C9.38116923,41.8359338 9.49062564,41.6751773 9.50666667,41.5134752 L10.9305436,35.5073286 C11.355159,33.0964539 13.8976615,30.4312057 17.7484513,30.4312057 L23.2325949,30.4312057 L22.5300923,33.6761229 Z M24.8310359,27.4747045 C20.8802256,23.5148936 12.6096615,24.8624113 6.4489641,30.764539 C5.4832,31.6898345 4.6278359,32.6737589 3.88664615,33.6898345 L7.28781538,33.6898345 L6.50746667,35.9182033 L2.4745641,35.9182033 C2.6774359,35.5446809 2.89634872,35.1735225 3.12894359,34.8052009 C2.4566359,35.8652482 1.90699487,36.9484634 1.48237949,38.0283688 L6.23382564,38.0283688 L5.47565128,40.2548463 L0.783651282,40.2548463 C-0.0141538462,43.6643026 0.514728205,46.8373522 2.52504615,48.8524823 C6.42773333,52.7640662 14.6709333,51.3900709 20.831159,45.4855792 C21.9106256,44.4510638 22.8528,43.3475177 23.6572103,42.2099291 L19.2940513,42.2099291 L19.9470154,39.9825059 L25.0287179,39.9825059 C25.4004923,39.2813239 25.7198974,38.5749409 25.9845744,37.8723404 L20.4546667,37.8723404 L21.0670564,35.6477541 L26.6441436,35.6477541 C27.3334359,32.4189125 26.7856821,29.4345154 24.8310359,27.4747045 Z M25.9878769,37.8643026 C26.125641,37.4969267 26.2497231,37.1304965 26.3577641,36.7654846 C26.2492513,37.1300236 26.1261128,37.4973995 25.9878769,37.8643026 Z" id="Fill-11" fill="#009D49" mask="url(#mask-2)"></path>
                            <path d="M67.9743179,1.75319149 C68.5069744,3.16595745 67.548759,5.13191489 65.8347282,6.14184397 C64.1206974,7.15650118 62.3038154,6.83546099 61.7739897,5.42269504 C61.2403897,4.00945626 62.1967179,2.04586288 63.9079179,1.03167849 C65.6219487,0.0193853428 67.4407179,0.340425532 67.9743179,1.75319149" id="Fill-12" fill="#009D49" mask="url(#mask-2)"></path>
                        </g>
                        <path d="M87.9752068,16.2923758 C88.2096212,13.7355221 89.6632735,12.2543533 91.9027093,12.2543533 C94.1015824,12.2543533 95.5957973,13.7758783 95.8287968,16.2923758 L87.9752068,16.2923758 Z M91.5093459,8.80197623 C85.930566,8.80197623 81.9639159,12.8140555 81.9639159,18.4663261 C81.9639159,24.1493443 86.0871568,27.917845 92.4517201,27.917845 C93.865753,27.917845 97.2777325,27.917845 100.52982,25.4729317 L100.52982,21.8687384 C97.8673059,23.7991101 96.1051888,24.4659483 93.8280203,24.4659483 C90.2519036,24.4659483 88.0544454,22.5754524 87.8582354,19.3469561 L100.843001,19.3469561 C101.116563,12.6165983 96.768341,8.80197623 91.5093459,8.80197623 Z M124.529704,22.5447048 C123.349614,23.6232724 122.36762,24.0638276 121.147911,24.0638276 C118.474077,24.0638276 116.784595,21.8230974 116.784595,18.4591196 C116.784595,14.7780574 118.474077,12.6569545 121.344121,12.6569545 C122.36762,12.6569545 123.702414,13.1402681 124.529704,13.7379243 L124.529704,22.5447048 Z M124.529704,9.95212803 C122.994455,9.19496878 121.461564,8.79717192 119.810758,8.79717192 C114.63619,8.79717192 111.045452,12.6973107 111.045452,18.3399727 C111.045452,23.8634879 114.63619,27.9255319 119.49569,27.9255319 C121.423359,27.9255319 122.917574,27.406186 124.529704,26.094129 L124.529704,27.5825042 L130.21272,27.5825042 L130.21272,0.340145143 L124.529704,0.340145143 L124.529704,9.95212803 Z M138.615321,16.2923758 C138.849264,13.7355221 140.305746,12.2543533 142.542352,12.2543533 C144.742168,12.2543533 146.23544,13.7758783 146.469383,16.2923758 L138.615321,16.2923758 Z M142.151819,8.80197623 C136.570209,8.80197623 132.601672,12.8140555 132.601672,18.4663261 C132.601672,24.1493443 136.729629,27.917845 143.091363,27.917845 C144.505396,27.917845 147.918318,27.917845 151.175122,25.4729317 L151.175122,21.8687384 C148.509779,23.7991101 146.742945,24.4659483 144.468606,24.4659483 C140.894376,24.4659483 138.695503,22.5754524 138.49835,19.3469561 L151.485474,19.3469561 C151.760922,12.6165983 147.410814,8.80197623 142.151819,8.80197623 Z M165.83522,8.78516114 C163.637762,8.78516114 161.755843,10.5853361 160.071078,14.4210971 L159.990896,14.4210971 L159.990896,9.12098241 L154.308823,9.12098241 L154.308823,27.5632869 L159.990896,27.5632869 L159.990896,19.602065 C161.248338,16.2188699 162.581246,14.2212378 164.661261,14.2212378 C165.558828,14.2212378 166.540821,14.6209564 168.032206,15.577975 L169.6,10.463787 C167.952968,9.22571636 166.975691,8.78516114 165.83522,8.78516114 Z M103.042817,27.5849063 L108.726777,27.5849063 L108.726777,9.13971922 L103.042817,9.13971922 L103.042817,27.5849063 Z M6.85556007,7.22856472 C6.85556007,5.87134717 8.39599757,4.99744319 10.8061738,4.99744319 C13.0989071,4.99744319 15.4128649,5.67148788 19.2908433,7.42602186 L19.2908433,2.11870068 C15.9250864,0.640414514 13.2158784,0 10.2123555,0 C3.99447803,0 0,3.11655585 0,7.82333829 C0,17.5871374 13.6502762,15.9541524 13.6502762,20.4183172 C13.6502762,22.0133481 12.266901,22.9304909 9.69777575,22.9304909 C6.7362304,22.9304909 4.38736978,22.0133481 0.55136909,19.4209425 L0.55136909,25.2874853 C3.21152449,26.6874612 5.52312407,27.9255319 10.2123555,27.9255319 C16.1958185,27.9255319 20.5063079,24.8872863 20.5063079,19.6640406 C20.5063079,10.1736067 6.85556007,11.3328867 6.85556007,7.22856472 Z M27.8901258,18.3683182 C27.8901258,15.1403023 30.0871123,13.0542709 33.500035,13.0542709 C34.9117097,13.0542709 36.6365658,13.4972283 38.1279508,14.3019502 L38.1279508,9.99008207 C36.246504,9.27616162 33.8905685,8.79717192 32.0459111,8.79717192 C26.0855593,8.79717192 21.8151609,12.7761014 21.8151609,18.4062722 C21.8151609,24.1469422 25.9289686,27.917845 32.2845704,27.917845 C34.2037499,27.917845 36.1271743,27.5157243 38.4015129,26.6730483 L38.4015129,22.5110746 C35.8937032,23.4661714 34.677767,23.7875798 33.3033533,23.7875798 C30.0498512,23.7875798 27.8901258,21.6323663 27.8901258,18.3683182 Z M52.2366793,8.80197623 C50.0019601,8.80197623 48.1601326,9.76379908 46.5121569,11.8853823 L46.4352765,11.8853823 L46.4352765,0.340145143 L40.7550901,0.340145143 L40.7550901,27.5849063 L46.4352765,27.5849063 L46.4352765,15.8446142 C47.7700708,13.8873383 48.9058251,13.0494666 50.2382611,13.0494666 C52.0027365,13.0494666 53.1762235,14.3254914 53.1762235,17.0831653 L53.1762235,23.6626677 C55.1029495,22.8401699 57.0315622,22.3405216 58.8606549,22.1810185 L58.8606549,15.8446142 C58.8606549,10.847171 55.5302724,8.80197623 52.2366793,8.80197623 Z M73.1240874,8.79717192 C70.8077712,8.79717192 69.0404659,9.67107589 67.2311829,11.7825701 L67.2311829,9.13971922 L61.5491098,9.13971922 C61.5491098,9.13971922 61.5491098,17.1768493 61.5491098,22.2016771 C63.7795841,22.4442947 65.7482877,23.2778425 67.2311829,24.7273028 C67.2311829,21.2754061 67.2311829,15.6971218 67.2311829,15.6971218 C68.7249262,13.4189181 69.7861584,12.6569545 71.197833,12.6569545 C72.810906,12.6569545 74.0306155,13.7379243 74.0306155,16.3375364 L74.0306155,27.5849063 L79.7131603,27.5849063 L79.7131603,15.8590271 C79.7131603,10.4282351 75.949795,8.79717192 73.1240874,8.79717192 L73.1240874,8.79717192 Z" id="Fill-14" fill="#009D49"></path>
                        <polyline id="Fill-15" fill="#009D49" points="168 34.5142086 167.336957 34.5142086 167.336957 35.9042553 167.0625 35.9042553 167.0625 34.5142086 166.4 34.5142086 166.4 34.3085106 168 34.3085106 168 34.5142086"></polyline>
                        <polyline id="Fill-16" fill="#009D49" points="169.6 35.9042553 169.353546 35.9042553 169.353546 34.6619124 169.348189 34.6619124 168.819726 35.2799123 168.779787 35.2799123 168.251324 34.6619124 168.246941 34.6619124 168.246941 35.9042553 168 35.9042553 168 34.3085106 168.231355 34.3085106 168.799756 34.9636631 169.371081 34.3085106 169.6 34.3085106 169.6 35.9042553"></polyline>
                    </g>
                </g>
            </g>
        </g>
    </g>
</svg>