<?xml version="1.0" encoding="UTF-8"?>
<svg width="223px" height="43px" viewBox="0 0 223 43" version="1.1" xmlns="http://www.w3.org/2000/svg" xmlns:xlink="http://www.w3.org/1999/xlink">
    <!-- Generator: Sketch 55.2 (78181) - https://sketchapp.com -->
    <title>Group 8</title>
    <desc>Created with Sketch.</desc>
    <defs>
        <polygon id="path-1" points="6.82389937e-05 0.454039785 43.553606 0.454039785 43.553606 42.1666667 6.82389937e-05 42.1666667"></polygon>
    </defs>
    <g id="Site" stroke="none" stroke-width="1" fill="none" fill-rule="evenodd">
        <g id="pouf-•-site" transform="translate(-678.000000, -5957.000000)">
            <g id="Group-27" transform="translate(151.000000, 5797.000000)">
                <g id="Group-28" transform="translate(83.000000, 71.000000)">
                    <g id="Group-8" transform="translate(444.000000, 89.000000)">
                        <path d="M213.553812,19.3510557 C215.133233,21.5840485 218.808792,26.5666016 221.484277,29.2847306 L213.908501,29.2847306 C213.360469,28.0869226 212.55442,26.1135801 210.200946,22.5543208 L206.783405,17.4098278 L209.749586,13.5588035 C211.523031,11.2622647 213.811149,8.18814143 214.424536,6.63502249 L219.710832,6.63502249 L219.710832,6.66782043 C217.583379,7.89705974 214.005173,11.5212317 212.973103,12.6534438 L210.62031,15.1775183 L213.553812,19.3510557 Z M201.561784,9.15841371 C201.561784,7.92917439 201.399758,7.60597806 200.271697,7.34701102 L200.271697,6.63502249 L207.686807,6.63502249 L207.686807,7.34701102 C206.558066,7.60597806 206.39672,7.92917439 206.39672,9.15841371 L206.39672,26.7606561 C206.39672,27.9905787 206.558066,28.313775 207.686807,28.5727421 L207.686807,29.2847306 L200.271697,29.2847306 L200.271697,28.5727421 C201.399758,28.313775 201.561784,27.9905787 201.561784,26.7606561 L201.561784,9.15841371 Z M190.568468,17.6038823 L181.864632,17.6038823 L181.864632,26.7606561 C181.864632,27.9905787 182.025297,28.313775 183.154039,28.5727421 L183.154039,29.2847306 L175.738928,29.2847306 L175.738928,28.5727421 C176.86767,28.313775 177.028335,27.9905787 177.028335,26.7606561 L177.028335,9.15841371 C177.028335,7.92917439 176.86767,7.60597806 175.738928,7.34701102 L175.738928,6.63502249 L183.154039,6.63502249 L183.154039,7.34701102 C182.025297,7.60597806 181.864632,7.92917439 181.864632,9.15841371 L181.864632,16.1156759 L190.568468,16.1156759 L190.568468,9.15841371 C190.568468,7.92917439 190.407122,7.60597806 189.279061,7.34701102 L189.279061,6.63502249 L196.693491,6.63502249 L196.693491,7.34701102 C195.56543,7.60597806 195.404084,7.92917439 195.404084,9.15841371 L195.404084,26.7606561 C195.404084,27.9905787 195.56543,28.313775 196.693491,28.5727421 L196.693491,29.2847306 L189.279061,29.2847306 L189.279061,28.5727421 C190.407122,28.313775 190.568468,27.9905787 190.568468,26.7606561 L190.568468,17.6038823 Z M165.294325,19.5772248 L162.26347,10.4532489 L159.136625,19.5772248 L165.294325,19.5772248 Z M168.259824,29.2847306 C168.067162,28.054808 167.357784,25.7897005 166.745078,23.9776145 L165.777682,21.0982291 L158.62127,21.0982291 C157.879896,23.3633365 157.331864,25.2075372 157.041168,26.5016891 C156.783151,27.7958409 156.589808,28.7667965 156.557811,29.2847306 L152.46357,29.2847306 C153.011602,28.4108023 154.042991,26.4046618 155.590416,22.6192334 L159.749331,12.3295642 C160.684049,10.032342 160.845395,9.32035352 160.845395,8.67327757 C160.845395,8.22025607 160.716727,7.60597806 159.555988,7.34701102 L159.555988,6.63502249 L166.003703,6.63502249 C166.100374,7.31421309 166.164368,8.0911142 166.841749,9.99954411 L171.580694,23.557391 C172.515412,26.2106074 173.514804,28.4757148 173.998161,29.2847306 L168.259824,29.2847306 Z M142.66367,27.8607535 C145.597173,27.8607535 146.757911,25.8867277 146.757911,21.9393595 C146.757911,18.2509582 145.758519,16.1799052 141.954292,16.1799052 L139.987504,16.1799052 L139.987504,25.8867277 C139.987504,27.3428195 140.37419,27.8607535 141.986289,27.8607535 L142.66367,27.8607535 Z M141.599603,8.05899955 C140.180847,8.05899955 139.987504,8.41499382 139.987504,9.3852661 L139.987504,14.7566114 L141.244914,14.7566114 C147.434611,14.7566114 151.818867,15.4679167 151.818867,21.7131904 C151.818867,27.7958409 148.402007,29.2847306 142.88901,29.2847306 L133.862481,29.2847306 L133.862481,28.5727421 C134.990542,28.313775 135.151888,27.9905787 135.151888,26.7606561 L135.151888,9.15841371 C135.151888,7.92917439 134.990542,7.60597806 133.862481,7.34701102 L133.862481,6.63502249 L150.658128,6.63502249 C150.594134,8.28516866 150.594134,9.90320018 150.658128,11.5533463 L149.432715,11.5533463 L149.143382,10.6145054 C148.434004,8.28516866 147.627954,8.05899955 144.694452,8.05899955 L141.599603,8.05899955 Z M123.063189,18.8980342 C126.061366,18.8980342 126.770063,16.4716702 126.770063,12.9445255 C126.770063,9.96811276 125.738674,8.05899955 122.7085,8.05899955 L122.192465,8.05899955 C121.225069,8.05899955 120.77439,8.22025607 120.77439,9.28823887 L120.77439,18.8980342 L123.063189,18.8980342 Z M114.649367,29.2847306 L114.649367,28.5727421 C115.777428,28.313775 115.938774,27.9905787 115.938774,26.7606561 L115.938774,9.15841371 C115.938774,7.92917439 115.777428,7.60597806 114.649367,7.34701102 L114.649367,6.63502249 L123.997907,6.63502249 C128.478834,6.63502249 131.8317,7.70300529 131.8317,13.1385799 C131.8317,18.6711818 128.478834,20.3213279 123.030511,20.3213279 L120.77439,20.3213279 L120.77439,26.7606561 C120.77439,27.9905787 120.935055,28.313775 122.063797,28.5727421 L122.063797,29.2847306 L114.649367,29.2847306 Z M102.75333,8.05899955 C101.786615,8.05899955 101.625269,8.31796659 101.625269,9.09418442 L101.625269,16.1156759 L104.623446,16.1156759 C105.880175,16.1156759 107.846963,15.9858508 108.620335,15.435802 L108.620335,18.2837562 C107.846963,17.7330242 105.880175,17.6038823 104.623446,17.6038823 L101.625269,17.6038823 L101.625269,26.0486676 C101.625269,27.407732 102.173301,27.8607535 105.139481,27.8607535 L105.783504,27.8607535 C108.717007,27.8607535 109.491059,27.6666991 110.135763,24.8515429 L110.329786,24.0104125 L111.747861,24.0104125 C111.683187,25.7575859 111.683187,27.5368739 111.747861,29.2847306 L95.5002465,29.2847306 L95.5002465,28.5727421 C96.6283073,28.313775 96.7896533,27.9905787 96.7896533,26.7606561 L96.7896533,9.15841371 C96.7896533,7.92917439 96.6283073,7.60597806 95.5002465,7.34701102 L95.5002465,6.63502249 L111.231826,6.63502249 C111.167152,8.28516866 111.167152,9.90320018 111.231826,11.5533463 L110.007094,11.5533463 L109.71708,10.6145054 C109.007702,8.28516866 108.201652,8.05899955 105.267469,8.05899955 L102.75333,8.05899955 Z M83.7975524,27.8607535 C86.7310549,27.8607535 87.8917934,25.8867277 87.8917934,21.9393595 C87.8917934,18.2509582 86.892401,16.1799052 83.0888552,16.1799052 L81.1220673,16.1799052 L81.1220673,25.8867277 C81.1220673,27.3428195 81.5087532,27.8607535 83.1208521,27.8607535 L83.7975524,27.8607535 Z M82.7341662,8.05899955 C81.3154102,8.05899955 81.1220673,8.41499382 81.1220673,9.3852661 L81.1220673,14.7566114 L82.3794772,14.7566114 C88.5691744,14.7566114 92.9534299,15.4679167 92.9534299,21.7131904 C92.9534299,27.7958409 89.5358891,29.2847306 84.023573,29.2847306 L74.9970446,29.2847306 L74.9970446,28.5727421 C76.1251054,28.313775 76.2864514,27.9905787 76.2864514,26.7606561 L76.2864514,9.15841371 C76.2864514,7.92917439 76.1251054,7.60597806 74.9970446,7.34701102 L74.9970446,6.63502249 L91.7926914,6.63502249 C91.7280168,8.28516866 91.7280168,9.90320018 91.7926914,11.5533463 L90.5679592,11.5533463 L90.277264,10.6145054 C89.567886,8.28516866 88.7618366,8.05899955 85.828334,8.05899955 L82.7341662,8.05899955 Z M72.256885,26.242722 L72.966263,27.6017865 C70.9028036,28.9287363 68.1299663,29.6728395 65.2611383,29.6728395 C58.4914122,29.6728395 54.591195,26.0486676 54.591195,18.2509582 C54.591195,10.7771285 57.7173597,6.24691358 65.7124988,6.24691358 C69.2587078,6.24691358 71.6441785,7.0231314 72.2888819,7.28209844 C72.2242073,8.80241944 72.2242073,10.4853635 72.2888819,12.0063678 L70.8381291,12.0063678 L70.4514432,10.5823908 C69.9360889,8.90012996 68.9360158,7.73511994 65.8738448,7.73511994 C61.0702258,7.73511994 59.8454936,11.2943793 59.8454936,17.4098278 C59.8454936,23.2341947 61.0382289,27.5696718 66.6152197,27.5696718 C69.2587078,27.5696718 70.9028036,26.9225959 72.256885,26.242722 L72.256885,26.242722 Z" id="Fill-1" fill="#259638"></path>
                        <polygon id="Fill-3" fill="#259638" points="222.264151 36.7006173 56.9308176 36.7006173 56.9308176 34.3580247 222.264151 34.3580247"></polygon>
                        <g id="Group-7">
                            <mask id="mask-2" fill="white">
                                <use xlink:href="#path-1"></use>
                            </mask>
                            <g id="Clip-6"></g>
                            <path d="M13.2350211,12.9238113 L32.7691154,1.72448065 C31.952977,1.24840538 31.1047664,0.823338172 30.2251657,0.454039785 L13.2350211,10.1938597 L5.67072862,5.85613387 C5.13095818,6.44714731 4.62462484,7.0694457 4.15241101,7.71486774 L13.2350211,12.9238113 Z M36.87915,4.82917151 C36.2759173,4.24835968 35.6365179,3.70359355 34.9684582,3.19487312 L13.2350211,15.654443 L2.85996447,9.70554247 C2.46827264,10.3883704 2.11274748,11.0970425 1.79543616,11.8254376 L13.2350211,18.3823543 L36.87915,4.82917151 Z M13.2350211,21.1123059 L0.960190881,14.0759134 C0.719307233,14.8553167 0.522778931,15.654443 0.369923585,16.4685317 L13.2350211,23.8442978 L39.9621877,8.52147527 C39.5213638,7.85769032 39.0471028,7.21770914 38.5387223,6.60765269 L13.2350211,21.1123059 Z M43.553606,20.4634833 C43.553606,32.4490183 33.8043009,42.1670747 21.7771783,42.1670747 C9.74937327,42.1670747 6.82389937e-05,32.4490183 6.82389937e-05,20.4634833 C6.82389937e-05,19.9758462 0.0184927673,19.49365 0.0505650943,19.0155344 L13.2350211,26.5728892 L41.1625116,10.5638382 C42.6903827,13.5318274 43.553606,16.8976796 43.553606,20.4634833 L43.553606,20.4634833 Z" id="Fill-5" fill="#259638" mask="url(#mask-2)"></path>
                        </g>
                    </g>
                </g>
            </g>
        </g>
    </g>
</svg>