<?xml version="1.0" encoding="UTF-8"?>
<svg width="297px" height="94px" viewBox="0 0 297 94" version="1.1" xmlns="http://www.w3.org/2000/svg" xmlns:xlink="http://www.w3.org/1999/xlink">
    <!-- Generator: Sketch 55.2 (78181) - https://sketchapp.com -->
    <title>Severstal</title>
    <desc>Created with Sketch.</desc>
    <defs>
        <polygon id="path-1" points="0 0.394710372 250.010935 0.394710372 250.010935 56.0206138 0 56.0206138"></polygon>
        <linearGradient x1="8.83401472%" y1="23.1609594%" x2="85.6233347%" y2="74.6764249%" id="linearGradient-3">
            <stop stop-color="#D5D5D5" offset="0%"></stop>
            <stop stop-color="#615E5A" offset="100%"></stop>
        </linearGradient>
        <linearGradient x1="50%" y1="0%" x2="50%" y2="100%" id="linearGradient-4">
            <stop stop-color="#BA1016" offset="0%"></stop>
            <stop stop-color="#FF1F23" offset="100%"></stop>
        </linearGradient>
        <linearGradient x1="50%" y1="0%" x2="50%" y2="100%" id="linearGradient-5">
            <stop stop-color="#007CC3" offset="0%"></stop>
            <stop stop-color="#003255" offset="100%"></stop>
        </linearGradient>
        <path d="M18.3092889,2.22708333 L18.3072222,2.22777778 C15.1734667,3.10208333 12.4647556,4.10277778 10.1294222,5.18125 L10.1294222,5.18125 C7.76653333,6.27430556 5.7846,7.44791667 4.13746667,8.64722222 L4.13746667,8.64722222 C2.41111111,9.91041667 0.819777778,11.4819444 0.3782,13.2125 L0.3782,13.2125 C-0.0640666667,14.9375 0.566955556,17.0868056 1.46871111,19.0333333 L1.46871111,19.0333333 C2.34911111,20.8756944 3.51746667,22.8659722 5.04817778,24.975 L5.04817778,24.975 C4.98962222,24.3715278 5.00822222,23.7979167 5.12395556,23.2645833 L5.12395556,23.2645833 C5.48975556,21.5798611 6.90611111,20.0680556 8.45404444,18.8659722 L8.45404444,18.8659722 C9.57831111,17.9944444 10.8754889,17.14375 12.3772667,16.3388889 L12.3772667,16.3388889 C14.7883778,15.0395833 17.7113333,13.8479167 21.2336222,12.8638889 L21.2336222,12.8638889 L21.2343111,12.8638889 C24.7621111,11.8770833 27.8807111,11.3784722 30.6100889,11.2416667 L30.6100889,11.2416667 C30.6665778,9.53055556 30.5873556,7.96875 30.3999778,6.55138889 L30.3999778,6.55138889 C30.1423333,4.60069444 29.5526444,2.60902778 28.2878444,1.44583333 L28.2878444,1.44583333 C27.8814,1.07430556 27.3840222,0.763888889 26.8308444,0.513194444 L26.8308444,0.513194444 C24.2771333,0.8 21.4416667,1.34930556 18.3092889,2.22708333" id="path-6"></path>
        <path d="M3.49842294,2.72902803 C1.97769658,3.9196423 0.586235338,5.41702373 0.226864755,7.08567203 L0.226864755,7.08567203 C0.113165587,7.61391684 0.0948925069,8.18205513 0.152418871,8.77976963 L0.152418871,8.77976963 C1.64675079,10.8507919 3.49706938,13.0435581 5.78458834,15.3236773 L5.78458834,15.3236773 C8.05654135,17.6003574 10.2290076,19.4430238 12.2843907,20.9252732 L12.2843907,20.9252732 C14.3506024,22.4144008 16.2990542,23.5451749 18.1114731,24.3733086 L18.1114731,24.3733086 C20.0362376,25.2592192 22.1701273,25.8665632 23.8586953,25.3878413 L23.8586953,25.3878413 C25.5492936,24.9132464 27.0679896,23.2769255 28.2733362,21.5092313 L28.2733362,21.5092313 C29.4055904,19.8509003 30.5033288,17.8658554 31.5178231,15.503198 L31.5178231,15.503198 C31.0312178,15.8588003 30.5297232,16.1380547 30.0133395,16.3010677 L30.0133395,16.3010677 C28.4080155,16.8196831 26.4392603,16.3450881 24.6633876,15.6022439 L24.6633876,15.6022439 C23.3775042,15.0616183 22.0239426,14.3586676 20.6108244,13.4672544 L20.6108244,13.4672544 C18.3239822,12.0228351 15.8848644,10.083874 13.3205421,7.52243694 L13.3205421,7.52243694 C10.7596037,4.96443899 8.80641443,2.51924331 7.35268936,0.226055581 L7.35268936,0.226055581 C5.87730731,1.02323752 4.60292914,1.86581549 3.49842294,2.72902803" id="path-8"></path>
    </defs>
    <g id="Site" stroke="none" stroke-width="1" fill="none" fill-rule="evenodd">
        <g id="pouf-•-site" transform="translate(-435.000000, -5531.000000)">
            <g id="Group-25" transform="translate(151.000000, 5479.000000)">
                <g id="Group-23">
                    <g id="Severstal" transform="translate(284.000000, 52.000000)">
                        <g id="Group-3">
                            <g id="Group-8" transform="translate(0.000000, 37.880597)">
                                <path d="M69.383223,23.7379424 L71.9220007,23.7379424 C75.3813036,23.7379424 77.4591203,23.0416848 77.4591203,20.7732101 C77.4591203,18.9698467 76.1879854,17.9219368 72.7880487,17.9219368 L69.383223,17.9219368 L69.383223,23.7379424 Z M69.2121087,36.1352729 L72.6134422,36.1352729 C75.4979407,36.1352729 78.3216761,35.260018 78.3216761,32.4658266 C78.3216761,29.8492231 76.1879854,28.9190005 72.211149,28.9190005 L69.2121087,28.9190005 L69.2121087,36.1352729 Z M60.8505553,12.3377822 L72.7880487,12.3377822 C74.1869955,12.3095937 76.2284941,12.2722438 77.8537308,12.4949335 C81.6035788,13.0058512 85.417682,14.6788425 85.417682,19.2573701 C85.417682,23.0994714 83.1666557,24.9021301 80.4574621,25.4842239 L80.4574621,25.718189 C84.3763292,26.4165607 86.6273554,28.5116757 86.6273554,32.6997917 C86.6273554,39.5390421 80.1529485,41.4262665 74.9133583,41.6778494 C73.6310486,41.7166087 71.9890496,41.7194275 70.88414,41.7194275 L60.8505553,41.7194275 L60.8505553,12.3377822 Z" id="Fill-1" fill="#005EA7"></path>
                                <g id="Group-5">
                                    <mask id="mask-2" fill="white">
                                        <use xlink:href="#path-1"></use>
                                    </mask>
                                    <g id="Clip-4"></g>
                                    <path d="M126.34208,21.165454 L126.34208,35.0722822 C127.265399,35.7149815 128.419897,36.2371746 129.920115,36.2371746 C135.571078,36.2371746 137.414922,31.0596401 137.414922,26.0554652 C137.414922,20.0040851 135.454441,17.852593 132.110379,17.852593 C129.920115,17.852593 127.321971,19.6552517 126.34208,21.165454 L126.34208,21.165454 Z M126.34208,41.065171 L126.34208,53.4582733 L118.040591,56.0206138 L118.040591,12.3219966 L125.017166,12.3219966 L125.93839,14.9999103 C128.072779,13.3107105 130.550794,11.7434264 133.779616,11.7434264 C140.470535,11.7434264 145.717808,16.8617649 145.717808,26.171743 C145.717808,34.9017414 140.529901,42.2892594 131.936471,42.2892594 C129.80278,42.2892594 127.842299,41.8798205 126.34208,41.065171 L126.34208,41.065171 Z M208.627811,28.5564955 C205.053967,28.6748875 203.37984,29.8961571 203.37984,32.1054358 C203.37984,34.3767294 204.939425,35.7734727 207.764557,35.7734727 C209.956217,35.7734727 211.514405,35.0722822 212.260324,34.4338112 L212.260324,28.4423319 L208.627811,28.5564955 Z M212.778556,39.0863337 C210.821567,40.892516 208.514666,42.2892594 204.767612,42.2892594 C199.229096,42.2892594 195.078351,38.5641406 195.078351,32.7453162 C195.078351,26.5198718 200.036476,23.3190603 207.417439,23.0872094 L212.320388,22.9124403 L212.320388,22.3310511 C212.320388,19.2486316 209.841675,18.0238385 206.955082,18.0238385 C204.016804,18.0238385 201.478725,18.8983887 199.575515,20.0632811 L197.039531,14.9428284 C201.018463,12.3219966 204.822089,11.7434264 208.801021,11.7434264 C216.47253,11.7434264 220.566702,14.8244364 220.566702,22.5657209 L220.566702,41.7064608 L214.109057,41.7064608 L212.778556,39.0863337 Z M101.662507,17.852593 C98.3163489,17.852593 96.4159324,20.8765212 96.4159324,23.5551395 L106.910478,23.5551395 C106.738665,20.7588339 105.177684,17.852593 101.662507,17.852593 L101.662507,17.852593 Z M96.5877451,29.3098349 C96.7602563,33.2696235 100.45004,35.7149815 104.314429,35.7149815 C107.139562,35.7149815 109.274649,35.1906742 112.562838,33.6198664 L114.404587,38.9150882 C110.369083,41.4746099 106.44812,42.2892594 102.930848,42.2892594 C92.5501457,42.2892594 88.2848595,34.8404312 88.2848595,27.1040798 C88.2848595,18.8420116 93.1857132,11.7434264 101.894384,11.7434264 C109.848755,11.7434264 115.386573,17.6778239 115.386573,26.7538369 L115.386573,29.3098349 L96.5877451,29.3098349 Z M44.4593404,17.852593 C41.1117857,17.852593 39.2120676,20.8765212 39.2120676,23.5551395 L49.7073117,23.5551395 C49.5341021,20.7588339 47.9766127,17.852593 44.4593404,17.852593 L44.4593404,17.852593 Z M39.3852772,29.3098349 C39.5591852,33.2696235 43.249667,35.7149815 47.1098663,35.7149815 C49.9370938,35.7149815 52.0707846,35.1906742 55.3582747,33.6198664 L57.2014203,38.9150882 C53.1645193,41.4746099 49.2456523,42.2892594 45.7283801,42.2892594 C35.3476778,42.2892594 31.0802963,34.8404312 31.0802963,27.1040798 C31.0802963,18.8420116 35.9811499,11.7434264 44.6891225,11.7434264 C52.6476842,11.7434264 58.1820101,17.6778239 58.1820101,26.7538369 L58.1820101,29.3098349 L39.3852772,29.3098349 Z M227.655723,15.7567732 C227.655723,25.9962692 227.257621,31.3485728 225.408887,33.7911119 C224.488362,35.0159051 223.044018,35.8298499 221.547291,36.0624055 L223.852795,42.2892594 C225.75391,42.2314728 228.699171,41.417528 230.71413,39.3787901 C233.366052,36.7614819 234.233497,33.4443926 234.63579,29.9525342 C234.983606,26.9863925 235.21269,23.4938294 235.21269,20.4128193 L235.21269,18.9554705 L241.707351,18.9554705 L241.707351,41.7064608 L250.010935,41.7064608 L250.010935,12.3219966 L227.655723,12.3219966 L227.655723,15.7567732 Z M187.755357,18.9554705 L187.755357,41.7064608 L179.451075,41.7064608 L179.451075,18.9554705 L171.379368,18.9554705 L171.379368,12.3219966 L196.864924,12.3219966 L194.789901,18.9554705 L187.755357,18.9554705 Z M161.921984,42.2892594 C152.579143,42.2892594 147.792831,35.3654433 147.792831,27.1040798 C147.792831,17.852593 154.136632,11.7434264 162.61622,11.7434264 C166.36048,11.7434264 168.322358,12.4967657 169.879848,13.4283978 L169.879848,20.0632811 C167.804126,18.5488505 166.128603,18.0238385 163.824496,18.0238385 C159.038184,18.0238385 156.097113,21.5741882 156.097113,26.6974597 C156.097113,31.291491 158.345346,35.7734727 163.708558,35.7734727 C165.205284,35.7734727 167.227227,35.1906742 169.360219,34.0835683 L171.3207,39.4922491 C168.900655,41.1243669 164.863055,42.2892594 161.921984,42.2892594 L161.921984,42.2892594 Z M19.4913174,42.2892594 C6.86238247,42.2892594 -0.000349212888,33.0948544 -0.000349212888,21.5741882 C-0.000349212888,9.93653939 8.07345276,0.394710372 21.3351614,0.394710372 C24.8524336,0.394710372 27.9094432,0.861231111 30.5599691,2.25656504 L30.5599691,9.76388443 C27.0426969,7.67017882 24.2189614,7.26285407 21.6250081,7.26285407 C12.6292841,7.26285407 9.10991662,13.9541145 9.10991662,20.9949132 C9.10991662,28.8454283 13.4946336,35.0722822 20.8148342,35.0722822 C24.0457518,35.0722822 26.6997698,34.3154192 29.8140503,32.6311525 L32.0036151,38.5641406 C27.333242,41.5316917 23.3536119,42.2892594 19.4913174,42.2892594 L19.4913174,42.2892594 Z" id="Fill-3" fill="#005EA7" mask="url(#mask-2)"></path>
                                </g>
                                <path d="M261.789956,35.910751 L261.789956,27.7057647 L264.559214,27.7057647 C267.497491,27.7057647 270.729108,28.1701713 270.729108,31.6620297 C270.729108,35.0975109 267.958452,35.910751 264.675153,35.910751 L261.789956,35.910751 Z M261.789956,21.8897591 L261.789956,11.063941 L253.484975,13.6283957 L253.484975,41.7288707 L264.094063,41.7288707 C271.821445,41.7288707 279.029898,39.6351651 279.029898,31.5485707 C279.029898,24.6818364 273.207821,21.8897591 266.055242,21.8897591 L261.789956,21.8897591 Z" id="Fill-6" fill="#005EA7"></path>
                            </g>
                            <path d="M263.261883,17.9975926 C261.69753,19.2175965 260.26615,20.7519398 259.89647,22.4617777 L259.89647,22.4617777 C259.779509,23.0030619 259.760711,23.5852243 259.819888,24.1976931 L259.819888,24.1976931 C261.35709,26.3198373 263.26049,28.5667305 265.613634,30.9031331 L265.613634,30.9031331 C267.950765,33.2360116 270.185555,35.1241631 272.299903,36.643001 L272.299903,36.643001 C274.425391,38.1688868 276.42974,39.3275733 278.294154,40.176149 L278.294154,40.176149 C280.274136,41.0839278 282.469243,41.7062636 284.206253,41.2157248 L284.206253,41.2157248 C285.945351,40.7294148 287.507616,39.0527024 288.747541,37.2413737 L288.747541,37.2413737 C289.912278,35.5421078 291.041508,33.5080633 292.085106,31.0870851 L292.085106,31.0870851 C291.584541,31.4514652 291.06866,31.7376129 290.537462,31.9046498 L290.537462,31.9046498 C288.886084,32.4360668 286.860849,31.9497568 285.03403,31.1885759 L285.03403,31.1885759 C283.711257,30.6346054 282.318864,29.9143027 280.865207,29.0008856 L280.865207,29.0008856 C278.512759,27.5208116 276.003668,25.5339884 273.36578,22.9093239 L273.36578,22.9093239 C270.731373,20.2881833 268.72215,17.7826295 267.226721,15.4328358 L267.226721,15.4328358 C265.709013,16.2496957 264.398075,17.1130722 263.261883,17.9975926" id="Fill-15" fill="url(#linearGradient-3)"></path>
                            <path d="M274.364642,2.42171753 L274.362494,2.42241454 C271.104881,3.29995233 268.289112,4.30434626 265.861477,5.3868055 L265.861477,5.3868055 C263.405199,6.48390199 261.344932,7.66185185 259.632698,8.86559114 L259.632698,8.86559114 C257.838111,10.1334555 256.183882,11.7107931 255.724852,13.4477464 L255.724852,13.4477464 C255.265105,15.1791235 255.921068,17.3363749 256.858464,19.2900988 L256.858464,19.2900988 C257.77366,21.139271 258.988194,23.1369067 260.579404,25.2537313 L260.579404,25.2537313 C260.518534,24.6480281 260.537869,24.0722964 260.658177,23.5369914 L260.658177,23.5369914 C261.038434,21.8460409 262.510769,20.3286463 264.119883,19.122119 L264.119883,19.122119 C265.288584,18.2473693 266.637031,17.3935299 268.198165,16.5856933 L268.198165,16.5856933 C270.704572,15.2815843 273.743053,14.0855121 277.404556,13.0978465 L277.404556,13.0978465 L277.405272,13.0978465 C281.072503,12.1073928 284.314361,11.6069383 287.151614,11.469627 L287.151614,11.469627 C287.210336,9.75219008 287.127982,8.18461066 286.933199,6.76200968 L286.933199,6.76200968 C286.665371,4.80410368 286.052376,2.80507399 284.737586,1.63757931 L284.737586,1.63757931 C284.315078,1.26467803 283.798042,0.953113778 283.223,0.701492537 L283.223,0.701492537 C280.568357,0.989358389 277.620823,1.54069468 274.364642,2.42171753" id="Fill-9" fill="url(#linearGradient-4)"></path>
                            <path d="M286.135133,0 C284.799136,0.00422356858 283.368272,0.0844713717 281.843253,0.253414115 L281.843253,0.253414115 C282.416027,0.507532158 282.931024,0.822188017 283.351866,1.19878955 L283.351866,1.19878955 C284.661471,2.37786911 285.272049,4.39673489 285.53882,6.37406892 L285.53882,6.37406892 C285.732836,7.81078617 285.814864,9.39392046 285.756375,11.1283993 L285.756375,11.1283993 C285.665786,13.921586 285.209279,17.1082685 284.261314,20.725755 L284.261314,20.725755 L284.261314,20.7271628 C283.314062,24.348169 282.144263,27.3560537 280.851064,29.8465513 L280.851064,29.8465513 C282.340418,30.7588421 283.767002,31.4782566 285.122258,32.0315441 L285.122258,32.0315441 C286.993937,32.7917865 289.068904,33.2774969 290.760833,32.7467351 L290.760833,32.7467351 C291.305075,32.5799041 291.833624,32.2941093 292.346481,31.9301785 L292.346481,31.9301785 C293.41,29.526968 294.390064,26.7506755 295.231035,23.5393556 L295.231035,23.5393556 C296.077,20.3026942 296.577018,17.3884319 296.819537,14.7670036 L296.819537,14.7670036 C296.93723,13.4978213 296.994294,12.2976239 297,11.1642996 L297,11.1642996 L297,10.7736195 C296.994294,9.69942525 296.942937,8.68576879 296.853062,7.73194622 L296.853062,7.73194622 C296.654053,5.56243982 296.044902,3.3647763 294.74243,2.0970018 L294.74243,2.0970018 C293.439958,0.830635155 291.195228,0.299169441 288.991155,0.112628496 L288.991155,0.112628496 C288.163023,0.0422356858 287.28924,0.00281571239 286.369806,0 L286.369806,0 L286.135133,0 Z" id="Fill-12" fill="url(#linearGradient-5)"></path>
                        </g>
                        <g id="Group-11" transform="translate(292.000000, 4.000000)">
                            <mask id="mask-7" fill="white">
                                <use xlink:href="#path-6"></use>
                            </mask>
                            <g id="Clip-10"></g>
                        </g>
                        <g id="Group-17" transform="translate(296.000000, 21.000000)">
                            <mask id="mask-9" fill="white">
                                <use xlink:href="#path-8"></use>
                            </mask>
                            <g id="Clip-16"></g>
                        </g>
                    </g>
                </g>
            </g>
        </g>
    </g>
</svg>