<?xml version="1.0" encoding="UTF-8"?>
<svg width="153px" height="32px" viewBox="0 0 153 32" version="1.1" xmlns="http://www.w3.org/2000/svg" xmlns:xlink="http://www.w3.org/1999/xlink">
    <!-- Generator: Sketch 55.2 (78181) - https://sketchapp.com -->
    <title>Group 23</title>
    <desc>Created with Sketch.</desc>
    <g id="Site" stroke="none" stroke-width="1" fill="none" fill-rule="evenodd">
        <g id="pouf-•-site" transform="translate(-766.000000, -6390.000000)">
            <g id="Group-26" transform="translate(151.000000, 6327.000000)">
                <g id="Group-30" transform="translate(132.000000, 63.000000)">
                    <g id="Group-23" transform="translate(483.200000, 0.000000)">
                        <path d="M6.82593203,17.2238853 C6.86150621,18.2047688 6.92726456,21.0059148 10.9697859,21.0059148 C11.5465189,21.0059148 14.6037431,21.0059148 14.6037431,18.2369289 C14.6037431,17.0888128 14.1272646,16.3126821 12.498398,15.8731605 L6.48636023,14.319827 C4.78742327,13.8813774 0.407486151,12.7321893 0.407486151,7.63266717 C0.407486151,3.68233311 3.39679593,0 10.7326246,0 C20.3096272,0 20.7171133,5.16705839 20.7505315,7.76773965 L13.8577631,7.76773965 C13.8577631,7.02484101 13.8901033,4.39092763 10.6291361,4.39092763 C8.66069771,4.39092763 7.40374308,5.5047396 7.40374308,6.95730477 C7.40374308,8.74755114 8.89785896,9.1860007 9.88315616,9.45614566 L14.4679144,10.6385659 C17.7288816,11.4833049 21.6,12.4952765 21.6,17.6634069 C21.6,23.1006102 16.9128313,25.5319149 10.7660428,25.5319149 C8.21871538,25.5319149 4.10935769,25.1277695 1.86710585,22.6278566 C0.0668363527,20.6693056 0.0344961821,18.271233 0,17.2238853 L6.82593203,17.2238853" id="Fill-42" fill="#636463"></path>
                        <polyline id="Fill-43" fill="#636463" points="25.6 0.79787234 31.8481138 0.79787234 31.8481138 15.4514892 37.6888122 8.09153258 44.750679 8.09153258 38.9444708 15.1200071 45.6 24.7340426 37.9259323 24.7340426 31.8481138 15.4841113 31.8481138 24.7340426 25.6 24.7340426 25.6 0.79787234"></polyline>
                        <path d="M53.1004076,19.9409898 C53.8537094,21.1959135 55.0189902,21.2630666 55.6005435,21.2630666 C58.4083048,21.2630666 58.9561607,18.3209212 58.9561607,16.0062377 C58.9561607,13.1312455 58.2376434,10.7179309 55.6679385,10.7179309 C52.8264797,10.7179309 52.2797109,13.5268193 52.2797109,16.0062377 C52.2797109,17.0974757 52.3818903,18.7175443 53.1004076,19.9409898 M55.6679385,7.18085106 C61.2508506,7.18085106 65.6,9.89110832 65.6,15.7753989 C65.6,18.1887136 64.8814827,20.6345555 63.0998641,22.3532552 C61.6617425,23.7078592 59.538801,24.7340426 56.0114354,24.7340426 C52.2101419,24.7340426 49.7447905,23.8400669 48.0664384,22.2871514 C46.0793739,20.4698205 45.6,17.9904021 45.6,15.9737105 C45.6,10.8826659 48.8545247,7.18085106 55.6679385,7.18085106" id="Fill-44" fill="#636463"></path>
                        <polygon id="Fill-45" fill="#636463" points="69.6 24.7340426 76 24.7340426 76 0.79787234 69.6 0.79787234"></polygon>
                        <path d="M92,8.28330889 L92,12.3578421 L87.8665284,12.3578421 L87.8665284,18.2643528 C87.8990669,20.3700492 87.8990669,21.3205221 90.3611452,21.3205221 C90.8719994,21.3205221 91.1800303,21.3205221 91.9652923,21.2192246 L91.9652923,25.2237116 C91.1106149,25.3605711 89.9826142,25.5319149 87.7981976,25.5319149 C82.6723024,25.5319149 81.6462557,23.8314088 81.6462557,20.5392377 L81.6462557,12.3578421 L78.4,12.3578421 L78.4,8.28330889 L81.7482096,8.28330889 L81.7482096,5.63556274 L87.9348592,3.19148936 L87.9348592,8.28330889 L92,8.28330889" id="Fill-46" fill="#9FAF2B"></path>
                        <path d="M106.165763,13.9566138 C106.099857,12.9986901 105.90214,10.4868945 103.2,10.4868945 C100.496814,10.4868945 100.266667,13.1644644 100.201807,13.9566138 L106.165763,13.9566138 Z M100.134855,17.3287571 C100.134855,18.2216301 100.134855,21.3618993 103.299382,21.3618993 C104.945982,21.3618993 105.968046,20.5026008 106.132287,18.9487289 L111.901664,18.9487289 C111.439277,23.1130216 107.549786,24.7340426 103.26486,24.7340426 C97.4996671,24.7340426 94.4,21.8256476 94.4,16.3362096 C94.4,10.7838194 97.1031859,7.18085106 103.2,7.18085106 C107.814456,7.18085106 109.955873,9.06627157 111.075226,11.4112437 C111.802282,12.8329158 112,14.4203622 112,17.3287571 L100.134855,17.3287571 L100.134855,17.3287571 Z" id="Fill-47" fill="#9FAF2B"></path>
                        <path d="M126.583724,13.5603958 C126.583724,12.0074803 125.99167,10.7179309 124.378402,10.7179309 C122.10834,10.7179309 121.583114,13.0315651 121.583114,15.9401339 C121.583114,20.2368832 122.767221,21.2305393 124.312618,21.2305393 C126.417698,21.2305393 126.549266,19.1141673 126.549266,17.8581944 L132.799768,17.8581944 C132.832138,22.0552633 129.477166,24.7340426 124.477599,24.7340426 C119.213854,24.7340426 115.2,21.9230556 115.2,15.9401339 C115.2,9.39585419 119.772494,7.18085106 124.411816,7.18085106 C126.189021,7.18085106 129.181661,7.47779369 131.090434,9.56058914 C132.505307,11.0809774 132.63583,12.6013656 132.70057,13.5603958 L126.583724,13.5603958" id="Fill-48" fill="#9FAF2B"></path>
                        <path d="M134.4,0.79787234 L140.907105,0.79787234 L140.907105,9.91521072 C141.594467,9.25224636 143.170398,7.72742834 146.288545,7.72742834 C147.967798,7.72742834 149.679678,8.15782901 151.085944,9.41746129 C152.8,10.9107096 152.8,12.7333354 152.8,15.0537106 L152.8,24.7340426 L146.390779,24.7340426 L146.390779,15.7840238 C146.390779,14.3907463 146.390779,11.6715401 143.719636,11.6715401 C141.662986,11.6715401 141.183355,13.3300033 141.011514,13.9929677 C140.839674,14.7559028 140.839674,15.8155935 140.839674,17.208871 L140.839674,24.7340426 L134.4,24.7340426 L134.4,0.79787234" id="Fill-49" fill="#9FAF2B"></path>
                        <polygon id="Fill-50" fill="#636463" points="0 31.8554521 152.8 31.8554521 152.8 31.1764628 0 31.1764628"></polygon>
                    </g>
                </g>
            </g>
        </g>
    </g>
</svg>