<?xml version="1.0" encoding="UTF-8"?>
<svg width="154px" height="45px" viewBox="0 0 154 45" version="1.1" xmlns="http://www.w3.org/2000/svg" xmlns:xlink="http://www.w3.org/1999/xlink">
    <!-- Generator: Sketch 55.2 (78181) - https://sketchapp.com -->
    <title>skyeng</title>
    <desc>Created with Sketch.</desc>
    <g id="Site" stroke="none" stroke-width="1" fill="none" fill-rule="evenodd">
        <g id="pouf-•-site" transform="translate(-738.000000, -6757.000000)" fill="#333333" fill-rule="nonzero">
            <g id="Group-25" transform="translate(151.000000, 6695.000000)">
                <g id="Group-31" transform="translate(159.000000, 59.000000)">
                    <g id="skyeng" transform="translate(428.505495, 3.195266)">
                        <path d="M1.85867514,28.0063213 C1.85867514,28.0063213 4.52754201,31.576099 9.24671024,31.576099 C11.9155771,31.576099 14.298494,30.3085196 14.298494,27.8174079 C14.298494,22.6492078 0.857850065,23.5888805 0.857850065,15.9765524 C0.857850065,11.7000625 4.57520034,9.58579882 9.38968526,9.58579882 C11.8202604,9.58579882 16.6814108,10.5254716 16.6814108,13.8622887 L16.6814108,15.8825851 L13.6312772,15.8825851 L13.6312772,14.7549778 C13.6312772,13.0165832 11.057727,12.3588123 9.48500193,12.3588123 C6.14891834,12.3588123 4.14726819,13.4864196 4.14726819,15.7886178 C4.14726819,21.0987477 17.5879121,19.8771732 17.5879121,27.7234407 C17.5879121,31.6700662 13.9658785,34.3491124 9.19905191,34.3491124 C2.95481689,34.3491124 0,30.2135735 0,30.2135735 L1.85867514,28.0063213 Z" id="Path"></path>
                        <path d="M23.8664696,3.86610272 C23.8664696,3.19805925 23.4813752,2.81632013 22.8074599,2.81632013 L20.7857143,2.81632013 L20.7857143,0 L24.2034272,0 C26.2733096,0 27.1407749,0.715760853 27.1407749,2.76760863 L27.1407749,18.7072052 L29.6438885,18.7072052 C30.5584878,18.7072052 31.713771,18.4209008 32.3876862,17.5619878 L38.5973336,9.54546626 L42.5926881,9.54546626 L35.611849,18.3264602 C34.408429,19.8056993 33.7826506,20.0452803 33.7826506,20.0452803 L33.7826506,20.1407151 C33.7826506,20.1407151 34.5047026,20.4747368 35.2748914,21.9062585 L39.6563432,29.6851873 C40.0895744,30.4953888 40.5709424,30.7349698 41.870636,30.7349698 L43.1703297,30.7349698 L43.1703297,33.5502959 L40.9079,33.5502959 C38.50106,33.5502959 37.8271447,33.1685567 36.7199983,31.1644263 L31.9053154,22.574302 C31.3758105,21.6199542 30.2205273,21.5245194 29.3540649,21.5245194 L27.139772,21.5245194 L27.139772,33.5502959 L23.8654667,33.5502959 L23.8654667,3.86610272 L23.8664696,3.86610272 Z" id="Path"></path>
                        <path d="M48.3217946,40.9954614 C50.4389174,40.9954614 51.8824102,39.2612964 52.7966223,37.0444153 L54.2401151,33.720599 L45.7225051,13.5358414 C45.3375737,12.6687589 44.9045259,12.4279026 44.0384302,12.4279026 L43.5572659,12.4279026 L43.5572659,9.58579882 L45.0488752,9.58579882 C47.2141144,9.58579882 47.8877443,10.0675113 48.75384,12.2352176 L54.9608591,27.3619939 C55.4420233,28.5662751 55.8269547,29.9632414 55.8269547,29.9632414 L55.9231876,29.9632414 C55.9231876,29.9632414 56.2600026,28.5662751 56.7411669,27.3619939 L62.7076038,12.2352176 C63.525583,10.0675113 64.2473294,9.58579882 66.4616875,9.58579882 L67.9532967,9.58579882 L67.9532967,12.4279026 L67.4721324,12.4279026 C66.6060368,12.4279026 66.1248725,12.6687589 65.7880575,13.5358414 L55.3457905,38.8759264 C54.093761,41.9588864 51.6408256,43.9349112 48.4160226,43.9349112 C45.0478727,43.9349112 43.1703297,41.5735164 43.1703297,41.5735164 L44.7100553,39.1649539 C44.7120602,39.2141287 46.2517858,40.9954614 48.3217946,40.9954614 Z" id="Path"></path>
                        <path d="M82.7328138,8.78698225 C89.7110355,8.78698225 93.5357143,13.9083827 93.5357143,20.3709599 C93.5357143,21.0889132 93.3913304,22.620547 93.3913304,22.620547 L76.5661291,22.620547 C77.0440895,26.9292641 80.198628,29.1788513 83.878923,29.1788513 C87.7991939,29.1788513 90.7147523,26.4506286 90.7147523,26.4506286 L93.2479423,30.6636186 C93.2479423,30.6636186 89.5198513,34.3491124 83.4487587,34.3491124 C75.3702324,34.3491124 70.3516484,28.5097586 70.3516484,21.5685459 C70.3516484,14.0519734 75.4190242,8.78698225 82.7328138,8.78698225 Z M87.3202378,18.4085541 C87.2246457,15.4888772 85.2182078,13.4786079 82.7328138,13.4786079 C79.6250756,13.4786079 77.4264578,15.3452865 76.7573133,18.4085541 L87.3202378,18.4085541 Z" id="Shape"></path>
                        <path d="M98.8889119,15.5225561 C98.8889119,14.8110518 98.5077695,14.4790165 97.8407704,14.4790165 L95.9340659,14.4790165 L95.9340659,9.35618567 L101.509266,9.35618567 C103.653192,9.35618567 104.701333,10.3522917 104.701333,12.0599019 L104.701333,12.7714062 C104.701333,13.293176 104.606048,13.8149458 104.606048,13.8149458 L104.701333,13.8149458 C105.749475,11.7753002 108.369829,8.78698225 113.278029,8.78698225 C118.662658,8.78698225 121.75944,11.5855658 121.75944,17.9900925 L121.75944,27.4303708 C121.75944,28.0944415 122.140582,28.4748986 122.807581,28.4748986 L124.714286,28.4748986 L124.714286,33.5502959 L118.948515,33.5502959 C116.660668,33.5502959 115.707812,32.6016235 115.707812,30.3238216 L115.707812,19.2233666 C115.707812,16.281494 114.945527,14.289282 111.896388,14.289282 C108.655685,14.289282 106.225903,16.3289276 105.368332,19.2233666 C105.034833,20.2194726 104.892897,21.3104458 104.892897,22.4488527 L104.892897,33.5493077 L98.8889119,33.5493077 L98.8889119,15.5225561 L98.8889119,15.5225561 Z" id="Path"></path>
                        <path d="M137.778255,8.78698225 C143.348011,8.78698225 145.188538,12.2439588 145.188538,12.2439588 L145.282924,12.2439588 C145.282924,12.2439588 145.282924,11.9558774 145.282924,11.6197825 C145.282924,10.5154705 146.038995,9.36314501 147.925732,9.36314501 L153.494505,9.36314501 L153.494505,14.5486099 L151.653979,14.5486099 C151.04047,14.5486099 150.615733,14.8847048 150.615733,15.5088811 L150.615733,32.3626422 C150.615733,40.7650158 144.197485,43.9349112 137.919834,43.9349112 C134.899482,43.9349112 131.689375,43.0706671 129.376918,41.8223145 L131.218428,37.0199578 C131.218428,37.0199578 134.190604,38.6534193 137.873624,38.6534193 C141.507484,38.6534193 144.669415,37.0679714 144.669415,32.6507236 L144.669415,31.498398 C144.669415,30.9222353 144.716608,30.2020318 144.716608,30.2020318 L144.622222,30.2020318 C143.206432,32.266615 141.128957,33.3719273 137.920817,33.3719273 C131.029656,33.3719273 127.112637,27.7053265 127.112637,20.9824274 C127.112637,14.2595282 130.839901,8.78698225 137.778255,8.78698225 Z M144.810994,21.0314412 C144.810994,15.4608676 142.0738,13.9724471 138.8165,13.9724471 C135.18264,13.9724471 133.199551,16.6612067 133.199551,20.7903731 C133.199551,25.0645805 135.323236,28.2334762 139.194044,28.2334762 C142.0738,28.234476 144.810994,26.553001 144.810994,21.0314412 Z" id="Shape"></path>
                    </g>
                </g>
            </g>
        </g>
    </g>
</svg>