<?xml version="1.0" encoding="UTF-8"?>
<svg width="132px" height="50px" viewBox="0 0 132 50" version="1.1" xmlns="http://www.w3.org/2000/svg" xmlns:xlink="http://www.w3.org/1999/xlink">
    <!-- Generator: Sketch 55.2 (78181) - https://sketchapp.com -->
    <title>tele-2-3</title>
    <desc>Created with Sketch.</desc>
    <g id="Site" stroke="none" stroke-width="1" fill="none" fill-rule="evenodd">
        <g id="pouf-•-site" transform="translate(-332.000000, -6079.000000)" fill="#241F20" fill-rule="nonzero">
            <g id="Group-27" transform="translate(151.000000, 5797.000000)">
                <g id="Group-28" transform="translate(83.000000, 71.000000)">
                    <g id="tele-2-3" transform="translate(98.000000, 211.000000)">
                        <path d="M6.1217995,37.6192668 C6.1217995,30.0399286 6.13980479,25.2496419 6.16231141,25.2315312 C6.22532993,25.1953098 13.1978795,24.4844638 13.2428927,24.5116299 C13.260898,24.525213 13.2789033,30.2572573 13.2789033,37.2570523 L13.2789033,49.9753086 L6.1217995,49.9753086 L6.1217995,37.6192668 Z M21.9214438,32.2267986 C21.9214438,18.064212 21.9349478,14.4692331 21.979961,14.4556501 C22.0924941,14.414901 29.3711336,13.4007004 29.4071442,13.4233388 C29.4251495,13.4323942 29.4386535,21.6637185 29.4386535,31.7106429 L29.4386535,49.9753086 L21.9214438,49.9753086 L21.9214438,32.2267986 Z M30.7440372,45.8777572 C30.7440372,42.6359375 30.7575412,41.7756781 30.8025544,41.7575674 C30.8925809,41.7258736 41.5517141,41.4179913 41.5967273,41.4451574 C41.6192339,41.4587404 41.6372392,43.2833959 41.6372392,45.7238161 L41.6372392,49.9753086 L30.7440372,49.9753086 L30.7440372,45.8777572 Z M44.3830464,30.6466379 C44.3830464,20.0111149 44.4010517,11.304384 44.4190569,11.290801 C44.4910781,11.2500519 52.8545366,10.0819101 52.9175551,10.1042237 C52.971571,10.1271869 52.9805736,13.0022645 52.9805736,30.0535116 L52.9805736,49.9753086 L44.3830464,49.9753086 L44.3830464,30.6466379 Z M54.4660102,45.5155427 C54.4660102,41.9839514 54.4795142,41.0512491 54.5245274,41.0331384 C54.6145539,41.0059723 66.8536516,40.6482855 66.8941635,40.6754516 C66.9166701,40.6890346 66.9346754,42.785351 66.9346754,45.3389632 L66.9346754,49.9753086 L54.4660102,49.9753086 L54.4660102,45.5155427 Z M69.4104031,28.8808422 C69.4104031,12.0514514 69.4239071,7.77732043 69.4689203,7.74562666 C69.5364402,7.70487753 79.2322903,6.32846246 79.2818048,6.36015623 C79.2998101,6.36921159 79.3133141,16.189752 79.3133141,28.1790516 L79.3133141,49.9753086 L69.4104031,49.9753086 L69.4104031,28.8808422 Z M81.0328195,45.0989961 L81.0463235,40.2181558 L88.1584141,40.0008271 C92.0700639,39.8831074 95.2975126,39.7970814 95.3245206,39.8106645 C95.3695338,39.8242475 95.3830378,40.8746696 95.3830378,44.9043058 L95.3830378,49.9753086 L81.0238169,49.9753086 L81.0328195,45.0989961 Z M98.4439375,44.8635566 C98.4439375,40.9199464 98.4574415,39.7382216 98.4979534,39.7155832 C98.5294627,39.6974725 105.763089,39.462033 114.581181,39.1948998 C123.394772,38.9277667 130.875971,38.7013826 131.204567,38.6923272 L131.798742,38.6696888 L131.798742,49.9753086 L98.4439375,49.9753086 L98.4439375,44.8635566 Z M100.541258,37.9362045 C100.52805,37.9135661 100.978182,37.474381 101.540848,36.9536977 C108.360352,30.6602209 114.44164,24.5931282 116.494243,22.039516 C118.101216,20.038281 119.132019,17.9329092 119.402098,16.0991984 C119.496626,15.4336292 119.469618,14.4782885 119.334578,13.9711882 C119.127517,13.1697887 118.866441,12.6989098 118.362293,12.1918095 C117.615073,11.4492698 116.575267,11.0553616 115.242876,11.0146124 L114.716221,11.0010294 L114.702717,5.61308884 C114.693714,0.99485408 114.702717,0.220620605 114.756733,0.175343794 C114.797245,0.139122345 115.274385,0.0938455334 116.07562,0.0485687221 C117.133431,-0.0102911328 117.50254,-0.0148188139 118.474826,0.0304579975 C120.059291,0.107428577 120.910041,0.243259011 122.165911,0.628111908 C126.365645,1.90491799 129.534577,5.06071174 130.785944,9.20806767 C131.182061,10.5301506 131.321602,11.6439601 131.290093,13.2558146 C131.263085,14.4601778 131.195565,15.1438576 130.965997,16.402553 C129.858672,22.5466163 126.311629,28.0568042 118.281269,36.1160767 L116.953378,37.4472149 L109.017546,37.7098204 C100.244467,37.999592 100.573063,37.9950643 100.541258,37.9362045 Z M30.7800478,35.8217774 C30.7575412,35.8036667 30.7440372,33.9156236 30.7440372,31.6291447 C30.7440372,28.3420482 30.7575412,27.463678 30.8025544,27.450095 C30.9105861,27.4138735 37.8201172,26.8343303 37.8831357,26.8569687 C37.9371516,26.8796072 37.9461542,27.5270656 37.9461542,31.1401551 L37.9461542,35.3961754 L37.8471251,35.4369245 C37.7886079,35.4550352 36.3256779,35.5455889 34.5926685,35.6406702 C32.8596591,35.7312238 31.3022013,35.8172497 31.1266497,35.8308328 C30.9555994,35.8489435 30.7980531,35.8444158 30.7800478,35.8217774 Z M81.0553262,33.0553642 C81.0373209,33.0417812 81.0238169,30.800579 81.0238169,28.074915 C81.0238169,24.1539431 81.0373209,23.1171041 81.0823341,23.1035211 C81.2038698,23.062772 90.3370545,22.2975938 90.4045744,22.3247599 C90.4720942,22.351926 90.4765955,22.7820557 90.4675929,27.4591503 L90.4540889,32.5663747 L86.2003385,32.7972864 C83.8596505,32.9285892 81.7530312,33.0417812 81.5144611,33.0598919 C81.275891,33.073475 81.0688301,33.073475 81.0553262,33.0553642 Z M0,21.2064227 L0,17.566167 L0.126037048,17.539001 C0.576169365,17.4484473 19.2791671,14.8359753 19.333183,14.8586137 C19.3917002,14.8812521 19.4007028,15.3385479 19.4007028,18.7750579 C19.4007028,21.5867479 19.3871989,22.6779191 19.3511883,22.7005575 C19.306175,22.7277235 0.328596591,24.8466783 0.103530433,24.8466783 L0,24.8466783 L0,21.2064227 Z M30.7755464,21.4192237 C30.7575412,21.4056407 30.7440372,19.5628744 30.7440372,17.3261999 C30.7440372,14.1251294 30.7575412,13.2558146 30.8025544,13.2241208 C30.8745756,13.178844 41.5562154,11.6711262 41.6012286,11.6982923 C41.6192339,11.7118753 41.6372392,13.6361398 41.6372392,15.976951 C41.6372392,19.3410181 41.6237353,20.2374989 41.5832234,20.251082 C41.5337088,20.2691927 30.9510981,21.4509175 30.838565,21.4509175 C30.8205597,21.4509175 30.7890504,21.4373344 30.7755464,21.4192237 Z" id="Shape"></path>
                        <path d="M98.6338489,21.8096074 C98.6161956,21.7777631 98.594129,21.1863695 98.5853024,20.4903448 C98.523516,16.0003028 99.2605397,12.2517773 100.8052,9.19017829 C101.237705,8.33038301 101.59077,7.7480878 102.155675,6.97472697 C104.318199,4.01320991 107.425173,1.99337339 111.410397,0.965258409 C111.856142,0.851528875 112.2401,0.765094429 112.262167,0.783291155 C112.284234,0.796938699 112.301887,3.06243101 112.301887,6.3332924 L112.301887,11.8559986 L111.895862,12.0561625 C110.148189,12.9159578 109.283179,14.276163 108.894807,16.782762 C108.810954,17.310467 108.797714,17.5925162 108.793301,19.1574346 C108.784474,20.1309594 108.766821,20.9316154 108.744755,20.9407137 C108.709448,20.9498121 98.7839016,21.8641975 98.7000486,21.8641975 C98.6823953,21.8641975 98.6559154,21.8369024 98.6338489,21.8096074 Z M81.1218132,16.2641553 C81.1085732,16.2277618 81.1041599,14.0123105 81.1085732,11.3328427 L81.1218132,6.46976784 L88.0948516,5.4553004 C91.9300227,4.90030028 95.0943699,4.4544805 95.1252631,4.46357887 C95.1649829,4.47722641 95.1782229,5.54173485 95.1782229,9.58140789 L95.1782229,14.676491 L95.0811299,14.7174336 C95.0237568,14.7401795 91.9520893,15.0995649 88.2493176,15.5180895 C84.546546,15.9366142 81.4351586,16.2869012 81.3336523,16.3005487 C81.1968395,16.3187455 81.1394664,16.3096471 81.1218132,16.2641553 Z" id="Shape"></path>
                    </g>
                </g>
            </g>
        </g>
    </g>
</svg>