<?xml version="1.0" encoding="UTF-8"?>
<svg width="1264px" height="1618px" viewBox="0 0 1264 1618" version="1.1" xmlns="http://www.w3.org/2000/svg" xmlns:xlink="http://www.w3.org/1999/xlink">
    <!-- Generator: Sketch 55.2 (78181) - https://sketchapp.com -->
    <title>Group 30</title>
    <desc>Created with Sketch.</desc>
    <defs>
        <polygon id="path-1" points="0.000544637134 0.548373759 1263.249 0.548373759 1263.249 1263.99236 0.000544637134 1263.99236"></polygon>
    </defs>
    <g id="Page-1" stroke="none" stroke-width="1" fill="none" fill-rule="evenodd">
        <g id="Group-30" transform="translate(0.000000, -1.000000)">
            <path d="M871.9051,1458.6219 C871.9051,1446.9589 871.9791,1435.2959 871.8351,1423.6349 C871.8101,1421.5819 871.3681,1419.2139 870.2721,1417.5479 C863.1051,1406.6589 852.4871,1402.3969 839.8631,1402.7759 C827.3781,1403.1519 818.6661,1409.6389 814.2011,1421.0139 C805.0661,1444.2869 804.5151,1468.0949 811.7851,1491.9389 C815.1961,1503.1259 822.6551,1510.8009 834.6861,1512.2819 C847.9911,1513.9199 860.4281,1511.7959 869.2901,1500.3499 C870.7841,1498.4189 871.7351,1495.5619 871.7901,1493.1079 C872.0481,1481.6179 871.9051,1470.1179 871.9051,1458.6219 L871.9051,1458.6219 Z M833.1531,1618.4499 C822.5641,1616.4229 811.8931,1614.7359 801.4181,1612.2339 C795.4841,1610.8169 789.7911,1608.2399 784.1701,1605.7739 C782.8841,1605.2109 781.3291,1602.7159 781.6141,1601.5169 C783.9881,1591.5059 786.7621,1581.5909 789.4901,1571.3679 C796.5421,1573.6429 803.1551,1576.4909 810.0611,1577.8289 C819.4811,1579.6539 829.1111,1581.1609 838.6741,1581.3069 C854.7591,1581.5509 865.7631,1573.0659 869.5271,1557.4809 C871.5891,1548.9409 871.6581,1539.9209 872.6261,1531.1169 C872.1021,1530.9829 871.5791,1530.8499 871.0561,1530.7159 C870.5651,1531.0449 869.9541,1531.2759 869.6011,1531.7159 C848.0971,1558.4579 799.0471,1554.4129 778.5471,1526.7879 C768.4321,1513.1569 762.7141,1497.9689 760.8141,1481.3169 C758.1061,1457.5799 758.8841,1434.0239 767.4151,1411.3859 C774.4001,1392.8509 785.3451,1377.3179 804.7561,1370.1339 C828.5861,1361.3129 855.1651,1364.4409 872.2081,1388.0479 C872.7731,1388.8299 873.1721,1389.7319 873.6481,1390.5789 C874.0671,1390.3599 874.4871,1390.1419 874.9051,1389.9229 C875.7071,1384.7529 876.7431,1379.6049 877.2351,1374.4059 C877.6271,1370.2699 879.2581,1368.8779 883.5321,1368.9909 C895.3191,1369.3029 907.1201,1369.0989 919.3641,1369.0989 C919.4801,1371.4319 919.6451,1373.2139 919.6451,1374.9949 C919.6581,1429.4699 919.6361,1483.9439 919.665121,1538.4189 C919.6751,1557.3539 916.1561,1575.1959 903.8291,1590.3339 C889.8161,1607.5409 871.0371,1615.2359 849.5021,1617.3889 C847.0411,1617.6349 844.6021,1618.0919 842.1531,1618.4499 L833.1531,1618.4499 Z" id="Fill-1" fill="#000000"></path>
            <g id="Group-5" transform="translate(0.000000, 0.450000)">
                <mask id="mask-2" fill="white">
                    <use xlink:href="#path-1"></use>
                </mask>
                <g id="Clip-4"></g>
                <path d="M631.7386,51.0954237 C312.3756,50.3122 50.7926,309.8082 50.2507641,631.3972 C49.7136,951.7432 308.9536,1213.5812 631.3326,1213.74828 C952.5206,1213.9132 1212.6516,953.9012 1213.05607,633.0512 C1213.4616,310.8052 951.5726,50.3812 631.7386,51.0954237 M1263.2496,632.4872 C1263.2496,981.4702 980.3866,1264.2362 631.5276,1263.99236 C282.3076,1263.7482 0.1436,981.2532 0.000544637134,632.2242 C-0.1444,282.9152 284.5546,-0.6528 634.7916,0.548373759 C981.2086,1.7432 1263.2496,284.5282 1263.2496,632.4872" id="Fill-3" fill="#000000" mask="url(#mask-2)"></path>
            </g>
            <path d="M297.0789,1458.9773 C297.0789,1470.6403 296.9659,1482.3053 297.1749,1493.9633 C297.2169,1496.2823 297.9439,1498.9833 299.2919,1500.8203 C313.6599,1520.4013 347.1649,1516.8173 356.0519,1494.3333 C359.3449,1486.0023 360.8019,1476.6573 361.4959,1467.6513 C362.7309,1451.6213 361.1889,1435.8243 354.6399,1420.7033 C343.4809,1394.9383 310.0879,1399.9533 299.8739,1415.7883 C298.3549,1418.1433 297.2719,1421.2193 297.2029,1423.9923 C296.9099,1435.6473 297.0789,1447.3153 297.0789,1458.9773 L297.0789,1458.9773 Z M225.5049,1308.0453 L225.5049,1314.2573 C225.5049,1330.5883 225.6439,1346.9223 225.4139,1363.2503 C225.3519,1367.6843 226.4249,1369.2803 231.1739,1369.2083 C249.5019,1368.9333 267.8359,1369.0953 286.1669,1369.0983 C293.5219,1369.0993 293.4709,1369.1083 294.1119,1376.2303 C294.4669,1380.1623 295.0309,1384.0743 295.5929,1388.7713 C296.7899,1387.7373 297.5889,1387.2703 298.0859,1386.5843 C320.5029,1355.6883 368.5449,1361.5863 388.6129,1387.8523 C399.2219,1401.7373 405.3399,1417.4063 407.6199,1434.4703 C410.5949,1456.7313 411.0349,1479.0633 404.0149,1500.7723 C396.9629,1522.5813 384.5509,1540.2203 361.3579,1546.6813 C338.1669,1553.1413 316.3569,1550.9383 299.0199,1531.6583 C298.7229,1531.3283 298.2489,1531.1573 297.0789,1530.4223 L297.0789,1538.1683 C297.0789,1551.1673 297.1419,1564.1663 297.0309,1577.1653 C297.0069,1579.9583 297.7169,1581.2953 300.7229,1581.8173 C307.0829,1582.9193 313.3599,1584.5013 319.8819,1585.9323 L319.8819,1614.1873 L226.6929,1614.1873 L226.6929,1586.0043 C233.0219,1584.5983 239.4299,1583.0303 245.9029,1581.8053 C248.4789,1581.3183 249.5999,1580.4243 249.5959,1577.6593 C249.5249,1519.9983 249.5279,1462.3363 249.5019,1404.6763 C249.5019,1404.1933 249.3239,1403.7093 249.1139,1402.6433 C242.5139,1401.3153 235.7689,1399.5903 228.9159,1398.7123 C224.6559,1398.1673 223.8909,1396.2713 224.0349,1392.5153 C224.2929,1385.7143 224.1079,1378.8973 224.1079,1371.3853 L189.1999,1371.3853 C188.4339,1362.1563 187.7239,1353.5823 186.9859,1344.6913 L143.2159,1344.6913 C143.1199,1346.4093 142.9509,1348.0203 142.9499,1349.6303 C142.9359,1402.2923 142.9879,1454.9553 142.8419,1507.6163 C142.8299,1511.7493 143.8269,1513.4573 148.1069,1514.0033 C154.6809,1514.8413 161.1539,1516.4683 167.9769,1517.8223 L167.9769,1546.0163 L69.8719,1546.0163 L69.8719,1517.8623 C77.2099,1516.4153 84.3499,1514.8843 91.5419,1513.6533 C94.1179,1513.2123 95.2749,1512.3713 95.2699,1509.5633 C95.1829,1455.0693 95.1769,1400.5753 95.1419,1346.0813 C95.1419,1345.7683 94.9749,1345.4563 94.7729,1344.7473 L51.2569,1344.7473 C50.5399,1353.3123 49.8239,1361.8793 49.0769,1370.8013 L13.3469,1370.8013 L13.3469,1308.0453 L225.5049,1308.0453 Z" id="Fill-6" fill="#000000"></path>
            <path d="M688.306,1458.3338 C688.575,1444.6908 686.984,1431.4118 680.565,1419.0958 C674.452,1407.3668 664.474,1402.2418 651.555,1402.4188 C638.987,1402.5908 629.557,1407.9888 623.777,1419.4078 C619.178,1428.4918 617.17,1438.2118 616.555,1448.2488 C615.581,1464.1558 616.164,1479.8948 622.903,1494.7548 C626.651,1503.0208 632.46,1509.0418 641.412,1511.7218 C659.785,1517.2228 675.635,1509.8148 682.85,1492.0998 C687.253,1481.2858 688.556,1469.9208 688.306,1458.3338 M568.161,1457.8278 C568.65,1443.5398 570.151,1429.4828 575.588,1416.1808 C590.883,1378.7638 621.306,1363.1428 659.001,1366.1698 C703.653,1369.7558 731.5,1398.8958 735.235,1443.8448 C736.769,1462.3098 735.915,1480.4658 729.452,1498.0148 C717.823,1529.5878 692.04,1548.1748 658.498,1549.5068 C641.418,1550.1868 624.801,1548.3928 609.702,1539.7488 C586.653,1526.5558 574.788,1505.6908 570.371,1480.1738 C569.098,1472.8178 568.868,1465.2818 568.161,1457.8278" id="Fill-8" fill="#000000"></path>
            <path d="M1059.2537,1440.2693 C1057.6777,1432.4523 1056.7407,1425.2633 1054.6897,1418.4093 C1052.9917,1412.7353 1049.0867,1408.0743 1043.5187,1405.5813 C1033.1697,1400.9443 1022.6007,1400.3823 1013.3167,1407.6343 C1002.9747,1415.7113 999.8817,1427.4223 998.7177,1440.2693 L1059.2537,1440.2693 Z M1104.1737,1471.8343 L999.0437,1471.8343 C997.2067,1493.8253 1014.9437,1512.6553 1037.5587,1513.3113 C1053.5247,1513.7753 1068.6287,1510.3913 1082.7187,1502.7383 C1084.2837,1501.8883 1085.9317,1501.1943 1087.9407,1500.2393 C1091.9487,1509.3433 1095.9687,1518.0883 1099.5207,1527.0203 C1099.9807,1528.1763 1098.4587,1530.9453 1097.1047,1531.8683 C1084.6767,1540.3463 1070.8347,1545.5213 1056.0517,1547.8753 C1038.1187,1550.7323 1020.0617,1551.2693 1002.7517,1544.9043 C971.7737,1533.5133 955.0487,1510.1733 950.4827,1478.2273 C947.3407,1456.2543 948.5597,1434.3283 957.2937,1413.4243 C971.1447,1380.2733 1001.3137,1362.7683 1037.1307,1366.0223 C1066.7787,1368.7163 1088.1407,1382.3903 1098.7647,1410.6223 C1101.7077,1418.4433 1103.3397,1427.0323 1103.9557,1435.3873 C1104.8207,1447.1203 1104.1737,1458.9643 1104.1737,1471.8343 L1104.1737,1471.8343 Z" id="Fill-10" fill="#000000"></path>
            <path d="M557.4246,1367.8465 C556.1046,1379.3315 554.9716,1390.4025 553.5256,1401.4315 C552.2256,1411.3415 552.0766,1411.0225 542.0286,1410.9355 C535.0976,1410.8755 527.9396,1410.8725 521.2726,1412.4715 C510.0776,1415.1565 504.9376,1422.7955 504.9386,1434.1905 C504.9386,1458.8445 505.0116,1483.5005 504.8596,1508.1545 C504.8366,1511.8295 505.7866,1513.4335 509.6066,1514.0135 C515.6406,1514.9305 521.5696,1516.5435 527.6736,1517.8905 L527.6736,1545.9565 L434.5956,1545.9565 L434.5956,1517.8395 C440.9446,1516.4415 447.4366,1515.1875 453.8036,1513.4695 C455.1746,1513.0995 457.0726,1511.0605 457.0786,1509.7835 C457.2406,1474.6335 457.1916,1439.4845 457.1566,1404.3345 C457.1566,1403.8655 456.8966,1403.3965 456.6586,1402.5935 C449.7756,1401.2215 442.8136,1399.6775 435.7886,1398.5095 C432.9696,1398.0405 431.7056,1397.0555 431.7656,1394.0795 C431.9056,1387.0855 431.9136,1380.0845 431.7626,1373.0915 C431.6966,1370.0265 432.8876,1369.0515 435.8646,1369.0635 C456.5216,1369.1465 477.1786,1369.1495 497.8356,1369.0615 C500.8806,1369.0475 501.8686,1370.2685 502.0276,1373.1605 C502.3866,1379.7195 503.0206,1386.2645 504.0686,1393.1255 C515.5746,1371.5965 532.0806,1361.2405 557.4246,1367.8465" id="Fill-12" fill="#000000"></path>
            <path d="M1131.5471,1517.8406 C1138.0511,1516.4146 1144.5501,1515.1376 1150.9451,1513.4636 C1152.2361,1513.1256 1154.0751,1511.2956 1154.0811,1510.1456 C1154.2471,1474.5146 1154.2171,1438.8826 1154.2171,1402.7266 C1146.8931,1401.2616 1139.8061,1399.6726 1132.6511,1398.4946 C1129.7181,1398.0116 1128.7141,1396.8066 1128.7671,1393.9426 C1128.8961,1386.9476 1128.8801,1379.9486 1128.7781,1372.9536 C1128.7391,1370.2476 1129.6441,1369.0676 1132.5031,1369.0766 C1153.3261,1369.1456 1174.1501,1369.1546 1194.9731,1369.0616 C1198.1391,1369.0476 1198.9011,1370.5226 1199.0261,1373.2976 C1199.2581,1378.4516 1199.7231,1383.5956 1200.1421,1388.7396 C1200.2561,1390.1326 1200.5541,1391.5106 1200.9661,1394.1836 C1207.9851,1381.4266 1215.6771,1371.1696 1229.2061,1367.2706 C1237.4531,1364.8936 1245.6031,1365.5626 1254.4271,1367.8616 C1252.7561,1382.2906 1251.1041,1396.5666 1249.4851,1410.5526 C1242.5111,1410.5526 1236.2051,1410.4786 1229.9021,1410.5696 C1219.6181,1410.7176 1210.3831,1413.4206 1204.3291,1422.4726 C1202.9501,1424.5346 1202.0541,1427.3526 1202.0391,1429.8296 C1201.8771,1455.9836 1201.9941,1482.1386 1201.8691,1508.2916 C1201.8531,1511.6776 1202.5351,1513.3486 1206.2581,1513.9156 C1212.3231,1514.8396 1218.2811,1516.4626 1224.5691,1517.8546 L1224.5691,1546.0086 L1131.5471,1546.0086 L1131.5471,1517.8406 Z" id="Fill-14" fill="#000000"></path>
            <path d="M272.8972,508.2605 C272.6122,510.2475 272.5442,511.0375 272.3812,511.8085 C265.3902,544.7665 262.5122,577.9325 266.8252,611.5405 C273.3622,662.4815 295.5782,705.1055 334.8902,738.2345 C343.4662,745.4625 348.5032,753.6965 351.1102,764.2005 C358.7112,794.8345 361.8322,826.1145 364.9122,857.4065 C365.6572,864.9755 366.3072,872.5545 366.9872,879.9725 C368.0602,880.2815 368.5402,880.5645 368.9942,880.5285 C373.8032,880.1385 378.6282,879.8605 383.4092,879.2445 C408.1802,876.0515 430.4962,880.9775 450.3062,897.1705 C470.5432,913.7135 488.5512,932.3555 505.4962,952.1135 C539.0682,991.2585 568.8282,1033.2775 598.1982,1075.5845 C603.0552,1082.5805 601.7102,1081.7705 608.5672,1078.3035 C652.7302,1055.9785 697.3672,1034.7105 744.5292,1019.3695 C755.7062,1015.7355 767.4162,1013.7255 778.9022,1011.0595 C785.8702,1009.4425 792.0242,1012.0525 797.9922,1015.1715 C808.8412,1020.8415 820.2632,1025.0685 832.5222,1022.2985 C855.8692,1017.0245 879.0622,1011.0405 902.2392,1005.0455 C908.8602,1003.3325 910.3772,1000.2695 909.6862,993.5055 C908.5522,982.4195 906.5952,971.3425 906.4762,960.2445 C906.2492,938.9335 907.0602,917.6105 907.4552,896.2925 C907.5532,891.0055 910.2932,887.3195 914.4422,884.2805 C921.6832,878.9765 922.6052,875.9555 919.2132,867.6705 C917.5202,863.5325 915.1532,859.6665 913.0332,855.7085 C911.7152,853.2505 910.2892,850.8515 908.5192,847.7345 C914.3432,846.6715 919.5252,845.8185 924.6682,844.7675 C932.1862,843.2315 933.2262,842.1855 933.1772,834.4245 C933.0692,817.4315 932.7832,800.4385 932.3542,783.4505 C932.2642,779.8785 933.5092,777.7135 936.3072,775.5735 C946.2292,767.9855 956.2222,760.4395 965.5942,752.2005 C971.1582,747.3085 975.7002,741.2245 980.5102,735.5155 C982.2252,733.4805 982.4552,731.3265 980.1962,728.9195 C955.5662,702.6795 934.9382,673.4325 916.2182,642.8065 C906.4832,626.8805 897.1292,610.6645 892.2542,592.4635 C890.8752,587.3115 889.7092,581.1995 891.1642,576.3425 C898.7232,551.0925 900.5402,525.3735 899.5442,499.2585 C899.1962,490.1325 899.5112,490.5415 907.9472,488.0145 C928.8192,481.7625 949.5182,474.9355 970.3952,468.7045 C975.5502,467.1655 976.1622,464.7605 974.9812,460.0415 C962.5542,410.3635 933.0802,373.8185 889.1372,348.4865 C885.4142,346.3395 883.9982,344.1625 884.1402,339.9615 C884.9522,315.9295 890.3812,292.8515 898.3672,270.3235 C899.6522,266.6995 899.1722,264.9205 895.7292,263.3805 C885.4002,258.7595 875.3642,253.4145 864.8412,249.3065 C810.0162,227.9055 753.2262,222.6815 695.0112,228.9945 C657.9202,233.0165 621.8012,241.0675 586.9722,254.3845 C572.4192,259.9485 558.3742,266.8395 542.6712,273.7545 C549.9522,257.6615 556.9322,242.2325 564.2942,225.9605 C524.4312,226.9425 490.0312,241.0175 458.3572,262.4675 C426.8242,283.8215 399.6132,309.5385 380.8352,344.4405 C380.1902,341.2435 379.4752,339.1605 379.3902,337.0525 C378.5032,314.9425 377.6142,292.8315 376.9592,270.7145 C376.7322,263.0595 377.2222,255.3855 377.2562,247.7195 C377.2762,243.1695 375.7082,241.7595 371.4632,243.4005 C367.4892,244.9375 363.5562,247.0685 360.2352,249.7245 C338.4292,267.1685 320.9762,288.5615 305.1122,311.3485 C296.0012,324.4365 294.0612,339.2235 296.7912,354.3325 C298.6692,364.7275 302.6552,374.7515 305.8442,384.8965 C308.2432,392.5315 308.2372,392.3355 301.4892,396.7875 C257.0592,426.1035 227.6212,465.0085 223.5912,519.8495 C223.0592,527.1015 223.8502,534.4505 224.0282,541.7545 C240.0812,529.5975 254.0372,516.4315 272.8972,508.2605 M631.7382,51.5457192 C951.5722,50.8305 1213.4612,311.2555 1213.05567,633.5015 C1212.6512,954.3515 952.5212,1214.3635 631.3332,1214.19758 C308.9532,1214.0315 49.7132,952.1935 50.2503641,631.8475 C50.7922,310.2585 312.3762,50.7615 631.7382,51.5457192" id="Fill-16" fill="#26A5A0"></path>
            <path d="M865.2952,587.3636 C860.1772,588.0716 855.6092,589.0716 851.0122,589.2336 C846.7422,589.3836 845.0772,591.0976 845.090125,595.2446 C845.1612,618.0476 845.0232,640.8526 845.2542,663.6536 C845.2992,668.0996 846.6582,672.5336 847.5812,677.9766 C855.7842,671.7786 862.1482,666.4526 862.5222,656.4526 C863.3112,635.3256 864.5752,614.2166 865.5992,593.0986 C865.6842,591.3336 865.4202,589.5526 865.2952,587.3636 M837.8672,926.4106 C840.1912,918.6806 842.1862,912.1976 844.0852,905.6856 C845.5662,900.6036 845.4432,893.8846 848.7482,890.8236 C852.2492,887.5806 858.9412,887.7236 864.2692,886.5236 C878.5192,883.3156 892.7852,880.1786 908.6212,876.6646 C905.2162,869.8936 902.3712,863.6496 899.0092,857.6986 C894.8542,850.3426 894.6052,850.2506 886.5012,852.8906 C855.1122,863.1156 824.9302,876.2066 795.7422,891.6006 C793.4622,892.8036 791.4102,894.4406 788.1762,896.5916 C804.9592,906.6626 820.8532,916.2006 837.8672,926.4106 M616.4622,587.5466 C618.8562,587.3326 620.8432,587.3276 622.7622,586.9586 C650.2042,581.6736 677.7332,576.7856 705.0492,570.9116 C744.1562,562.5026 783.5012,555.7836 823.3672,552.4926 C840.1152,551.1106 856.9432,550.6136 873.7452,550.0226 C877.6962,549.8836 878.8422,548.2216 879.2302,544.7376 C881.7952,521.6446 882.0092,498.5346 880.1812,475.3816 C879.6412,468.5436 877.2552,462.6726 871.6812,458.5686 C862.9822,452.1626 854.1192,445.9796 845.2632,439.7926 C843.9652,438.8856 842.3182,438.4796 840.2842,437.6066 C840.2842,439.6746 840.2272,441.1126 840.2932,442.5436 C840.9742,457.3526 842.3032,472.1656 842.1982,486.9686 C842.0882,502.4176 840.8932,517.8806 839.5852,533.2876 C839.0102,540.0576 838.3342,540.0976 831.5852,538.9666 C810.2512,535.3916 788.9382,531.6886 767.5942,528.1686 C764.4282,527.6466 763.2852,526.3216 762.9712,523.0786 C761.5732,508.6636 760.0352,494.2556 758.1832,479.8926 C757.3082,473.1146 755.6132,466.4426 754.0662,458.5826 C754.0662,476.7756 754.1722,493.5706 753.9942,510.3636 C753.9472,514.8266 753.0282,519.2806 752.5082,523.7396 C752.2052,526.3476 750.8422,527.4486 748.1382,527.2146 C741.1742,526.6106 734.1362,526.5406 727.2562,525.4466 C724.5492,525.0156 721.5242,522.9506 719.7752,520.7366 C711.3152,510.0266 703.5672,498.7426 694.9312,488.1816 C686.7402,478.1666 677.7632,468.7956 668.6762,458.6326 C667.1242,461.7096 665.9232,463.8776 664.9122,466.1296 C660.6872,475.5376 657.0562,485.2576 652.2252,494.3396 C640.2712,516.8126 627.7122,538.9636 615.5882,561.3466 C614.1702,563.9626 613.1222,567.2946 613.3532,570.1786 C613.8002,575.7766 615.2782,581.2916 616.4622,587.5466 M620.3362,622.8536 C620.3362,627.4316 620.0932,630.5986 620.3752,633.7186 C622.3102,655.1066 624.5122,676.4706 626.2892,697.8706 C627.0412,706.9296 628.2842,715.3556 634.1112,723.0656 C648.8692,742.5886 662.6512,762.8496 677.4612,782.3326 C688.9342,797.4276 701.3732,811.7886 713.3712,826.4846 C715.8392,829.5076 718.1952,829.7436 721.9032,827.8276 C743.4782,816.6816 765.1102,805.6296 786.9782,795.0746 C804.3792,786.6756 822.2382,779.4746 841.7792,777.3456 C865.7672,774.7316 889.6772,771.3986 913.6772,768.9206 C929.8752,767.2476 937.9512,754.7236 948.2382,745.9566 C937.4682,729.9246 926.9172,714.9596 917.1642,699.4926 C907.3642,683.9496 898.3592,667.9056 889.0052,652.0826 C887.8272,660.1716 887.7552,668.0676 887.8572,675.9606 C887.9102,680.1646 886.7272,683.5166 883.5712,686.5986 C872.3692,697.5366 861.1742,708.5076 850.5092,719.9616 C845.5872,725.2486 839.9732,727.1206 833.2292,727.0166 C831.0692,726.9836 828.9112,726.5746 826.7552,726.5956 C821.3062,726.6496 818.9272,724.0766 818.1582,718.6226 C813.1902,683.4186 811.0172,648.0746 812.0342,612.5306 C812.2082,606.4616 812.0592,600.3826 812.0592,593.2746 C748.2752,603.1146 684.3722,612.9736 620.3362,622.8536 M748.2802,989.2376 C744.2312,987.1876 741.5202,985.5666 738.6282,984.3896 C699.1982,968.3396 659.7492,952.3356 620.2922,936.3526 C597.9412,927.2996 575.4962,918.4756 553.2742,909.1206 C549.5802,907.5656 545.4732,904.4496 543.8322,900.9796 C533.3762,878.8636 524.1352,856.2396 517.6492,832.5676 C513.9502,819.0646 513.8042,806.1076 518.5972,792.5096 C535.2652,745.2226 545.2602,696.6776 543.2192,646.1796 C543.1492,644.4266 543.0342,642.6766 542.9542,641.1826 C536.7072,641.1826 531.0572,640.9726 525.4342,641.2656 C522.3152,641.4286 520.8002,640.3856 519.3212,637.6376 C514.9112,629.4456 510.5532,621.1546 505.3032,613.5006 C494.8022,598.1936 480.5932,588.0526 461.9312,584.8856 C449.1192,582.7106 436.3832,583.0386 423.7842,586.2566 C407.7912,590.3406 398.1182,600.5776 395.4452,616.8456 C394.4562,622.8666 394.2102,629.1516 394.6502,635.2416 C396.6972,663.5416 404.5972,690.3276 418.4982,714.9526 C432.8892,740.4456 448.2102,765.4336 463.7902,790.2246 C469.1602,798.7706 470.7282,806.9816 468.6162,816.6436 C464.6032,835.0026 461.1982,853.4926 457.3042,871.8786 C456.4192,876.0546 457.2782,878.5226 460.5762,881.6096 C476.7342,896.7356 493.1842,911.6596 508.1622,927.9166 C543.3392,966.1006 573.2482,1008.4466 602.8432,1050.9866 C603.9682,1052.6026 605.1632,1054.1706 606.6492,1056.2036 C651.6352,1029.7246 697.7372,1006.1906 748.2802,989.2376 M272.8972,508.2606 C254.0372,516.4316 240.0812,529.5976 224.0282,541.7546 C223.8502,534.4506 223.0592,527.1016 223.5912,519.8496 C227.6212,465.0086 257.0592,426.1036 301.4892,396.7876 C308.2372,392.3356 308.2432,392.5306 305.8442,384.8966 C302.6552,374.7516 298.6692,364.7276 296.7912,354.3326 C294.0612,339.2236 296.0012,324.4366 305.1122,311.3486 C320.9762,288.5616 338.4292,267.1686 360.2352,249.7246 C363.5562,247.0686 367.4892,244.9376 371.4632,243.4006 C375.7082,241.7596 377.2762,243.1696 377.2562,247.7196 C377.2222,255.3856 376.7322,263.0596 376.9592,270.7146 C377.6142,292.8316 378.5032,314.9426 379.3902,337.0516 C379.4752,339.1606 380.1902,341.2436 380.8352,344.4406 C399.6132,309.5386 426.8242,283.8216 458.3572,262.4676 C490.0312,241.0176 524.4312,226.9426 564.2942,225.9606 C556.9322,242.2326 549.9522,257.6616 542.6712,273.7546 C558.3742,266.8396 572.4202,259.9486 586.9722,254.3846 C621.8012,241.0676 657.9202,233.0166 695.0112,228.9946 C753.2262,222.6816 810.0162,227.9056 864.8412,249.3066 C875.3642,253.4146 885.4002,258.7596 895.7292,263.3806 C899.1722,264.9206 899.6522,266.6996 898.3672,270.3236 C890.3812,292.8516 884.9522,315.9296 884.1402,339.9616 C883.9982,344.1626 885.4142,346.3396 889.1372,348.4866 C933.0802,373.8186 962.5542,410.3636 974.9822,460.0416 C976.1622,464.7606 975.5502,467.1656 970.3952,468.7046 C949.5182,474.9356 928.8192,481.7626 907.9472,488.0146 C899.5112,490.5416 899.1962,490.1326 899.5442,499.2586 C900.5402,525.3736 898.7232,551.0926 891.1642,576.3426 C889.7102,581.1996 890.8752,587.3116 892.2542,592.4636 C897.1292,610.6646 906.4832,626.8806 916.2182,642.8066 C934.9382,673.4326 955.5662,702.6796 980.1962,728.9196 C982.4552,731.3266 982.2252,733.4806 980.5102,735.5156 C975.7002,741.2246 971.1582,747.3086 965.5942,752.2006 C956.2222,760.4396 946.2292,767.9856 936.3072,775.5736 C933.5092,777.7136 932.2642,779.8786 932.3542,783.4506 C932.7832,800.4386 933.0692,817.4316 933.1772,834.4246 C933.2262,842.1856 932.1862,843.2316 924.6692,844.7676 C919.5252,845.8186 914.3432,846.6716 908.5192,847.7346 C910.2892,850.8516 911.7152,853.2506 913.0332,855.7086 C915.1532,859.6666 917.5202,863.5326 919.2132,867.6706 C922.6052,875.9556 921.6832,878.9766 914.4422,884.2806 C910.2932,887.3196 907.5532,891.0056 907.4552,896.2926 C907.0602,917.6106 906.2492,938.9336 906.4762,960.2446 C906.5952,971.3426 908.5522,982.4196 909.6862,993.5056 C910.3772,1000.2696 908.8602,1003.3326 902.2392,1005.0456 C879.0622,1011.0406 855.8692,1017.0246 832.5222,1022.2986 C820.2632,1025.0686 808.8412,1020.8416 797.9922,1015.1716 C792.0242,1012.0526 785.8702,1009.4426 778.9022,1011.0596 C767.4162,1013.7256 755.7062,1015.7356 744.5292,1019.3696 C697.3672,1034.7106 652.7302,1055.9786 608.5672,1078.3036 C601.7102,1081.7706 603.0552,1082.5806 598.1982,1075.5846 C568.8282,1033.2776 539.0682,991.2586 505.4962,952.1136 C488.5512,932.3556 470.5432,913.7136 450.3062,897.1706 C430.4962,880.9776 408.1802,876.0506 383.4092,879.2446 C378.6282,879.8606 373.8032,880.1386 368.9942,880.5286 C368.5402,880.5646 368.0602,880.2816 366.9872,879.9726 C366.3072,872.5546 365.6572,864.9756 364.9122,857.4056 C361.8322,826.1136 358.7112,794.8346 351.1102,764.2006 C348.5032,753.6966 343.4662,745.4626 334.8902,738.2346 C295.5782,705.1056 273.3622,662.4816 266.8252,611.5406 C262.5122,577.9326 265.3902,544.7666 272.3812,511.8086 C272.5442,511.0376 272.6122,510.2476 272.8972,508.2606" id="Fill-18" fill="#000000"></path>
            <path d="M748.2806,989.2371 C697.7376,1006.1901 651.6346,1029.7241 606.6496,1056.2041 C605.1636,1054.1711 603.9686,1052.6021 602.8436,1050.9861 C573.2476,1008.4471 543.3396,966.1001 508.1616,927.9161 C493.1846,911.6591 476.7346,896.7361 460.5756,881.6091 C457.2786,878.5221 456.4196,876.0541 457.3046,871.8791 C461.1986,853.4931 464.6036,835.0021 468.6156,816.6431 C470.7276,806.9821 469.1606,798.7711 463.7896,790.2241 C448.2106,765.4331 432.8886,740.4451 418.4986,714.9531 C404.5976,690.3271 396.6976,663.5421 394.6506,635.2421 C394.2106,629.1521 394.4566,622.8671 395.4456,616.8451 C398.1186,600.5781 407.7916,590.3411 423.7836,586.2561 C436.3836,583.0381 449.1196,582.7111 461.9316,584.8851 C480.5926,588.0531 494.8026,598.1941 505.3026,613.5011 C510.5536,621.1541 514.9106,629.4451 519.3216,637.6371 C520.8006,640.3851 522.3156,641.4281 525.4346,641.2661 C531.0576,640.9721 536.7076,641.1831 542.9546,641.1831 C543.0346,642.6761 543.1486,644.4271 543.2196,646.1791 C545.2596,696.6781 535.2646,745.2221 518.5966,792.5091 C513.8036,806.1071 513.9506,819.0651 517.6496,832.5671 C524.1346,856.2391 533.3766,878.8641 543.8326,900.9791 C545.4726,904.4491 549.5806,907.5661 553.2736,909.1201 C575.4966,918.4751 597.9416,927.2991 620.2916,936.3531 C659.7496,952.3351 699.1976,968.3401 738.6286,984.3891 C741.5196,985.5661 744.2306,987.1871 748.2806,989.2371" id="Fill-20" fill="#FFFFFF"></path>
            <path d="M620.3358,622.8533 C684.3718,612.9743 748.2758,603.1153 812.0598,593.2743 C812.0598,600.3823 812.2088,606.4613 812.0348,612.5313 C811.0168,648.0753 813.1898,683.4183 818.1578,718.6233 C818.9278,724.0763 821.3068,726.6493 826.7548,726.5963 C828.9118,726.5753 831.0688,726.9833 833.2288,727.0173 C839.9728,727.1203 845.5868,725.2483 850.5098,719.9613 C861.1748,708.5073 872.3688,697.5373 883.5708,686.5983 C886.7278,683.5173 887.9108,680.1653 887.8568,675.9603 C887.7558,668.0673 887.8278,660.1713 889.0058,652.0823 C898.3588,667.9063 907.3648,683.9503 917.1648,699.4923 C926.9178,714.9593 937.4688,729.9243 948.2388,745.9573 C937.9518,754.7243 929.8748,767.2483 913.6778,768.9203 C889.6778,771.3983 865.7668,774.7313 841.7798,777.3453 C822.2388,779.4753 804.3788,786.6753 786.9778,795.0743 C765.1098,805.6293 743.4778,816.6823 721.9028,827.8283 C718.1958,829.7443 715.8388,829.5073 713.3718,826.4843 C701.3738,811.7883 688.9348,797.4273 677.4608,782.3323 C662.6518,762.8503 648.8698,742.5883 634.1118,723.0653 C628.2838,715.3553 627.0408,706.9293 626.2888,697.8703 C624.5128,676.4703 622.3098,655.1063 620.3748,633.7193 C620.0928,630.5993 620.3358,627.4323 620.3358,622.8533" id="Fill-22" fill="#FFFFFF"></path>
            <path d="M616.4627,587.5467 C615.2777,581.2917 613.7997,575.7757 613.3527,570.1787 C613.1227,567.2947 614.1707,563.9627 615.5877,561.3467 C627.7127,538.9637 640.2717,516.8127 652.2247,494.3397 C657.0567,485.2567 660.6877,475.5377 664.9117,466.1297 C665.9227,463.8777 667.1237,461.7097 668.6767,458.6317 C677.7627,468.7957 686.7407,478.1667 694.9307,488.1817 C703.5667,498.7427 711.3147,510.0257 719.7757,520.7367 C721.5247,522.9507 724.5487,525.0157 727.2567,525.4457 C734.1357,526.5407 741.1737,526.6107 748.1377,527.2137 C750.8427,527.4487 752.2047,526.3477 752.5087,523.7397 C753.0287,519.2807 753.9477,514.8267 753.9947,510.3627 C754.1717,493.5707 754.0657,476.7757 754.0657,458.5827 C755.6137,466.4427 757.3087,473.1147 758.1827,479.8927 C760.0347,494.2557 761.5737,508.6637 762.9707,523.0787 C763.2857,526.3217 764.4277,527.6467 767.5947,528.1687 C788.9377,531.6887 810.2517,535.3917 831.5857,538.9667 C838.3347,540.0977 839.0097,540.0577 839.5847,533.2877 C840.8927,517.8807 842.0887,502.4177 842.1987,486.9687 C842.3037,472.1657 840.9747,457.3527 840.2937,442.5437 C840.2277,441.1117 840.2847,439.6747 840.2847,437.6067 C842.3177,438.4797 843.9647,438.8857 845.2627,439.7927 C854.1197,445.9797 862.9827,452.1627 871.6807,458.5677 C877.2547,462.6727 879.6417,468.5437 880.1817,475.3807 C882.0097,498.5347 881.7957,521.6447 879.2297,544.7367 C878.8427,548.2217 877.6967,549.8837 873.7457,550.0227 C856.9427,550.6127 840.1157,551.1097 823.3677,552.4927 C783.5017,555.7837 744.1557,562.5027 705.0497,570.9117 C677.7337,576.7857 650.2047,581.6737 622.7617,586.9587 C620.8437,587.3277 618.8557,587.3327 616.4627,587.5467" id="Fill-24" fill="#FFFFFF"></path>
            <path d="M837.8675,926.4109 C820.8525,916.2009 804.9585,906.6619 788.1765,896.5909 C791.4095,894.4409 793.4615,892.8039 795.7425,891.6009 C824.9305,876.2059 855.1125,863.1159 886.5015,852.8899 C894.6045,850.2509 894.8545,850.3429 899.0095,857.6989 C902.3715,863.6499 905.2165,869.8929 908.6215,876.6639 C892.7855,880.1789 878.5195,883.3149 864.2695,886.5239 C858.9405,887.7239 852.2495,887.5809 848.7475,890.8239 C845.4435,893.8849 845.5665,900.6039 844.0845,905.6849 C842.1865,912.1979 840.1915,918.6809 837.8675,926.4109" id="Fill-26" fill="#FFFFFF"></path>
            <path d="M865.2952,587.3636 C865.4202,589.5526 865.6842,591.3336 865.5992,593.0986 C864.5752,614.2166 863.3112,635.3256 862.5222,656.4526 C862.1482,666.4526 855.7842,671.7786 847.5812,677.9766 C846.6582,672.5336 845.2992,668.0996 845.2542,663.6536 C845.0232,640.8526 845.1612,618.0476 845.090125,595.2446 C845.0772,591.0976 846.7422,589.3836 851.0122,589.2336 C855.6092,589.0716 860.1772,588.0716 865.2952,587.3636" id="Fill-28" fill="#FFFFFF"></path>
        </g>
    </g>
</svg>