<?xml version="1.0" encoding="UTF-8"?>
<svg width="48px" height="48px" viewBox="0 0 48 48" version="1.1" xmlns="http://www.w3.org/2000/svg" xmlns:xlink="http://www.w3.org/1999/xlink">
    <!-- Generator: Sketch 55.2 (78181) - https://sketchapp.com -->
    <title>Group 16</title>
    <desc>Created with Sketch.</desc>
    <g id="Site" stroke="none" stroke-width="1" fill="none" fill-rule="evenodd">
        <g id="pouf-•-site" transform="translate(-310.000000, -6754.000000)" fill="#4580C2">
            <g id="Group-25" transform="translate(151.000000, 6695.000000)">
                <g id="Group-31" transform="translate(159.000000, 59.000000)">
                    <g id="Group-16">
                        <path d="M16.3438835,0 L30.8236989,0 C44.0386108,0 47.1675824,3.12649025 47.1675824,16.3309225 L47.1675824,30.799255 C47.1675824,44.0036873 44.0386108,47.1301775 30.8236989,47.1301775 L16.3438835,47.1301775 C3.12897159,47.1301775 0,44.0036873 0,30.799255 L0,16.3309225 C0,3.12649025 3.12897159,0 16.3438835,0 Z M39.299903,15.5028944 C39.5394088,14.7699676 39.299903,14.23693 38.2392347,14.23693 L34.7150788,14.23693 C33.825486,14.23693 33.4149048,14.7033379 33.175399,15.2030607 C33.175399,15.2030607 31.3619984,19.4673619 28.8300806,22.2324946 C28.008918,23.0320511 27.6325518,23.2985699 27.1877555,23.2985699 C26.9482497,23.2985699 26.6403138,23.0320511 26.6403138,22.2991244 L26.6403138,15.4695795 C26.6403138,14.6033934 26.3665929,14.2036151 25.6138606,14.2036151 L20.0710134,14.2036151 C19.5235717,14.2036151 19.1814206,14.6033934 19.1814206,15.0031716 C19.1814206,15.8360429 20.4473796,16.035932 20.58424,18.3679717 L20.58424,23.4318293 C20.58424,24.5312195 20.3789493,24.7311086 19.934153,24.7311086 C18.7366243,24.7311086 15.8283402,20.4334926 14.0833698,15.5362093 C13.7412188,14.5700785 13.3990677,14.2036151 12.5094749,14.2036151 L8.95110391,14.2036151 C7.92465072,14.2036151 7.75357519,14.6700231 7.75357519,15.1697459 C7.75357519,16.0692469 8.95110391,20.6000669 13.3306375,26.5967404 C16.2389215,30.6944672 20.3789493,32.8932475 24.1083959,32.8932475 C26.3665929,32.8932475 26.6403138,32.3935247 26.6403138,31.5606534 L26.6403138,28.4623721 C26.6403138,27.4629265 26.8456044,27.2963523 27.5641216,27.2963523 C28.0773482,27.2963523 29.0011561,27.5628711 31.0882776,29.5284474 C33.483335,31.8604871 33.8939163,32.9265624 35.2283054,32.9265624 L38.7524613,32.9265624 C39.7789145,32.9265624 40.257926,32.4268396 39.9842051,31.4607089 C39.6762692,30.4945781 38.5129556,29.0953543 37.0074909,27.4296117 C36.1863284,26.4967958 34.9545845,25.4640354 34.5782184,24.9643126 C34.0649918,24.2980155 34.2018522,24.0314967 34.5782184,23.4318293 C34.5440033,23.4318293 38.8551066,17.5017856 39.299903,15.5028944 Z" id="Combined-Shape"></path>
                    </g>
                </g>
            </g>
        </g>
    </g>
</svg>