<svg id="Слой_1" xmlns="http://www.w3.org/2000/svg" xmlns:xlink="http://www.w3.org/1999/xlink" viewBox="0 0 70 102"><style>.st1{opacity:.9}</style><g id="Слой_1_1_"><defs><path id="SVGID_1_" d="M-1426.7-2710.1h5472v2400h-5472z"/></defs><clipPath id="SVGID_2_"><use xlink:href="#SVGID_1_" overflow="visible"/></clipPath><g class="st1"><linearGradient id="SVGID_3_" gradientUnits="userSpaceOnUse" x1="16.442" y1="-333.229" x2="45.952" y2="-428.269" gradientTransform="matrix(.9952 -.0981 -.0981 -.9952 -31.726 -324.544)"><stop offset="0" stop-color="#29a5dc"/><stop offset="1" stop-color="#b0a5dc"/></linearGradient><path d="M57.5 7.9S37.7-.2 37.6-.2L7 18.4 0 46.2l4.8 27.1 32.9 28.4c.1 0 .2.1.4.1h.2c.1 0 .2-.1.3-.1l11.3-28.8 12.8-12.3L70 32.8 57.5 7.9z" fill="url(#SVGID_3_)"/><defs><path id="SVGID_4_" d="M57.5 7.9S37.7-.2 37.6-.2L7 18.4 0 46.2l4.8 27.1 32.9 28.4c.1 0 .2.1.4.1h.2c.1 0 .2-.1.3-.1l11.3-28.8 12.8-12.3L70 32.8 57.5 7.9z"/></defs><clipPath id="SVGID_5_"><use xlink:href="#SVGID_4_" overflow="visible"/></clipPath><g clip-path="url(#SVGID_5_)"><linearGradient id="SVGID_6_" gradientUnits="userSpaceOnUse" x1="-8.285" y1="670.446" x2="14.065" y2="598.476" gradientTransform="scale(1 -1) rotate(-10.521 -3686.544 107.704)"><stop offset="0" stop-color="#29a5dc"/><stop offset="1" stop-color="#00a397"/></linearGradient><path opacity=".2" fill="url(#SVGID_6_)" d="M73 79.8L-9.3 42.6l9.5-26 81 19z"/><linearGradient id="SVGID_7_" gradientUnits="userSpaceOnUse" x1="-44.914" y1="-1362.357" x2="-15.384" y2="-1457.467" gradientTransform="matrix(.97 -.22 -.13 -.58 -116.95 -780.2)"><stop offset="0" stop-color="#fff"/><stop offset="1" stop-color="#ff0"/></linearGradient><path opacity=".2" fill="url(#SVGID_7_)" d="M79.2 59.7l-88 3 .5-10.4 72.4-49z"/><linearGradient id="SVGID_8_" gradientUnits="userSpaceOnUse" x1="-11.135" y1="-381.461" x2="56.218" y2="-381.461" gradientTransform="matrix(.9952 -.0981 -.0981 -.9952 -31.726 -324.544)"><stop offset="0" stop-color="#29a5dc"/><stop offset="1" stop-color="#80cfec"/></linearGradient><path opacity=".3" fill="url(#SVGID_8_)" d="M49.9 72.9L-1.3 97.8.9 13.5l61.8 47.1z"/><linearGradient id="SVGID_9_" gradientUnits="userSpaceOnUse" x1="14.516" y1="387.211" x2="48.206" y2="424.271" gradientTransform="matrix(.99 .11 .11 -.99 -49.41 422.73)"><stop offset="0" stop-color="#0ff" stop-opacity=".3"/><stop offset=".94" stop-color="#fff"/></linearGradient><path opacity=".54" fill="url(#SVGID_9_)" d="M77.1 33.1l-94.7 16.3L13.9-18 85.2 3.2z"/><linearGradient id="SVGID_10_" gradientUnits="userSpaceOnUse" x1="-7164.808" y1="-64.129" x2="-7137.377" y2="-33.959" gradientTransform="matrix(-1 -.02 -.02 1 -7113.43 -61.29)"><stop offset="0" stop-color="#0ff" stop-opacity=".3"/><stop offset=".94" stop-color="#fff"/></linearGradient><path opacity=".54" fill="url(#SVGID_10_)" d="M4.8 73.3l40-82.2 28.1 40.4L6 75.2z"/><linearGradient id="SVGID_11_" gradientUnits="userSpaceOnUse" x1="-602.019" y1="-2011.622" x2="-500.495" y2="-2011.622" gradientTransform="scale(1 -1) rotate(32.951 -3519.581 -68.71)"><stop offset="0" stop-color="#0ff"/><stop offset="1" stop-color="#fff"/></linearGradient><path opacity=".1" fill="url(#SVGID_11_)" d="M78.8 81.6L-1.1 133l-4.1-56.7 83.3-7.8z"/></g></g><g class="st1"><linearGradient id="SVGID_12_" gradientUnits="userSpaceOnUse" x1="-536.75" y1="-1935.69" x2="-536.75" y2="-1935.69" gradientTransform="scale(1 -1) rotate(32.951 -3519.581 -68.71)"><stop offset="0" stop-color="#0ff"/><stop offset="1" stop-color="#fff"/></linearGradient></g></g></svg>