<?xml version="1.0" standalone="no"?>
<!DOCTYPE svg PUBLIC "-//W3C//DTD SVG 20010904//EN"
 "http://www.w3.org/TR/2001/REC-SVG-20010904/DTD/svg10.dtd">
<svg version="1.0" xmlns="http://www.w3.org/2000/svg"
 width="816.000000pt" height="816.000000pt" viewBox="0 0 816.000000 816.000000"
 preserveAspectRatio="xMidYMid meet">
<metadata>
Created by potrace 1.11, written by Peter Selinger 2001-2013
</metadata>
<g transform="translate(0.000000,816.000000) scale(0.100000,-0.100000)"
fill="#000000" stroke="none">
<path d="M4110 8069 c-80 -49 -221 -135 -315 -191 -93 -57 -172 -106 -175
-109 -3 -3 -15 -9 -27 -13 -13 -4 -23 -11 -23 -16 0 -4 -8 -10 -17 -14 -10 -3
-36 -17 -58 -31 -22 -14 -56 -34 -75 -45 -19 -11 -48 -29 -65 -40 -16 -11 -37
-23 -45 -27 -8 -3 -17 -9 -20 -13 -3 -3 -27 -19 -55 -35 -27 -17 -59 -35 -70
-42 -11 -7 -29 -17 -40 -23 -11 -6 -33 -19 -50 -30 -16 -11 -38 -23 -47 -26
-10 -4 -18 -10 -18 -14 0 -4 -8 -10 -17 -14 -10 -3 -36 -17 -58 -31 -22 -14
-55 -33 -72 -42 -18 -9 -33 -20 -33 -25 0 -4 -4 -8 -9 -8 -9 0 -198 -112 -218
-130 -7 -5 -14 -10 -17 -10 -9 0 -111 -65 -118 -75 -4 -5 -8 -7 -8 -2 0 4 -22
-9 -50 -28 -27 -19 -52 -35 -54 -35 -4 0 -228 -135 -316 -189 -89 -56 -183
-111 -190 -111 -6 0 -22 -50 -35 -110 -2 -8 -13 -53 -25 -100 -12 -47 -23 -92
-25 -100 -2 -8 -11 -44 -20 -80 -9 -36 -19 -74 -22 -85 -9 -39 -11 -50 -13
-50 -1 0 -3 -7 -5 -15 -2 -8 -13 -53 -24 -100 -12 -47 -24 -96 -27 -110 -3
-14 -10 -43 -16 -65 -16 -57 -16 -58 -22 -83 -3 -13 -8 -32 -11 -42 -3 -10 -7
-27 -9 -37 -2 -10 -25 -101 -51 -203 -26 -102 -51 -201 -55 -220 -5 -19 -31
-125 -59 -235 -28 -110 -53 -209 -55 -220 -5 -21 -8 -32 -26 -100 -6 -22 -12
-47 -14 -56 -2 -8 -12 -46 -21 -83 -9 -37 -18 -72 -19 -79 -1 -7 -4 -16 -8
-22 -7 -11 -2 -97 7 -135 6 -27 22 -115 31 -170 3 -19 7 -41 9 -48 3 -7 7 -34
10 -60 4 -26 10 -63 15 -82 5 -19 11 -53 15 -75 6 -42 15 -97 22 -130 2 -11 6
-33 8 -50 3 -16 7 -41 10 -55 3 -14 7 -38 10 -55 6 -37 13 -73 26 -145 5 -30
12 -71 15 -90 2 -19 7 -48 11 -65 9 -40 8 -34 17 -88 4 -27 9 -56 10 -65 7
-37 16 -88 21 -112 3 -13 7 -42 11 -64 3 -22 7 -43 9 -46 1 -3 6 -25 9 -50 3
-25 9 -56 12 -70 3 -14 7 -34 8 -45 2 -11 6 -38 10 -60 3 -23 9 -52 11 -65 3
-14 7 -38 10 -55 3 -16 7 -41 10 -55 3 -14 7 -38 10 -55 3 -16 7 -41 10 -55 3
-14 10 -54 15 -90 10 -61 14 -68 64 -115 52 -49 139 -125 178 -155 10 -8 34
-28 52 -45 18 -16 55 -49 82 -72 27 -23 58 -50 70 -60 12 -10 48 -41 80 -69
32 -29 77 -67 99 -85 54 -46 80 -69 118 -103 18 -15 57 -49 87 -75 30 -25 109
-93 176 -151 66 -58 134 -116 150 -130 55 -47 119 -103 183 -159 35 -31 72
-61 81 -68 9 -6 31 -25 49 -42 19 -17 56 -50 84 -74 27 -23 55 -46 61 -52 6
-5 40 -35 76 -65 35 -30 71 -62 80 -70 8 -8 38 -33 65 -55 27 -22 59 -49 70
-60 11 -12 47 -43 80 -70 33 -28 62 -52 65 -55 3 -3 41 -37 85 -75 44 -38 82
-71 85 -74 3 -3 34 -31 70 -61 86 -73 96 -81 232 -199 115 -100 148 -121 179
-114 11 3 41 68 89 191 40 103 78 201 85 217 7 17 26 64 41 105 15 41 31 80
35 85 3 6 12 28 19 50 7 22 23 64 36 93 13 29 24 59 24 67 0 7 4 16 9 19 5 3
12 18 16 33 3 16 13 42 20 58 8 17 34 82 58 145 25 63 64 165 87 225 23 61 48
124 55 140 17 40 99 249 101 255 2 12 25 67 34 82 6 10 10 23 10 30 0 7 6 24
13 38 7 14 21 48 31 75 10 28 24 64 32 80 28 65 114 290 114 300 0 10 54 63
670 655 106 102 233 224 281 271 49 47 91 94 93 105 2 10 18 73 36 139 34 131
38 146 44 173 2 9 34 130 71 267 36 138 69 261 71 275 3 14 9 39 15 55 5 17
39 143 74 280 87 332 140 533 165 630 12 44 23 87 25 95 1 8 8 35 15 60 7 25
13 50 15 55 1 6 5 17 8 25 3 8 13 44 22 80 l17 65 -432 860 c-238 473 -457
910 -488 970 -31 61 -56 112 -57 115 -5 30 -37 52 -127 89 -57 23 -116 48
-133 56 -16 7 -66 28 -110 45 -44 17 -96 38 -115 47 -51 22 -108 46 -155 63
-11 5 -36 15 -55 23 -19 9 -71 30 -115 47 -44 17 -93 37 -110 44 -95 41 -119
51 -120 47 0 -2 -18 5 -40 16 -22 11 -142 62 -267 112 -155 62 -239 91 -265
90 -29 0 -71 -21 -183 -90z"/>
</g>
</svg>
