<svg width="56" height="47" viewBox="0 0 56 47" fill="none" xmlns="http://www.w3.org/2000/svg">
<g filter="url(#filter0_d)">
<path d="M51 1H5V38H51V1Z" stroke="#1D3C49" stroke-width="2" stroke-miterlimit="10" stroke-linecap="round" stroke-linejoin="round"/>
<path d="M9.5 6.5C9.5 7.1 9.1 6.5 8.5 6.5C7.9 6.5 7.5 7.1 7.5 6.5C7.5 5.9 7.9 5.5 8.5 5.5C9.1 5.5 9.5 5.9 9.5 6.5Z" fill="#353535" stroke="#1D3C49" stroke-miterlimit="10"/>
<path d="M12.5 6.5C12.5 7.1 12.1 6.5 11.5 6.5C10.9 6.5 10.5 7.1 10.5 6.5C10.5 5.9 10.9 5.5 11.5 5.5C12.1 5.5 12.5 5.9 12.5 6.5Z" fill="#353535" stroke="#1D3C49" stroke-miterlimit="10"/>
<path d="M15.5 6.5C15.5 7.1 15.1 6.5 14.5 6.5C13.9 6.5 13.5 7.1 13.5 6.5C13.5 5.9 13.9 5.5 14.5 5.5C15.1 5.5 15.5 5.9 15.5 6.5Z" fill="#353535" stroke="#1D3C49" stroke-miterlimit="10"/>
<path d="M19 6H51" stroke="#1D3C49" stroke-width="2" stroke-miterlimit="10" stroke-linecap="round" stroke-linejoin="round"/>
<path d="M23.8 21.6L26.5 24.4L35.3 14.3" stroke="#1D3C49" stroke-width="2" stroke-miterlimit="10" stroke-linecap="round" stroke-linejoin="round"/>
<path d="M35.4 20.3C36 24.7 32.9 28.8 28.5 29.4C24.1 30 20.1 26.8 19.5 22.4C18.9 18 22 13.9 26.4 13.3C27.8 13.1 29.2 13.3 30.4 13.8" stroke="#1D3C49" stroke-width="2" stroke-miterlimit="10" stroke-linecap="round" stroke-linejoin="round"/>
</g>
<defs>
<filter id="filter0_d" x="0" y="0" width="56" height="47" filterUnits="userSpaceOnUse" color-interpolation-filters="sRGB">
<feFlood flood-opacity="0" result="BackgroundImageFix"/>
<feColorMatrix in="SourceAlpha" type="matrix" values="0 0 0 0 0 0 0 0 0 0 0 0 0 0 0 0 0 0 127 0"/>
<feOffset dy="4"/>
<feGaussianBlur stdDeviation="2"/>
<feColorMatrix type="matrix" values="0 0 0 0 0 0 0 0 0 0 0 0 0 0 0 0 0 0 0.25 0"/>
<feBlend mode="normal" in2="BackgroundImageFix" result="effect1_dropShadow"/>
<feBlend mode="normal" in="SourceGraphic" in2="effect1_dropShadow" result="shape"/>
</filter>
</defs>
</svg>
