<svg width="56" height="47" viewBox="0 0 56 47" fill="none" xmlns="http://www.w3.org/2000/svg"><g filter="url(#a)" stroke="#1D3C49" stroke-miterlimit="10"><path d="M51 1H5v37h46V1z" stroke-width="2" stroke-linecap="round" stroke-linejoin="round"/><path d="M9.5 6.5c0 .6-.4 0-1 0s-1 .6-1 0 .4-1 1-1 1 .4 1 1zm3 0c0 .6-.4 0-1 0s-1 .6-1 0 .4-1 1-1 1 .4 1 1zm3 0c0 .6-.4 0-1 0s-1 .6-1 0 .4-1 1-1 1 .4 1 1z" fill="#353535"/><path d="M19 6h32M23.8 21.6l2.7 2.8 8.8-10.1" stroke-width="2" stroke-linecap="round" stroke-linejoin="round"/><path d="M35.4 20.3c.6 4.4-2.5 8.5-6.9 9.1-4.4.6-8.4-2.6-9-7-.6-4.4 2.5-8.5 6.9-9.1 1.4-.2 2.8 0 4 .5" stroke-width="2" stroke-linecap="round" stroke-linejoin="round"/></g><defs><filter id="a" x="0" y="0" width="56" height="47" filterUnits="userSpaceOnUse" color-interpolation-filters="sRGB"><feFlood flood-opacity="0" result="BackgroundImageFix"/><feColorMatrix in="SourceAlpha" values="0 0 0 0 0 0 0 0 0 0 0 0 0 0 0 0 0 0 127 0"/><feOffset dy="4"/><feGaussianBlur stdDeviation="2"/><feColorMatrix values="0 0 0 0 0 0 0 0 0 0 0 0 0 0 0 0 0 0 0.25 0"/><feBlend in2="BackgroundImageFix" result="effect1_dropShadow"/><feBlend in="SourceGraphic" in2="effect1_dropShadow" result="shape"/></filter></defs></svg>