<svg width="32" height="48" viewBox="0 0 32 48" fill="none" xmlns="http://www.w3.org/2000/svg">
<path d="M30.7 12.9C30.9 13.9 31 14.9 31 16C31 24.3 24.3 31 16 31C7.7 31 1 24.3 1 16C1 7.7 7.7 1 16 1C18.5 1 20.9 1.6 23 2.7" stroke="#1D3C49" stroke-width="2" stroke-miterlimit="10" stroke-linecap="round"/>
<path d="M29.3 8.6L25.7 5L12.4 18.3L9 15L5.5 18.5L12.4 25.5L29.3 8.6Z" stroke="#1D3C49" stroke-width="2" stroke-miterlimit="10" stroke-linecap="round" stroke-linejoin="round"/>
<path d="M24.9 28.3L30.2 42.9001H24.3L18.9 47L13 30.7001" stroke="#1D3C49" stroke-width="2" stroke-miterlimit="10" stroke-linecap="round" stroke-linejoin="round"/>
<path d="M15.9 39.2L13.1 47L8.59999 43.2999L1.79999 42.9L7.19999 28.2" stroke="#1D3C49" stroke-width="2" stroke-miterlimit="10" stroke-linecap="round" stroke-linejoin="round"/>
</svg>
