<svg width="32" height="48" viewBox="0 0 32 48" fill="none" xmlns="http://www.w3.org/2000/svg"><path d="M30.7 12.9c.2 1 .3 2 .3 3.1 0 8.3-6.7 15-15 15S1 24.3 1 16 7.7 1 16 1c2.5 0 4.9.6 7 1.7" stroke="#1D3C49" stroke-width="2" stroke-miterlimit="10" stroke-linecap="round"/><path d="M29.3 8.6L25.7 5 12.4 18.3 9 15l-3.5 3.5 6.9 7L29.3 8.6zm-4.4 19.7l5.3 14.6h-5.9L18.9 47 13 30.7m2.9 8.5L13.1 47l-4.5-3.7-6.8-.4 5.4-14.7" stroke="#1D3C49" stroke-width="2" stroke-miterlimit="10" stroke-linecap="round" stroke-linejoin="round"/></svg>