<svg width="48" height="39" viewBox="0 0 48 39" fill="none" xmlns="http://www.w3.org/2000/svg"><path d="M47 1H1v37h46V1z" stroke="#1D3C49" stroke-width="2" stroke-miterlimit="10" stroke-linecap="round" stroke-linejoin="round"/><path d="M5.5 6.5c0 .6-.4 0-1 0s-1 .6-1 0 .4-1 1-1 1 .4 1 1zm3 0c0 .6-.4 0-1 0s-1 .6-1 0 .4-1 1-1 1 .4 1 1zm3 0c0 .6-.4 0-1 0s-1 .6-1 0 .4-1 1-1 1 .4 1 1z" fill="#353535" stroke="#1D3C49" stroke-miterlimit="10"/><path d="M15 6h32M19.8 21.6l2.7 2.8 8.8-10.1" stroke="#1D3C49" stroke-width="2" stroke-miterlimit="10" stroke-linecap="round" stroke-linejoin="round"/><path d="M31.4 20.3c.6 4.4-2.5 8.5-6.9 9.1-4.4.6-8.4-2.6-9-7-.6-4.4 2.5-8.5 6.9-9.1 1.4-.2 2.8 0 4 .5" stroke="#1D3C49" stroke-width="2" stroke-miterlimit="10" stroke-linecap="round" stroke-linejoin="round"/></svg>