<svg xmlns="http://www.w3.org/2000/svg" viewBox="0 0 7.541 13.947"><defs><style>.a{fill:#0067b8;}</style></defs><g transform="translate(-22.077)"><path class="a" d="M29.334,0,27.525,0A3.176,3.176,0,0,0,24.18,3.432V5.015H22.361a.284.284,0,0,0-.284.285V7.593a.284.284,0,0,0,.284.284H24.18v5.786a.284.284,0,0,0,.284.284h2.373a.284.284,0,0,0,.284-.284V7.877h2.126a.284.284,0,0,0,.284-.284V5.3a.285.285,0,0,0-.285-.285H27.121V3.673c0-.645.154-.972.994-.972h1.218a.284.284,0,0,0,.284-.284V.287A.284.284,0,0,0,29.334,0Z" transform="translate(0)"/></g></svg>