<svg xmlns="http://www.w3.org/2000/svg" viewBox="0 0 20.998 38.838"><defs><style>.a{fill:#fff;}</style></defs><g transform="translate(-22.077)"><path class="a" d="M42.284.008,37.248,0c-5.658,0-9.315,3.752-9.315,9.558v4.407H22.869a.792.792,0,0,0-.792.792v6.385a.792.792,0,0,0,.792.792h5.064V38.046a.792.792,0,0,0,.792.792h6.607a.792.792,0,0,0,.792-.792V21.934h5.921a.792.792,0,0,0,.792-.792l0-6.385a.793.793,0,0,0-.792-.792H36.123V10.229c0-1.8.428-2.707,2.767-2.707h3.393a.792.792,0,0,0,.792-.792V.8A.792.792,0,0,0,42.284.008Z" transform="translate(0)"/></g></svg>