<svg xmlns="http://www.w3.org/2000/svg" viewBox="0 0 60 60"><defs><style>.a{fill:#fff;}</style></defs><path class="a" d="M41.25,0H18.75A18.752,18.752,0,0,0,0,18.75v22.5A18.752,18.752,0,0,0,18.75,60h22.5A18.752,18.752,0,0,0,60,41.25V18.75A18.752,18.752,0,0,0,41.25,0ZM54.375,41.25A13.139,13.139,0,0,1,41.25,54.375H18.75A13.139,13.139,0,0,1,5.625,41.25V18.75A13.139,13.139,0,0,1,18.75,5.625h22.5A13.139,13.139,0,0,1,54.375,18.75Z"/><g transform="translate(15 15)"><path class="a" d="M143,128a15,15,0,1,0,15,15A15,15,0,0,0,143,128Zm0,24.375A9.375,9.375,0,1,1,152.375,143,9.388,9.388,0,0,1,143,152.375Z" transform="translate(-128 -128)"/></g><g transform="translate(44.126 11.876)"><circle class="a" cx="1.999" cy="1.999" r="1.999"/></g></svg>