<svg xmlns="http://www.w3.org/2000/svg" viewBox="0 0 12 12"><defs><style>.a{fill:#0067b8;}</style></defs><path class="a" d="M8.25,0H3.75A3.75,3.75,0,0,0,0,3.75v4.5A3.75,3.75,0,0,0,3.75,12h4.5A3.75,3.75,0,0,0,12,8.25V3.75A3.75,3.75,0,0,0,8.25,0Zm2.625,8.25A2.628,2.628,0,0,1,8.25,10.875H3.75A2.628,2.628,0,0,1,1.125,8.25V3.75A2.628,2.628,0,0,1,3.75,1.125h4.5A2.628,2.628,0,0,1,10.875,3.75Z"/><g transform="translate(3 3)"><path class="a" d="M131,128a3,3,0,1,0,3,3A3,3,0,0,0,131,128Zm0,4.875A1.875,1.875,0,1,1,132.875,131,1.878,1.878,0,0,1,131,132.875Z" transform="translate(-128 -128)"/></g><g transform="translate(8.825 2.375)"><circle class="a" cx="0.4" cy="0.4" r="0.4"/></g></svg>