<svg xmlns="http://www.w3.org/2000/svg" viewBox="0 0 14.093 13.467"><defs><style>.a{fill:#0067b8;}</style></defs><g transform="translate(0 -9.558)"><path class="a" d="M14.093,17.814v5.21H11.072V18.163c0-1.221-.437-2.055-1.53-2.055a1.653,1.653,0,0,0-1.55,1.1,2.067,2.067,0,0,0-.1.736v5.074H4.87s.041-8.233,0-9.086H7.892v1.288l-.02.029h.02v-.029a3,3,0,0,1,2.723-1.5C12.6,13.725,14.093,15.023,14.093,17.814ZM1.71,9.558a1.575,1.575,0,1,0-.04,3.14h.02a1.575,1.575,0,1,0,.02-3.14ZM.179,23.025H3.2V13.938H.179Z" transform="translate(0 0)"/></g></svg>