<svg xmlns="http://www.w3.org/2000/svg" viewBox="0 0 17 13.809"><defs><style>.a{fill:#0067b8;}</style></defs><g transform="translate(-0.001 -57.441)"><g transform="translate(0.001 57.441)"><path class="a" d="M17,59.075a6.964,6.964,0,0,1-2,.549A3.5,3.5,0,0,0,16.531,57.7a7.031,7.031,0,0,1-2.216.847,3.49,3.49,0,0,0-5.943,3.179,9.9,9.9,0,0,1-7.188-3.644,3.491,3.491,0,0,0,1.079,4.655A3.488,3.488,0,0,1,.685,62.3v.044a3.491,3.491,0,0,0,2.8,3.42,3.533,3.533,0,0,1-.919.122,3.347,3.347,0,0,1-.657-.065,3.489,3.489,0,0,0,3.257,2.422,7,7,0,0,1-4.331,1.49A7.413,7.413,0,0,1,0,69.681,9.858,9.858,0,0,0,5.347,71.25a9.854,9.854,0,0,0,9.922-9.922l-.012-.451A6.964,6.964,0,0,0,17,59.075Z" transform="translate(-0.001 -57.441)"/></g></g></svg>