<svg id="noun_documents_834162" xmlns="http://www.w3.org/2000/svg" viewBox="0 0 59.273 67.89">
  <defs>
    <style>
      .cls-1 {
        fill: #fff;
      }
    </style>
  </defs>
  <g id="Group_302" data-name="Group 302" transform="translate(7.572 8.182)">
    <path id="Path_502" data-name="Path 502" class="cls-1" d="M24.782,24.978H14.076A2.155,2.155,0,0,1,11.9,22.8V13.576A2.155,2.155,0,0,1,14.076,11.4H24.869a2.155,2.155,0,0,1,2.176,2.176V22.8A2.288,2.288,0,0,1,24.782,24.978ZM14.511,22.367h9.922V14.011H14.511Z" transform="translate(-11.9 -11.4)"/>
  </g>
  <g id="Group_303" data-name="Group 303" transform="translate(7.572 25.241)">
    <path id="Path_503" data-name="Path 503" class="cls-1" d="M42.1,33.611h-28.9a1.306,1.306,0,1,1,0-2.611H42.1a1.306,1.306,0,0,1,0,2.611Z" transform="translate(-11.9 -31)"/>
  </g>
  <g id="Group_304" data-name="Group 304" transform="translate(7.572 31.073)">
    <path id="Path_504" data-name="Path 504" class="cls-1" d="M42.1,40.311h-28.9a1.306,1.306,0,1,1,0-2.611H42.1a1.306,1.306,0,0,1,0,2.611Z" transform="translate(-11.9 -37.7)"/>
  </g>
  <g id="Group_305" data-name="Group 305" transform="translate(7.572 36.991)">
    <path id="Path_505" data-name="Path 505" class="cls-1" d="M42.1,47.111h-28.9a1.306,1.306,0,1,1,0-2.611H42.1a1.306,1.306,0,0,1,0,2.611Z" transform="translate(-11.9 -44.5)"/>
  </g>
  <g id="Group_306" data-name="Group 306" transform="translate(7.572 42.823)">
    <path id="Path_506" data-name="Path 506" class="cls-1" d="M30.526,53.811H13.206a1.306,1.306,0,1,1,0-2.611H30.526a1.306,1.306,0,1,1,0,2.611Z" transform="translate(-11.9 -51.2)"/>
  </g>
  <path id="Path_507" data-name="Path 507" class="cls-1" d="M58.992,14.185H56.207V11.574a3.492,3.492,0,0,0-3.482-3.482H49.94V5.482A3.492,3.492,0,0,0,46.458,2H6.682A3.492,3.492,0,0,0,3.2,5.482V54.223A3.492,3.492,0,0,0,6.682,57.7H9.467v2.611A3.492,3.492,0,0,0,12.948,63.8h2.785v2.611a3.492,3.492,0,0,0,3.482,3.482H58.992a3.492,3.492,0,0,0,3.482-3.482V17.667A3.492,3.492,0,0,0,58.992,14.185ZM13.384,56.4H46.458a2.155,2.155,0,0,0,2.176-2.176v-42.3H52.29V59.881H13.384ZM7.117,53.788V5.83H46.023V53.788Zm12.534,8.7H52.725A2.155,2.155,0,0,0,54.9,60.316V18.1h3.656V66.061H19.65Z" transform="translate(-3.2 -2)"/>
</svg>
