<svg xmlns="http://www.w3.org/2000/svg" viewBox="0 0 13.744 13.744">
  <defs>
    <style>
      .cls-1 {
        fill: #fff;
      }
    </style>
  </defs>
  <path id="enter" class="cls-1" d="M13.744,2.148V11.6A2.15,2.15,0,0,1,11.6,13.744H6.2A2.15,2.15,0,0,1,4.053,11.6V10.523a.537.537,0,1,1,1.074,0V11.6A1.075,1.075,0,0,0,6.2,12.67h5.4A1.075,1.075,0,0,0,12.67,11.6V2.148A1.075,1.075,0,0,0,11.6,1.074H6.2A1.075,1.075,0,0,0,5.127,2.148V3.221a.537.537,0,0,1-1.074,0V2.148A2.15,2.15,0,0,1,6.2,0h5.4A2.15,2.15,0,0,1,13.744,2.148ZM6.064,8.263a.537.537,0,0,0,.756.762l1.212-1.2a1.338,1.338,0,0,0,0-1.9l-1.212-1.2a.537.537,0,1,0-.756.762l.86.854H.537a.537.537,0,1,0,0,1.074H6.925Zm0,0"/>
</svg>
