<svg id="noun_partners_1172130" xmlns="http://www.w3.org/2000/svg" viewBox="0 0 70.273 57.855">
  <defs>
    <style>
      .cls-1 {
        fill: #fff;
      }
    </style>
  </defs>
  <g id="Group_301" data-name="Group 301" transform="translate(0 0)">
    <path id="Path_501" data-name="Path 501" class="cls-1" d="M69.689,18.91,55.517,4.738a1.412,1.412,0,0,0-2.045,0L48.5,9.706a8.35,8.35,0,0,1-2.338,1.607h0l-3.214-.877a14.933,14.933,0,0,0-8.766.438,14.436,14.436,0,0,0-5.113,3.214,14.99,14.99,0,0,0-2.045-.584,9.665,9.665,0,0,1-5.406-2.776L16.655,5.761a1.412,1.412,0,0,0-2.045,0L.438,19.933a1.412,1.412,0,0,0,0,2.045l4.967,4.967a9.665,9.665,0,0,1,2.776,5.406A15.162,15.162,0,0,0,9.789,36.88L8.035,38.925a5.118,5.118,0,0,0,3.945,8.328h.584a4.99,4.99,0,0,0,1.9,3.506,5.105,5.105,0,0,0,3.214,1.169h.584a4.99,4.99,0,0,0,1.9,3.506A5.105,5.105,0,0,0,23.376,56.6h.584a4.7,4.7,0,0,0,1.9,3.36,5,5,0,0,0,6.428,0l.584.584a5.566,5.566,0,0,0,3.8,1.607,5.147,5.147,0,0,0,3.36-1.315,5.254,5.254,0,0,0,1.607-3.068c.292,0,.584.146.877.146a5.1,5.1,0,0,0,3.506-1.461,3.765,3.765,0,0,0,1.169-1.9,5.268,5.268,0,0,0,2.922.877,4.532,4.532,0,0,0,3.506-1.461,5.072,5.072,0,0,0,1.461-3.652h.146a5.147,5.147,0,0,0,3.36-1.315,4.748,4.748,0,0,0,1.607-3.652A4.846,4.846,0,0,0,58.731,41.7L57.27,40.24l1.607-1.607A13.066,13.066,0,0,0,62.53,31.62a9.665,9.665,0,0,1,2.776-5.406l4.967-4.967A3.148,3.148,0,0,0,69.689,18.91ZM10.665,43.893a2.084,2.084,0,0,1-.292-2.922l4.383-5.26a2.346,2.346,0,0,1,1.607-.73,2.039,2.039,0,0,1,1.315.438,2.084,2.084,0,0,1,.292,2.922L13.587,43.6A2.069,2.069,0,0,1,10.665,43.893Zm5.552,4.529a2.084,2.084,0,0,1-.292-2.922l4.383-5.26h0l2.338-2.776a2.346,2.346,0,0,1,1.607-.73,2.04,2.04,0,0,1,1.315.438,1.8,1.8,0,0,1,.73,1.461,2.945,2.945,0,0,1-.438,1.607l-.73.877h0l-5.844,7.159A2.419,2.419,0,0,1,16.217,48.422ZM21.769,53.1a1.8,1.8,0,0,1-.73-1.461,2.945,2.945,0,0,1,.438-1.607L27.32,42.87a2.346,2.346,0,0,1,1.607-.73,2.039,2.039,0,0,1,1.315.438,1.8,1.8,0,0,1,.73,1.461,2.945,2.945,0,0,1-.438,1.607L24.691,52.8A2.4,2.4,0,0,1,21.769,53.1Zm5.552,4.529a1.8,1.8,0,0,1-.73-1.461,2.945,2.945,0,0,1,.438-1.607l4.383-5.26a2.346,2.346,0,0,1,1.607-.73,2.039,2.039,0,0,1,1.315.438,1.8,1.8,0,0,1,.73,1.461,2.945,2.945,0,0,1-.438,1.607l-4.383,5.26A2.069,2.069,0,0,1,27.32,57.626Zm10.227.877a2.277,2.277,0,0,1-3.068-.292l-.584-.584,2.63-3.36,1.169,1.169a2.2,2.2,0,0,1,.584,1.607A2.325,2.325,0,0,1,37.547,58.5Zm18.7-11.98a2.277,2.277,0,0,1-3.068-.292l-15.048-14.9a1.446,1.446,0,1,0-2.045,2.045L51.134,48.422h0l.146.146a2.169,2.169,0,0,1-3.068,3.068l-5.7-5.7-9.5-9.5a1.412,1.412,0,0,0-2.045,0h0a1.412,1.412,0,0,0,0,2.045l9.5,9.5L43.683,51.2a1.876,1.876,0,0,1,.584,1.461,2.232,2.232,0,0,1-.584,1.461,2.118,2.118,0,0,1-3.068,0l-2.63-2.63a4.5,4.5,0,0,0,.146-1.461,4.7,4.7,0,0,0-1.9-3.36,4.8,4.8,0,0,0-2.338-1.023,4.206,4.206,0,0,0,.146-1.9,4.7,4.7,0,0,0-1.9-3.36,5.641,5.641,0,0,0-2.922-1.169v-.877a4.7,4.7,0,0,0-1.9-3.36,5,5,0,0,0-6.428,0,5.559,5.559,0,0,0-1.315-1.9,5.105,5.105,0,0,0-3.214-1.169,5.371,5.371,0,0,0-3.945,1.9l-.584.73a8.869,8.869,0,0,1-.73-2.63A13.066,13.066,0,0,0,7.451,24.9L3.506,20.955,15.633,8.829l3.945,3.945a13.066,13.066,0,0,0,7.013,3.652h0l-5.844,5.406a3.893,3.893,0,0,0-1.315,2.922A4.715,4.715,0,0,0,20.6,27.822a4.219,4.219,0,0,0,5.113.877l6.867-3.506a4.856,4.856,0,0,1,3.214-.438,4.533,4.533,0,0,1,2.63,1.315L56.54,43.6a2.2,2.2,0,0,1,.584,1.607A2.628,2.628,0,0,1,56.248,46.522Zm6.428-22.791a13.066,13.066,0,0,0-3.652,7.013,9.665,9.665,0,0,1-2.776,5.406l-1.607,1.607L40.177,23.731a7.3,7.3,0,0,0-4.091-2.045,8.8,8.8,0,0,0-5.113.73l-6.867,3.506A1.334,1.334,0,0,1,22.5,25.63a.9.9,0,0,1-.292-1.023.883.883,0,0,1,.438-.877l8.474-7.743a11.823,11.823,0,0,1,11.25-2.922l3.214.877h.292a1.1,1.1,0,0,0,1.315,0A11.787,11.787,0,0,0,50.7,11.459l3.945-3.945L66.767,19.64Z" transform="translate(0 -4.3)"/>
  </g>
</svg>
