<svg xmlns="http://www.w3.org/2000/svg" viewBox="0 0 45.346 62.285">
  <defs>
    <style>
      .cls-1 {
        fill: none;
        stroke: #fff;
        stroke-linecap: round;
        stroke-linejoin: round;
        stroke-width: 3px;
      }
    </style>
  </defs>
  <g id="noun_padlock_1702263" transform="translate(1.5 1.5)">
    <g id="Group_307" data-name="Group 307" transform="translate(0 0)">
      <path id="Path_508" data-name="Path 508" class="cls-1" d="M41.173,960.362c-9.166,0-16.541,7.732-16.541,17.333v6.988A6.1,6.1,0,0,0,20,990.659V1013.5a6.074,6.074,0,0,0,6.017,6.144H56.329a6.074,6.074,0,0,0,6.017-6.144V990.659a6.1,6.1,0,0,0-4.632-5.975V977.7C57.714,968.094,50.339,960.362,41.173,960.362Zm0,6.735A10.6,10.6,0,0,1,51.76,977.759v6.9H30.586v-6.9A10.6,10.6,0,0,1,41.173,967.1Zm0,26.2a4.681,4.681,0,0,1,4.632,4.729A4.762,4.762,0,0,1,43.7,1002a2.758,2.758,0,0,1,.124.76v5.4a2.647,2.647,0,1,1-5.293,0v-5.4a2.76,2.76,0,0,1,.124-.76,4.762,4.762,0,0,1-2.109-3.969A4.681,4.681,0,0,1,41.173,993.3Z" transform="translate(-20 -960.362)"/>
    </g>
  </g>
</svg>
