<svg xmlns="http://www.w3.org/2000/svg" viewBox="0 0 20.42 15.271">
  <defs>
    <style>
      .cls-1 {
        fill: #0067b8;
        fill-rule: evenodd;
      }
    </style>
  </defs>
  <g id="noun_Save_Money_1919531" data-name="noun_Save Money_1919531" transform="translate(-0.265 0.008)">
    <g id="Group_336" data-name="Group 336" transform="translate(0.265 -0.008)">
      <path id="Path_622" data-name="Path 622" class="cls-1" d="M.8,4.481,11.985.062a.825.825,0,0,1,1.1.552l.207.9L18.545-.007l2.141,7.388-.829.276.276,1.036L16.542,9.729l.552,2.071a.858.858,0,0,1-.621,1.1l-12.5,2.348a1.256,1.256,0,0,1-1.1-.552v-.069h0v-.069H2.8v-.069h0v-.069h0L.316,5.793C.178,5.31.316,4.619.8,4.481ZM13.435,2l.207.552L1.42,4.826c-.345.069-.414.483-.207.552L13.642,3.1a.992.992,0,0,1,1.174.76l1.243,4.35,4.074-1.174L18.2.614Zm2.762,6.7.207.552,3.176-.9-.207-.621Zm.552-3.176-.207-.76c-.483,0-.829-.138-.967-.621a.677.677,0,0,1,.483-.9l-.069-.207.276-.069.069.207c.414-.069.76,0,.9.414l-.414.207a1.212,1.212,0,0,0-.345-.276l.207.76c.483-.069.9,0,1.036.483a.939.939,0,0,1-.552,1.1l.069.207-.276.069-.069-.207a.86.86,0,0,1-1.036-.552l.483-.207C16.4,5.379,16.542,5.448,16.749,5.517ZM16.2,3.583c-.138.138-.207.276-.138.414,0,.138.138.207.276.207Zm.829,1.864a.357.357,0,0,0,.207-.483c-.069-.207-.207-.207-.414-.207Z" transform="translate(-0.265 0.008)"/>
    </g>
  </g>
</svg>
