<svg xmlns="http://www.w3.org/2000/svg" viewBox="0 0 19.973 23.542">
  <defs>
    <style>
      .cls-1 {
        fill: #0071e0;
      }
    </style>
  </defs>
  <g id="noun_support_818016" transform="translate(-8.412 -1)">
    <path id="Path_621" data-name="Path 621" class="cls-1" d="M17.655,24.473a1.739,1.739,0,0,1-2.162-1.2l-.454-1.629H12.569a2.4,2.4,0,0,1-2.4-2.4V16.8l-.637-.211a1.633,1.633,0,0,1-.978-2.215L9.9,11.346a3.029,3.029,0,0,0,.264-1.239A9.128,9.128,0,0,1,16.333,1.48q.135.922.24,1.883a7.276,7.276,0,0,0-4.545,6.726,4.864,4.864,0,0,1-.423,1.991l-1.263,2.832.771.259a1.321,1.321,0,0,1,.908,1.256v2.827a.548.548,0,0,0,.548.548h3.86l.819,2.882,8.27-2.361-1.369-4.8.368-.382A7.249,7.249,0,0,0,23.206,4q-.086-1.124-.216-2.21A9.1,9.1,0,0,1,26.213,16l1.112,3.9a1.741,1.741,0,0,1-1.2,2.162ZM16.2,15.5a1.35,1.35,0,1,0,.649,1.273A7,7,0,0,0,19.422,14,3.055,3.055,0,0,0,21.7,8.473a55.881,55.881,0,0,0-.48-7.261,8.977,8.977,0,0,0-1.3-.187Q19.6,1,19.278,1a9.281,9.281,0,0,0-1.3.091,51.4,51.4,0,0,1,.536,7.225,3.053,3.053,0,0,0-.4,5.09A5.409,5.409,0,0,1,16.2,15.5Z" transform="translate(0 0)"/>
  </g>
</svg>
