<svg id="noun_task_45371" xmlns="http://www.w3.org/2000/svg" viewBox="0 0 82.302 37.755">
  <defs>
    <style>
      .cls-1 {
        fill: #fff;
      }
    </style>
  </defs>
  <path id="Path_509" data-name="Path 509" class="cls-1" d="M37.8,1.281,17.822,21.194,9.483,12.734,5.826,16.351,15.973,26.639,17.8,28.468l1.829-1.829,21.8-21.721L37.795,1.282ZM2.25,3.029A2.223,2.223,0,0,0,0,5.28V36.786a2.223,2.223,0,0,0,2.25,2.25H33.757a2.223,2.223,0,0,0,2.25-2.25V13.377l-2.572,2.572V36.464H2.572V5.6H30.341l2.572-2.572Zm41.473,7.716v2.572H82.3V10.745Zm0,7.716v2.572H75.872V18.461Zm0,7.716v2.572H78.444V26.177Z" transform="translate(0 -1.281)"/>
</svg>
