<svg xmlns="http://www.w3.org/2000/svg" viewBox="0 0 27.954 28.303">
  <defs>
    <style>
      .cls-1 {
        fill: #393939;
      }
    </style>
  </defs>
  <g id="noun_tech_support_217774_1_" data-name="noun_tech support_217774 (1)" transform="translate(-15.692 -7.442)">
    <g id="Group_337" data-name="Group 337" transform="translate(15.692 7.442)">
      <path id="Path_623" data-name="Path 623" class="cls-1" d="M35.636,29.866q-2.824-2.83-5.655-5.655a1.03,1.03,0,0,0-1.668.009q-.6.568-1.154,1.184l-.4-.4-.423.423.43.43c-.289.337-.572.68-.843,1.036a9.022,9.022,0,0,1-1.54-.721,21.068,21.068,0,0,1-5.659-5.02A12.7,12.7,0,0,1,16.6,17.607c-.007-.017-.01-.03-.013-.04a.4.4,0,0,1,.034-.028c.359-.274.69-.544,1.009-.814l.451.451.423-.423-.419-.419c.4-.358.774-.717,1.118-1.08.662-.7.657-1.165-.022-1.841q-2.8-2.786-5.6-5.57a.985.985,0,0,0-1.574-.016q-.612.6-1.212,1.217l-.39-.39-.423.423.406.406a9.585,9.585,0,0,0-2.07,4.006,4.189,4.189,0,0,0,.122,2.655A22.763,22.763,0,0,0,9.816,19.12,37.711,37.711,0,0,0,21.792,32.1,25.17,25.17,0,0,0,27.3,35.018a6.309,6.309,0,0,0,1.334.354l.033,0H28.7a9.958,9.958,0,0,0,4.229-1.46A8.175,8.175,0,0,0,34,33.091l.433.433.423-.423-.418-.418q.313-.3.614-.611c.191-.194.382-.388.577-.578a1.167,1.167,0,0,0,.424-.808A1.181,1.181,0,0,0,35.636,29.866Zm-23-21.4c.089-.088.138-.115.14-.123a.667.667,0,0,1,.17.136q2.8,2.784,5.6,5.569c.21.21.24.285.251.273a1.1,1.1,0,0,1-.247.314c-.337.356-.7.709-1.1,1.062l-6.02-6.019Q12.031,9.067,12.64,8.467Zm19.808,24.69a9.172,9.172,0,0,1-3.732,1.32,5.672,5.672,0,0,1-1.11-.3,24.345,24.345,0,0,1-5.314-2.824A36.824,36.824,0,0,1,10.6,18.681a21.947,21.947,0,0,1-1.319-2.86,3.278,3.278,0,0,1-.091-2.1,8.739,8.739,0,0,1,1.837-3.6L17,16.089c-.29.244-.591.489-.917.737a.878.878,0,0,0-.317,1.1,13.579,13.579,0,0,0,2.261,3.794,21.944,21.944,0,0,0,5.9,5.228,9.976,9.976,0,0,0,1.758.815.757.757,0,0,0,.919-.281c.253-.337.522-.664.8-.987l5.964,5.963A7.246,7.246,0,0,1,32.448,33.157ZM35,30.85c-.2.194-.4.393-.591.592s-.406.409-.608.6l-6.009-6.008c.364-.4.743-.794,1.137-1.167.154-.146.221-.179.218-.186a.754.754,0,0,1,.2.161Q32.177,27.67,35,30.5a.873.873,0,0,1,.148.179A.83.83,0,0,1,35,30.85Z" transform="translate(-8.098 -7.442)"/>
      <path id="Path_624" data-name="Path 624" class="cls-1" d="M43.36,24.715q1.373-1.224,2.743-2.451l1.263-1.129a.819.819,0,0,1,.075-.065A1.632,1.632,0,0,0,48.074,19a3.707,3.707,0,0,1,2.315-4.476,5.91,5.91,0,0,1,1.122-.288c-.22.467-.446.933-.671,1.4l-.312.646a1.811,1.811,0,0,0,.541,2.493,3.967,3.967,0,0,0,2.122.909,1.748,1.748,0,0,0,1.9-1.1q.5-1.056,1-2.11l.023-.048,0-.009a3.9,3.9,0,0,1,.422,3.7,3.519,3.519,0,0,1-2.931,2.3l-.1.016c-.061.01-.122.021-.183.025s-.141,0-.212,0h-.126a3.8,3.8,0,0,1-1.232-.163,1.172,1.172,0,0,0-1.328.4q-.919,1.04-1.85,2.07l-1.137,1.268c-.442.494-.885.988-1.321,1.486l.676.591c.434-.5.874-.987,1.314-1.478l1.136-1.267q.93-1.036,1.854-2.076c.161-.182.237-.181.386-.134a4.668,4.668,0,0,0,1.512.2h.1c.1,0,.19,0,.285,0s.179-.02.269-.035l.088-.014a4.408,4.408,0,0,0,3.631-2.847,4.885,4.885,0,0,0-.635-4.758.734.734,0,0,0-.6-.359.771.771,0,0,0-.647.36,2.212,2.212,0,0,0-.185.335l-.021.044q-.5,1.056-1.006,2.113a.863.863,0,0,1-1.006.594,3.09,3.09,0,0,1-1.645-.715.95.95,0,0,1-.294-1.4l.312-.645c.259-.537.519-1.074.772-1.615a.72.72,0,0,0-.791-1.1,6.913,6.913,0,0,0-1.551.368,4.624,4.624,0,0,0-2.859,5.6c.191.582.057.8-.3,1.052a1.692,1.692,0,0,0-.162.135L45.5,21.595q-1.37,1.226-2.742,2.45Z" transform="translate(-31.193 -11.357)"/>
      <path id="Path_625" data-name="Path 625" class="cls-1" d="M15.756,68.96c-.725.814-1.475,1.655-2.23,2.461A2.643,2.643,0,0,1,10.581,72a2.776,2.776,0,0,1-1.714-2.538,2.65,2.65,0,0,1,.8-1.914c.8-.741,1.63-1.482,2.433-2.2q.7-.626,1.4-1.254l-.6-.666q-.7.629-1.4,1.251c-.805.719-1.637,1.462-2.445,2.209A3.528,3.528,0,0,0,7.97,69.45a3.68,3.68,0,0,0,2.264,3.384,3.634,3.634,0,0,0,1.405.283,3.478,3.478,0,0,0,2.541-1.08c.764-.815,1.517-1.66,2.246-2.478q.618-.694,1.24-1.385l-.666-.6Q16.375,68.261,15.756,68.96Z" transform="translate(-7.97 -44.813)"/>
      <path id="Path_626" data-name="Path 626" class="cls-1" d="M15.125,77.935a1.546,1.546,0,1,0,1.546-1.546A1.548,1.548,0,0,0,15.125,77.935Zm2.494,0a.948.948,0,1,1-.948-.948A.949.949,0,0,1,17.619,77.935Z" transform="translate(-12.746 -53.461)"/>
    </g>
  </g>
</svg>
