<svg id="noun_Time_990548" xmlns="http://www.w3.org/2000/svg" viewBox="0 0 47.802 59.455">
  <defs>
    <style>
      .cls-1 {
        fill: #fff;
      }
    </style>
  </defs>
  <g id="Group_308" data-name="Group 308" transform="translate(0 0)">
    <path id="Path_510" data-name="Path 510" class="cls-1" d="M39.65,29.7A19.615,19.615,0,1,0,59.266,49.318,19.638,19.638,0,0,0,39.65,29.7Zm0,38.034A18.418,18.418,0,1,1,58.069,49.318,18.44,18.44,0,0,1,39.65,67.737Z" transform="translate(-16.05 -13.466)"/>
    <path id="Path_511" data-name="Path 511" class="cls-1" d="M41.934,17.918V15.148h.492a2.4,2.4,0,0,0,2.395-2.394V7.667a2.4,2.4,0,0,0-2.395-2.394H32.852a2.4,2.4,0,0,0-2.395,2.394v5.087a2.4,2.4,0,0,0,2.395,2.394h.492v2.771a23.6,23.6,0,1,0,8.59,0Zm-9.082-3.968a1.2,1.2,0,0,1-1.2-1.2V7.667a1.2,1.2,0,0,1,1.2-1.2h9.575a1.2,1.2,0,0,1,1.2,1.2v5.087a1.2,1.2,0,0,1-1.2,1.2H32.852ZM37.64,63.53a22.4,22.4,0,0,1-3.6-44.517l.5-.081V15.148h6.2v3.784l.5.081a22.4,22.4,0,0,1-3.6,44.517Z" transform="translate(-14.039 -5.273)"/>
    <path id="Path_512" data-name="Path 512" class="cls-1" d="M77.026,32.548a2.17,2.17,0,1,0,3.069-3.068l-6.03-6.031a2.224,2.224,0,0,0-3.069,0,2.171,2.171,0,0,0,0,3.068ZM71.842,24.3a.973.973,0,0,1,1.376,0l6.03,6.031a.972.972,0,0,1,0,1.375,1,1,0,0,1-1.375,0l-6.03-6.031a.972.972,0,0,1,0-1.374Z" transform="translate(-32.928 -11.163)"/>
    <path id="Path_513" data-name="Path 513" class="cls-1" d="M58.792,38.242a14.418,14.418,0,0,1,2.072,1.2l1.552-2.688a17.491,17.491,0,0,0-2.073-1.2Z" transform="translate(-29.047 -15.429)"/>
    <path id="Path_514" data-name="Path 514" class="cls-1" d="M50.141,36.024v-3.1c-.4-.027-.794-.045-1.2-.045s-.8.019-1.2.045v3.1c.4-.033.794-.054,1.2-.054S49.746,35.991,50.141,36.024Z" transform="translate(-25.343 -14.531)"/>
    <path id="Path_515" data-name="Path 515" class="cls-1" d="M34.852,36.753,36.4,39.441a14.314,14.314,0,0,1,2.071-1.2l-1.551-2.686A17.635,17.635,0,0,0,34.852,36.753Z" transform="translate(-21.019 -15.429)"/>
    <path id="Path_516" data-name="Path 516" class="cls-1" d="M71.206,58.612c0,.4-.021.8-.054,1.2h3.1c.027-.4.045-.794.045-1.2s-.018-.8-.045-1.2h-3.1C71.185,57.81,71.206,58.209,71.206,58.612Z" transform="translate(-33.193 -22.759)"/>
    <path id="Path_517" data-name="Path 517" class="cls-1" d="M26.3,58.612c0-.4.021-.8.053-1.2h-3.1c-.027.4-.045.794-.045,1.2s.018.8.045,1.2h3.1C26.324,59.414,26.3,59.015,26.3,58.612Z" transform="translate(-17.115 -22.759)"/>
    <path id="Path_518" data-name="Path 518" class="cls-1" d="M68.56,48.143l2.686-1.551a17.542,17.542,0,0,0-1.2-2.073L67.36,46.071A14.364,14.364,0,0,1,68.56,48.143Z" transform="translate(-31.921 -18.435)"/>
    <path id="Path_519" data-name="Path 519" class="cls-1" d="M25.889,70.011a17.552,17.552,0,0,0,1.2,2.074l2.688-1.553a14.386,14.386,0,0,1-1.2-2.071Z" transform="translate(-18.013 -26.464)"/>
    <path id="Path_520" data-name="Path 520" class="cls-1" d="M58.792,78.229l1.551,2.686a17.489,17.489,0,0,0,2.073-1.2l-1.552-2.688A14.485,14.485,0,0,1,58.792,78.229Z" transform="translate(-29.047 -29.337)"/>
    <path id="Path_521" data-name="Path 521" class="cls-1" d="M25.889,46.592l2.686,1.551a14.379,14.379,0,0,1,1.2-2.071L27.086,44.52A17.428,17.428,0,0,0,25.889,46.592Z" transform="translate(-18.013 -18.435)"/>
    <path id="Path_522" data-name="Path 522" class="cls-1" d="M67.36,70.532l2.689,1.553a17.549,17.549,0,0,0,1.2-2.074l-2.686-1.55A14.328,14.328,0,0,1,67.36,70.532Z" transform="translate(-31.921 -26.464)"/>
    <path id="Path_523" data-name="Path 523" class="cls-1" d="M34.852,79.717a17.543,17.543,0,0,0,2.073,1.2l1.551-2.686a14.442,14.442,0,0,1-2.071-1.2Z" transform="translate(-21.019 -29.337)"/>
    <path id="Path_524" data-name="Path 524" class="cls-1" d="M47.747,80.82v3.1c.4.027.794.046,1.2.046s.8-.019,1.2-.046v-3.1c-.4.033-.793.053-1.2.053S48.142,80.853,47.747,80.82Z" transform="translate(-25.343 -30.609)"/>
    <path id="Path_525" data-name="Path 525" class="cls-1" d="M50.024,50.28l-2.1-10.229-2.1,10.229a3.229,3.229,0,1,0,4.21,0Zm-2.1,4.478a2.03,2.03,0,0,1-1.207-3.665l.184-.136,1.022-4.967,1.022,4.967.184.136a2.03,2.03,0,0,1-1.2,3.665Z" transform="translate(-24.318 -16.936)"/>
  </g>
</svg>
